<svg xmlns="http://www.w3.org/2000/svg" width="181" height="182" viewBox="0 0 181 182">
  <g id="Grupo_159304" data-name="Grupo 159304" transform="translate(-400 -2978)">
    <ellipse id="Elipse_4052" data-name="Elipse 4052" cx="90.5" cy="91" rx="90.5" ry="91" transform="translate(400 2978)" fill="#fff"/>
    <g id="exactitud" transform="translate(440 3018)">
      <g id="Grupo_83355" data-name="Grupo 83355" transform="translate(2.613 2.613)">
        <g id="Grupo_83346" data-name="Grupo 83346" transform="translate(8.065)">
          <path id="Trazado_99898" data-name="Trazado 99898" d="M7,2H71.516V98.774H7Z" transform="translate(-7 -2)" fill="#e6e9ed"/>
        </g>
        <g id="Grupo_83347" data-name="Grupo 83347" transform="translate(66.129 61.29)">
          <path id="Trazado_99899" data-name="Trazado 99899" d="M55.9,43.226v12.9a6.452,6.452,0,0,1-12.9,0v-12.9A3.235,3.235,0,0,1,46.226,40h6.452A3.235,3.235,0,0,1,55.9,43.226Z" transform="translate(-43 -40)" fill="#969faa"/>
        </g>
        <g id="Grupo_83348" data-name="Grupo 83348" transform="translate(67.742 54.355)">
          <path id="Trazado_99900" data-name="Trazado 99900" d="M53.677,35.7v3.71a3.235,3.235,0,0,1-3.226,3.226H47.226A3.235,3.235,0,0,1,44,39.41V35.7a24.436,24.436,0,0,0,9.677,0Z" transform="translate(-44 -35.7)" fill="#ccd1d9"/>
        </g>
        <g id="Grupo_83349" data-name="Grupo 83349" transform="translate(48.387 6.452)">
          <path id="Trazado_99901" data-name="Trazado 99901" d="M56.194,6a24.2,24.2,0,0,1,4.839,47.9,24.436,24.436,0,0,1-9.677,0A24.2,24.2,0,0,1,56.194,6Z" transform="translate(-32 -6)" fill="#25ffff"/>
        </g>
        <g id="Grupo_83350" data-name="Grupo 83350" transform="translate(54.715 12.47)">
          <ellipse id="Elipse_4074" data-name="Elipse 4074" cx="17.603" cy="18.189" rx="17.603" ry="18.189" transform="translate(0 0)" fill="#ccf8ff"/>
        </g>
        <g id="Grupo_83351" data-name="Grupo 83351" transform="translate(0 38.71)">
          <path id="Trazado_99902" data-name="Trazado 99902" d="M53.613,46.968v9.677l-4.1,1.306a23.434,23.434,0,0,1-2,4.871l1.968,3.806-6.855,6.839-3.806-1.952a23.434,23.434,0,0,1-4.871,2l-1.306,4.1H22.968l-1.306-4.1a23.433,23.433,0,0,1-4.871-2l-3.806,1.952-2.919-2.9L6.129,66.629,8.1,62.823a23.434,23.434,0,0,1-2-4.871L2,56.645V46.968l4.1-1.306a23.434,23.434,0,0,1,2-4.871L6.129,36.984l3.935-3.935,2.919-2.919L16.79,32.1a23.434,23.434,0,0,1,4.871-2L22.968,26h9.677l1.306,4.1a23.434,23.434,0,0,1,4.871,2l3.806-1.968,6.855,6.855L47.516,40.79a23.434,23.434,0,0,1,2,4.871Z" transform="translate(-2 -26)" fill="#e4daf7"/>
        </g>
        <g id="Grupo_83352" data-name="Grupo 83352" transform="translate(14.516 6.452)">
          <path id="Trazado_99903" data-name="Trazado 99903" d="M11,6H40.032V18.9H11Z" transform="translate(-11 -6)" fill="#ad84ff"/>
        </g>
        <g id="Grupo_83353" data-name="Grupo 83353" transform="translate(10.122 48.848)">
          <circle id="Elipse_4075" data-name="Elipse 4075" cx="15.842" cy="15.842" r="15.842" transform="translate(0 0)" fill="#ccf8ff"/>
        </g>
        <g id="Grupo_83354" data-name="Grupo 83354" transform="translate(19.511 58.236)">
          <circle id="Elipse_4076" data-name="Elipse 4076" cx="6.454" cy="6.454" r="6.454" transform="translate(0 0)" fill="#25ffff"/>
        </g>
      </g>
      <g id="Grupo_83356" data-name="Grupo 83356" transform="translate(1 1)">
        <path id="Trazado_99904" data-name="Trazado 99904" d="M24.742,66.484A17.742,17.742,0,1,0,7,48.742,17.763,17.763,0,0,0,24.742,66.484ZM10.321,50.355H16.84a8.09,8.09,0,0,0,6.289,6.289v6.519A14.535,14.535,0,0,1,10.321,50.355ZM24.742,43.9A4.839,4.839,0,1,1,19.9,48.742,4.845,4.845,0,0,1,24.742,43.9Zm1.613,19.26V56.644a8.09,8.09,0,0,0,6.289-6.289h6.519A14.535,14.535,0,0,1,26.355,63.163ZM39.163,47.129H32.644a8.09,8.09,0,0,0-6.289-6.289V34.321A14.535,14.535,0,0,1,39.163,47.129ZM23.129,34.321V40.84a8.09,8.09,0,0,0-6.289,6.289H10.321A14.535,14.535,0,0,1,23.129,34.321Z" transform="translate(2.677 17.387)"/>
        <path id="Trazado_99905" data-name="Trazado 99905" d="M35,28.355A19.355,19.355,0,1,0,54.355,9,19.376,19.376,0,0,0,35,28.355Zm35.484,0A16.129,16.129,0,1,1,54.355,12.226,16.147,16.147,0,0,1,70.484,28.355Z" transform="translate(19.839 3.903)"/>
        <path id="Trazado_99906" data-name="Trazado 99906" d="M81.645,58.215A25.77,25.77,0,0,0,76.806,7.534V1H9.065V47.706L4.777,51.994,6.894,56.1a24.363,24.363,0,0,0-1.482,3.6L1,61.115V73.145l4.41,1.413a24.148,24.148,0,0,0,1.482,3.6L4.776,82.265l4.289,4.287V101H76.806V87.934a8.078,8.078,0,0,0,6.452-7.9v-12.9A4.828,4.828,0,0,0,81,63.05a4.785,4.785,0,0,0,.647-2.373ZM76.806,62.29H73.581a1.613,1.613,0,0,1-1.613-1.613V58.84a23.319,23.319,0,0,0,6.452,0v1.837A1.613,1.613,0,0,1,76.806,62.29ZM97.774,33.258A22.581,22.581,0,1,1,75.194,10.677,22.605,22.605,0,0,1,97.774,33.258ZM10.119,77.352A20.928,20.928,0,0,1,8.261,72.84l-.235-.834-3.8-1.215V63.468l3.8-1.216.235-.834a20.79,20.79,0,0,1,1.86-4.511l.423-.756L8.721,52.611,13.9,47.431l3.539,1.823.756-.423a20.79,20.79,0,0,1,4.511-1.86l.834-.235,1.215-3.8h7.324l1.216,3.8.834.235a20.79,20.79,0,0,1,4.511,1.86l.756.423,3.539-1.823,5.181,5.181L46.3,56.15l.423.756a20.79,20.79,0,0,1,1.86,4.511l.235.834,3.8,1.215V70.79l-3.8,1.216-.235.834a20.928,20.928,0,0,1-1.858,4.511l-.424.755,1.823,3.54-5.181,5.179L39.4,85l-.755.424a20.928,20.928,0,0,1-4.511,1.858l-.834.235-1.215,3.8H24.758l-1.216-3.8-.834-.235A20.928,20.928,0,0,1,18.2,85.429L17.442,85,13.9,86.826,8.721,81.647l1.823-3.54ZM12.29,97.774v-8l.994.994L17.4,88.655a24.148,24.148,0,0,0,3.6,1.482L22.4,94.548H34.435l1.413-4.41a24.15,24.15,0,0,0,3.6-1.482l4.111,2.115,8.506-8.5-2.116-4.111a24.22,24.22,0,0,0,1.482-3.6l4.411-1.416V61.113L51.429,59.7a24.291,24.291,0,0,0-1.482-3.6l2.116-4.111-8.506-8.506L39.445,45.6a24.363,24.363,0,0,0-3.6-1.482L34.434,39.71H22.4l-1.413,4.41A24.29,24.29,0,0,0,17.4,45.6l-4.111-2.116-.994,1V4.226h61.29V7.534a25.77,25.77,0,0,0-4.839,50.681v2.463a4.785,4.785,0,0,0,.647,2.373,4.828,4.828,0,0,0-2.26,4.079v12.9a8.08,8.08,0,0,0,6.452,7.9v9.84ZM80.032,80.032a4.839,4.839,0,1,1-9.677,0v-12.9a1.613,1.613,0,0,1,1.613-1.613h6.452a1.614,1.614,0,0,1,1.613,1.613Z" transform="translate(-1 -1)"/>
        <path id="Trazado_99907" data-name="Trazado 99907" d="M42.574,24.97l-2.281,2.281,5.979,5.979L61.928,17.574l-2.281-2.281L46.272,28.669Z" transform="translate(23.083 7.76)"/>
        <path id="Trazado_99908" data-name="Trazado 99908" d="M10,21.129H42.258V5H10Zm3.226-12.9H39.032V17.9H13.226Z" transform="translate(4.516 1.452)"/>
        <path id="Trazado_99909" data-name="Trazado 99909" d="M10,17h3.226v3.226H10Z" transform="translate(4.516 8.806)"/>
        <path id="Trazado_99910" data-name="Trazado 99910" d="M14,17H38.194v3.226H14Z" transform="translate(6.968 8.806)"/>
        <path id="Trazado_99911" data-name="Trazado 99911" d="M10,21H40.645v3.226H10Z" transform="translate(4.516 11.258)"/>
        <path id="Trazado_99912" data-name="Trazado 99912" d="M33,57H45.9v3.226H33Z" transform="translate(18.613 33.323)"/>
        <path id="Trazado_99913" data-name="Trazado 99913" d="M33,53H45.9v3.226H33Z" transform="translate(18.613 30.871)"/>
      </g>
    </g>
  </g>
</svg>
