<svg xmlns="http://www.w3.org/2000/svg" width="610.839" height="362.875" viewBox="0 0 610.839 362.875">
  <g id="Grupo_84272" data-name="Grupo 84272" transform="translate(-284.694 -957.652)">
    <path id="Trazado_601538" data-name="Trazado 601538" d="M0,0H610.839V362.875H0Z" transform="translate(284.694 957.652)" fill="#eff5fb"/>
    <g id="Grupo_84232" data-name="Grupo 84232" transform="translate(373.694 983.652)">
      <g id="Grupo_84231" data-name="Grupo 84231" transform="translate(57.771 39.311)">
        <path id="Trazado_102468" data-name="Trazado 102468" d="M346.5,520.054H720.524V438" transform="translate(-345.997 -259.294)" fill="none" stroke="#ee6c4d" stroke-linecap="round" stroke-linejoin="round" stroke-width="2"/>
        <line id="Línea_181" data-name="Línea 181" x2="135.917" transform="translate(0 178.202)" fill="none" stroke="#265d99" stroke-linecap="round" stroke-linejoin="round" stroke-width="2"/>
        <line id="Línea_182" data-name="Línea 182" x2="255.725" transform="translate(0 14.095)" fill="none" stroke="#76c2dd" stroke-linecap="round" stroke-linejoin="round" stroke-width="2"/>
        <path id="Trazado_102469" data-name="Trazado 102469" d="M481.5,438.607,601.308,274.5l118.8,165.114Z" transform="translate(-345.08 -260.405)" fill="none" stroke="#afafaf" stroke-linecap="round" stroke-linejoin="round" stroke-width="2"/>
        <line id="Línea_183" data-name="Línea 183" y2="153.033" transform="translate(62.804 19.129)" fill="none" stroke="#afafaf" stroke-linecap="round" stroke-linejoin="round" stroke-width="2"/>
        <path id="Trazado_102470" data-name="Trazado 102470" d="M404.62,281.535h7.572l-3.786-5.152Z" transform="translate(-345.602 -260.392)" fill="#afafaf" stroke="#afafaf" stroke-linecap="round" stroke-linejoin="round" stroke-width="2"/>
        <path id="Trazado_102471" data-name="Trazado 102471" d="M412.192,430.5H404.62l3.786,5.152Z" transform="translate(-345.602 -259.345)" fill="#afafaf" stroke="#afafaf" stroke-linecap="round" stroke-linejoin="round" stroke-width="2"/>
        <rect id="Rectángulo_31867" data-name="Rectángulo 31867" width="57.387" height="12.082" transform="translate(309.576 77.773) rotate(54.827)" fill="#f3f9ff" stroke="#afafaf" stroke-linecap="round" stroke-linejoin="round" stroke-width="2"/>
        <rect id="Rectángulo_31868" data-name="Rectángulo 31868" width="57.387" height="12.082" transform="translate(210.744 85.739) rotate(125.173)" fill="#f3f9ff" stroke="#afafaf" stroke-linecap="round" stroke-linejoin="round" stroke-width="2"/>
        <circle id="Elipse_4128" data-name="Elipse 4128" cx="14.095" cy="14.095" r="14.095" transform="translate(213.944 40.272)" fill="#f3f9ff" stroke="#afafaf" stroke-linecap="round" stroke-linejoin="round" stroke-width="2"/>
        <rect id="Rectángulo_31869" data-name="Rectángulo 31869" width="57.387" height="12.082" transform="translate(227.032 172.162)" fill="#f3f9ff" stroke="#afafaf" stroke-linecap="round" stroke-linejoin="round" stroke-width="2"/>
        <circle id="Elipse_4129" data-name="Elipse 4129" cx="14.095" cy="14.095" r="14.095" transform="translate(107.223)" fill="#f3f9ff" stroke="#afafaf" stroke-linecap="round" stroke-linejoin="round" stroke-width="2"/>
        <path id="Trazado_102481" data-name="Trazado 102481" d="M14.1,0A14.1,14.1,0,1,1,0,14.1,14.1,14.1,0,0,1,14.1,0Z" transform="translate(48.829 81.55)" fill="#f3f9ff" stroke="#afafaf" stroke-linecap="round" stroke-width="2"/>
      </g>
      <text id="L1" transform="translate(35.401 57.521)" fill="#12263f" font-size="18" font-family="Roboto-Bold, Roboto" font-weight="700"><tspan x="-10.037" y="0">L1</tspan></text>
      <text id="L2" transform="translate(35.401 224.188)" fill="#12263f" font-size="18" font-family="Roboto-Bold, Roboto" font-weight="700"><tspan x="-10.037" y="0">L2</tspan></text>
      <text id="A" transform="translate(178.97 57.521)" fill="#12263f" font-size="18" font-family="Roboto-Bold, Roboto" font-weight="700"><tspan x="-6.056" y="0">A</tspan></text>
      <text id="Corriente_de_fase" data-name="Corriente de fase" transform="translate(194.743 74.994)" fill="#12263f" font-size="13" font-family="Roboto-Regular, Roboto"><tspan x="6.148" y="12">Corriente </tspan><tspan x="11.353" y="27">de fase</tspan></text>
      <text id="Corriente_de_línea" data-name="Corriente de línea" transform="translate(145.359)" fill="#12263f" font-size="13" font-family="Roboto-Regular, Roboto"><tspan x="8.148" y="12">Corriente </tspan><tspan x="12.191" y="27">de línea</tspan></text>
      <text id="Voltaje_de_línea" data-name="Voltaje de línea" transform="translate(0 117.329)" fill="#12263f" font-size="13" font-family="Roboto-Regular, Roboto"><tspan x="4.617" y="12">Voltaje de </tspan><tspan x="19.514" y="27">línea</tspan></text>
      <text id="V" transform="translate(120.91 140.982)" fill="#12263f" font-size="18" font-family="Roboto-Bold, Roboto" font-weight="700"><tspan x="-5.884" y="0">V</tspan></text>
      <text id="A-2" data-name="A" transform="translate(285.413 98.647)" fill="#12263f" font-size="18" font-family="Roboto-Bold, Roboto" font-weight="700"><tspan x="-6.056" y="0">A</tspan></text>
      <text id="L3" transform="translate(35.401 305.58)" fill="#12263f" font-size="18" font-family="Roboto-Bold, Roboto" font-weight="700"><tspan x="-10.037" y="0">L3</tspan></text>
    </g>
  </g>
</svg>
