<svg xmlns="http://www.w3.org/2000/svg" width="610.839" height="362.875" viewBox="0 0 610.839 362.875">
  <g id="Grupo_84272" data-name="Grupo 84272" transform="translate(-284.694 -957.652)">
    <path id="Trazado_601538" data-name="Trazado 601538" d="M0,0H610.839V362.875H0Z" transform="translate(284.694 957.652)" fill="#eff5fb"/>
    <g id="Grupo_84232" data-name="Grupo 84232" transform="translate(373.694 983.652)">
      <g id="Grupo_84231" data-name="Grupo 84231" transform="translate(57.771 39.311)">
        <path id="Trazado_102468" data-name="Trazado 102468" d="M346.5,520.054H720.524V438" transform="translate(-345.997 -259.294)" fill="none" stroke="#ee6c4d" stroke-linecap="round" stroke-linejoin="round" stroke-width="2"/>
        <line id="Línea_181" data-name="Línea 181" x2="135.917" transform="translate(0 178.202)" fill="none" stroke="#265d99" stroke-linecap="round" stroke-linejoin="round" stroke-width="2"/>
        <line id="Línea_182" data-name="Línea 182" x2="255.725" transform="translate(0 14.095)" fill="none" stroke="#76c2dd" stroke-linecap="round" stroke-linejoin="round" stroke-width="2"/>
        <path id="Trazado_102469" data-name="Trazado 102469" d="M481.5,438.607,601.308,274.5l118.8,165.114Z" transform="translate(-345.08 -260.405)" fill="none" stroke="#afafaf" stroke-linecap="round" stroke-linejoin="round" stroke-width="2"/>
        <line id="Línea_183" data-name="Línea 183" y2="153.033" transform="translate(62.804 19.129)" fill="none" stroke="#afafaf" stroke-linecap="round" stroke-linejoin="round" stroke-width="2"/>
        <path id="Trazado_102470" data-name="Trazado 102470" d="M404.62,281.535h7.572l-3.786-5.152Z" transform="translate(-345.602 -260.392)" fill="#afafaf" stroke="#afafaf" stroke-linecap="round" stroke-linejoin="round" stroke-width="2"/>
        <path id="Trazado_102471" data-name="Trazado 102471" d="M412.192,430.5H404.62l3.786,5.152Z" transform="translate(-345.602 -259.345)" fill="#afafaf" stroke="#afafaf" stroke-linecap="round" stroke-linejoin="round" stroke-width="2"/>
        <rect id="Rectángulo_31867" data-name="Rectángulo 31867" width="57.387" height="12.082" transform="translate(309.576 77.773) rotate(54.827)" fill="#f3f9ff" stroke="#afafaf" stroke-linecap="round" stroke-linejoin="round" stroke-width="2"/>
        <rect id="Rectángulo_31868" data-name="Rectángulo 31868" width="57.387" height="12.082" transform="translate(210.744 85.739) rotate(125.173)" fill="#f3f9ff" stroke="#afafaf" stroke-linecap="round" stroke-linejoin="round" stroke-width="2"/>
        <circle id="Elipse_4128" data-name="Elipse 4128" cx="14.095" cy="14.095" r="14.095" transform="translate(213.944 40.272)" fill="#f3f9ff" stroke="#afafaf" stroke-linecap="round" stroke-linejoin="round" stroke-width="2"/>
        <rect id="Rectángulo_31869" data-name="Rectángulo 31869" width="57.387" height="12.082" transform="translate(227.032 172.162)" fill="#f3f9ff" stroke="#afafaf" stroke-linecap="round" stroke-linejoin="round" stroke-width="2"/>
        <circle id="Elipse_4129" data-name="Elipse 4129" cx="14.095" cy="14.095" r="14.095" transform="translate(107.223)" fill="#f3f9ff" stroke="#afafaf" stroke-linecap="round" stroke-linejoin="round" stroke-width="2"/>
        <path id="Trazado_102481" data-name="Trazado 102481" d="M14.1,0A14.1,14.1,0,1,1,0,14.1,14.1,14.1,0,0,1,14.1,0Z" transform="translate(48.829 81.55)" fill="#f3f9ff" stroke="#afafaf" stroke-linecap="round" stroke-width="2"/>
      </g>
      <path id="Trazado_606019" data-name="Trazado 606019" d="M-6.258-2.118h5.6V0H-8.895V-12.8h2.637ZM6.75,0H4.21V-9.791l-3.032.94v-2.065l5.3-1.9H6.75Z" transform="translate(35.401 57.521)" fill="#12263f"/>
      <path id="Trazado_606020" data-name="Trazado 606020" d="M-6.258-2.118h5.6V0H-8.895V-12.8h2.637ZM9.352,0H.58V-1.74L4.72-6.152A10.212,10.212,0,0,0,5.981-7.778,2.612,2.612,0,0,0,6.39-9.1a1.955,1.955,0,0,0-.431-1.34,1.555,1.555,0,0,0-1.23-.488,1.677,1.677,0,0,0-1.358.593,2.35,2.35,0,0,0-.5,1.56H.325a4.2,4.2,0,0,1,.558-2.136,3.934,3.934,0,0,1,1.578-1.516,4.8,4.8,0,0,1,2.312-.549,4.54,4.54,0,0,1,3.072.949A3.358,3.358,0,0,1,8.938-9.343a4.3,4.3,0,0,1-.492,1.934A10.745,10.745,0,0,1,6.759-5.115L3.85-2.048h5.5Z" transform="translate(35.401 224.188)" fill="#12263f"/>
      <path id="Trazado_606021" data-name="Trazado 606021" d="M2.312-2.637H-2.312L-3.19,0h-2.8L-1.23-12.8H1.213L6,0H3.2ZM-1.6-4.772H1.6L-.009-9.562Z" transform="translate(178.97 57.521)" fill="#12263f"/>
      <path id="Trazado_606022" data-name="Trazado 606022" d="M10.187,9.067A3.4,3.4,0,0,1,9.1,11.33a3.547,3.547,0,0,1-2.422.8,3.257,3.257,0,0,1-2.625-1.174,4.724,4.724,0,0,1-.987-3.142V6.922a5.266,5.266,0,0,1,.46-2.266,3.438,3.438,0,0,1,1.3-1.5,3.632,3.632,0,0,1,1.955-.524,3.34,3.34,0,0,1,2.361.822,3.441,3.441,0,0,1,1.035,2.276H8.961a2.655,2.655,0,0,0-.689-1.6,2.084,2.084,0,0,0-1.482-.5,2.181,2.181,0,0,0-1.831.864A3.966,3.966,0,0,0,4.3,6.95v.9a4.077,4.077,0,0,0,.628,2.4,2.031,2.031,0,0,0,1.758.889,2.345,2.345,0,0,0,1.558-.46,2.554,2.554,0,0,0,.72-1.6ZM11.355,8.5a4.057,4.057,0,0,1,.4-1.815,2.96,2.96,0,0,1,1.1-1.244A3.007,3.007,0,0,1,14.471,5a2.9,2.9,0,0,1,2.269.971,3.736,3.736,0,0,1,.866,2.583v.083a4.092,4.092,0,0,1-.384,1.8,2.916,2.916,0,0,1-1.1,1.241,3.041,3.041,0,0,1-1.641.444,2.889,2.889,0,0,1-2.263-.971,3.718,3.718,0,0,1-.866-2.571Zm1.181.14a2.938,2.938,0,0,0,.53,1.834,1.8,1.8,0,0,0,2.841-.01A3.213,3.213,0,0,0,16.433,8.5,2.933,2.933,0,0,0,15.9,6.671a1.705,1.705,0,0,0-1.425-.7,1.686,1.686,0,0,0-1.4.692A3.189,3.189,0,0,0,12.535,8.642ZM22.4,6.186a3.519,3.519,0,0,0-.578-.044,1.547,1.547,0,0,0-1.568.984V12H19.08V5.132h1.143l.019.793A1.829,1.829,0,0,1,21.879,5a1.2,1.2,0,0,1,.521.089Zm4.4,0a3.519,3.519,0,0,0-.578-.044,1.547,1.547,0,0,0-1.568.984V12H23.479V5.132h1.143l.019.793A1.829,1.829,0,0,1,26.278,5a1.2,1.2,0,0,1,.521.089ZM29.153,12H27.979V5.132h1.174Zm-1.27-8.69a.7.7,0,0,1,.175-.482.655.655,0,0,1,.517-.2.666.666,0,0,1,.521.2.694.694,0,0,1,.178.482.671.671,0,0,1-.178.476.678.678,0,0,1-.521.19.667.667,0,0,1-.517-.19A.678.678,0,0,1,27.884,3.31Zm6,8.817a3,3,0,0,1-2.272-.917,3.4,3.4,0,0,1-.876-2.453V8.541a4.121,4.121,0,0,1,.39-1.825,3.045,3.045,0,0,1,1.092-1.257A2.745,2.745,0,0,1,33.736,5a2.572,2.572,0,0,1,2.082.882,3.82,3.82,0,0,1,.743,2.526V8.9H31.908a2.441,2.441,0,0,0,.594,1.641,1.866,1.866,0,0,0,1.444.625A2.045,2.045,0,0,0,35,10.915a2.648,2.648,0,0,0,.755-.673l.717.559A2.884,2.884,0,0,1,33.882,12.127ZM33.736,5.97a1.566,1.566,0,0,0-1.193.517,2.515,2.515,0,0,0-.6,1.45h3.44V7.849A2.237,2.237,0,0,0,34.9,6.462,1.475,1.475,0,0,0,33.736,5.97Zm5.294-.838L39.068,6A2.5,2.5,0,0,1,41.125,5q2.177,0,2.2,2.457V12H42.147V7.455a1.581,1.581,0,0,0-.34-1.1A1.361,1.361,0,0,0,40.77,6a1.7,1.7,0,0,0-1,.3,2.069,2.069,0,0,0-.673.8V12H37.919V5.132Zm7.655-1.663V5.132h1.282V6.04H46.686V10.3a.953.953,0,0,0,.171.62.721.721,0,0,0,.584.207A2.843,2.843,0,0,0,48,11.054V12a3.424,3.424,0,0,1-.9.126,1.462,1.462,0,0,1-1.187-.476,2.045,2.045,0,0,1-.4-1.352V6.04h-1.25V5.132h1.25V3.469Zm5.5,8.658a3,3,0,0,1-2.272-.917,3.4,3.4,0,0,1-.876-2.453V8.541a4.121,4.121,0,0,1,.39-1.825,3.045,3.045,0,0,1,1.092-1.257A2.745,2.745,0,0,1,52.043,5a2.572,2.572,0,0,1,2.082.882,3.82,3.82,0,0,1,.743,2.526V8.9H50.215a2.441,2.441,0,0,0,.594,1.641,1.866,1.866,0,0,0,1.444.625,2.045,2.045,0,0,0,1.054-.254,2.648,2.648,0,0,0,.755-.673l.717.559A2.884,2.884,0,0,1,52.189,12.127ZM52.043,5.97a1.566,1.566,0,0,0-1.193.517,2.515,2.515,0,0,0-.6,1.45h3.44V7.849a2.237,2.237,0,0,0-.482-1.387A1.475,1.475,0,0,0,52.043,5.97Zm7.116,2.539a4.023,4.023,0,0,1,.749-2.542A2.548,2.548,0,0,1,63.78,5.83V2.25h1.174V12H63.875l-.057-.736a2.391,2.391,0,0,1-1.961.863,2.346,2.346,0,0,1-1.946-.978A4.069,4.069,0,0,1,59.159,8.6Zm1.174.133a3.046,3.046,0,0,0,.482,1.828,1.56,1.56,0,0,0,1.333.66,1.713,1.713,0,0,0,1.631-1V6.973A1.726,1.726,0,0,0,62.161,6a1.567,1.567,0,0,0-1.346.667A3.354,3.354,0,0,0,60.333,8.642Zm9.293,3.485a3,3,0,0,1-2.272-.917,3.4,3.4,0,0,1-.876-2.453V8.541a4.121,4.121,0,0,1,.39-1.825A3.045,3.045,0,0,1,67.96,5.459,2.745,2.745,0,0,1,69.48,5a2.572,2.572,0,0,1,2.082.882A3.82,3.82,0,0,1,72.3,8.414V8.9H67.652a2.441,2.441,0,0,0,.594,1.641,1.866,1.866,0,0,0,1.444.625,2.045,2.045,0,0,0,1.054-.254,2.648,2.648,0,0,0,.755-.673l.717.559A2.884,2.884,0,0,1,69.626,12.127ZM69.48,5.97a1.566,1.566,0,0,0-1.193.517,2.515,2.515,0,0,0-.6,1.45h3.44V7.849a2.237,2.237,0,0,0-.482-1.387A1.475,1.475,0,0,0,69.48,5.97ZM26.424,27V21.04H25.338v-.908h1.085v-.7a2.339,2.339,0,0,1,.59-1.708,2.23,2.23,0,0,1,1.669-.6,3.1,3.1,0,0,1,.806.107l-.063.946a3.373,3.373,0,0,0-.635-.057,1.146,1.146,0,0,0-.882.334,1.356,1.356,0,0,0-.311.958v.726h1.466v.908H27.6V27ZM34.6,27a2.467,2.467,0,0,1-.165-.724,2.62,2.62,0,0,1-1.955.851,2.424,2.424,0,0,1-1.666-.574,1.859,1.859,0,0,1-.651-1.457,1.942,1.942,0,0,1,.816-1.666,3.846,3.846,0,0,1,2.295-.594h1.143V22.3a1.319,1.319,0,0,0-.368-.981,1.48,1.48,0,0,0-1.085-.365,1.712,1.712,0,0,0-1.054.317.935.935,0,0,0-.425.768H30.3a1.621,1.621,0,0,1,.365-.993,2.491,2.491,0,0,1,.99-.759A3.331,3.331,0,0,1,33.032,20a2.715,2.715,0,0,1,1.86.594,2.141,2.141,0,0,1,.7,1.635v3.161a3.865,3.865,0,0,0,.241,1.5V27Zm-1.949-.9a2.064,2.064,0,0,0,1.047-.286,1.728,1.728,0,0,0,.717-.743V23.667H33.5q-2.158,0-2.158,1.263a1.069,1.069,0,0,0,.368.863A1.415,1.415,0,0,0,32.651,26.1Zm8.779-.927a.865.865,0,0,0-.359-.74,3.452,3.452,0,0,0-1.25-.454,5.912,5.912,0,0,1-1.416-.457,2.014,2.014,0,0,1-.774-.635,1.518,1.518,0,0,1-.251-.876,1.782,1.782,0,0,1,.714-1.428A2.789,2.789,0,0,1,39.919,20a2.87,2.87,0,0,1,1.895.6,1.915,1.915,0,0,1,.727,1.542H41.36a1.06,1.06,0,0,0-.409-.832,1.534,1.534,0,0,0-1.031-.349,1.606,1.606,0,0,0-1,.279.879.879,0,0,0-.362.73.712.712,0,0,0,.336.641,4.139,4.139,0,0,0,1.216.413,6.334,6.334,0,0,1,1.425.47,2.079,2.079,0,0,1,.809.657,1.615,1.615,0,0,1,.263.936,1.758,1.758,0,0,1-.736,1.476,3.089,3.089,0,0,1-1.911.555,3.459,3.459,0,0,1-1.46-.292,2.375,2.375,0,0,1-.993-.816,1.966,1.966,0,0,1-.359-1.133h1.174a1.216,1.216,0,0,0,.473.936,1.835,1.835,0,0,0,1.165.346,1.894,1.894,0,0,0,1.07-.27A.829.829,0,0,0,41.43,25.178Zm5.554,1.949a3,3,0,0,1-2.272-.917,3.4,3.4,0,0,1-.876-2.453v-.216a4.121,4.121,0,0,1,.39-1.825,3.045,3.045,0,0,1,1.092-1.257A2.745,2.745,0,0,1,46.838,20a2.572,2.572,0,0,1,2.082.882,3.82,3.82,0,0,1,.743,2.526V23.9H45.01a2.441,2.441,0,0,0,.594,1.641,1.866,1.866,0,0,0,1.444.625,2.045,2.045,0,0,0,1.054-.254,2.648,2.648,0,0,0,.755-.673l.717.559A2.884,2.884,0,0,1,46.984,27.127Zm-.146-6.157a1.566,1.566,0,0,0-1.193.517,2.515,2.515,0,0,0-.6,1.45h3.44v-.089a2.237,2.237,0,0,0-.482-1.387A1.475,1.475,0,0,0,46.838,20.97Z" transform="translate(184.97 74.994)" fill="#12263f"/>
      <path id="Trazado_606023" data-name="Trazado 606023" d="M12.542,9.067A3.4,3.4,0,0,1,11.46,11.33a3.547,3.547,0,0,1-2.422.8,3.257,3.257,0,0,1-2.625-1.174,4.724,4.724,0,0,1-.987-3.142V6.922a5.266,5.266,0,0,1,.46-2.266,3.438,3.438,0,0,1,1.3-1.5,3.632,3.632,0,0,1,1.955-.524,3.34,3.34,0,0,1,2.361.822,3.441,3.441,0,0,1,1.035,2.276H11.317a2.655,2.655,0,0,0-.689-1.6,2.084,2.084,0,0,0-1.482-.5,2.181,2.181,0,0,0-1.831.864A3.966,3.966,0,0,0,6.652,6.95v.9a4.077,4.077,0,0,0,.628,2.4,2.031,2.031,0,0,0,1.758.889,2.345,2.345,0,0,0,1.558-.46,2.554,2.554,0,0,0,.72-1.6ZM13.71,8.5a4.057,4.057,0,0,1,.4-1.815,2.96,2.96,0,0,1,1.1-1.244A3.007,3.007,0,0,1,16.827,5a2.9,2.9,0,0,1,2.269.971,3.736,3.736,0,0,1,.866,2.583v.083a4.092,4.092,0,0,1-.384,1.8,2.916,2.916,0,0,1-1.1,1.241,3.041,3.041,0,0,1-1.641.444,2.889,2.889,0,0,1-2.263-.971,3.718,3.718,0,0,1-.866-2.571Zm1.181.14a2.938,2.938,0,0,0,.53,1.834,1.8,1.8,0,0,0,2.841-.01A3.213,3.213,0,0,0,18.789,8.5a2.933,2.933,0,0,0-.536-1.831,1.705,1.705,0,0,0-1.425-.7,1.686,1.686,0,0,0-1.4.692A3.189,3.189,0,0,0,14.891,8.642Zm9.864-2.457a3.519,3.519,0,0,0-.578-.044,1.547,1.547,0,0,0-1.568.984V12H21.436V5.132h1.143l.019.793A1.829,1.829,0,0,1,24.235,5a1.2,1.2,0,0,1,.521.089Zm4.4,0a3.519,3.519,0,0,0-.578-.044,1.547,1.547,0,0,0-1.568.984V12H25.834V5.132h1.143L27,5.925A1.829,1.829,0,0,1,28.634,5a1.2,1.2,0,0,1,.521.089ZM31.509,12H30.335V5.132h1.174ZM30.24,3.31a.7.7,0,0,1,.175-.482.655.655,0,0,1,.517-.2.666.666,0,0,1,.521.2.694.694,0,0,1,.178.482.671.671,0,0,1-.178.476.678.678,0,0,1-.521.19.667.667,0,0,1-.517-.19A.678.678,0,0,1,30.24,3.31Zm6,8.817a3,3,0,0,1-2.272-.917,3.4,3.4,0,0,1-.876-2.453V8.541a4.121,4.121,0,0,1,.39-1.825,3.045,3.045,0,0,1,1.092-1.257A2.745,2.745,0,0,1,36.092,5a2.572,2.572,0,0,1,2.082.882,3.82,3.82,0,0,1,.743,2.526V8.9H34.264a2.441,2.441,0,0,0,.594,1.641,1.866,1.866,0,0,0,1.444.625,2.045,2.045,0,0,0,1.054-.254,2.648,2.648,0,0,0,.755-.673l.717.559A2.884,2.884,0,0,1,36.238,12.127ZM36.092,5.97a1.566,1.566,0,0,0-1.193.517,2.515,2.515,0,0,0-.6,1.45h3.44V7.849a2.237,2.237,0,0,0-.482-1.387A1.475,1.475,0,0,0,36.092,5.97Zm5.294-.838L41.424,6A2.5,2.5,0,0,1,43.481,5q2.177,0,2.2,2.457V12H44.5V7.455a1.581,1.581,0,0,0-.34-1.1A1.361,1.361,0,0,0,43.125,6a1.7,1.7,0,0,0-1,.3,2.069,2.069,0,0,0-.673.8V12H40.275V5.132Zm7.655-1.663V5.132h1.282V6.04H49.042V10.3a.953.953,0,0,0,.171.62.721.721,0,0,0,.584.207,2.843,2.843,0,0,0,.559-.076V12a3.424,3.424,0,0,1-.9.126,1.462,1.462,0,0,1-1.187-.476,2.045,2.045,0,0,1-.4-1.352V6.04h-1.25V5.132h1.25V3.469Zm5.5,8.658a3,3,0,0,1-2.272-.917A3.4,3.4,0,0,1,51.4,8.756V8.541a4.121,4.121,0,0,1,.39-1.825,3.045,3.045,0,0,1,1.092-1.257A2.745,2.745,0,0,1,54.4,5a2.572,2.572,0,0,1,2.082.882,3.82,3.82,0,0,1,.743,2.526V8.9H52.571a2.441,2.441,0,0,0,.594,1.641,1.866,1.866,0,0,0,1.444.625,2.045,2.045,0,0,0,1.054-.254,2.648,2.648,0,0,0,.755-.673l.717.559A2.884,2.884,0,0,1,54.545,12.127ZM54.4,5.97a1.566,1.566,0,0,0-1.193.517,2.515,2.515,0,0,0-.6,1.45h3.44V7.849a2.237,2.237,0,0,0-.482-1.387A1.475,1.475,0,0,0,54.4,5.97Zm7.116,2.539a4.023,4.023,0,0,1,.749-2.542,2.548,2.548,0,0,1,3.872-.136V2.25H67.31V12H66.231l-.057-.736a2.391,2.391,0,0,1-1.961.863,2.346,2.346,0,0,1-1.946-.978A4.069,4.069,0,0,1,61.515,8.6Zm1.174.133a3.046,3.046,0,0,0,.482,1.828,1.56,1.56,0,0,0,1.333.66,1.713,1.713,0,0,0,1.631-1V6.973A1.726,1.726,0,0,0,64.517,6a1.567,1.567,0,0,0-1.346.667A3.354,3.354,0,0,0,62.689,8.642Zm9.293,3.485a3,3,0,0,1-2.272-.917,3.4,3.4,0,0,1-.876-2.453V8.541a4.121,4.121,0,0,1,.39-1.825,3.045,3.045,0,0,1,1.092-1.257A2.745,2.745,0,0,1,71.836,5a2.572,2.572,0,0,1,2.082.882,3.82,3.82,0,0,1,.743,2.526V8.9H70.008a2.441,2.441,0,0,0,.594,1.641,1.866,1.866,0,0,0,1.444.625,2.045,2.045,0,0,0,1.054-.254,2.648,2.648,0,0,0,.755-.673l.717.559A2.884,2.884,0,0,1,71.982,12.127ZM71.836,5.97a1.566,1.566,0,0,0-1.193.517,2.515,2.515,0,0,0-.6,1.45h3.44V7.849A2.237,2.237,0,0,0,73,6.462,1.475,1.475,0,0,0,71.836,5.97ZM28.316,27H27.142V17.25h1.174Zm3.155,0H30.291V20.132h1.181Zm.013-9.744h1.422l-1.7,1.866-.946,0Zm3.034,2.875.038.863A2.5,2.5,0,0,1,36.613,20q2.177,0,2.2,2.457V27H37.635V22.455a1.581,1.581,0,0,0-.34-1.1A1.361,1.361,0,0,0,36.257,21a1.7,1.7,0,0,0-1,.3,2.069,2.069,0,0,0-.673.8V27H33.407V20.132Zm8.912,7a3,3,0,0,1-2.272-.917,3.4,3.4,0,0,1-.876-2.453v-.216a4.121,4.121,0,0,1,.39-1.825,3.045,3.045,0,0,1,1.092-1.257A2.745,2.745,0,0,1,43.284,20a2.572,2.572,0,0,1,2.082.882,3.82,3.82,0,0,1,.743,2.526V23.9H41.456a2.441,2.441,0,0,0,.594,1.641,1.866,1.866,0,0,0,1.444.625,2.045,2.045,0,0,0,1.054-.254,2.648,2.648,0,0,0,.755-.673l.717.559A2.884,2.884,0,0,1,43.43,27.127Zm-.146-6.157a1.566,1.566,0,0,0-1.193.517,2.515,2.515,0,0,0-.6,1.45h3.44v-.089a2.237,2.237,0,0,0-.482-1.387A1.475,1.475,0,0,0,43.284,20.97ZM51.708,27a2.467,2.467,0,0,1-.165-.724,2.62,2.62,0,0,1-1.955.851,2.424,2.424,0,0,1-1.666-.574,1.859,1.859,0,0,1-.651-1.457,1.942,1.942,0,0,1,.816-1.666,3.846,3.846,0,0,1,2.295-.594h1.143V22.3a1.319,1.319,0,0,0-.368-.981,1.48,1.48,0,0,0-1.085-.365,1.712,1.712,0,0,0-1.054.317.935.935,0,0,0-.425.768H47.41a1.621,1.621,0,0,1,.365-.993,2.491,2.491,0,0,1,.99-.759A3.331,3.331,0,0,1,50.14,20,2.715,2.715,0,0,1,52,20.6a2.141,2.141,0,0,1,.7,1.635v3.161a3.865,3.865,0,0,0,.241,1.5V27Zm-1.949-.9a2.064,2.064,0,0,0,1.047-.286,1.728,1.728,0,0,0,.717-.743V23.667H50.6q-2.158,0-2.158,1.263a1.069,1.069,0,0,0,.368.863A1.415,1.415,0,0,0,49.759,26.1Z" transform="translate(146.359)" fill="#12263f"/>
      <path id="Trazado_606024" data-name="Trazado 606024" d="M8.749,10.381l2.641-7.624h1.333L9.295,12H8.216L4.794,2.758H6.121ZM13.173,8.5a4.057,4.057,0,0,1,.4-1.815,2.96,2.96,0,0,1,1.1-1.244A3.007,3.007,0,0,1,16.29,5a2.9,2.9,0,0,1,2.269.971,3.736,3.736,0,0,1,.866,2.583v.083a4.092,4.092,0,0,1-.384,1.8,2.916,2.916,0,0,1-1.1,1.241,3.041,3.041,0,0,1-1.641.444,2.889,2.889,0,0,1-2.263-.971,3.718,3.718,0,0,1-.866-2.571Zm1.181.14a2.938,2.938,0,0,0,.53,1.834,1.8,1.8,0,0,0,2.841-.01A3.213,3.213,0,0,0,18.251,8.5a2.933,2.933,0,0,0-.536-1.831,1.705,1.705,0,0,0-1.425-.7,1.686,1.686,0,0,0-1.4.692A3.189,3.189,0,0,0,14.354,8.642ZM22.174,12H21V2.25h1.174Zm3.472-8.531V5.132h1.282V6.04H25.646V10.3a.953.953,0,0,0,.171.62.721.721,0,0,0,.584.207,2.843,2.843,0,0,0,.559-.076V12a3.424,3.424,0,0,1-.9.126,1.462,1.462,0,0,1-1.187-.476,2.045,2.045,0,0,1-.4-1.352V6.04h-1.25V5.132h1.25V3.469ZM32.54,12a2.467,2.467,0,0,1-.165-.724,2.62,2.62,0,0,1-1.955.851,2.424,2.424,0,0,1-1.666-.574A1.859,1.859,0,0,1,28.1,10.1a1.942,1.942,0,0,1,.816-1.666,3.846,3.846,0,0,1,2.295-.594h1.143V7.3a1.319,1.319,0,0,0-.368-.981A1.48,1.48,0,0,0,30.9,5.951a1.712,1.712,0,0,0-1.054.317.935.935,0,0,0-.425.768H28.243a1.621,1.621,0,0,1,.365-.993,2.491,2.491,0,0,1,.99-.759A3.331,3.331,0,0,1,30.972,5a2.715,2.715,0,0,1,1.86.594,2.141,2.141,0,0,1,.7,1.635v3.161a3.865,3.865,0,0,0,.241,1.5V12Zm-1.949-.9a2.064,2.064,0,0,0,1.047-.286,1.728,1.728,0,0,0,.717-.743V8.667h-.92q-2.158,0-2.158,1.263a1.069,1.069,0,0,0,.368.863A1.415,1.415,0,0,0,30.591,11.1Zm5.992-5.973v7.662q0,1.98-1.8,1.98a2.191,2.191,0,0,1-.717-.114v-.934a2.27,2.27,0,0,0,.533.051.8.8,0,0,0,.6-.213,1.052,1.052,0,0,0,.206-.74V5.132ZM35.288,3.31a.7.7,0,0,1,.175-.479.642.642,0,0,1,.511-.2.666.666,0,0,1,.521.2.694.694,0,0,1,.178.482.671.671,0,0,1-.178.476.678.678,0,0,1-.521.19.657.657,0,0,1-.514-.19A.685.685,0,0,1,35.288,3.31Zm6.037,8.817a3,3,0,0,1-2.272-.917,3.4,3.4,0,0,1-.876-2.453V8.541a4.121,4.121,0,0,1,.39-1.825,3.045,3.045,0,0,1,1.092-1.257A2.745,2.745,0,0,1,41.179,5a2.572,2.572,0,0,1,2.082.882A3.82,3.82,0,0,1,44,8.414V8.9H39.351a2.441,2.441,0,0,0,.594,1.641,1.866,1.866,0,0,0,1.444.625,2.045,2.045,0,0,0,1.054-.254,2.648,2.648,0,0,0,.755-.673l.717.559A2.884,2.884,0,0,1,41.325,12.127ZM41.179,5.97a1.566,1.566,0,0,0-1.193.517,2.515,2.515,0,0,0-.6,1.45h3.44V7.849a2.237,2.237,0,0,0-.482-1.387A1.475,1.475,0,0,0,41.179,5.97Zm7.116,2.539a4.023,4.023,0,0,1,.749-2.542,2.548,2.548,0,0,1,3.872-.136V2.25H54.09V12H53.011l-.057-.736a2.391,2.391,0,0,1-1.961.863,2.346,2.346,0,0,1-1.946-.978A4.069,4.069,0,0,1,48.295,8.6Zm1.174.133a3.046,3.046,0,0,0,.482,1.828,1.56,1.56,0,0,0,1.333.66,1.713,1.713,0,0,0,1.631-1V6.973A1.726,1.726,0,0,0,51.3,6a1.567,1.567,0,0,0-1.346.667A3.354,3.354,0,0,0,49.469,8.642Zm9.293,3.485a3,3,0,0,1-2.272-.917,3.4,3.4,0,0,1-.876-2.453V8.541A4.121,4.121,0,0,1,56,6.716,3.045,3.045,0,0,1,57.1,5.459,2.745,2.745,0,0,1,58.616,5a2.572,2.572,0,0,1,2.082.882,3.82,3.82,0,0,1,.743,2.526V8.9H56.788a2.441,2.441,0,0,0,.594,1.641,1.866,1.866,0,0,0,1.444.625,2.045,2.045,0,0,0,1.054-.254,2.648,2.648,0,0,0,.755-.673l.717.559A2.884,2.884,0,0,1,58.762,12.127ZM58.616,5.97a1.566,1.566,0,0,0-1.193.517,2.515,2.515,0,0,0-.6,1.45h3.44V7.849a2.237,2.237,0,0,0-.482-1.387A1.475,1.475,0,0,0,58.616,5.97ZM21.679,27H20.5V17.25h1.174Zm3.155,0H23.653V20.132h1.181Zm.013-9.744h1.422l-1.7,1.866-.946,0Zm3.034,2.875.038.863A2.5,2.5,0,0,1,29.975,20q2.177,0,2.2,2.457V27H31V22.455a1.581,1.581,0,0,0-.34-1.1A1.361,1.361,0,0,0,29.62,21a1.7,1.7,0,0,0-1,.3,2.069,2.069,0,0,0-.673.8V27H26.77V20.132Zm8.912,7a3,3,0,0,1-2.272-.917,3.4,3.4,0,0,1-.876-2.453v-.216a4.121,4.121,0,0,1,.39-1.825,3.045,3.045,0,0,1,1.092-1.257A2.745,2.745,0,0,1,36.647,20a2.572,2.572,0,0,1,2.082.882,3.82,3.82,0,0,1,.743,2.526V23.9H34.819a2.441,2.441,0,0,0,.594,1.641,1.866,1.866,0,0,0,1.444.625,2.045,2.045,0,0,0,1.054-.254,2.648,2.648,0,0,0,.755-.673l.717.559A2.884,2.884,0,0,1,36.793,27.127Zm-.146-6.157a1.566,1.566,0,0,0-1.193.517,2.515,2.515,0,0,0-.6,1.45H38.3v-.089a2.237,2.237,0,0,0-.482-1.387A1.475,1.475,0,0,0,36.647,20.97ZM45.07,27a2.467,2.467,0,0,1-.165-.724,2.62,2.62,0,0,1-1.955.851,2.424,2.424,0,0,1-1.666-.574,1.859,1.859,0,0,1-.651-1.457,1.942,1.942,0,0,1,.816-1.666,3.846,3.846,0,0,1,2.295-.594h1.143V22.3a1.319,1.319,0,0,0-.368-.981,1.48,1.48,0,0,0-1.085-.365,1.712,1.712,0,0,0-1.054.317.935.935,0,0,0-.425.768H40.773a1.621,1.621,0,0,1,.365-.993,2.491,2.491,0,0,1,.99-.759A3.331,3.331,0,0,1,43.5,20a2.715,2.715,0,0,1,1.86.594,2.141,2.141,0,0,1,.7,1.635v3.161a3.865,3.865,0,0,0,.241,1.5V27Zm-1.949-.9a2.064,2.064,0,0,0,1.047-.286,1.728,1.728,0,0,0,.717-.743V23.667h-.92q-2.158,0-2.158,1.263a1.069,1.069,0,0,0,.368.863A1.415,1.415,0,0,0,43.121,26.1Z" transform="translate(0 117.329)" fill="#12263f"/>
      <path id="Trazado_606025" data-name="Trazado 606025" d="M-.013-3.173l2.9-9.624H5.823L1.367,0H-1.384L-5.823-12.8H-2.9Z" transform="translate(120.91 140.982)" fill="#12263f"/>
      <path id="Trazado_606026" data-name="Trazado 606026" d="M2.312-2.637H-2.312L-3.19,0h-2.8L-1.23-12.8H1.213L6,0H3.2ZM-1.6-4.772H1.6L-.009-9.562Z" transform="translate(285.413 98.647)" fill="#12263f"/>
      <path id="Trazado_606027" data-name="Trazado 606027" d="M-6.258-2.118h5.6V0H-8.895V-12.8h2.637ZM3.164-7.523H4.518A1.907,1.907,0,0,0,5.95-8.007,1.771,1.771,0,0,0,6.416-9.29a1.566,1.566,0,0,0-.461-1.2,1.788,1.788,0,0,0-1.27-.431,1.874,1.874,0,0,0-1.222.4,1.279,1.279,0,0,0-.492,1.042H.431a3.124,3.124,0,0,1,.541-1.8,3.6,3.6,0,0,1,1.512-1.244,5.045,5.045,0,0,1,2.14-.448A4.785,4.785,0,0,1,7.8-12,3.314,3.314,0,0,1,8.956-9.325,2.693,2.693,0,0,1,8.42-7.708,3.483,3.483,0,0,1,7.014-6.574a3.18,3.18,0,0,1,1.613,1.16,3.147,3.147,0,0,1,.532,1.828A3.369,3.369,0,0,1,7.915-.853,5,5,0,0,1,4.623.176,4.741,4.741,0,0,1,1.49-.835,3.3,3.3,0,0,1,.272-3.507h2.54a1.472,1.472,0,0,0,.541,1.178,1.992,1.992,0,0,0,1.332.457A2,2,0,0,0,6.1-2.351a1.654,1.654,0,0,0,.514-1.27q0-1.916-2.109-1.916H3.164Z" transform="translate(35.401 305.58)" fill="#12263f"/>
    </g>
  </g>
</svg>
