<svg xmlns="http://www.w3.org/2000/svg" xmlns:xlink="http://www.w3.org/1999/xlink" width="1030.161" height="466.057" viewBox="0 0 1030.161 466.057">
  <defs>
    <clipPath id="clip-path">
      <rect id="Rectángulo_45805" data-name="Rectángulo 45805" width="237.106" height="390.179" fill="none"/>
    </clipPath>
  </defs>
  <g id="Grupo_159289" data-name="Grupo 159289" transform="translate(-284.839 -4772)">
    <path id="Trazado_601579" data-name="Trazado 601579" d="M0,0H1030.161V466.057H0Z" transform="translate(284.839 4772)" fill="#f5f9fc"/>
    <g id="Grupo_84287" data-name="Grupo 84287" transform="translate(347.324 4822.991)">
      <g id="Grupo_84235" data-name="Grupo 84235" transform="translate(33.405 46.184)">
        <path id="Trazado_102482" data-name="Trazado 102482" d="M152,473.028H255.317L256.15,246h78.113l-1.532,227.028H724.826" transform="translate(-152 -246)" fill="none" stroke="#76c2dd" stroke-linecap="round" stroke-linejoin="round" stroke-width="2"/>
        <path id="Trazado_102483" data-name="Trazado 102483" d="M613.736,425.24v9.33l7.838-4.665Z" transform="translate(-40.91 -202.876)" fill="#76c2dd" stroke="#76c2dd" stroke-linecap="round" stroke-linejoin="round" stroke-width="2"/>
      </g>
      <g id="Grupo_84236" data-name="Grupo 84236" transform="translate(33.405 298.689)">
        <path id="Trazado_102484" data-name="Trazado 102484" d="M152,437.823H724.826" transform="translate(-152 -432.525)" fill="none" stroke="#265d99" stroke-linecap="round" stroke-linejoin="round" stroke-width="2"/>
        <path id="Trazado_102485" data-name="Trazado 102485" d="M613.736,449.536v10.595l7.838-5.3Z" transform="translate(-40.91 -449.536)" fill="#265d99" stroke="#265d99" stroke-linecap="round" stroke-linejoin="round" stroke-width="2"/>
      </g>
      <path id="Trazado_102487" data-name="Trazado 102487" d="M152,533.877H482.507L483.341,246h78.113l-1.532,287.877h164.9" transform="translate(-118.595 -199.816)" fill="none" stroke="#ee6c4d" stroke-linecap="round" stroke-linejoin="round" stroke-width="2"/>
      <path id="Trazado_102488" data-name="Trazado 102488" d="M613.736,473.279V485.11l7.838-5.915Z" transform="translate(-7.504 -145.133)" fill="#ee6c4d" stroke="#ee6c4d" stroke-linecap="round" stroke-linejoin="round" stroke-width="2"/>
      <path id="Trazado_102491" data-name="Trazado 102491" d="M0,189.818V0" transform="translate(177.238 0.001)" fill="none" stroke="#76c2dd" stroke-linecap="round" stroke-width="1"/>
      <line id="Línea_190" data-name="Línea 190" y1="303.061" transform="translate(289.801 0.001)" fill="none" stroke="#265d99" stroke-linecap="round" stroke-linejoin="round" stroke-width="1"/>
      <line id="Línea_191" data-name="Línea 191" y1="189.818" transform="translate(402.416 0.001)" fill="none" stroke="#ee6c4d" stroke-linecap="round" stroke-linejoin="round" stroke-width="1"/>
      <circle id="Elipse_4142" data-name="Elipse 4142" cx="17.368" cy="17.368" r="17.368" transform="translate(159.87 28.815)" fill="#f3f9ff" stroke="#afafaf" stroke-linecap="round" stroke-linejoin="round" stroke-width="2"/>
      <circle id="Elipse_4143" data-name="Elipse 4143" cx="17.368" cy="17.368" r="17.368" transform="translate(272.458 28.815)" fill="#f3f9ff" stroke="#afafaf" stroke-linecap="round" stroke-linejoin="round" stroke-width="2"/>
      <circle id="Elipse_4144" data-name="Elipse 4144" cx="17.368" cy="17.368" r="17.368" transform="translate(385.048 28.815)" fill="#f3f9ff" stroke="#afafaf" stroke-linecap="round" stroke-linejoin="round" stroke-width="2"/>
      <path id="Trazado_102490" data-name="Trazado 102490" d="M267.939,208.772H492.883" transform="translate(-90.701 -208.772)" fill="none" stroke="#265d99" stroke-linecap="round" stroke-linejoin="round" stroke-width="1"/>
      <g id="Grupo_84239" data-name="Grupo 84239" transform="translate(116.804 189.818)">
        <rect id="Rectángulo_31873" data-name="Rectángulo 31873" width="37.839" height="37.315" fill="#f3f9ff" stroke="#afafaf" stroke-linecap="round" stroke-linejoin="round" stroke-width="2"/>
        <rect id="Rectángulo_31874" data-name="Rectángulo 31874" width="37.839" height="37.315" transform="translate(37.839)" fill="#f3f9ff" stroke="#afafaf" stroke-linecap="round" stroke-linejoin="round" stroke-width="2"/>
        <rect id="Rectángulo_31875" data-name="Rectángulo 31875" width="37.839" height="37.315" transform="translate(75.678)" fill="#f3f9ff" stroke="#afafaf" stroke-linecap="round" stroke-linejoin="round" stroke-width="2"/>
        <rect id="Rectángulo_31876" data-name="Rectángulo 31876" width="37.839" height="37.315" transform="translate(113.518)" fill="#f3f9ff" stroke="#afafaf" stroke-linecap="round" stroke-linejoin="round" stroke-width="2"/>
      </g>
      <g id="Grupo_84240" data-name="Grupo 84240" transform="translate(268.161 189.818)">
        <rect id="Rectángulo_31877" data-name="Rectángulo 31877" width="37.839" height="37.315" transform="translate(0)" fill="#f3f9ff" stroke="#afafaf" stroke-linecap="round" stroke-linejoin="round" stroke-width="2"/>
        <rect id="Rectángulo_31878" data-name="Rectángulo 31878" width="37.839" height="37.315" transform="translate(37.839)" fill="#f3f9ff" stroke="#afafaf" stroke-linecap="round" stroke-linejoin="round" stroke-width="2"/>
        <rect id="Rectángulo_31879" data-name="Rectángulo 31879" width="37.839" height="37.315" transform="translate(75.678)" fill="#f3f9ff" stroke="#afafaf" stroke-linecap="round" stroke-linejoin="round" stroke-width="2"/>
        <rect id="Rectángulo_31880" data-name="Rectángulo 31880" width="37.839" height="37.315" transform="translate(113.518)" fill="#f3f9ff" stroke="#afafaf" stroke-linecap="round" stroke-linejoin="round" stroke-width="2"/>
      </g>
      <g id="Grupo_84241" data-name="Grupo 84241" transform="translate(419.518 189.818)">
        <rect id="Rectángulo_31881" data-name="Rectángulo 31881" width="37.839" height="37.315" fill="#f3f9ff" stroke="#afafaf" stroke-linecap="round" stroke-linejoin="round" stroke-width="2"/>
        <rect id="Rectángulo_31882" data-name="Rectángulo 31882" width="37.839" height="37.315" transform="translate(37.839)" fill="#f3f9ff" stroke="#afafaf" stroke-linecap="round" stroke-linejoin="round" stroke-width="2"/>
        <rect id="Rectángulo_31883" data-name="Rectángulo 31883" width="37.839" height="37.315" transform="translate(75.678)" fill="#f3f9ff" stroke="#afafaf" stroke-linecap="round" stroke-linejoin="round" stroke-width="2"/>
        <rect id="Rectángulo_31884" data-name="Rectángulo 31884" width="37.839" height="37.315" transform="translate(113.518)" fill="#f3f9ff" stroke="#afafaf" stroke-linecap="round" stroke-linejoin="round" stroke-width="2"/>
      </g>
      <g id="Grupo_84242" data-name="Grupo 84242" transform="translate(141.1 203.276)">
        <rect id="Rectángulo_31885" data-name="Rectángulo 31885" width="25.494" height="10.4" rx="3.807" transform="translate(0.436)" fill="#f3f9ff" stroke="#76c2dd" stroke-linecap="round" stroke-linejoin="round" stroke-width="1"/>
        <circle id="Elipse_4134" data-name="Elipse 4134" cx="5.2" cy="5.2" r="5.2" fill="#f3f9ff" stroke="#76c2dd" stroke-linecap="round" stroke-linejoin="round" stroke-width="1"/>
        <circle id="Elipse_4135" data-name="Elipse 4135" cx="5.2" cy="5.2" r="5.2" transform="translate(15.53)" fill="#f3f9ff" stroke="#76c2dd" stroke-linecap="round" stroke-linejoin="round" stroke-width="1"/>
      </g>
      <g id="Grupo_84244" data-name="Grupo 84244" transform="translate(368.714 203.276)">
        <rect id="Rectángulo_31887" data-name="Rectángulo 31887" width="25.494" height="10.4" rx="3.807" transform="translate(0.436)" fill="#f3f9ff" stroke="#ee6c4d" stroke-linecap="round" stroke-linejoin="round" stroke-width="1"/>
        <circle id="Elipse_4138" data-name="Elipse 4138" cx="5.2" cy="5.2" r="5.2" transform="translate(0)" fill="#f3f9ff" stroke="#ee6c4d" stroke-linecap="round" stroke-linejoin="round" stroke-width="1"/>
        <circle id="Elipse_4139" data-name="Elipse 4139" cx="5.2" cy="5.2" r="5.2" transform="translate(15.53)" fill="#f3f9ff" stroke="#ee6c4d" stroke-linecap="round" stroke-linejoin="round" stroke-width="1"/>
      </g>
      <text id="L1" transform="translate(12 279.625)" fill="#12263f" font-size="21" font-family="Roboto-Bold, Roboto" font-weight="700"><tspan x="-11.71" y="0">L1</tspan></text>
      <text id="_1" data-name="1" transform="translate(134.005 215.396)" fill="#12263f" font-size="18" font-family="Roboto-Regular, Roboto"><tspan x="-5.054" y="0">1</tspan></text>
      <text id="_2" data-name="2" transform="translate(175.683 215.396)" fill="#12263f" font-size="18" font-family="Roboto-Regular, Roboto"><tspan x="-5.054" y="0">2</tspan></text>
      <text id="_3" data-name="3" transform="translate(210.626 215.396)" fill="#12263f" font-size="18" font-family="Roboto-Regular, Roboto"><tspan x="-5.054" y="0">3</tspan></text>
      <text id="_4" data-name="4" transform="translate(248.101 215.396)" fill="#12263f" font-size="18" font-family="Roboto-Regular, Roboto"><tspan x="-5.054" y="0">4</tspan></text>
      <text id="_5" data-name="5" transform="translate(289.78 215.396)" fill="#12263f" font-size="18" font-family="Roboto-Regular, Roboto"><tspan x="-5.054" y="0">5</tspan></text>
      <text id="_6" data-name="6" transform="translate(324.723 215.396)" fill="#12263f" font-size="18" font-family="Roboto-Regular, Roboto"><tspan x="-5.054" y="0">6</tspan></text>
      <text id="_7" data-name="7" transform="translate(361.01 215.396)" fill="#12263f" font-size="18" font-family="Roboto-Regular, Roboto"><tspan x="-5.054" y="0">7</tspan></text>
      <text id="_8" data-name="8" transform="translate(403.297 215.396)" fill="#12263f" font-size="18" font-family="Roboto-Regular, Roboto"><tspan x="-5.054" y="0">8</tspan></text>
      <text id="_9" data-name="9" transform="translate(438.24 215.396)" fill="#12263f" font-size="18" font-family="Roboto-Regular, Roboto"><tspan x="-5.054" y="0">9</tspan></text>
      <text id="_10" data-name="10" transform="translate(469.635 215.396)" fill="#12263f" font-size="18" font-family="Roboto-Regular, Roboto"><tspan x="-10.107" y="0">10</tspan></text>
      <text id="_11" data-name="11" transform="translate(519.255 215.396)" fill="#12263f" font-size="18" font-family="Roboto-Regular, Roboto"><tspan x="-10.107" y="0">11</tspan></text>
      <text id="_12" data-name="12" transform="translate(550.167 215.396)" fill="#12263f" font-size="18" font-family="Roboto-Regular, Roboto"><tspan x="-10.107" y="0">12</tspan></text>
      <text id="L2" transform="translate(12 310.536)" fill="#12263f" font-size="21" font-family="Roboto-Bold, Roboto" font-weight="700"><tspan x="-11.71" y="0">L2</tspan></text>
      <text id="L3" transform="translate(12 341.447)" fill="#12263f" font-size="21" font-family="Roboto-Bold, Roboto" font-weight="700"><tspan x="-11.71" y="0">L3</tspan></text>
      <circle id="Elipse_4162" data-name="Elipse 4162" cx="4.704" cy="4.704" r="4.704" transform="translate(284.726 299.702)" fill="#265d99"/>
    </g>
    <rect id="Rectángulo_45736" data-name="Rectángulo 45736" width="8" height="466" transform="translate(1306.839 4772)" fill="#25ffff"/>
    <ellipse id="Elipse_4812" data-name="Elipse 4812" cx="89.5" cy="13" rx="89.5" ry="13" transform="translate(999.839 5191)" fill="#0f58b9" opacity="0.2"/>
    <g id="Grupo_159288" data-name="Grupo 159288" transform="translate(1044.834 4822.991)">
      <rect id="Rectángulo_45737" data-name="Rectángulo 45737" width="152.084" height="215.658" transform="translate(85.023)" fill="#5b5b5b"/>
      <rect id="Rectángulo_45738" data-name="Rectángulo 45738" width="134.642" height="198.455" transform="translate(93.912 8.601)" fill="#adadad"/>
      <rect id="Rectángulo_45739" data-name="Rectángulo 45739" width="122.292" height="14.786" transform="translate(93.912 24.743)" fill="#fff"/>
      <rect id="Rectángulo_45740" data-name="Rectángulo 45740" width="117.263" height="5.442" transform="translate(93.912 34.087)" fill="#d3d3d3"/>
      <rect id="Rectángulo_45741" data-name="Rectángulo 45741" width="20.935" height="35.714" transform="translate(200.639 14.328)" fill="#5b5b5b"/>
      <rect id="Rectángulo_45742" data-name="Rectángulo 45742" width="18.06" height="31.815" transform="translate(202.076 16.276)" fill="#adadad"/>
      <rect id="Rectángulo_45743" data-name="Rectángulo 45743" width="13.545" height="10.883" transform="translate(204.336 28.645)" fill="#7c7c7c"/>
      <rect id="Rectángulo_45744" data-name="Rectángulo 45744" width="2.462" height="6.568" transform="translate(213.739 30.803)" fill="#d3d3d3"/>
      <rect id="Rectángulo_45745" data-name="Rectángulo 45745" width="2.459" height="6.568" transform="translate(209.879 30.803)" fill="#d3d3d3"/>
      <rect id="Rectángulo_45746" data-name="Rectángulo 45746" width="2.462" height="6.568" transform="translate(206.077 30.803)" fill="#d3d3d3"/>
      <g id="Grupo_159287" data-name="Grupo 159287">
        <g id="Grupo_159286" data-name="Grupo 159286" clip-path="url(#clip-path)">
          <path id="Trazado_601580" data-name="Trazado 601580" d="M37.522,13.394a5.131,5.131,0,1,0,5.131-5.131,5.13,5.13,0,0,0-5.131,5.131" transform="translate(85.33 18.791)" fill="#3c3c3c"/>
          <path id="Trazado_601581" data-name="Trazado 601581" d="M33.494,12.826a4.335,4.335,0,1,0,4.335-4.335,4.336,4.336,0,0,0-4.335,4.335" transform="translate(76.17 19.31)" fill="#3c3c3c"/>
          <path id="Trazado_601582" data-name="Trazado 601582" d="M40.708,21.512h0A2.314,2.314,0,0,0,43.017,19.2V11.4a2.308,2.308,0,1,0-4.617,0v7.8a2.314,2.314,0,0,0,2.308,2.308" transform="translate(87.327 20.679)" fill="#ff5050"/>
          <path id="Trazado_601583" data-name="Trazado 601583" d="M35.474,14.112h0a.947.947,0,0,0,.943-.943V9.983a.943.943,0,0,0-1.886,0v3.186a.947.947,0,0,0,.943.943" transform="translate(78.528 20.558)" fill="#ff5050"/>
          <rect id="Rectángulo_45747" data-name="Rectángulo 45747" width="2.325" height="4.053" transform="translate(214.391 50.042)" fill="#3c3c3c"/>
          <rect id="Rectángulo_45748" data-name="Rectángulo 45748" width="2.328" height="4.053" transform="translate(210.013 50.042)" fill="#3c3c3c"/>
          <rect id="Rectángulo_45749" data-name="Rectángulo 45749" width="2.325" height="4.053" transform="translate(205.635 50.042)" fill="#3c3c3c"/>
          <rect id="Rectángulo_45750" data-name="Rectángulo 45750" width="2.259" height="4.283" transform="translate(118.337 43.811)" fill="#d3d3d3"/>
          <rect id="Rectángulo_45751" data-name="Rectángulo 45751" width="2.259" height="4.283" transform="translate(112.873 43.811)" fill="#d3d3d3"/>
          <rect id="Rectángulo_45752" data-name="Rectángulo 45752" width="2.259" height="4.283" transform="translate(107.408 43.811)" fill="#d3d3d3"/>
          <rect id="Rectángulo_45753" data-name="Rectángulo 45753" width="26.501" height="34.329" transform="translate(132.115 48.091)" fill="#5b5b5b"/>
          <rect id="Rectángulo_45754" data-name="Rectángulo 45754" width="26.501" height="21.73" transform="translate(132.115 54.39)" fill="#7c7c7c"/>
          <rect id="Rectángulo_45755" data-name="Rectángulo 45755" width="18.993" height="34.329" transform="translate(104.504 48.091)" fill="#5b5b5b"/>
          <rect id="Rectángulo_45756" data-name="Rectángulo 45756" width="18.993" height="21.73" transform="translate(104.504 54.39)" fill="#7c7c7c"/>
          <rect id="Rectángulo_45757" data-name="Rectángulo 45757" width="2.737" height="8.565" transform="translate(151.517 39.529)" fill="#7c7c7c"/>
          <rect id="Rectángulo_45758" data-name="Rectángulo 45758" width="2.737" height="8.565" transform="translate(143.856 39.529)" fill="#7c7c7c"/>
          <rect id="Rectángulo_45759" data-name="Rectángulo 45759" width="2.737" height="8.565" transform="translate(136.194 39.529)" fill="#7c7c7c"/>
          <rect id="Rectángulo_45760" data-name="Rectángulo 45760" width="11.22" height="1.64" transform="translate(145.496 69.693)" fill="#d3d3d3"/>
          <rect id="Rectángulo_45761" data-name="Rectángulo 45761" width="2.325" height="11.162" transform="translate(214.391 54.095)" fill="#ff5050"/>
          <rect id="Rectángulo_45762" data-name="Rectángulo 45762" width="2.328" height="11.162" transform="translate(210.013 54.095)" fill="#fff"/>
          <rect id="Rectángulo_45763" data-name="Rectángulo 45763" width="2.325" height="11.162" transform="translate(205.635 54.095)" fill="#5c9aef"/>
          <path id="Trazado_601584" data-name="Trazado 601584" d="M67.872,23.167V44.292a1.865,1.865,0,0,1-3.729,0V23.167Z" transform="translate(145.87 52.685)" fill="#3c3c3c"/>
          <path id="Trazado_601585" data-name="Trazado 601585" d="M62.935,23.167V44.292a1.865,1.865,0,0,1-3.729,0V23.167Z" transform="translate(134.643 52.685)" fill="#3c3c3c"/>
          <path id="Trazado_601586" data-name="Trazado 601586" d="M57.882,23.167V44.292a1.866,1.866,0,0,1-3.733,0V23.167Z" transform="translate(123.142 52.685)" fill="#3c3c3c"/>
          <path id="Trazado_601587" data-name="Trazado 601587" d="M75.835,79.36c.111-.4,2.639-9.986-4.63-15.051a13.266,13.266,0,0,1-5.723-11.361l-1.637-.154a14.741,14.741,0,0,0,6.421,12.861c6.309,4.4,4.008,13.185,3.985,13.273Z" transform="translate(145.133 120.061)" fill="#3c3c3c"/>
          <path id="Trazado_601588" data-name="Trazado 601588" d="M61.671,80.763l.586-1.532a.44.44,0,0,1,.193.131c-.409-.589-.743-4.8,2.865-10.2,4.1-6.129,3.215-16.315,3.176-16.747l-1.637.151c.01.1.871,10.042-2.9,15.68-3.631,5.429-3.641,9.845-3.143,11.42a1.584,1.584,0,0,0,.864,1.094" transform="translate(137.757 119.208)" fill="#3c3c3c"/>
          <path id="Trazado_601589" data-name="Trazado 601589" d="M58.117,77.855l1.64-.013c-.072-9.331-.138-23.548-.02-24.464l-.8-.157-.586-.58c-.321.324-.429.432-.236,25.214" transform="translate(131.947 119.713)" fill="#3c3c3c"/>
          <path id="Trazado_601590" data-name="Trazado 601590" d="M54.539,77.755l1.581-.445A17.326,17.326,0,0,1,57.629,65.8a46.031,46.031,0,0,0,4.364-12.772l-1.621-.249a45.5,45.5,0,0,1-4.2,12.271,18.649,18.649,0,0,0-1.634,12.7" transform="translate(122.982 120.029)" fill="#3c3c3c"/>
          <path id="Trazado_601591" data-name="Trazado 601591" d="M62.811,113.249l1.644-.013c-.141-16.79-5.929-32.06-10.759-41.915-4.82-9.836-4.436-33.255-4.43-33.491L47.623,37.8c-.016.976-.393,24.055,4.6,34.241,4.754,9.7,10.451,24.73,10.589,41.208" transform="translate(108.272 85.962)" fill="#3c3c3c"/>
          <path id="Trazado_601592" data-name="Trazado 601592" d="M54.506,108.9c.01-.174,1.136-17.628-4.558-39.771C47.2,58.439,47,38.133,47,37.927l-1.644.013c.007.841.2,20.715,3,31.6,5.625,21.868,4.522,39.077,4.508,39.25Z" transform="translate(103.15 86.251)" fill="#3c3c3c"/>
          <path id="Trazado_601593" data-name="Trazado 601593" d="M43.191,110.891c0-.187.3-18.816,2.528-26.465,2.718-9.348,2.446-45.1,2.433-46.624l-1.64.013c0,.373.282,37.034-2.37,46.152-2.285,7.861-2.58,26.124-2.59,26.9Z" transform="translate(94.493 85.967)" fill="#3c3c3c"/>
          <path id="Trazado_601594" data-name="Trazado 601594" d="M55.6,108.907a58.154,58.154,0,0,0-.861-14.495c-.674-3.228-2.934-8.248-5.32-13.561-2.8-6.221-5.694-12.655-6.2-16.551-.953-7.252-.927-26.177-.927-26.37h-1.64c0,.779-.026,19.226.94,26.583.54,4.135,3.484,10.684,6.332,17.012,2.354,5.229,4.574,10.169,5.209,13.218a57.589,57.589,0,0,1,.835,14.036Z" transform="translate(92.428 86.258)" fill="#3c3c3c"/>
          <path id="Trazado_601595" data-name="Trazado 601595" d="M30.352,111.377l1.637-.111c-.37-5.5,1.388-19.422,2.8-30.61.527-4.178,1.022-8.077,1.365-11.217,1.287-11.7,2.036-31.572,2.046-31.772l-1.644-.059c-.007.2-.756,20.015-2.033,31.651-.344,3.13-.835,7.023-1.365,11.191-1.493,11.846-3.192,25.27-2.809,30.927" transform="translate(68.9 85.523)" fill="#3c3c3c"/>
          <path id="Trazado_601596" data-name="Trazado 601596" d="M48.778,110.625a103.969,103.969,0,0,0-.622-14.609c-.766-5.681-2.957-11.633-5.5-18.525-1.28-3.471-2.6-7.059-3.877-10.968-2.74-8.421-2.433-28.367-2.429-28.57l-1.644-.026c-.013.828-.318,20.421,2.515,29.1,1.28,3.939,2.609,7.544,3.893,11.031,2.508,6.8,4.669,12.671,5.409,18.175a101.488,101.488,0,0,1,.612,14.331Z" transform="translate(78.897 86.249)" fill="#3c3c3c"/>
          <path id="Trazado_601597" data-name="Trazado 601597" d="M35.088,110.9c0-.144.318-14.328,1.12-22.411.5-5.091,2.871-10.729,4.964-15.706a74.382,74.382,0,0,0,3.022-7.963c2.76-9.852,2.508-26.324,2.495-27.018l-1.644.026c0,.17.262,16.931-2.436,26.55a73.352,73.352,0,0,1-2.95,7.77C37.521,77.227,35.1,82.99,34.571,88.326c-.805,8.146-1.123,22.4-1.123,22.536Z" transform="translate(76.065 85.962)" fill="#3c3c3c"/>
          <rect id="Rectángulo_45764" data-name="Rectángulo 45764" width="51.722" height="10.864" transform="translate(169.852 65.257)" fill="#fff"/>
          <rect id="Rectángulo_45765" data-name="Rectángulo 45765" width="14.504" height="6.977" transform="translate(205.089 67.231)" fill="#7c7c7c"/>
          <rect id="Rectángulo_45766" data-name="Rectángulo 45766" width="14.504" height="6.977" transform="translate(188.463 67.231)" fill="#7c7c7c"/>
          <rect id="Rectángulo_45767" data-name="Rectángulo 45767" width="14.504" height="6.977" transform="translate(171.905 67.231)" fill="#7c7c7c"/>
          <rect id="Rectángulo_45768" data-name="Rectángulo 45768" width="1.745" height="6.977" transform="translate(214.973 67.231)" fill="#3c3c3c"/>
          <rect id="Rectángulo_45769" data-name="Rectángulo 45769" width="1.745" height="6.977" transform="translate(198.792 67.231)" fill="#3c3c3c"/>
          <rect id="Rectángulo_45770" data-name="Rectángulo 45770" width="1.745" height="6.977" transform="translate(181.757 67.231)" fill="#3c3c3c"/>
          <rect id="Rectángulo_45771" data-name="Rectángulo 45771" width="2.325" height="28.187" transform="translate(210.714 98.355)" fill="#ff5050"/>
          <rect id="Rectángulo_45772" data-name="Rectángulo 45772" width="2.328" height="28.187" transform="translate(194.553 98.355)" fill="#fff"/>
          <rect id="Rectángulo_45773" data-name="Rectángulo 45773" width="2.325" height="28.187" transform="translate(177.995 98.355)" fill="#5c9aef"/>
          <rect id="Rectángulo_45774" data-name="Rectángulo 45774" width="134.642" height="6.568" transform="translate(93.912 194.621)" fill="#3c3c3c"/>
          <path id="Trazado_601598" data-name="Trazado 601598" d="M66.922,61.482a1.642,1.642,0,1,0,1.64-1.644,1.641,1.641,0,0,0-1.64,1.644" transform="translate(152.19 136.08)" fill="#fff"/>
          <path id="Trazado_601599" data-name="Trazado 601599" d="M63.641,61.482a1.642,1.642,0,1,0,1.64-1.644,1.641,1.641,0,0,0-1.64,1.644" transform="translate(144.728 136.08)" fill="#fff"/>
          <path id="Trazado_601600" data-name="Trazado 601600" d="M60.361,61.482A1.642,1.642,0,1,0,62,59.838a1.641,1.641,0,0,0-1.64,1.644" transform="translate(137.269 136.08)" fill="#fff"/>
          <path id="Trazado_601601" data-name="Trazado 601601" d="M57.08,61.482a1.642,1.642,0,1,0,1.64-1.644,1.641,1.641,0,0,0-1.64,1.644" transform="translate(129.808 136.08)" fill="#fff"/>
          <path id="Trazado_601602" data-name="Trazado 601602" d="M53.8,61.482a1.642,1.642,0,1,0,1.64-1.644,1.639,1.639,0,0,0-1.64,1.644" transform="translate(122.346 136.08)" fill="#fff"/>
          <path id="Trazado_601603" data-name="Trazado 601603" d="M50.519,61.482a1.642,1.642,0,1,0,1.64-1.644,1.639,1.639,0,0,0-1.64,1.644" transform="translate(114.887 136.08)" fill="#fff"/>
          <path id="Trazado_601604" data-name="Trazado 601604" d="M47.238,61.482a1.642,1.642,0,1,0,1.64-1.644,1.639,1.639,0,0,0-1.64,1.644" transform="translate(107.426 136.08)" fill="#fff"/>
          <path id="Trazado_601605" data-name="Trazado 601605" d="M43.957,61.482a1.642,1.642,0,1,0,1.64-1.644,1.641,1.641,0,0,0-1.64,1.644" transform="translate(99.964 136.08)" fill="#fff"/>
          <path id="Trazado_601606" data-name="Trazado 601606" d="M40.677,61.482a1.642,1.642,0,1,0,1.64-1.644,1.641,1.641,0,0,0-1.64,1.644" transform="translate(92.505 136.08)" fill="#fff"/>
          <path id="Trazado_601607" data-name="Trazado 601607" d="M37.4,61.482a1.642,1.642,0,1,0,1.64-1.644,1.641,1.641,0,0,0-1.64,1.644" transform="translate(85.044 136.08)" fill="#fff"/>
          <path id="Trazado_601608" data-name="Trazado 601608" d="M34.115,61.482a1.642,1.642,0,1,0,1.64-1.644,1.641,1.641,0,0,0-1.64,1.644" transform="translate(77.582 136.08)" fill="#fff"/>
          <path id="Trazado_601609" data-name="Trazado 601609" d="M30.835,61.482a1.642,1.642,0,1,0,1.64-1.644,1.641,1.641,0,0,0-1.64,1.644" transform="translate(70.123 136.08)" fill="#fff"/>
          <rect id="Rectángulo_45775" data-name="Rectángulo 45775" width="63.148" height="5.134" transform="translate(165.406 126.545)" fill="#fff"/>
          <rect id="Rectángulo_45776" data-name="Rectángulo 45776" width="3.556" height="27.093" transform="translate(155.06 82.42)" fill="#3c3c3c"/>
          <rect id="Rectángulo_45777" data-name="Rectángulo 45777" width="3.556" height="27.093" transform="translate(147.552 82.42)" fill="#3c3c3c"/>
          <rect id="Rectángulo_45778" data-name="Rectángulo 45778" width="3.556" height="27.093" transform="translate(140.045 82.42)" fill="#3c3c3c"/>
          <rect id="Rectángulo_45779" data-name="Rectángulo 45779" width="3.556" height="27.093" transform="translate(132.115 82.42)" fill="#3c3c3c"/>
          <rect id="Rectángulo_45780" data-name="Rectángulo 45780" width="3.556" height="27.093" transform="translate(119.941 82.42)" fill="#3c3c3c"/>
          <rect id="Rectángulo_45781" data-name="Rectángulo 45781" width="3.556" height="27.093" transform="translate(112.437 82.42)" fill="#3c3c3c"/>
          <rect id="Rectángulo_45782" data-name="Rectángulo 45782" width="3.556" height="27.093" transform="translate(104.504 82.42)" fill="#3c3c3c"/>
          <path id="Trazado_601610" data-name="Trazado 601610" d="M49.93,32.507h0A2.983,2.983,0,0,1,52.9,35.48v.776a2.973,2.973,0,1,1-5.946,0V35.48a2.983,2.983,0,0,1,2.973-2.973" transform="translate(106.787 73.925)" fill="#fff"/>
          <path id="Trazado_601611" data-name="Trazado 601611" d="M52.9,33.413V46.051a2.973,2.973,0,1,1-5.946,0V33.413Z" transform="translate(106.787 75.986)" fill="#7c7c7c"/>
          <path id="Trazado_601612" data-name="Trazado 601612" d="M47.649,33.489a.742.742,0,1,0,.74-.74.739.739,0,0,0-.74.74" transform="translate(108.36 74.476)" fill="#3c3c3c"/>
          <path id="Trazado_601613" data-name="Trazado 601613" d="M47.674,32.507h0a2.983,2.983,0,0,1,2.973,2.973v.776a2.973,2.973,0,1,1-5.946,0V35.48a2.983,2.983,0,0,1,2.973-2.973" transform="translate(101.656 73.925)" fill="#fff"/>
          <path id="Trazado_601614" data-name="Trazado 601614" d="M50.647,33.413V46.051a2.973,2.973,0,1,1-5.946,0V33.413Z" transform="translate(101.656 75.986)" fill="#7c7c7c"/>
          <path id="Trazado_601615" data-name="Trazado 601615" d="M45.393,33.489a.742.742,0,1,0,.74-.74.739.739,0,0,0-.74.74" transform="translate(103.23 74.476)" fill="#3c3c3c"/>
          <path id="Trazado_601616" data-name="Trazado 601616" d="M45.381,32.507h0a2.983,2.983,0,0,1,2.973,2.973v.776a2.973,2.973,0,1,1-5.946,0V35.48a2.981,2.981,0,0,1,2.973-2.973" transform="translate(96.442 73.925)" fill="#fff"/>
          <path id="Trazado_601617" data-name="Trazado 601617" d="M48.354,33.413V46.051a2.973,2.973,0,1,1-5.946,0V33.413Z" transform="translate(96.442 75.986)" fill="#7c7c7c"/>
          <path id="Trazado_601618" data-name="Trazado 601618" d="M43.1,33.489a.742.742,0,1,0,.74-.74.739.739,0,0,0-.74.74" transform="translate(98.015 74.476)" fill="#3c3c3c"/>
          <path id="Trazado_601619" data-name="Trazado 601619" d="M42.959,32.507h0a2.983,2.983,0,0,1,2.973,2.973v.776a2.973,2.973,0,1,1-5.946,0V35.48a2.983,2.983,0,0,1,2.973-2.973" transform="translate(90.934 73.925)" fill="#fff"/>
          <path id="Trazado_601620" data-name="Trazado 601620" d="M45.932,33.413V46.051a2.973,2.973,0,1,1-5.946,0V33.413Z" transform="translate(90.934 75.986)" fill="#7c7c7c"/>
          <path id="Trazado_601621" data-name="Trazado 601621" d="M40.678,33.489a.742.742,0,1,0,.74-.74.739.739,0,0,0-.74.74" transform="translate(92.507 74.476)" fill="#3c3c3c"/>
          <path id="Trazado_601622" data-name="Trazado 601622" d="M39.306,32.507h0a2.983,2.983,0,0,1,2.973,2.973v.776a2.973,2.973,0,1,1-5.946,0V35.48a2.983,2.983,0,0,1,2.973-2.973" transform="translate(82.626 73.925)" fill="#fff"/>
          <path id="Trazado_601623" data-name="Trazado 601623" d="M42.279,33.413V46.051a2.973,2.973,0,1,1-5.946,0V33.413Z" transform="translate(82.626 75.986)" fill="#7c7c7c"/>
          <path id="Trazado_601624" data-name="Trazado 601624" d="M37.025,33.489a.742.742,0,1,0,.74-.74.739.739,0,0,0-.74.74" transform="translate(84.2 74.476)" fill="#3c3c3c"/>
          <path id="Trazado_601625" data-name="Trazado 601625" d="M37.014,32.507h0a2.978,2.978,0,0,1,2.97,2.973v.776a2.971,2.971,0,1,1-5.943,0V35.48a2.983,2.983,0,0,1,2.973-2.973" transform="translate(77.414 73.925)" fill="#fff"/>
          <path id="Trazado_601626" data-name="Trazado 601626" d="M39.987,33.413V46.051a2.973,2.973,0,1,1-5.946,0V33.413Z" transform="translate(77.414 75.986)" fill="#7c7c7c"/>
          <path id="Trazado_601627" data-name="Trazado 601627" d="M34.732,33.489a.742.742,0,1,0,.74-.74.739.739,0,0,0-.74.74" transform="translate(78.985 74.476)" fill="#3c3c3c"/>
          <path id="Trazado_601628" data-name="Trazado 601628" d="M34.591,32.507h0a2.983,2.983,0,0,1,2.973,2.973v.776a2.973,2.973,0,1,1-5.946,0V35.48a2.983,2.983,0,0,1,2.973-2.973" transform="translate(71.904 73.925)" fill="#fff"/>
          <path id="Trazado_601629" data-name="Trazado 601629" d="M37.564,33.413V46.051a2.973,2.973,0,1,1-5.946,0V33.413Z" transform="translate(71.904 75.986)" fill="#7c7c7c"/>
          <path id="Trazado_601630" data-name="Trazado 601630" d="M32.31,33.489a.742.742,0,1,0,.74-.74.739.739,0,0,0-.74.74" transform="translate(73.477 74.476)" fill="#3c3c3c"/>
          <rect id="Rectángulo_45783" data-name="Rectángulo 45783" width="63.148" height="42.691" transform="translate(165.406 131.679)" fill="#7c7c7c"/>
          <rect id="Rectángulo_45784" data-name="Rectángulo 45784" width="20.866" height="35.03" transform="translate(204.539 135.51)" fill="#5b5b5b"/>
          <rect id="Rectángulo_45785" data-name="Rectángulo 45785" width="31.094" height="35.03" transform="translate(168.723 135.51)" fill="#5b5b5b"/>
          <rect id="Rectángulo_45786" data-name="Rectángulo 45786" width="14.026" height="6.293" transform="translate(208.369 138.591)" fill="#fff"/>
          <rect id="Rectángulo_45787" data-name="Rectángulo 45787" width="3.146" height="6.293" transform="translate(194.084 138.591)" fill="#fff"/>
          <rect id="Rectángulo_45788" data-name="Rectángulo 45788" width="3.146" height="6.293" transform="translate(188.436 138.591)" fill="#fff"/>
          <rect id="Rectángulo_45789" data-name="Rectángulo 45789" width="3.146" height="6.293" transform="translate(182.789 138.591)" fill="#fff"/>
          <rect id="Rectángulo_45790" data-name="Rectángulo 45790" width="3.143" height="6.293" transform="translate(177.144 138.591)" fill="#fff"/>
          <rect id="Rectángulo_45791" data-name="Rectángulo 45791" width="3.146" height="6.293" transform="translate(171.496 138.591)" fill="#fff"/>
          <rect id="Rectángulo_45792" data-name="Rectángulo 45792" width="14.026" height="1.755" transform="translate(208.543 149.179)" fill="#3c3c3c"/>
          <rect id="Rectángulo_45793" data-name="Rectángulo 45793" width="14.026" height="1.755" transform="translate(208.543 154.438)" fill="#3c3c3c"/>
          <path id="Trazado_601631" data-name="Trazado 601631" d="M64.459,53.1a4.335,4.335,0,1,0,4.335-4.335A4.336,4.336,0,0,0,64.459,53.1" transform="translate(146.589 110.903)" fill="#3c3c3c"/>
          <path id="Trazado_601632" data-name="Trazado 601632" d="M66.438,54.388h0a.947.947,0,0,0,.943-.943V50.259a.943.943,0,0,0-1.886,0v3.186a.947.947,0,0,0,.943.943" transform="translate(148.945 112.151)" fill="#ff5050"/>
          <path id="Trazado_601633" data-name="Trazado 601633" d="M57.061,53.1A4.337,4.337,0,1,0,61.4,48.767,4.336,4.336,0,0,0,57.061,53.1" transform="translate(129.765 110.903)" fill="#3c3c3c"/>
          <path id="Trazado_601634" data-name="Trazado 601634" d="M59.04,54.388h0a.947.947,0,0,0,.943-.943V50.259a.943.943,0,0,0-1.886,0v3.186a.947.947,0,0,0,.943.943" transform="translate(132.121 112.151)" fill="#ff5050"/>
          <path id="Trazado_601635" data-name="Trazado 601635" d="M52.825,53.1a4.337,4.337,0,1,0,4.335-4.335A4.336,4.336,0,0,0,52.825,53.1" transform="translate(120.131 110.903)" fill="#3c3c3c"/>
          <path id="Trazado_601636" data-name="Trazado 601636" d="M54.8,54.388h0a.947.947,0,0,0,.943-.943V50.259a.943.943,0,0,0-1.886,0v3.186a.947.947,0,0,0,.943.943" transform="translate(122.49 112.151)" fill="#ff5050"/>
          <path id="Trazado_601637" data-name="Trazado 601637" d="M56.516,22.8l1.644-.062c0-.036-.138-3.726,0-10.526.085-4.436,1.274-6.516,2.266-6.944a1.235,1.235,0,0,1,1.355.347c2.027,1.817,2.171,6.548,2.056,8.215l1.64.115c.02-.278.432-6.836-2.6-9.551a2.846,2.846,0,0,0-3.11-.632c-1.978.861-3.163,3.929-3.251,8.421-.138,6.853,0,10.582,0,10.618" transform="translate(128.387 8.036)" fill="#fff"/>
          <rect id="Rectángulo_45794" data-name="Rectángulo 45794" width="2.135" height="4.512" transform="translate(191.979 20.228)" fill="#3c3c3c"/>
          <path id="Trazado_601638" data-name="Trazado 601638" d="M52.485,22.8l1.644-.062c0-.036-.138-3.726,0-10.526.085-4.436,1.274-6.516,2.262-6.944a1.239,1.239,0,0,1,1.359.347c2.027,1.817,2.171,6.548,2.056,8.215l1.64.115c.02-.278.432-6.836-2.6-9.551a2.846,2.846,0,0,0-3.11-.632c-1.978.861-3.163,3.929-3.251,8.421-.138,6.853,0,10.582,0,10.618" transform="translate(119.217 8.036)" fill="#fff"/>
          <rect id="Rectángulo_45795" data-name="Rectángulo 45795" width="2.135" height="4.512" transform="translate(178.774 20.228)" fill="#3c3c3c"/>
          <path id="Trazado_601639" data-name="Trazado 601639" d="M48.3,22.8l1.64-.062c0-.036-.134-3.726,0-10.526.088-4.436,1.277-6.516,2.266-6.944a1.239,1.239,0,0,1,1.359.347c2.027,1.817,2.171,6.548,2.056,8.215l1.64.115c.02-.278.432-6.836-2.6-9.551a2.846,2.846,0,0,0-3.11-.632c-1.978.861-3.163,3.929-3.251,8.421-.138,6.853,0,10.582,0,10.618" transform="translate(109.707 8.036)" fill="#fff"/>
          <rect id="Rectángulo_45796" data-name="Rectángulo 45796" width="2.135" height="4.512" transform="translate(165.082 20.228)" fill="#3c3c3c"/>
          <path id="Trazado_601640" data-name="Trazado 601640" d="M44.121,22.8l1.64-.062c0-.036-.134-3.726,0-10.526.088-4.436,1.277-6.516,2.266-6.944a1.239,1.239,0,0,1,1.359.347c2.027,1.817,2.171,6.548,2.056,8.215l1.64.115c.02-.278.432-6.836-2.6-9.551a2.846,2.846,0,0,0-3.11-.632c-1.978.861-3.163,3.929-3.251,8.421-.138,6.853,0,10.582,0,10.618" transform="translate(100.196 8.036)" fill="#fff"/>
          <rect id="Rectángulo_45797" data-name="Rectángulo 45797" width="2.135" height="4.512" transform="translate(151.39 20.228)" fill="#3c3c3c"/>
          <rect id="Rectángulo_45798" data-name="Rectángulo 45798" width="27.332" height="3.539" transform="translate(106.927 21.203)" fill="#5b5b5b"/>
          <rect id="Rectángulo_45799" data-name="Rectángulo 45799" width="2.207" height="3.536" transform="translate(127.606 17.664)" fill="#ff5050"/>
          <rect id="Rectángulo_45800" data-name="Rectángulo 45800" width="2.207" height="3.536" transform="translate(122.168 17.664)" fill="#ff5050"/>
          <rect id="Rectángulo_45801" data-name="Rectángulo 45801" width="2.207" height="3.536" transform="translate(116.73 17.664)" fill="#ff5050"/>
          <rect id="Rectángulo_45802" data-name="Rectángulo 45802" width="2.207" height="3.536" transform="translate(111.288 17.664)" fill="#ff5050"/>
          <path id="Trazado_601641" data-name="Trazado 601641" d="M44.571,18.418c-.976-3.742-1.981-5.55-5.943-8.3s-19.439-5.491-26.946.871S7.138,29.121,8.363,33.148c1.392,4.571,3.9,10.232,4.77,16.547.393,2.862-2.3,9.256-3.173,10.893l-.01.016c3.074,3.71,8.732,5.173,13.267,5.618a20.349,20.349,0,0,0,6.859-.478,4.519,4.519,0,0,1-.714-1.238c-.573-1.614-.288-8.457,1.126-10.045,2-2.249,4.371-2.1,7.3-1.5,3.886.789,3.012-4.22,5.455-5.039,1.595-.53.563-1.355.157-2.174.268-.553,1.486-.848,1.742-1.329.622-1.185-.75-1.631-.56-2.243.485-1.539,4.856-1.6,4.456-3.258-.694-2.865-5.717-8.437-5.013-10.31a15.32,15.32,0,0,0,.543-10.192" transform="translate(15.345 16.15)" fill="#ffb680"/>
          <path id="Trazado_601642" data-name="Trazado 601642" d="M46.134,18.579s-5.2-2-12.249,3.356c-4.512,3.425-4.669,7.449-10.687,9.118-5.183,1.441-4.247,5.131-4.247,5.131L14.493,48.747s-7.832-6.64-8.5-21.39c-.645-14.19,3.628-15.9,3.628-15.9S17.263,5.525,32.533,6.7c8.6.661,13.627,3.454,13.627,3.454a21.44,21.44,0,0,0-.026,8.428" transform="translate(13.471 14.882)" fill="#3c3c3c"/>
          <path id="Trazado_601643" data-name="Trazado 601643" d="M17.227,17.061s-.167-4.672-4.59-4.122-4.944,6.817-.108,10.52,4.7-6.4,4.7-6.4" transform="translate(20.707 29.323)" fill="#ffb680"/>
          <path id="Trazado_601644" data-name="Trazado 601644" d="M50.232,22.74h0L37.25,21.391s1.283-7.1,7.488-9.056c-2.56-3.438-6.709-6.656-13.5-7.609C9.374,1.661,5.907,22.393,5.907,22.393l59.6,6.951.76-3.795Z" transform="translate(13.433 10.044)" fill="#25ffff"/>
          <path id="Trazado_601645" data-name="Trazado 601645" d="M15.48,15.89l12.982,1.349-1.454-.252A21.737,21.737,0,0,0,22.971,6.834C16.763,8.8,15.48,15.89,15.48,15.89" transform="translate(35.204 15.541)" fill="#27e3e3"/>
          <path id="Trazado_601646" data-name="Trazado 601646" d="M18.083,29.494l24.15,35.79s12.51.01,18.535-.733c6.368-.786,17.978-2.174,22.713-5.609,4.152-3.009,8.48-8.441,15.608-8.284,4.731.1,3.153,8.284-1.991,13.421-7.815,7.8-10.019,6.522-22.218,10.582s-22.87,9.2-32.332,10.038c-6.6.583-28.426-20.621-28.426-20.621Z" transform="translate(32.113 67.073)" fill="#ed8a40"/>
          <path id="Trazado_601647" data-name="Trazado 601647" d="M37.576,130.763a12.321,12.321,0,0,1,4.8-2.19,19.957,19.957,0,0,0-5.216-5.949c-4.391-3.16-13.535-9.1-13.535-9.1L2,111.413s.5,5.559.566,9.236c4.158,3.33,10.923,8.3,16.407,10.114,8.545,2.832,14.269,2.96,18.6,0" transform="translate(4.555 253.368)" fill="#ff5050"/>
          <path id="Trazado_601648" data-name="Trazado 601648" d="M59.071,128.867a13.205,13.205,0,0,1,4.358-2.112,20,20,0,0,0-5.379-6.247c-4.387-3.16-13.532-9.1-13.532-9.1l-19.658,1.48-1.968.147a47.862,47.862,0,0,1,.544,5.2c4.073,3.313,11.266,8.712,17.035,10.625,8.545,2.832,14.269,2.96,18.6,0" transform="translate(52.06 253.368)" fill="#ff5050"/>
          <path id="Trazado_601649" data-name="Trazado 601649" d="M2.174,116.1c-.157,3.186,5.674,7.1,13.863,10.831s21.6,4.309,25.843,2.406c2.413-1.08,1.853-4.148.115-7.18a12.33,12.33,0,0,0-4.8,2.19c-4.335,2.96-10.055,2.829-18.6,0-5.484-1.817-12.252-6.784-16.407-10.114.013.707.013,1.352-.013,1.866" transform="translate(4.937 259.784)" fill="#d83a36"/>
          <path id="Trazado_601650" data-name="Trazado 601650" d="M23.068,115.657c-.157,3.186,5.674,7.1,13.863,10.831s21.6,4.309,25.843,2.406c2.331-1.044,1.879-3.952.278-6.882a13.205,13.205,0,0,0-4.358,2.112c-4.335,2.96-10.055,2.832-18.6,0-5.769-1.912-12.962-7.311-17.035-10.625.033.73.043,1.467.01,2.158" transform="translate(52.437 258.112)" fill="#d83a36"/>
          <path id="Trazado_601651" data-name="Trazado 601651" d="M4.94,111.965a96.64,96.64,0,0,0,13.67,10.89c5.975,3.831,10.968,2.626,5.972-2.217s-9.819-8.582-9.819-8.582Z" transform="translate(11.234 254.624)" fill="#fff"/>
          <path id="Trazado_601652" data-name="Trazado 601652" d="M26.295,111.965a96.639,96.639,0,0,0,13.67,10.89c5.975,3.831,10.968,2.626,5.972-2.217s-9.819-8.582-9.819-8.582Z" transform="translate(59.798 254.624)" fill="#fff"/>
          <path id="Trazado_601653" data-name="Trazado 601653" d="M17.3,132.837c4.4,2.763,22.2-4.833,30.125-3.4,4.934.894,12.713,2.7,17.877,3.939-2.724-28.662-1.565-63.479-2.986-68.76A93.14,93.14,0,0,0,43.328,28.6c-10.022,2.963-20.12-5.16-20.12-5.16S11.775,29.757,6.755,35.984C.819,43.348.482,64.79,1.189,83.5c4.472,8.978,10.032,20.211,12.1,24.687,3.68,7.966-.39,21.894,4.011,24.654" transform="translate(2.098 53.301)" fill="#25ffff"/>
          <path id="Trazado_601654" data-name="Trazado 601654" d="M1.395,103.6s29.336,2.086,39.574,1.516c7.128-.4,25.1-4.967,25.1-4.967-.36-2.744-.678-5.586-.953-8.49-5.163-1.238-12.939-3.045-17.877-3.936-7.923-1.434-25.722,6.162-30.125,3.4S16.783,74.434,13.1,66.471C11.034,61.992,5.474,50.759,1,41.781c.232,6.139.573,11.987.871,16.937C2.888,75.708.684,91.708,1.395,103.6" transform="translate(2.286 95.016)" fill="#27e3e3"/>
          <path id="Trazado_601655" data-name="Trazado 601655" d="M65.2,124.26c4.338,14.37,7.887,27.283,12.619,32.456S92.985,169.777,90.13,172.93s-5.612-.393-8.372,0-1.879,7.066-.593,14.393c.527,2.993,4.086,33.344,6.339,52.723l18.7.111c-.377-21.2-1.136-87.04-5.52-96.993-4.456-10.114-25.774-70.7-32.332-86.673-2.639.747-10.932,4.122-13.319,4.662C38.585,64.861,14.926,59.38,3.7,57.327.733,72.719.684,90.307.14,98.807c-1.149,18.037,5.17,63.3,4.021,74.519-.927,9.02-.458,50.579-1.139,66.632H34.25c1.005-17.091,3.687-63.433,3.687-71.386,0-13.529,8.3-64.589,8.3-64.589l2.93-4.715S60.859,109.89,65.2,124.26" transform="translate(0 128.471)" fill="#ffd12f"/>
          <path id="Trazado_601656" data-name="Trazado 601656" d="M40.745,210.247l14.645.085c-2.253-19.376-5.812-49.728-6.339-52.72-1.287-7.328-2.167-14,.593-14.393s5.52,3.156,8.375,0S50.433,132.178,45.7,127s-8.28-18.09-12.619-32.456S17.05,69.557,17.05,69.557l-2.93,4.715S35.759,123.39,37.2,134.044c1.179,8.719,2.947,58.437,3.549,76.2" transform="translate(32.111 158.182)" fill="#eaa918"/>
          <path id="Trazado_601657" data-name="Trazado 601657" d="M4.94,115.073S21.812,84.584,26.628,71.082,35,36.985,35,36.985s10.939-1.293,15.542-3.451c8.938,13.332,7.39,91.483,7.39,91.483Z" transform="translate(11.234 76.261)" fill="#ffd12f"/>
          <path id="Trazado_601658" data-name="Trazado 601658" d="M39.242,63.9c-2.312-4.816-7-15.863-8.12-17.844C17.328,21.776.558,20.777,1.294,44.538c.334,10.887,8.182,24.664,13.358,34,8.745-5.167,16.119-9,24.589-14.632" transform="translate(2.89 62.016)" fill="#27e3e3"/>
          <path id="Trazado_601659" data-name="Trazado 601659" d="M3.563,29.175s8.758-2.7,21.462,9.639C33.7,47.245,37.909,55.9,40.456,60.931c2.577,5.072,6.781,2.187,5.226-2.325-2.1-6.083-8.1-17.526-17.965-25.44C15.428,23.3,8.438,25.3,8.438,25.3Z" transform="translate(8.103 57.167)" fill="#3c3c3c"/>
          <path id="Trazado_601660" data-name="Trazado 601660" d="M49.964,58.215,46.382,56.09l-16.2-19.72,2.19-1.8,16.2,19.72Z" transform="translate(68.638 78.615)" fill="#3c3c3c"/>
          <path id="Trazado_601661" data-name="Trazado 601661" d="M98.365,40.668c-.714-4.531-10.857-5.1-16.214-2.842S75.374,45,71.815,47.488C64.53,52.576,37.348,60.116,33.174,60.6c-2.21.255-6.463-9.531-10.006-15.814-9.063,5.805-6.637,4.247-15.981,9.58C14.665,68.973,20.945,76.89,25,78.4c4.106,1.526,17.464-3.186,26.927-8.46,5.255-2.93,14.436-8.31,22.254-11.289,6.277-2.393,15.51-5.71,17.648-8.3,3.569-4.319,7.252-5.144,6.538-9.682" transform="translate(16.344 83.091)" fill="#ffb680"/>
          <rect id="Rectángulo_45803" data-name="Rectángulo 45803" width="73.517" height="4.731" transform="matrix(0.253, -0.968, 0.968, 0.253, 113.058, 169.926)" fill="#3c3c3c"/>
          <rect id="Rectángulo_45804" data-name="Rectángulo 45804" width="65.655" height="3.154" transform="matrix(0.252, -0.968, 0.968, 0.252, 111.008, 165.331)" fill="#adadad"/>
          <path id="Trazado_601662" data-name="Trazado 601662" d="M46.641,37.715c-1.113-3.425-5.055-3.425-8.31,3.268C36.641,44.45,40.875,53.86,45,47.446c2.5-3.886,2.868-5.952,1.64-9.731" transform="translate(86.303 80.628)" fill="#ed8a40"/>
          <path id="Trazado_601663" data-name="Trazado 601663" d="M.923,65.49l.805-8.464S29,62.854,44.836,62.255s22.336-6.977,22.336-6.977l1.477,10.055S58.368,71.4,37.076,70.211A274.169,274.169,0,0,1,.923,65.49" transform="translate(2.099 125.71)" fill="#eaa918"/>
          <path id="Trazado_601664" data-name="Trazado 601664" d="M29.782,58.074S28.345,78.7,20.481,86.4C13.634,93.1.374,92.053.374,92.053l-.36,5.268s16.914,2.243,26.249-9.079,8.915-28.783,8.915-28.783Z" transform="translate(0.032 132.068)" fill="#eaa918"/>
          <path id="Trazado_601665" data-name="Trazado 601665" d="M14.121,97.689l3.736-1.581s4.581-9.249,5.632-16.61S25.463,59.26,24.935,59.26s-6.044.593-6.044.593-.082,9.384-.92,18.62c-.6,6.63-3.85,19.216-3.85,19.216" transform="translate(32.113 134.765)" fill="#eaa918"/>
          <path id="Trazado_601666" data-name="Trazado 601666" d="M18.169,36.589a1.686,1.686,0,0,1-1.578,1.775,1.787,1.787,0,0,1,0-3.549,1.686,1.686,0,0,1,1.578,1.775" transform="translate(34.148 79.172)" fill="#fff"/>
        </g>
      </g>
    </g>
  </g>
</svg>
