<svg id="Grupo_159243" data-name="Grupo 159243" xmlns="http://www.w3.org/2000/svg" width="86.475" height="82.897" viewBox="0 0 86.475 82.897">
  <path id="Trazado_601501" data-name="Trazado 601501" d="M1017.27,82.9H933.44a1.329,1.329,0,0,1-1.171-.931,2.2,2.2,0,0,1,.086-1.8L974.268.747a1.164,1.164,0,0,1,2.174,0l41.914,79.423a2.213,2.213,0,0,1,.086,1.8,1.327,1.327,0,0,1-1.171.931Zm-81.3-3.474h78.779L975.354,4.785,935.965,79.423Z" transform="translate(-932.118)" fill="#fff"/>
  <path id="Trazado_601502" data-name="Trazado 601502" d="M1135.475,160.422c-2.529,0-4.315-2.106-4.315-4.838a4.525,4.525,0,0,1,4.389-4.836c2.678,0,4.389,2.028,4.389,4.836s-1.712,4.838-4.389,4.838Zm-2.455-15.994-1.042-37.449h7.143l-1.042,37.449Z" transform="translate(-1092.314 -86.101)" fill="#fff"/>
</svg>
