<svg xmlns="http://www.w3.org/2000/svg" width="505" height="221.319" viewBox="0 0 505 221.319">
  <g id="Grupo_159292" data-name="Grupo 159292" transform="translate(-799.839 -4576.191)">
    <path id="Trazado_601553" data-name="Trazado 601553" d="M-3706.819-9836.827l18.037-18.036,18.036,18.036" transform="translate(4751.158 14630.803)" fill="none" stroke="#25ffff" stroke-linecap="round" stroke-width="5"/>
    <g id="Grupo_159263" data-name="Grupo 159263" transform="translate(668 3107.734)">
      <text id="Contador_digital" data-name="Contador digital" transform="translate(392.839 1629)" fill="#fff" font-size="20" font-family="Roboto-Bold, Roboto" font-weight="700"><tspan x="-72.002" y="19">Contador digital</tspan></text>
    </g>
    <rect id="Rectángulo_45715" data-name="Rectángulo 45715" width="295" height="105" rx="12" transform="translate(914.839 4618.51)" fill="#407bcb"/>
    <g id="Grupo_159260" data-name="Grupo 159260" transform="translate(1009.71 4576.191)">
      <g id="Grupo_83986" data-name="Grupo 83986" transform="translate(0 0)">
        <g id="Grupo_83981" data-name="Grupo 83981">
          <path id="Trazado_102393" data-name="Trazado 102393" d="M-979.619,1368.5a132.994,132.994,0,0,0-46.06,8.3,10.423,10.423,0,0,0-6.737,9.766V1491.55a10.14,10.14,0,0,0,10.14,10.14h85.313a10.14,10.14,0,0,0,10.14-10.14V1386.566a10.424,10.424,0,0,0-6.737-9.766A132.994,132.994,0,0,0-979.619,1368.5Z" transform="translate(1032.416 -1368.502)" fill="#979797"/>
        </g>
        <g id="Grupo_83982" data-name="Grupo 83982" transform="translate(0 71.055)" opacity="0.5" style="mix-blend-mode: multiply;isolation: isolate">
          <path id="Trazado_102394" data-name="Trazado 102394" d="M-926.822,2207.057v-42.5c-5.439-3.181-11.921-4.886-18.193-6.072-18.127-3.429-36.714-4.043-55.127-2.886-6.971.438-13.985,1.14-20.651,3.222a41.352,41.352,0,0,0-11.623,5.634v14.129l.225-.06a114.233,114.233,0,0,1,14.172-2.8,156.786,156.786,0,0,1,28.956-1.044c5.346.266,10.681.749,15.995,1.389,9.461,1.141,19.294,2.947,26.824,8.787a30.094,30.094,0,0,1,9.809,32.314A10.132,10.132,0,0,0-926.822,2207.057Z" transform="translate(1032.416 -2155.065)" fill="#979797"/>
        </g>
        <g id="Grupo_83983" data-name="Grupo 83983" transform="translate(0 72.563)" opacity="0.9" style="mix-blend-mode: multiply;isolation: isolate">
          <path id="Trazado_102395" data-name="Trazado 102395" d="M-926.822,2178.124a45.863,45.863,0,0,0-13.384-4.284c-11.25-2.037-22.751-2.169-34.184-2.055-19.629.2-39.688,1.207-58.026,8.068v10.487c7.981-.451,15.951-1.011,23.945-1.294q27.226-.964,54.472.168,13.6.566,27.177,1.665Z" transform="translate(1032.416 -2171.756)" fill="#979797"/>
        </g>
        <g id="Grupo_83984" data-name="Grupo 83984" transform="translate(1.667 93.252)" opacity="0.3" style="mix-blend-mode: screen;isolation: isolate">
          <path id="Trazado_102396" data-name="Trazado 102396" d="M-1013.962,2403.694q0,11.651,0,23.3c0,3.362.176,7.146,2.662,9.408,1.695,1.542,4.092,2,6.365,2.287a80.128,80.128,0,0,0,16.638.39c-6.558-2.93-10.429-9.071-11.861-16.11s-.606-14.317.226-21.452c.014-.121-.246-.625-.246-.747A66.784,66.784,0,0,0-1013.962,2403.694Z" transform="translate(1013.965 -2400.772)" fill="#979797"/>
        </g>
        <g id="Grupo_83985" data-name="Grupo 83985" transform="translate(0 87.664)" opacity="0.9" style="mix-blend-mode: multiply;isolation: isolate">
          <rect id="Rectángulo_31791" data-name="Rectángulo 31791" width="105.594" height="1.246" fill="#979797"/>
        </g>
      </g>
      <g id="Grupo_84141" data-name="Grupo 84141" transform="translate(0 0)">
        <g id="Grupo_83989" data-name="Grupo 83989" transform="translate(0)">
          <g id="Grupo_83987" data-name="Grupo 83987">
            <path id="Trazado_102397" data-name="Trazado 102397" d="M-979.619,1368.5a132.994,132.994,0,0,0-46.06,8.3,10.423,10.423,0,0,0-6.737,9.766v69.062h105.594v-69.062a10.424,10.424,0,0,0-6.737-9.766A132.994,132.994,0,0,0-979.619,1368.5Z" transform="translate(1032.416 -1368.502)" fill="#b1b1b1"/>
          </g>
          <g id="Grupo_83988" data-name="Grupo 83988" transform="translate(0 4.891)" opacity="0.5" style="mix-blend-mode: multiply;isolation: isolate">
            <path id="Trazado_102398" data-name="Trazado 102398" d="M-926.822,1435.822a10.424,10.424,0,0,0-6.737-9.767c-2.752-1.038-6.284-2.242-10.472-3.406.481,2.533,1.338,5.073,1.921,7.585,3.28,14.113-3.114,29.493-14.286,38.719s-26.4,12.683-40.819,11.288a79.262,79.262,0,0,1-20.179-4.822c-4.025-1.511-9.69-5.43-15.023-7.1v36.563h105.594Z" transform="translate(1032.416 -1422.649)" fill="#b1b1b1"/>
          </g>
        </g>
        <g id="Grupo_83993" data-name="Grupo 83993" transform="translate(9.38 16.145)">
          <g id="Grupo_83990" data-name="Grupo 83990" opacity="0.9" style="mix-blend-mode: multiply;isolation: isolate">
            <rect id="Rectángulo_31792" data-name="Rectángulo 31792" width="86.833" height="48.802" fill="#b1b1b1"/>
          </g>
          <g id="Grupo_83991" data-name="Grupo 83991" transform="translate(0.859 0.86)">
            <rect id="Rectángulo_31793" data-name="Rectángulo 31793" width="85.115" height="47.083" fill="#bdbdbd"/>
          </g>
          <g id="Grupo_83992" data-name="Grupo 83992" transform="translate(0.859 0.86)" opacity="0.5" style="mix-blend-mode: multiply;isolation: isolate">
            <path id="Trazado_102399" data-name="Trazado 102399" d="M-833.955,1556.739h-11.452a37.128,37.128,0,0,1-3.974,20.649,37.1,37.1,0,0,1-18.722,17c-8.648,3.514-18.259,3.609-27.592,3.409-4.459-.1-8.923-.251-13.362-.706-3.382-.347-6.687-1.279-10.014-1.865v8.6h85.115Z" transform="translate(919.07 -1556.739)" fill="#bdbdbd"/>
          </g>
        </g>
        <g id="Grupo_83998" data-name="Grupo 83998" transform="translate(7.222 48.592)">
          <g id="Grupo_83994" data-name="Grupo 83994" opacity="0.3" style="mix-blend-mode: multiply;isolation: isolate">
            <path id="Trazado_102400" data-name="Trazado 102400" d="M-952.466,1907.722l32.372-1.326,20.314,19.987-4.231.537-17.919-19.2Z" transform="translate(952.466 -1906.396)" fill="#b1b1b1"/>
          </g>
          <g id="Grupo_83995" data-name="Grupo 83995" transform="translate(0 1.326)">
            <path id="Trazado_102401" data-name="Trazado 102401" d="M-952.466,1940.269v-19.2h30.535l17.919,19.2Z" transform="translate(952.466 -1921.07)" fill="#343434"/>
          </g>
          <g id="Grupo_83996" data-name="Grupo 83996" transform="translate(0 1.326)" opacity="0.5" style="mix-blend-mode: multiply;isolation: isolate">
            <path id="Trazado_102402" data-name="Trazado 102402" d="M-921.931,1921.07h-3.695c.036.11.061.224.106.328a25.489,25.489,0,0,0,1.424,2.411,8.424,8.424,0,0,1-2.03,10.38c-2.274,1.808-5.321,2.271-8.222,2.431a53.38,53.38,0,0,1-14.145-1.115c-1.146-.246-2.563-.805-3.974-1.206v5.97h48.454Z" transform="translate(952.466 -1921.07)" fill="#343434"/>
          </g>
          <g id="Grupo_83997" data-name="Grupo 83997" transform="translate(1.11 2.535)" opacity="0.3" style="mix-blend-mode: screen;isolation: isolate">
            <path id="Trazado_102403" data-name="Trazado 102403" d="M-916.242,1934.459c-7.3-.033-14.874.082-22.218.071a1.718,1.718,0,0,0-1.722,1.774l.249,8.642c.4-2.592,2.788-4.639,5.06-5.95a26.41,26.41,0,0,1,7.428-2.5C-923.754,1935.658-919.932,1935.3-916.242,1934.459Z" transform="translate(940.182 -1934.453)" fill="#343434"/>
          </g>
        </g>
        <g id="Grupo_84115" data-name="Grupo 84115" transform="translate(13.677 20.442)">
          <g id="Grupo_83999" data-name="Grupo 83999" opacity="0.9" style="mix-blend-mode: multiply;isolation: isolate">
            <rect id="Rectángulo_31794" data-name="Rectángulo 31794" width="77.975" height="22.36" fill="#b1b1b1"/>
          </g>
          <g id="Grupo_84000" data-name="Grupo 84000" transform="translate(1.073 1.074)">
            <rect id="Rectángulo_31795" data-name="Rectángulo 31795" width="75.828" height="20.213" fill="#6e7c78"/>
          </g>
          <g id="Grupo_84015" data-name="Grupo 84015" transform="translate(19.909 4.643)">
            <g id="Grupo_84002" data-name="Grupo 84002" transform="translate(0.84 5.738)" opacity="0.2">
              <g id="Grupo_84001" data-name="Grupo 84001">
                <rect id="Rectángulo_31796" data-name="Rectángulo 31796" width="4.23" height="0.895" fill="#fff"/>
              </g>
            </g>
            <g id="Grupo_84004" data-name="Grupo 84004" transform="translate(0.84)">
              <g id="Grupo_84003" data-name="Grupo 84003">
                <rect id="Rectángulo_31797" data-name="Rectángulo 31797" width="4.23" height="0.894" fill="#fff"/>
              </g>
            </g>
            <g id="Grupo_84006" data-name="Grupo 84006" transform="translate(0.84 11.475)">
              <g id="Grupo_84005" data-name="Grupo 84005">
                <rect id="Rectángulo_31798" data-name="Rectángulo 31798" width="4.23" height="0.895" fill="#fff"/>
              </g>
            </g>
            <g id="Grupo_84008" data-name="Grupo 84008" transform="translate(0 6.939)">
              <g id="Grupo_84007" data-name="Grupo 84007">
                <rect id="Rectángulo_31799" data-name="Rectángulo 31799" width="0.894" height="4.231" fill="#fff"/>
              </g>
            </g>
            <g id="Grupo_84010" data-name="Grupo 84010" transform="translate(5.065 6.939)">
              <g id="Grupo_84009" data-name="Grupo 84009">
                <rect id="Rectángulo_31800" data-name="Rectángulo 31800" width="0.895" height="4.231" fill="#fff"/>
              </g>
            </g>
            <g id="Grupo_84012" data-name="Grupo 84012" transform="translate(0 1.201)">
              <g id="Grupo_84011" data-name="Grupo 84011">
                <rect id="Rectángulo_31801" data-name="Rectángulo 31801" width="0.894" height="4.231" fill="#fff"/>
              </g>
            </g>
            <g id="Grupo_84014" data-name="Grupo 84014" transform="translate(5.065 1.201)">
              <g id="Grupo_84013" data-name="Grupo 84013">
                <rect id="Rectángulo_31802" data-name="Rectángulo 31802" width="0.895" height="4.231" fill="#fff"/>
              </g>
            </g>
          </g>
          <g id="Grupo_84030" data-name="Grupo 84030" transform="translate(27.308 4.643)">
            <g id="Grupo_84017" data-name="Grupo 84017" transform="translate(0.841 5.738)" opacity="0.2">
              <g id="Grupo_84016" data-name="Grupo 84016">
                <rect id="Rectángulo_31803" data-name="Rectángulo 31803" width="4.232" height="0.895" fill="#fff"/>
              </g>
            </g>
            <g id="Grupo_84019" data-name="Grupo 84019" transform="translate(0.841)">
              <g id="Grupo_84018" data-name="Grupo 84018">
                <rect id="Rectángulo_31804" data-name="Rectángulo 31804" width="4.232" height="0.894" fill="#fff"/>
              </g>
            </g>
            <g id="Grupo_84021" data-name="Grupo 84021" transform="translate(0.841 11.475)">
              <g id="Grupo_84020" data-name="Grupo 84020">
                <rect id="Rectángulo_31805" data-name="Rectángulo 31805" width="4.232" height="0.895" fill="#fff"/>
              </g>
            </g>
            <g id="Grupo_84023" data-name="Grupo 84023" transform="translate(0 6.939)">
              <g id="Grupo_84022" data-name="Grupo 84022">
                <rect id="Rectángulo_31806" data-name="Rectángulo 31806" width="0.895" height="4.231" fill="#fff"/>
              </g>
            </g>
            <g id="Grupo_84025" data-name="Grupo 84025" transform="translate(5.065 6.939)">
              <g id="Grupo_84024" data-name="Grupo 84024">
                <rect id="Rectángulo_31807" data-name="Rectángulo 31807" width="0.894" height="4.231" fill="#fff"/>
              </g>
            </g>
            <g id="Grupo_84027" data-name="Grupo 84027" transform="translate(0 1.201)">
              <g id="Grupo_84026" data-name="Grupo 84026">
                <rect id="Rectángulo_31808" data-name="Rectángulo 31808" width="0.895" height="4.231" fill="#fff"/>
              </g>
            </g>
            <g id="Grupo_84029" data-name="Grupo 84029" transform="translate(5.065 1.201)">
              <g id="Grupo_84028" data-name="Grupo 84028">
                <rect id="Rectángulo_31809" data-name="Rectángulo 31809" width="0.894" height="4.231" fill="#fff"/>
              </g>
            </g>
          </g>
          <g id="Grupo_84045" data-name="Grupo 84045" transform="translate(34.708 4.643)">
            <g id="Grupo_84032" data-name="Grupo 84032" transform="translate(0.84 5.738)">
              <g id="Grupo_84031" data-name="Grupo 84031">
                <rect id="Rectángulo_31810" data-name="Rectángulo 31810" width="4.232" height="0.895" fill="#fff"/>
              </g>
            </g>
            <g id="Grupo_84034" data-name="Grupo 84034" transform="translate(0.84)">
              <g id="Grupo_84033" data-name="Grupo 84033">
                <rect id="Rectángulo_31811" data-name="Rectángulo 31811" width="4.232" height="0.894" fill="#fff"/>
              </g>
            </g>
            <g id="Grupo_84036" data-name="Grupo 84036" transform="translate(0.84 11.475)">
              <g id="Grupo_84035" data-name="Grupo 84035">
                <rect id="Rectángulo_31812" data-name="Rectángulo 31812" width="4.232" height="0.895" fill="#fff"/>
              </g>
            </g>
            <g id="Grupo_84038" data-name="Grupo 84038" transform="translate(0 6.939)" opacity="0.2">
              <g id="Grupo_84037" data-name="Grupo 84037">
                <rect id="Rectángulo_31813" data-name="Rectángulo 31813" width="0.894" height="4.231" fill="#fff"/>
              </g>
            </g>
            <g id="Grupo_84040" data-name="Grupo 84040" transform="translate(5.065 6.939)">
              <g id="Grupo_84039" data-name="Grupo 84039">
                <rect id="Rectángulo_31814" data-name="Rectángulo 31814" width="0.894" height="4.231" fill="#fff"/>
              </g>
            </g>
            <g id="Grupo_84042" data-name="Grupo 84042" transform="translate(0 1.201)" opacity="0.2">
              <g id="Grupo_84041" data-name="Grupo 84041">
                <rect id="Rectángulo_31815" data-name="Rectángulo 31815" width="0.894" height="4.231" fill="#fff"/>
              </g>
            </g>
            <g id="Grupo_84044" data-name="Grupo 84044" transform="translate(5.065 1.201)">
              <g id="Grupo_84043" data-name="Grupo 84043">
                <rect id="Rectángulo_31816" data-name="Rectángulo 31816" width="0.894" height="4.231" fill="#fff"/>
              </g>
            </g>
          </g>
          <g id="Grupo_84060" data-name="Grupo 84060" transform="translate(42.107 4.643)">
            <g id="Grupo_84047" data-name="Grupo 84047" transform="translate(0.84 5.738)">
              <g id="Grupo_84046" data-name="Grupo 84046">
                <rect id="Rectángulo_31817" data-name="Rectángulo 31817" width="4.232" height="0.895" fill="#fff"/>
              </g>
            </g>
            <g id="Grupo_84049" data-name="Grupo 84049" transform="translate(0.84)">
              <g id="Grupo_84048" data-name="Grupo 84048">
                <rect id="Rectángulo_31818" data-name="Rectángulo 31818" width="4.232" height="0.894" fill="#fff"/>
              </g>
            </g>
            <g id="Grupo_84051" data-name="Grupo 84051" transform="translate(0.84 11.475)">
              <g id="Grupo_84050" data-name="Grupo 84050">
                <rect id="Rectángulo_31819" data-name="Rectángulo 31819" width="4.232" height="0.895" fill="#fff"/>
              </g>
            </g>
            <g id="Grupo_84053" data-name="Grupo 84053" transform="translate(0 6.939)" opacity="0.2">
              <g id="Grupo_84052" data-name="Grupo 84052">
                <rect id="Rectángulo_31820" data-name="Rectángulo 31820" width="0.895" height="4.231" fill="#fff"/>
              </g>
            </g>
            <g id="Grupo_84055" data-name="Grupo 84055" transform="translate(5.065 6.939)">
              <g id="Grupo_84054" data-name="Grupo 84054">
                <rect id="Rectángulo_31821" data-name="Rectángulo 31821" width="0.895" height="4.231" fill="#fff"/>
              </g>
            </g>
            <g id="Grupo_84057" data-name="Grupo 84057" transform="translate(0 1.201)" opacity="0.2">
              <g id="Grupo_84056" data-name="Grupo 84056">
                <rect id="Rectángulo_31822" data-name="Rectángulo 31822" width="0.895" height="4.231" fill="#fff"/>
              </g>
            </g>
            <g id="Grupo_84059" data-name="Grupo 84059" transform="translate(5.065 1.201)">
              <g id="Grupo_84058" data-name="Grupo 84058">
                <rect id="Rectángulo_31823" data-name="Rectángulo 31823" width="0.895" height="4.231" fill="#fff"/>
              </g>
            </g>
          </g>
          <g id="Grupo_84075" data-name="Grupo 84075" transform="translate(49.506 4.643)">
            <g id="Grupo_84062" data-name="Grupo 84062" transform="translate(0.841 5.738)">
              <g id="Grupo_84061" data-name="Grupo 84061">
                <rect id="Rectángulo_31824" data-name="Rectángulo 31824" width="4.232" height="0.895" fill="#fff"/>
              </g>
            </g>
            <g id="Grupo_84064" data-name="Grupo 84064" transform="translate(0.841)">
              <g id="Grupo_84063" data-name="Grupo 84063">
                <rect id="Rectángulo_31825" data-name="Rectángulo 31825" width="4.232" height="0.894" fill="#fff"/>
              </g>
            </g>
            <g id="Grupo_84066" data-name="Grupo 84066" transform="translate(0.841 11.475)">
              <g id="Grupo_84065" data-name="Grupo 84065">
                <rect id="Rectángulo_31826" data-name="Rectángulo 31826" width="4.232" height="0.895" fill="#fff"/>
              </g>
            </g>
            <g id="Grupo_84068" data-name="Grupo 84068" transform="translate(0 6.939)">
              <g id="Grupo_84067" data-name="Grupo 84067">
                <rect id="Rectángulo_31827" data-name="Rectángulo 31827" width="0.895" height="4.231" fill="#fff"/>
              </g>
            </g>
            <g id="Grupo_84070" data-name="Grupo 84070" transform="translate(5.065 6.939)">
              <g id="Grupo_84069" data-name="Grupo 84069">
                <rect id="Rectángulo_31828" data-name="Rectángulo 31828" width="0.895" height="4.231" fill="#fff"/>
              </g>
            </g>
            <g id="Grupo_84072" data-name="Grupo 84072" transform="translate(0 1.201)">
              <g id="Grupo_84071" data-name="Grupo 84071">
                <rect id="Rectángulo_31829" data-name="Rectángulo 31829" width="0.895" height="4.231" fill="#fff"/>
              </g>
            </g>
            <g id="Grupo_84074" data-name="Grupo 84074" transform="translate(5.065 1.201)" opacity="0.2">
              <g id="Grupo_84073" data-name="Grupo 84073">
                <rect id="Rectángulo_31830" data-name="Rectángulo 31830" width="0.895" height="4.231" fill="#fff"/>
              </g>
            </g>
          </g>
          <g id="Grupo_84090" data-name="Grupo 84090" transform="translate(56.907 4.643)">
            <g id="Grupo_84077" data-name="Grupo 84077" transform="translate(0.84 5.738)">
              <g id="Grupo_84076" data-name="Grupo 84076">
                <rect id="Rectángulo_31831" data-name="Rectángulo 31831" width="4.23" height="0.895" fill="#fff"/>
              </g>
            </g>
            <g id="Grupo_84079" data-name="Grupo 84079" transform="translate(0.84)" opacity="0.2">
              <g id="Grupo_84078" data-name="Grupo 84078">
                <rect id="Rectángulo_31832" data-name="Rectángulo 31832" width="4.23" height="0.894" fill="#fff"/>
              </g>
            </g>
            <g id="Grupo_84081" data-name="Grupo 84081" transform="translate(0.84 11.475)" opacity="0.2">
              <g id="Grupo_84080" data-name="Grupo 84080">
                <rect id="Rectángulo_31833" data-name="Rectángulo 31833" width="4.23" height="0.895" fill="#fff"/>
              </g>
            </g>
            <g id="Grupo_84083" data-name="Grupo 84083" transform="translate(0 6.939)" opacity="0.2">
              <g id="Grupo_84082" data-name="Grupo 84082">
                <rect id="Rectángulo_31834" data-name="Rectángulo 31834" width="0.895" height="4.231" fill="#fff"/>
              </g>
            </g>
            <g id="Grupo_84085" data-name="Grupo 84085" transform="translate(5.063 6.939)">
              <g id="Grupo_84084" data-name="Grupo 84084">
                <rect id="Rectángulo_31835" data-name="Rectángulo 31835" width="0.894" height="4.231" fill="#fff"/>
              </g>
            </g>
            <g id="Grupo_84087" data-name="Grupo 84087" transform="translate(0 1.201)">
              <g id="Grupo_84086" data-name="Grupo 84086">
                <rect id="Rectángulo_31836" data-name="Rectángulo 31836" width="0.895" height="4.231" fill="#fff"/>
              </g>
            </g>
            <g id="Grupo_84089" data-name="Grupo 84089" transform="translate(5.063 1.201)">
              <g id="Grupo_84088" data-name="Grupo 84088">
                <rect id="Rectángulo_31837" data-name="Rectángulo 31837" width="0.894" height="4.231" fill="#fff"/>
              </g>
            </g>
          </g>
          <g id="Grupo_84105" data-name="Grupo 84105" transform="translate(67.128 4.643)">
            <g id="Grupo_84092" data-name="Grupo 84092" transform="translate(0.841 5.738)">
              <g id="Grupo_84091" data-name="Grupo 84091">
                <rect id="Rectángulo_31838" data-name="Rectángulo 31838" width="4.232" height="0.895" fill="#fff"/>
              </g>
            </g>
            <g id="Grupo_84094" data-name="Grupo 84094" transform="translate(0.841)">
              <g id="Grupo_84093" data-name="Grupo 84093">
                <rect id="Rectángulo_31839" data-name="Rectángulo 31839" width="4.232" height="0.894" fill="#fff"/>
              </g>
            </g>
            <g id="Grupo_84096" data-name="Grupo 84096" transform="translate(0.841 11.475)">
              <g id="Grupo_84095" data-name="Grupo 84095">
                <rect id="Rectángulo_31840" data-name="Rectángulo 31840" width="4.232" height="0.895" fill="#fff"/>
              </g>
            </g>
            <g id="Grupo_84098" data-name="Grupo 84098" transform="translate(0 6.939)">
              <g id="Grupo_84097" data-name="Grupo 84097">
                <rect id="Rectángulo_31841" data-name="Rectángulo 31841" width="0.895" height="4.231" fill="#fff"/>
              </g>
            </g>
            <g id="Grupo_84100" data-name="Grupo 84100" transform="translate(5.065 6.939)">
              <g id="Grupo_84099" data-name="Grupo 84099">
                <rect id="Rectángulo_31842" data-name="Rectángulo 31842" width="0.895" height="4.231" fill="#fff"/>
              </g>
            </g>
            <g id="Grupo_84102" data-name="Grupo 84102" transform="translate(0 1.201)">
              <g id="Grupo_84101" data-name="Grupo 84101">
                <rect id="Rectángulo_31843" data-name="Rectángulo 31843" width="0.895" height="4.231" fill="#fff"/>
              </g>
            </g>
            <g id="Grupo_84104" data-name="Grupo 84104" transform="translate(5.065 1.201)">
              <g id="Grupo_84103" data-name="Grupo 84103">
                <rect id="Rectángulo_31844" data-name="Rectángulo 31844" width="0.895" height="4.231" fill="#fff"/>
              </g>
            </g>
          </g>
          <g id="Grupo_84107" data-name="Grupo 84107" transform="translate(64.549 15.269)">
            <g id="Grupo_84106" data-name="Grupo 84106" transform="translate(0)">
              <rect id="Rectángulo_31845" data-name="Rectángulo 31845" width="0.895" height="2" fill="#fff"/>
            </g>
          </g>
          <g id="Grupo_84112" data-name="Grupo 84112" transform="translate(59.886 25.241)">
            <g id="Grupo_84108" data-name="Grupo 84108" transform="translate(0 0.357)">
              <path id="Trazado_102404" data-name="Trazado 102404" d="M-171.533,1692.805c.124-.152.273-.343.395-.492l1.274-1.488h.942l-1.667,1.775,1.9,2.542h-.958l-1.485-2.075-.4.45v1.625h-.779v-6.338h.779Z" transform="translate(172.312 -1688.805)" fill="#272727"/>
            </g>
            <g id="Grupo_84109" data-name="Grupo 84109" transform="translate(3.814 2.378)">
              <path id="Trazado_102405" data-name="Trazado 102405" d="M-137.713,1706.712l.58,2.191c.124.482.234.933.321,1.377.117-.435.26-.9.409-1.372l.7-2.2h.66l.673,2.16c.154.512.281.969.381,1.409.1-.437.217-.892.356-1.4l.617-2.167h.774l-1.394,4.318h-.715l-.655-2.06a12.831,12.831,0,0,1-.383-1.424c-.127.521-.262.969-.414,1.431l-.694,2.053h-.718l-1.3-4.318Z" transform="translate(138.511 -1706.712)" fill="#272727"/>
            </g>
            <g id="Grupo_84110" data-name="Grupo 84110" transform="translate(10.993)">
              <path id="Trazado_102406" data-name="Trazado 102406" d="M-74.292,1685.64v8.927h-.6v-8.927Z" transform="translate(74.89 -1685.64)" fill="#272727"/>
            </g>
            <g id="Grupo_84111" data-name="Grupo 84111" transform="translate(13.015 0.357)">
              <path id="Trazado_102407" data-name="Trazado 102407" d="M-56.974,1688.805h.781v2.7a1.754,1.754,0,0,1,.582-.554,1.579,1.579,0,0,1,.805-.218c.582,0,1.5.355,1.5,1.844v2.571h-.781v-2.486c0-.7-.264-1.281-1-1.281a1.142,1.142,0,0,0-1.061.783,1.068,1.068,0,0,0-.052.374v2.609h-.781Z" transform="translate(56.974 -1688.805)" fill="#272727"/>
            </g>
          </g>
          <g id="Grupo_84113" data-name="Grupo 84113" transform="translate(1.073 1.074)" opacity="0.5" style="mix-blend-mode: multiply;isolation: isolate">
            <path id="Trazado_102408" data-name="Trazado 102408" d="M-795.681,1604.3l-74.343,1.256-1.485,18.957V1604.3Z" transform="translate(871.509 -1604.304)" fill="#6e7c78"/>
          </g>
        </g>
        <g id="Grupo_84121" data-name="Grupo 84121" transform="translate(46.386)">
          <g id="Grupo_84116" data-name="Grupo 84116">
            <path id="Trazado_102410" data-name="Trazado 102410" d="M-504.4,1368.765c-2.63-.165-5.335-.262-8.121-.262-2.187,0-4.318.067-6.411.171l2.708,7.417h9.149Z" transform="translate(518.935 -1368.502)" fill="#777"/>
          </g>
          <g id="Grupo_84119" data-name="Grupo 84119" transform="translate(5.274 1.74)">
            <g id="Grupo_84117" data-name="Grupo 84117">
              <path id="Trazado_102411" data-name="Trazado 102411" d="M-456.535,1389.772a2.008,2.008,0,0,1-2.008,2.008,2.008,2.008,0,0,1-2.008-2.008,2.008,2.008,0,0,1,2.008-2.008A2.008,2.008,0,0,1-456.535,1389.772Z" transform="translate(460.551 -1387.764)" fill="#343434"/>
            </g>
            <g id="Grupo_84118" data-name="Grupo 84118" opacity="0.5" style="mix-blend-mode: multiply;isolation: isolate">
              <path id="Trazado_102412" data-name="Trazado 102412" d="M-456.572,1389.4a2.006,2.006,0,0,0-1.971-1.639,2.008,2.008,0,0,0-2.008,2.008,2,2,0,0,0,1.062,1.761,2,2,0,0,1,.416-2A2.006,2.006,0,0,1-456.572,1389.4Z" transform="translate(460.551 -1387.764)" fill="#343434"/>
            </g>
          </g>
          <g id="Grupo_84120" data-name="Grupo 84120" transform="translate(0 0.078)" opacity="0.5" style="mix-blend-mode: multiply;isolation: isolate">
            <path id="Trazado_102413" data-name="Trazado 102413" d="M-516.227,1376.88h9.149l2.675-7.326c-.483-.03-.983-.046-1.471-.071.01.352.037.708.039,1.055a5.5,5.5,0,0,1-3.228,4.946,5.5,5.5,0,0,1-5.818-1.019,5.354,5.354,0,0,1-1.448-2.419c-.2-.708-.051-1.814-.249-2.676-.789.027-1.578.053-2.356.092Z" transform="translate(518.935 -1369.37)" fill="#777"/>
          </g>
        </g>
        <g id="Grupo_84139" data-name="Grupo 84139" transform="translate(0 68.579)">
          <g id="Grupo_84122" data-name="Grupo 84122" transform="translate(0 0.538)">
            <rect id="Rectángulo_31846" data-name="Rectángulo 31846" width="105.594" height="18.01" fill="#777"/>
          </g>
          <g id="Grupo_84124" data-name="Grupo 84124" transform="translate(0)">
            <g id="Grupo_84123" data-name="Grupo 84123">
              <rect id="Rectángulo_31847" data-name="Rectángulo 31847" width="105.594" height="1.074" fill="#343434"/>
            </g>
          </g>
          <g id="Grupo_84126" data-name="Grupo 84126" transform="translate(0 3.002)">
            <g id="Grupo_84125" data-name="Grupo 84125">
              <rect id="Rectángulo_31848" data-name="Rectángulo 31848" width="105.594" height="1.074" fill="#343434"/>
            </g>
          </g>
          <g id="Grupo_84128" data-name="Grupo 84128" transform="translate(0 6.004)">
            <g id="Grupo_84127" data-name="Grupo 84127">
              <rect id="Rectángulo_31849" data-name="Rectángulo 31849" width="105.594" height="1.074" fill="#343434"/>
            </g>
          </g>
          <g id="Grupo_84130" data-name="Grupo 84130" transform="translate(0 9.006)">
            <g id="Grupo_84129" data-name="Grupo 84129">
              <rect id="Rectángulo_31850" data-name="Rectángulo 31850" width="105.594" height="1.074" fill="#343434"/>
            </g>
          </g>
          <g id="Grupo_84132" data-name="Grupo 84132" transform="translate(0 12.007)">
            <g id="Grupo_84131" data-name="Grupo 84131">
              <rect id="Rectángulo_31851" data-name="Rectángulo 31851" width="105.594" height="1.074" fill="#343434"/>
            </g>
          </g>
          <g id="Grupo_84134" data-name="Grupo 84134" transform="translate(0 15.009)">
            <g id="Grupo_84133" data-name="Grupo 84133">
              <rect id="Rectángulo_31852" data-name="Rectángulo 31852" width="105.594" height="1.074" fill="#343434"/>
            </g>
          </g>
          <g id="Grupo_84136" data-name="Grupo 84136" transform="translate(0 18.011)">
            <g id="Grupo_84135" data-name="Grupo 84135">
              <rect id="Rectángulo_31853" data-name="Rectángulo 31853" width="105.594" height="1.074" fill="#343434"/>
            </g>
          </g>
          <g id="Grupo_84137" data-name="Grupo 84137" transform="translate(0 0.537)" opacity="0.5" style="mix-blend-mode: multiply;isolation: isolate">
            <path id="Trazado_102414" data-name="Trazado 102414" d="M-945.5,2134.96c-3.27,7.738-12.216,11.3-20.485,12.783-12.068,2.161-24.445,1.581-36.671.682-4.424-.326-8.85-.708-13.24-1.357a78.889,78.889,0,0,1-11.5-2.5c-1.7-.517-3.353-1.27-5.022-1.969v9h105.594V2133.6h-18.164C-945.143,2134.057-945.307,2134.515-945.5,2134.96Z" transform="translate(1032.416 -2133.596)" fill="#777"/>
          </g>
          <g id="Grupo_84138" data-name="Grupo 84138" transform="translate(3.147 2.219)" opacity="0.3" style="mix-blend-mode: screen;isolation: isolate">
            <path id="Trazado_102415" data-name="Trazado 102415" d="M-966.116,2152.209a10.629,10.629,0,0,0,6.957,11.022,169.432,169.432,0,0,1-26.185-2.654,24.561,24.561,0,0,1-7.435-2.238,9.179,9.179,0,0,1-4.8-5.836C-987.252,2152.4-976.446,2152.316-966.116,2152.209Z" transform="translate(997.582 -2152.209)" fill="#777"/>
          </g>
        </g>
        <g id="Grupo_84140" data-name="Grupo 84140" transform="translate(1.006 1.851)" opacity="0.3" style="mix-blend-mode: screen;isolation: isolate">
          <path id="Trazado_102416" data-name="Trazado 102416" d="M-1021.017,1434.232q-.128-11.694-.255-23.388c-.033-3.025-.015-6.24,1.6-8.8,1.556-2.472,4.323-3.88,7.02-5,10.457-4.341,21.76-6.081,33-7.574a3.86,3.86,0,0,1,4.118,2.468c.477,1.266.954,2.539,1.433,3.771l11.159.333c2.08-1.733,1.767-5.58,4.217-6.732a5.553,5.553,0,0,1,3.117-.18,207.454,207.454,0,0,1,20.784,3.937c-6.832-1.192-14.517-1.478-20.492,2.042-1.721,1.014-3.232,2.375-5.026,3.255-2.952,1.449-6.375,1.467-9.664,1.456a12.018,12.018,0,0,1-5.836-1c-.944-.522-1.732-1.292-2.663-1.838-1.967-1.152-4.369-1.2-6.65-1.149a115.606,115.606,0,0,0-15.375,1.4c-4.721.748-9.734,1.835-13.254,5.112-4.135,3.85-5.332,9.9-5.6,15.541S-1019.218,1428.876-1021.017,1434.232Z" transform="translate(1021.279 -1388.997)" fill="#b1b1b1"/>
        </g>
      </g>
    </g>
    <g id="Grupo_159318" data-name="Grupo 159318" transform="translate(515 3009.734)">
      <text id="_" data-name=" " transform="translate(284.839 1629)" fill="#fff" font-size="20" font-family="Roboto-Bold, Roboto" font-weight="700"><tspan x="0" y="19"> </tspan></text>
    </g>
  </g>
</svg>
