<svg xmlns="http://www.w3.org/2000/svg" width="294.43" height="125.43" viewBox="0 0 294.43 125.43">
  <g id="Grupo_159250" data-name="Grupo 159250" transform="translate(-285.57 -252.698)">
    <rect id="Rectángulo_31787" data-name="Rectángulo 31787" width="294.43" height="89" transform="translate(285.57 270.698)" fill="#fff"/>
    <g id="transformador" transform="translate(368.57 251.698)">
      <g id="Grupo_83978" data-name="Grupo 83978" transform="translate(3.023 3.023)">
        <g id="Grupo_83963" data-name="Grupo 83963" transform="translate(8.092 8.092)">
          <path id="Trazado_102369" data-name="Trazado 102369" d="M14.092,6H26.231a4.058,4.058,0,0,1,4.046,4.046,4.076,4.076,0,0,1-4.046,4.046H10.046A4.058,4.058,0,0,1,6,10.046,4.076,4.076,0,0,1,10.046,6Z" transform="translate(-6 -6)" fill="#d3a06c"/>
        </g>
        <g id="Grupo_83964" data-name="Grupo 83964" transform="translate(89.015 8.092)">
          <path id="Trazado_102370" data-name="Trazado 102370" d="M54.092,6H66.231a4.058,4.058,0,0,1,4.046,4.046,4.076,4.076,0,0,1-4.046,4.046H50.046A4.058,4.058,0,0,1,46,10.046,4.076,4.076,0,0,1,50.046,6Z" transform="translate(-46 -6)" fill="#d3a06c"/>
        </g>
        <g id="Grupo_83965" data-name="Grupo 83965" transform="translate(12.138 16.184)">
          <path id="Trazado_102371" data-name="Trazado 102371" d="M8,10H24.184v8.092H8Z" transform="translate(-8 -10)" fill="#cf9e76"/>
        </g>
        <g id="Grupo_83966" data-name="Grupo 83966" transform="translate(93.061 16.184)">
          <path id="Trazado_102372" data-name="Trazado 102372" d="M48,10H64.184v8.092H48Z" transform="translate(-48 -10)" fill="#cf9e76"/>
        </g>
        <g id="Grupo_83967" data-name="Grupo 83967" transform="translate(16.184)">
          <path id="Trazado_102373" data-name="Trazado 102373" d="M18.092,6.046v4.046H10V6.046a3.956,3.956,0,0,1,1.194-2.853A3.956,3.956,0,0,1,14.046,2,4.058,4.058,0,0,1,18.092,6.046Z" transform="translate(-10 -2)" fill="#cf9e76"/>
        </g>
        <g id="Grupo_83968" data-name="Grupo 83968" transform="translate(97.107)">
          <path id="Trazado_102374" data-name="Trazado 102374" d="M58.092,6.046v4.046H50V6.046a3.956,3.956,0,0,1,1.194-2.853A3.956,3.956,0,0,1,54.046,2,4.058,4.058,0,0,1,58.092,6.046Z" transform="translate(-50 -2)" fill="#cf9e76"/>
        </g>
        <g id="Grupo_83969" data-name="Grupo 83969" transform="translate(0 109.245)">
          <path id="Trazado_102375" data-name="Trazado 102375" d="M123.384,66.115v2.023H2V66.115L6.046,56H119.337Z" transform="translate(-2 -56)" fill="#969faa"/>
        </g>
        <g id="Grupo_83970" data-name="Grupo 83970" transform="translate(4.046 24.277)">
          <path id="Trazado_102376" data-name="Trazado 102376" d="M109.2,14H12.092A8.09,8.09,0,0,0,4,22.092V98.968H117.291V22.092A8.09,8.09,0,0,0,109.2,14Z" transform="translate(-4 -14)" fill="#ccd1d9"/>
        </g>
        <g id="Grupo_83971" data-name="Grupo 83971" transform="translate(36.415 97.107)">
          <path id="Trazado_102377" data-name="Trazado 102377" d="M64.507,50l4.046,12.138H20L24.046,50Z" transform="translate(-20 -50)" fill="#e6e9ed"/>
        </g>
        <g id="Grupo_83972" data-name="Grupo 83972" transform="translate(16.184 80.922)">
          <circle id="Elipse_4125" data-name="Elipse 4125" cx="4" cy="4" r="4" transform="translate(-0.207 0.484)" fill="#b4dd7f"/>
        </g>
        <g id="Grupo_83973" data-name="Grupo 83973" transform="translate(97.107 80.922)">
          <circle id="Elipse_4126" data-name="Elipse 4126" cx="4" cy="4" r="4" transform="translate(-0.13 0.484)" fill="#b4dd7f"/>
        </g>
        <g id="Grupo_83974" data-name="Grupo 83974" transform="translate(12.138 32.369)">
          <path id="Trazado_102378" data-name="Trazado 102378" d="M8,18H20.138V30.138H8Z" transform="translate(-8 -18)" fill="#ff826e"/>
        </g>
        <g id="Grupo_83975" data-name="Grupo 83975" transform="translate(97.107 32.369)">
          <path id="Trazado_102379" data-name="Trazado 102379" d="M50,18H62.138V30.138H50Z" transform="translate(-50 -18)" fill="#ff826e"/>
        </g>
        <g id="Grupo_83976" data-name="Grupo 83976" transform="translate(32.369 32.369)">
          <path id="Trazado_102380" data-name="Trazado 102380" d="M46.323,18A28.323,28.323,0,1,1,18,46.323,28.328,28.328,0,0,1,46.323,18Z" transform="translate(-18 -18)" fill="#fcd770"/>
        </g>
        <g id="Grupo_83977" data-name="Grupo 83977" transform="translate(40.461 40.461)">
          <circle id="Elipse_4127" data-name="Elipse 4127" cx="20.5" cy="20.5" r="20.5" transform="translate(-0.484 -0.055)" fill="#ffeaa7"/>
        </g>
      </g>
      <g id="Grupo_83979" data-name="Grupo 83979" transform="translate(1 1)">
        <path id="Trazado_102381" data-name="Trazado 102381" d="M122.384,111.878V35.392a10.134,10.134,0,0,0-8.092-9.911V20.858a6.054,6.054,0,0,0-2.023-11.766h-2.023V7.069a6.069,6.069,0,0,0-12.138,0V9.092H96.084a6.054,6.054,0,0,0-2.023,11.766v4.418H33.369V20.858A6.054,6.054,0,0,0,31.346,9.092H29.323V7.069a6.069,6.069,0,1,0-12.138,0V9.092H15.161a6.054,6.054,0,0,0-2.023,11.766v4.623a10.134,10.134,0,0,0-8.092,9.911v76.486L1,122v4.435H126.43V122ZM110.245,21.231v4.046H106.2V21.231ZM102.153,7.069a2.023,2.023,0,0,1,4.046,0V9.092h-4.046Zm-6.069,6.069h16.184a2.023,2.023,0,1,1,0,4.046H96.084a2.023,2.023,0,0,1,0-4.046Zm2.023,8.092h4.046v4.046H98.107Zm-72.83,4.046V21.231h4.046v4.046Zm-4.046-4.046v4.046H17.184V21.231Zm0-14.161a2.023,2.023,0,0,1,4.046,0V9.092H21.231Zm-6.069,6.069H31.346a2.023,2.023,0,1,1,0,4.046H15.161a2.023,2.023,0,0,1,0-4.046Zm0,16.184h97.107a6.077,6.077,0,0,1,6.069,6.069v74.853H106.2V93.688a6.069,6.069,0,1,0-4.046,0v16.557H89.45L85.4,98.107H42.026L37.98,110.245h-12.7V93.688a6.069,6.069,0,1,0-4.046,0v16.557H9.092V35.392a6.077,6.077,0,0,1,6.069-6.069Zm86.992,58.669a2.023,2.023,0,1,1,2.023,2.023A2.025,2.025,0,0,1,102.153,87.992ZM85.184,110.245H42.246l2.7-8.092H82.489ZM21.231,87.992a2.023,2.023,0,1,1,2.023,2.023A2.025,2.025,0,0,1,21.231,87.992ZM5.2,122.384l3.237-8.092H118.991l3.237,8.092Z" transform="translate(-1 -1)"/>
        <path id="Trazado_102382" data-name="Trazado 102382" d="M47.346,77.692A30.346,30.346,0,1,0,17,47.346,30.38,30.38,0,0,0,47.346,77.692Zm0-56.646a26.3,26.3,0,1,1-26.3,26.3A26.33,26.33,0,0,1,47.346,21.046Z" transform="translate(15.369 15.369)"/>
        <path id="Trazado_102383" data-name="Trazado 102383" d="M43.254,65.507A22.254,22.254,0,1,0,21,43.254,22.28,22.28,0,0,0,43.254,65.507Zm0-40.461A18.208,18.208,0,1,1,25.046,43.254,18.228,18.228,0,0,1,43.254,25.046Z" transform="translate(19.461 19.461)"/>
        <path id="Trazado_102384" data-name="Trazado 102384" d="M65.184,17H49V33.184H65.184ZM61.138,29.138H53.046V21.046h8.092Z" transform="translate(48.107 15.369)"/>
        <path id="Trazado_102385" data-name="Trazado 102385" d="M23.184,17H7V33.184H23.184ZM19.138,29.138H11.046V21.046h8.092Z" transform="translate(5.138 15.369)"/>
        <path id="Trazado_102386" data-name="Trazado 102386" d="M7,35h4.046v4.046H7Z" transform="translate(5.138 33.784)"/>
        <path id="Trazado_102387" data-name="Trazado 102387" d="M7,27h4.046v4.046H7Z" transform="translate(5.138 25.6)"/>
        <path id="Trazado_102388" data-name="Trazado 102388" d="M7,31h4.046v4.046H7Z" transform="translate(5.138 29.692)"/>
        <path id="Trazado_102389" data-name="Trazado 102389" d="M55,33h4.046v4.046H55Z" transform="translate(54.245 31.738)"/>
        <path id="Trazado_102390" data-name="Trazado 102390" d="M55,29h4.046v4.046H55Z" transform="translate(54.245 27.646)"/>
        <path id="Trazado_102391" data-name="Trazado 102391" d="M55,37h4.046v4.046H55Z" transform="translate(54.245 35.83)"/>
        <path id="Trazado_102392" data-name="Trazado 102392" d="M29.608,52.742,33.23,54.55l9.555-19.112h-8.56l3.16-9.476-3.84-1.279-4.932,14.8h7.625Z" transform="translate(27.25 23.23)"/>
      </g>
    </g>
  </g>
</svg>
