<svg xmlns="http://www.w3.org/2000/svg" width="117.548" height="92.691" viewBox="0 0 117.548 92.691">
  <g id="Grupo_159244" data-name="Grupo 159244" transform="translate(-1227.683 -202.324)">
    <ellipse id="Elipse_4801" data-name="Elipse 4801" cx="3.359" cy="5.51" rx="3.359" ry="5.51" transform="matrix(0.788, -0.615, 0.615, 0.788, 1271.492, 206.458)" fill="#25ffff"/>
    <ellipse id="Elipse_4802" data-name="Elipse 4802" cx="3.359" cy="5.51" rx="3.359" ry="5.51" transform="matrix(0.788, -0.615, 0.615, 0.788, 1282.805, 251.443)" fill="#25ffff"/>
    <ellipse id="Elipse_4803" data-name="Elipse 4803" cx="3.359" cy="5.51" rx="3.359" ry="5.51" transform="matrix(0.788, -0.615, 0.615, 0.788, 1295.136, 286.33)" fill="#25ffff"/>
    <path id="Trazado_601539" data-name="Trazado 601539" d="M2228.723,745.863c0,2.375-1.926,3.339-4.3,2.151a8.1,8.1,0,0,1-4.3-6.452c0-2.375,1.927-3.339,4.3-2.151A8.1,8.1,0,0,1,2228.723,745.863Z" transform="translate(-883.492 -470.693)" fill="#25ffff"/>
    <ellipse id="Elipse_4804" data-name="Elipse 4804" cx="3.359" cy="5.51" rx="3.359" ry="5.51" transform="matrix(0.788, -0.615, 0.615, 0.788, 1227.683, 227.512)" fill="#25ffff"/>
    <path id="Trazado_601540" data-name="Trazado 601540" d="M1701.74,452.792s28.945-21.788,41.3-19.429,11.6,67.266,23.155,78.1,18.623-18.572,41.016-12.073" transform="translate(-466.282 -224.642)" fill="none" stroke="#25ffff" stroke-miterlimit="10" stroke-width="3"/>
  </g>
</svg>
