<svg id="Grupo_159103" data-name="Grupo 159103" xmlns="http://www.w3.org/2000/svg" xmlns:xlink="http://www.w3.org/1999/xlink" width="25" height="24.987" viewBox="0 0 25 24.987">
  <defs>
    <clipPath id="clip-path">
      <rect id="Rectángulo_45399" data-name="Rectángulo 45399" width="25" height="24.987" fill="#0f58b9"/>
    </clipPath>
  </defs>
  <g id="Grupo_159015" data-name="Grupo 159015" clip-path="url(#clip-path)">
    <path id="Trazado_600802" data-name="Trazado 600802" d="M12.481,24.986q-4.361,0-8.721,0A3.554,3.554,0,0,1,0,21.248Q0,12.556,0,3.865A3.566,3.566,0,0,1,3.875,0Q12.507,0,21.139.011A4.5,4.5,0,0,1,22.6.223a3.452,3.452,0,0,1,2.387,3.371q.02,8.9,0,17.8a3.532,3.532,0,0,1-3.667,3.59q-4.42,0-8.841,0m4.165-14.065-.1.216H9.108c-1.434,0-2.868-.012-4.3.01a1.321,1.321,0,0,0-1.324,1.219A1.414,1.414,0,0,0,4.5,13.81a2.666,2.666,0,0,0,.708.082q5.466.007,10.932,0c.149,0,.3.018.532.033-.21.223-.353.382-.5.534q-1.6,1.607-3.206,3.213a1.43,1.43,0,0,0-.425,1.525,1.309,1.309,0,0,0,1.076.924,1.561,1.561,0,0,0,1.425-.584q2.91-2.919,5.827-5.831a1.463,1.463,0,0,0,.007-2.417q-2.465-2.476-4.943-4.939c-.394-.393-.775-.8-1.2-1.159a1.287,1.287,0,0,0-1.873.07,1.358,1.358,0,0,0-.02,1.893c.339.39.717.746,1.087,1.108q1.359,1.333,2.726,2.659" transform="translate(0 0)" fill="#0f58b9"/>
  </g>
</svg>
