<svg xmlns="http://www.w3.org/2000/svg" width="116" height="116" viewBox="0 0 116 116">
  <g id="Grupo_159315" data-name="Grupo 159315" transform="translate(-1004.839 -2626)">
    <circle id="Elipse_4806" data-name="Elipse 4806" cx="58" cy="58" r="58" transform="translate(1004.839 2626)" fill="#0f58b9"/>
    <g id="multimetro" transform="translate(1023.839 2642)">
      <g id="Grupo_83943" data-name="Grupo 83943" transform="translate(10.307 2.307)">
        <g id="Grupo_83931" data-name="Grupo 83931">
          <path id="Trazado_102263" data-name="Trazado 102263" d="M67.516,7.229V44.275a5.234,5.234,0,0,1-1.529,3.7l-3.7,3.7V75.2a5.227,5.227,0,0,1-5.229,5.229h-36.6A5.227,5.227,0,0,1,15.229,75.2V51.673l-3.7-3.7A5.234,5.234,0,0,1,10,44.275V7.229A5.227,5.227,0,0,1,15.229,2H62.288a5.227,5.227,0,0,1,5.229,5.229Z" transform="translate(-10 -2)" fill="#ccd1d9"/>
        </g>
        <g id="Grupo_83932" data-name="Grupo 83932" transform="translate(39.216 65.36)">
          <circle id="Elipse_4123" data-name="Elipse 4123" cx="2.614" cy="2.614" r="2.614" fill="#ff826e"/>
        </g>
        <g id="Grupo_83933" data-name="Grupo 83933" transform="translate(39.216 54.902)">
          <circle id="Elipse_4124" data-name="Elipse 4124" cx="2.614" cy="2.614" r="2.614" fill="#ff826e"/>
        </g>
        <g id="Grupo_83934" data-name="Grupo 83934" transform="translate(37.909 41.83)">
          <path id="Trazado_102264" data-name="Trazado 102264" d="M39,34h7.843v5.229H39Z" transform="translate(-39 -34)" fill="#fcd770"/>
        </g>
        <g id="Grupo_83935" data-name="Grupo 83935" transform="translate(24.837 41.83)">
          <path id="Trazado_102265" data-name="Trazado 102265" d="M29,34h7.843v5.229H29Z" transform="translate(-29 -34)" fill="#fcd770"/>
        </g>
        <g id="Grupo_83936" data-name="Grupo 83936" transform="translate(11.765 41.83)">
          <path id="Trazado_102266" data-name="Trazado 102266" d="M19,34h7.843v5.229H19Z" transform="translate(-19 -34)" fill="#fcd770"/>
        </g>
        <g id="Grupo_83937" data-name="Grupo 83937" transform="translate(10.458 57.582)">
          <path id="Trazado_102267" data-name="Trazado 102267" d="M19.373,46.05,33.621,60.3a10.291,10.291,0,0,1-5.163,1.373A10.455,10.455,0,0,1,18,51.213a10.291,10.291,0,0,1,1.373-5.163Z" transform="translate(-18 -46.05)" fill="#969faa"/>
        </g>
        <g id="Grupo_83938" data-name="Grupo 83938" transform="translate(15.752 52.288)">
          <path id="Trazado_102268" data-name="Trazado 102268" d="M37.671,52.458A10.291,10.291,0,0,1,36.3,57.621L22.05,43.373A10.29,10.29,0,0,1,27.213,42,10.455,10.455,0,0,1,37.671,52.458Z" transform="translate(-22.05 -42)" fill="#969faa"/>
        </g>
        <g id="Grupo_83939" data-name="Grupo 83939" transform="translate(11.83 53.66)">
          <path id="Trazado_102269" data-name="Trazado 102269" d="M22.972,43.05,37.22,57.3A10.274,10.274,0,0,1,33.3,61.22L19.05,46.972a10.274,10.274,0,0,1,3.922-3.922Z" transform="translate(-19.05 -43.05)" fill="#ee6c4d"/>
        </g>
        <g id="Grupo_83940" data-name="Grupo 83940" transform="translate(5.229 5.229)">
          <path id="Trazado_102270" data-name="Trazado 102270" d="M61.059,7.307v3.922H14V7.307A1.311,1.311,0,0,1,15.307,6H59.752A1.311,1.311,0,0,1,61.059,7.307Z" transform="translate(-14 -6)" fill="#e6e9ed"/>
        </g>
        <g id="Grupo_83941" data-name="Grupo 83941" transform="translate(5.229 31.373)">
          <path id="Trazado_102271" data-name="Trazado 102271" d="M61.059,26v3.922a1.311,1.311,0,0,1-1.307,1.307H15.307A1.311,1.311,0,0,1,14,29.922V26Z" transform="translate(-14 -26)" fill="#e6e9ed"/>
        </g>
        <g id="Grupo_83942" data-name="Grupo 83942" transform="translate(5.229 10.458)">
          <path id="Trazado_102272" data-name="Trazado 102272" d="M61.059,30.915H14V10H61.059Z" transform="translate(-14 -10)" fill="#69d6f4"/>
        </g>
      </g>
      <g id="Grupo_83944" data-name="Grupo 83944" transform="translate(9 1)">
        <path id="Trazado_102273" data-name="Trazado 102273" d="M19.614,15.614V26.072h2.614V13H17v2.614Z" transform="translate(-6.542 2.686)"/>
        <path id="Trazado_102274" data-name="Trazado 102274" d="M25.614,26.072h2.614V13H23v2.614h2.614Z" transform="translate(-4.699 2.686)"/>
        <path id="Trazado_102275" data-name="Trazado 102275" d="M35.614,26.072h2.614a2.617,2.617,0,0,0,2.614-2.614V15.614A2.617,2.617,0,0,0,38.229,13H35.614A2.617,2.617,0,0,0,33,15.614v7.843A2.617,2.617,0,0,0,35.614,26.072Zm0-10.458h2.614v7.843H35.614Z" transform="translate(-1.627 2.686)"/>
        <path id="Trazado_102276" data-name="Trazado 102276" d="M43.614,26.072h2.614a2.617,2.617,0,0,0,2.614-2.614V15.614A2.617,2.617,0,0,0,46.229,13H43.614A2.617,2.617,0,0,0,41,15.614v7.843A2.617,2.617,0,0,0,43.614,26.072Zm0-10.458h2.614v7.843H43.614Z" transform="translate(0.83 2.686)"/>
        <path id="Trazado_102277" data-name="Trazado 102277" d="M29,21h2.614v2.614H29Z" transform="translate(-2.856 5.144)"/>
        <path id="Trazado_102278" data-name="Trazado 102278" d="M60.059,5H15.614A2.617,2.617,0,0,0,13,7.614V36.373a2.617,2.617,0,0,0,2.614,2.614H60.059a2.617,2.617,0,0,0,2.614-2.614V7.614A2.617,2.617,0,0,0,60.059,5Zm0,2.614v2.614H15.614V7.614Zm0,5.229v18.3H15.614v-18.3ZM15.614,36.373V33.758H60.06v2.614Z" transform="translate(-7.771 0.229)"/>
        <path id="Trazado_102279" data-name="Trazado 102279" d="M62.595,1H15.536A6.543,6.543,0,0,0,9,7.536v37.05a6.493,6.493,0,0,0,1.914,4.621l3.315,3.315V75.51a6.543,6.543,0,0,0,6.536,6.536h36.6A6.543,6.543,0,0,0,63.9,75.51V52.522l3.315-3.315a6.491,6.491,0,0,0,1.914-4.621V7.536A6.543,6.543,0,0,0,62.595,1Zm3.922,43.586a3.948,3.948,0,0,1-1.148,2.773l-4.081,4.081V75.51a3.926,3.926,0,0,1-3.922,3.922h-36.6a3.926,3.926,0,0,1-3.922-3.922V51.439l-4.081-4.081a3.948,3.948,0,0,1-1.148-2.773V7.536a3.926,3.926,0,0,1,3.922-3.922H62.595a3.926,3.926,0,0,1,3.922,3.922Z" transform="translate(-9 -1)"/>
        <path id="Trazado_102280" data-name="Trazado 102280" d="M38,40.843H48.458V33H38Zm2.614-5.229h5.229v2.614H40.614Z" transform="translate(-0.091 8.83)"/>
        <path id="Trazado_102281" data-name="Trazado 102281" d="M28,40.843H38.458V33H28Zm2.614-5.229h5.229v2.614H30.614Z" transform="translate(-3.163 8.83)"/>
        <path id="Trazado_102282" data-name="Trazado 102282" d="M28.458,33H18v7.843H28.458Zm-2.614,5.229H20.614V35.614h5.229Z" transform="translate(-6.235 8.83)"/>
        <path id="Trazado_102283" data-name="Trazado 102283" d="M28.765,41A11.765,11.765,0,1,0,40.529,52.765,11.779,11.779,0,0,0,28.765,41Zm-9.15,11.765a9.071,9.071,0,0,1,.48-2.9L31.667,61.437a9.135,9.135,0,0,1-12.052-8.672Zm14.492,7.414L21.35,47.424a9.23,9.23,0,0,1,2.073-2.073L36.179,58.106A9.23,9.23,0,0,1,34.106,60.179Zm3.329-4.514L25.863,44.093A9.131,9.131,0,0,1,37.435,55.665Z" transform="translate(-6.542 11.288)"/>
        <path id="Trazado_102284" data-name="Trazado 102284" d="M42.922,43a3.922,3.922,0,1,0,3.922,3.922A3.926,3.926,0,0,0,42.922,43Zm0,5.229a1.307,1.307,0,1,1,1.307-1.307A1.309,1.309,0,0,1,42.922,48.229Z" transform="translate(0.216 11.902)"/>
        <path id="Trazado_102285" data-name="Trazado 102285" d="M42.922,51a3.922,3.922,0,1,0,3.922,3.922A3.926,3.926,0,0,0,42.922,51Zm0,5.229a1.307,1.307,0,1,1,1.307-1.307A1.309,1.309,0,0,1,42.922,56.229Z" transform="translate(0.216 14.36)"/>
      </g>
    </g>
  </g>
</svg>
