<svg xmlns="http://www.w3.org/2000/svg" width="116" height="116" viewBox="0 0 116 116">
  <g id="Grupo_159318" data-name="Grupo 159318" transform="translate(-479.839 -3230)">
    <g id="Grupo_159317" data-name="Grupo 159317" transform="translate(0 604)">
      <circle id="Elipse_4805" data-name="Elipse 4805" cx="58" cy="58" r="58" transform="translate(479.839 2626)" fill="#0f58b9"/>
    </g>
    <g id="voltimetro" transform="translate(501.094 3252.1)">
      <g id="Grupo_83945" data-name="Grupo 83945" transform="translate(58.071 33.202)">
        <path id="Trazado_102286" data-name="Trazado 102286" d="M376.8,220.823l3.608,1.739,2.769-1.739v-4.7a.678.678,0,0,0-.677-.677h-5.023a.678.678,0,0,0-.677.677v4.7Z" transform="translate(-376.795 -215.45)" fill="#f9f7f8" fill-rule="evenodd"/>
      </g>
      <g id="Grupo_83946" data-name="Grupo 83946" transform="translate(70.403 10.085)">
        <path id="Trazado_102287" data-name="Trazado 102287" d="M456.816,70.813l3.556,1.131,2.817-1.131v-4.7a.681.681,0,0,0-.677-.677h-5.019a.678.678,0,0,0-.677.677Z" transform="translate(-456.816 -65.44)" fill="#f9f7f8" fill-rule="evenodd"/>
      </g>
      <g id="Grupo_83947" data-name="Grupo 83947" transform="translate(61.5 33.202)">
        <path id="Trazado_102288" data-name="Trazado 102288" d="M401.995,220.823v-4.7a.678.678,0,0,0-.677-.677h-2.271a.678.678,0,0,1,.677.677v4.7h2.271Z" transform="translate(-399.046 -215.45)" fill="#e5e4ec" fill-rule="evenodd"/>
      </g>
      <g id="Grupo_83948" data-name="Grupo 83948" transform="translate(73.827 10.085)">
        <path id="Trazado_102289" data-name="Trazado 102289" d="M481.987,70.813v-4.7a.681.681,0,0,0-.677-.677h-2.271a.681.681,0,0,1,.677.677v4.7h2.272Z" transform="translate(-479.038 -65.44)" fill="#e5e4ec" fill-rule="evenodd"/>
      </g>
      <g id="Grupo_83949" data-name="Grupo 83949" transform="translate(57.097 38.575)">
        <path id="Trazado_102290" data-name="Trazado 102290" d="M370.474,260.879a4.163,4.163,0,0,0,8.326,0v-9.846a.721.721,0,0,0-.721-.716h-6.884a.718.718,0,0,0-.721.716v9.846Z" transform="translate(-370.474 -250.316)" fill="#f37c7c" fill-rule="evenodd"/>
      </g>
      <g id="Grupo_83950" data-name="Grupo 83950" transform="translate(69.429 15.458)">
        <path id="Trazado_102291" data-name="Trazado 102291" d="M450.495,110.87a4.161,4.161,0,1,0,8.321,0v-9.846a.72.72,0,0,0-.716-.716h-6.888a.717.717,0,0,0-.716.716v9.846Z" transform="translate(-450.495 -100.307)" fill="#ffd772" fill-rule="evenodd"/>
      </g>
      <g id="Grupo_83951" data-name="Grupo 83951" transform="translate(1.162 1.156)">
        <path id="Trazado_102292" data-name="Trazado 102292" d="M41.7,73.186H52.9a2.647,2.647,0,0,0,2.638-2.638V10.134A2.644,2.644,0,0,0,52.9,7.5H10.14a2.643,2.643,0,0,0-2.634,2.577V70.609a2.646,2.646,0,0,0,2.634,2.577h11.2V70.233a2.963,2.963,0,0,1,2.953-2.953h14.45A2.96,2.96,0,0,1,41.7,70.233v2.953ZM33.929,44.377a9.282,9.282,0,1,1-4.823,0,2.55,2.55,0,0,1,4.823,0Zm-7.439-8.23H14.578a.866.866,0,0,1-.865-.861V15.367a.866.866,0,0,1,.865-.861H48.462a.865.865,0,0,1,.861.861V35.287a.865.865,0,0,1-.861.861H36.55a5.03,5.03,0,0,0-10.06,0Z" transform="translate(-7.506 -7.5)" fill="#a6bdce" fill-rule="evenodd"/>
      </g>
      <g id="Grupo_83952" data-name="Grupo 83952" transform="translate(15.892 38.033)">
        <path id="Trazado_102293" data-name="Trazado 102293" d="M112.37,265.048a9.282,9.282,0,0,0,2.411-18.246,2.484,2.484,0,0,1,.14.826v8.138a2.551,2.551,0,0,1-5.1,0v-8.138a2.6,2.6,0,0,1,.14-.826,9.282,9.282,0,0,0,2.411,18.246Z" transform="translate(-103.088 -246.802)" fill="#f9f7f8" fill-rule="evenodd"/>
      </g>
      <g id="Grupo_83953" data-name="Grupo 83953" transform="translate(22.624 36.312)">
        <path id="Trazado_102294" data-name="Trazado 102294" d="M146.77,246.318a2.551,2.551,0,0,0,5.1,0V238.18a2.482,2.482,0,0,0-.14-.826,2.55,2.55,0,0,0-4.823,0,2.6,2.6,0,0,0-.14.826Z" transform="translate(-146.77 -235.633)" fill="#f37c7c" fill-rule="evenodd"/>
      </g>
      <g id="Grupo_83954" data-name="Grupo 83954" transform="translate(14.997 60.936)">
        <path id="Trazado_102295" data-name="Trazado 102295" d="M107.456,401.329h10.178v-2.953a2.96,2.96,0,0,0-2.953-2.953h-14.45a2.963,2.963,0,0,0-2.953,2.953v2.953Z" transform="translate(-97.278 -395.423)" fill="#f9f7f8" fill-rule="evenodd"/>
      </g>
      <g id="Grupo_83955" data-name="Grupo 83955" transform="translate(7.37 8.163)">
        <path id="Trazado_102296" data-name="Trazado 102296" d="M70.624,74.609H82.536a.865.865,0,0,0,.861-.861V53.829a.865.865,0,0,0-.861-.861H48.652a.866.866,0,0,0-.865.861V73.748a.866.866,0,0,0,.865.861H60.564a5.03,5.03,0,0,1,10.06,0Z" transform="translate(-47.787 -52.968)" fill="#b1e4f9" fill-rule="evenodd"/>
      </g>
      <g id="Grupo_83956" data-name="Grupo 83956" transform="translate(38.043 8.163)">
        <path id="Trazado_102297" data-name="Trazado 102297" d="M251.766,73.748V53.829a.865.865,0,0,0-.861-.861H246.83a.865.865,0,0,1,.861.861V73.748a.865.865,0,0,1-.861.861h4.076A.865.865,0,0,0,251.766,73.748Z" transform="translate(-246.83 -52.968)" fill="#75cef8" fill-rule="evenodd"/>
      </g>
      <g id="Grupo_83957" data-name="Grupo 83957" transform="translate(38.051 1.156)">
        <path id="Trazado_102298" data-name="Trazado 102298" d="M258.019,70.548V10.134A2.644,2.644,0,0,0,255.38,7.5h-8.19c-1.45,0,2.634,1.184,2.634,2.634v4.373h1.123a.865.865,0,0,1,.861.861V35.287a.865.865,0,0,1-.861.861h-1.123v34.4a2.646,2.646,0,0,1-2.634,2.638h8.19A2.647,2.647,0,0,0,258.019,70.548Z" transform="translate(-246.879 -7.5)" fill="#678aa3" fill-rule="evenodd"/>
      </g>
      <g id="Grupo_83958" data-name="Grupo 83958" transform="translate(22.558 38.033)">
        <path id="Trazado_102299" data-name="Trazado 102299" d="M158.243,255.766a9.286,9.286,0,0,0-6.871-8.964,2.483,2.483,0,0,1,.14.826v2.324a9.287,9.287,0,0,1-5.168,14.721,9.285,9.285,0,0,0,11.9-8.907Z" transform="translate(-146.344 -246.802)" fill="#e5e4ec" fill-rule="evenodd"/>
      </g>
      <g id="Grupo_83959" data-name="Grupo 83959" transform="translate(71.993 15.458)">
        <path id="Trazado_102300" data-name="Trazado 102300" d="M468.986,100.307a.72.72,0,0,1,.716.716v9.846a4.175,4.175,0,0,1-2.568,3.844,4.16,4.16,0,0,0,5.757-3.844v-9.846a.72.72,0,0,0-.716-.716h-3.189Z" transform="translate(-467.134 -100.307)" fill="#fbba58" fill-rule="evenodd"/>
      </g>
      <g id="Grupo_83960" data-name="Grupo 83960" transform="translate(59.666 38.575)">
        <path id="Trazado_102301" data-name="Trazado 102301" d="M389.71,260.879a4.181,4.181,0,0,1-2.568,3.844,4.16,4.16,0,0,0,5.757-3.844v-9.846a.721.721,0,0,0-.721-.716h-3.184a.72.72,0,0,1,.716.716v9.846Z" transform="translate(-387.142 -250.316)" fill="#e6646e" fill-rule="evenodd"/>
      </g>
      <g id="Grupo_83961" data-name="Grupo 83961" transform="translate(0.007 0)">
        <path id="Trazado_102302" data-name="Trazado 102302" d="M41.442,236.54h4.945a1.156,1.156,0,1,0,0-2.312H41.442a1.156,1.156,0,1,0,0,2.312Z" transform="translate(-34.079 -198.133)"/>
        <path id="Trazado_102303" data-name="Trazado 102303" d="M242.9,225.463a1.156,1.156,0,0,0,1.156-1.156v-1.317h1.316a1.156,1.156,0,1,0,0-2.312h-1.316v-1.312a1.156,1.156,0,1,0-2.312,0v1.312h-1.317a1.156,1.156,0,1,0,0,2.312h1.317v1.317A1.156,1.156,0,0,0,242.9,225.463Z" transform="translate(-202.401 -184.584)"/>
        <path id="Trazado_102304" data-name="Trazado 102304" d="M106.026,228.133a3.711,3.711,0,0,0-3.249,1.923,10.438,10.438,0,1,0,6.5,0A3.71,3.71,0,0,0,106.026,228.133Zm0,2.312a1.4,1.4,0,0,1,1.4,1.391v8.138a1.4,1.4,0,1,1-2.79,0v-8.138A1.4,1.4,0,0,1,106.026,230.445Zm8.127,9.529a8.127,8.127,0,1,1-11.833-7.233v7.233a3.707,3.707,0,1,0,7.414,0v-7.233A8.141,8.141,0,0,1,114.153,239.974Z" transform="translate(-80.859 -192.977)"/>
        <path id="Trazado_102305" data-name="Trazado 102305" d="M56.6,45.468h-14.3a2.021,2.021,0,0,0-2.021,2.016V67.4a2.021,2.021,0,0,0,2.021,2.016H54.219a.863.863,0,0,0,.1-.005,1.156,1.156,0,0,0,1.053-1.147,3.837,3.837,0,0,1,1.134-2.716,3.9,3.9,0,0,1,.8-.617l.028-.014.031-.02a3.875,3.875,0,0,1,5.754,3.37,1.156,1.156,0,0,0,1.156,1.148H76.191A2.019,2.019,0,0,0,78.207,67.4V47.484a2.019,2.019,0,0,0-2.016-2.016H61.749a1.156,1.156,0,0,0,0,2.312H75.9V67.109H65.32a6.19,6.19,0,0,0-8.07-4.674l-2.56-4.485A1.156,1.156,0,0,0,52.682,59.1l2.56,4.484c-.126.108-.249.219-.368.338a6.137,6.137,0,0,0-1.7,3.191H42.6V47.78H56.6a1.156,1.156,0,0,0,0-2.312Z" transform="translate(-34.079 -38.461)"/>
        <path id="Trazado_102306" data-name="Trazado 102306" d="M80.979,86.709a1.156,1.156,0,0,0,1.622.2c5.989-4.665,15.733-4.665,21.722,0a1.156,1.156,0,1,0,1.421-1.824c-6.772-5.276-17.791-5.276-24.563,0A1.156,1.156,0,0,0,80.979,86.709Z" transform="translate(-68.294 -68.628)"/>
        <path id="Trazado_102307" data-name="Trazado 102307" d="M77.932,14.532v-3.77A1.835,1.835,0,0,0,76.1,8.929H74.743V1.785a1.156,1.156,0,0,0-2.312,0V8.929H71.08a1.835,1.835,0,0,0-1.833,1.833v3.77a1.874,1.874,0,0,0-.974,1.642V26.02a5.326,5.326,0,0,0,4.158,5.191V67.834a8.766,8.766,0,0,1-8.756,8.756h-5.57a11.053,11.053,0,0,0,4.31-8.756V54.328a5.327,5.327,0,0,0,4.163-5.191V39.291A1.873,1.873,0,0,0,65.6,37.65V33.879a1.835,1.835,0,0,0-1.833-1.833H62.416V24.9a1.156,1.156,0,1,0-2.312,0v7.144H58.748a1.835,1.835,0,0,0-1.833,1.833V37.65a1.873,1.873,0,0,0-.974,1.641v9.846A5.327,5.327,0,0,0,60.1,54.328V67.834a8.766,8.766,0,0,1-8.756,8.756H35.086A8.764,8.764,0,0,1,26.334,68H46.552A3.8,3.8,0,0,0,50.347,64.2V3.79A3.8,3.8,0,0,0,46.552,0H3.8A3.794,3.794,0,0,0,.007,3.79V33.866a1.156,1.156,0,0,0,2.312,0V3.79A1.48,1.48,0,0,1,3.8,2.312H46.552A1.482,1.482,0,0,1,48.035,3.79V64.2a1.484,1.484,0,0,1-1.483,1.483H36.508v-1.8A4.113,4.113,0,0,0,32.4,59.78H17.949a4.113,4.113,0,0,0-4.109,4.109v1.8H3.8A1.482,1.482,0,0,1,2.318,64.2v-25a1.156,1.156,0,0,0-2.312,0v25A3.8,3.8,0,0,0,3.8,68H24.023A11.078,11.078,0,0,0,35.086,78.9h28.59A11.08,11.08,0,0,0,74.743,67.834V31.211a5.327,5.327,0,0,0,4.163-5.191V16.174a1.873,1.873,0,0,0-.974-1.642Zm-18.7,19.825h4.066v3.061H59.227Zm-.974,14.78V39.73h6.014v9.407a3.007,3.007,0,1,1-6.014,0Zm-42.1,14.752a1.8,1.8,0,0,1,1.8-1.8H32.4a1.8,1.8,0,0,1,1.8,1.8v1.8H16.152ZM71.558,11.24H75.62V14.3H71.558Zm5.036,14.78a3,3,0,1,1-6.01,0V16.613h6.01Z" transform="translate(-0.007 0)"/>
      </g>
    </g>
  </g>
</svg>
