<svg xmlns="http://www.w3.org/2000/svg" width="820" height="477" viewBox="0 0 820 477">
  <g id="Grupo_159277" data-name="Grupo 159277" transform="translate(-389.839 -2213)">
    <path id="Trazado_601577" data-name="Trazado 601577" d="M0,0H820V476.5H0Z" transform="translate(389.839 2213)" fill="#eff5fb" opacity="0.6"/>
    <g id="Grupo_159269" data-name="Grupo 159269" transform="translate(0 11.138)">
      <g id="Grupo_84235" data-name="Grupo 84235" transform="translate(509.597 2298.979)">
        <path id="Trazado_102482" data-name="Trazado 102482" d="M152,472.693H255.164L256,246h78l-1.529,226.693H723.981" transform="translate(-152 -246)" fill="none" stroke="#76c2dd" stroke-linecap="round" stroke-linejoin="round" stroke-width="2"/>
        <path id="Trazado_102483" data-name="Trazado 102483" d="M613.736,425.24v9.316l7.827-4.658Z" transform="translate(-41.755 -203.204)" fill="#76c2dd" stroke="#76c2dd" stroke-linecap="round" stroke-linejoin="round" stroke-width="2"/>
      </g>
      <g id="Grupo_84236" data-name="Grupo 84236" transform="translate(509.597 2298.979)">
        <path id="Trazado_102484" data-name="Trazado 102484" d="M152,503.422H368.368L369.2,246h78l-1.529,257.422H723.981" transform="translate(-152 -246)" fill="none" stroke="#265d99" stroke-linecap="round" stroke-linejoin="round" stroke-width="2"/>
        <path id="Trazado_102485" data-name="Trazado 102485" d="M613.736,449.536v10.579l7.827-5.29Z" transform="translate(-41.755 -197.403)" fill="#265d99" stroke="#265d99" stroke-linecap="round" stroke-linejoin="round" stroke-width="2"/>
      </g>
      <path id="Trazado_102486" data-name="Trazado 102486" d="M152,547.482H594.558l.832-215.221h78l-1.529,215.221h52.122" transform="translate(357.597 2070.891)" fill="none" stroke="#afafaf" stroke-linecap="round" stroke-linejoin="round" stroke-width="2"/>
      <path id="Trazado_102487" data-name="Trazado 102487" d="M152,533.452H482.019L482.852,246h78L559.32,533.452H723.981" transform="translate(357.597 2052.979)" fill="none" stroke="#ee6c4d" stroke-linecap="round" stroke-linejoin="round" stroke-width="2"/>
      <path id="Trazado_102488" data-name="Trazado 102488" d="M613.736,473.279v11.813l7.827-5.907Z" transform="translate(467.842 2107.244)" fill="#ee6c4d" stroke="#ee6c4d" stroke-linecap="round" stroke-linejoin="round" stroke-width="2"/>
      <path id="Trazado_102489" data-name="Trazado 102489" d="M613.736,501.232v11.813l7.827-5.907Z" transform="translate(467.842 2111.234)" fill="#afafaf" stroke="#afafaf" stroke-linecap="round" stroke-linejoin="round" stroke-width="2"/>
      <path id="Trazado_102491" data-name="Trazado 102491" d="M0,189.538V0" transform="translate(653.217 2252.863)" fill="none" stroke="#76c2dd" stroke-linecap="round" stroke-width="1"/>
      <path id="Trazado_606038" data-name="Trazado 606038" d="M0,189.538V0" transform="translate(765.615 2252.863)" fill="none" stroke="#265d99" stroke-linecap="round" stroke-width="1"/>
      <path id="Trazado_606039" data-name="Trazado 606039" d="M0,189.538V0" transform="translate(878.063 2252.863)" fill="none" stroke="#ee6c4d" stroke-linecap="round" stroke-width="1"/>
      <path id="Trazado_606040" data-name="Trazado 606040" d="M17.343,0A17.343,17.343,0,1,1,0,17.343,17.343,17.343,0,0,1,17.343,0Z" transform="translate(635.875 2281.635)" fill="#f3f9ff" stroke="#afafaf" stroke-linecap="round" stroke-width="2"/>
      <path id="Trazado_606041" data-name="Trazado 606041" d="M17.343,0A17.343,17.343,0,1,1,0,17.343,17.343,17.343,0,0,1,17.343,0Z" transform="translate(748.297 2281.635)" fill="#f3f9ff" stroke="#afafaf" stroke-linecap="round" stroke-width="2"/>
      <path id="Trazado_606042" data-name="Trazado 606042" d="M17.343,0A17.343,17.343,0,1,1,0,17.343,17.343,17.343,0,0,1,17.343,0Z" transform="translate(860.721 2281.635)" fill="#f3f9ff" stroke="#afafaf" stroke-linecap="round" stroke-width="2"/>
      <path id="Trazado_102490" data-name="Trazado 102490" d="M267.939,208.772H604.32V398.31" transform="translate(385.279 2044.09)" fill="none" stroke="#afafaf" stroke-linecap="round" stroke-linejoin="round" stroke-width="1"/>
      <g id="Grupo_84239" data-name="Grupo 84239" transform="translate(592.873 2442.399)">
        <rect id="Rectángulo_31873" data-name="Rectángulo 31873" width="37.783" height="37.26" fill="#f3f9ff" stroke="#afafaf" stroke-linecap="round" stroke-linejoin="round" stroke-width="2"/>
        <rect id="Rectángulo_31874" data-name="Rectángulo 31874" width="37.783" height="37.26" transform="translate(37.783)" fill="#f3f9ff" stroke="#afafaf" stroke-linecap="round" stroke-linejoin="round" stroke-width="2"/>
        <rect id="Rectángulo_31875" data-name="Rectángulo 31875" width="37.783" height="37.26" transform="translate(75.567)" fill="#f3f9ff" stroke="#afafaf" stroke-linecap="round" stroke-linejoin="round" stroke-width="2"/>
        <rect id="Rectángulo_31876" data-name="Rectángulo 31876" width="37.783" height="37.26" transform="translate(113.35)" fill="#f3f9ff" stroke="#afafaf" stroke-linecap="round" stroke-linejoin="round" stroke-width="2"/>
      </g>
      <g id="Grupo_84240" data-name="Grupo 84240" transform="translate(744.007 2442.399)">
        <rect id="Rectángulo_31877" data-name="Rectángulo 31877" width="37.783" height="37.26" transform="translate(0)" fill="#f3f9ff" stroke="#afafaf" stroke-linecap="round" stroke-linejoin="round" stroke-width="2"/>
        <rect id="Rectángulo_31878" data-name="Rectángulo 31878" width="37.783" height="37.26" transform="translate(37.783)" fill="#f3f9ff" stroke="#afafaf" stroke-linecap="round" stroke-linejoin="round" stroke-width="2"/>
        <rect id="Rectángulo_31879" data-name="Rectángulo 31879" width="37.783" height="37.26" transform="translate(75.567)" fill="#f3f9ff" stroke="#afafaf" stroke-linecap="round" stroke-linejoin="round" stroke-width="2"/>
        <rect id="Rectángulo_31880" data-name="Rectángulo 31880" width="37.783" height="37.26" transform="translate(113.35)" fill="#f3f9ff" stroke="#afafaf" stroke-linecap="round" stroke-linejoin="round" stroke-width="2"/>
      </g>
      <g id="Grupo_84241" data-name="Grupo 84241" transform="translate(895.141 2442.399)">
        <rect id="Rectángulo_31881" data-name="Rectángulo 31881" width="37.783" height="37.26" fill="#f3f9ff" stroke="#afafaf" stroke-linecap="round" stroke-linejoin="round" stroke-width="2"/>
        <rect id="Rectángulo_31882" data-name="Rectángulo 31882" width="37.783" height="37.26" transform="translate(37.783)" fill="#f3f9ff" stroke="#afafaf" stroke-linecap="round" stroke-linejoin="round" stroke-width="2"/>
        <rect id="Rectángulo_31883" data-name="Rectángulo 31883" width="37.783" height="37.26" transform="translate(75.567)" fill="#f3f9ff" stroke="#afafaf" stroke-linecap="round" stroke-linejoin="round" stroke-width="2"/>
        <rect id="Rectángulo_31884" data-name="Rectángulo 31884" width="37.783" height="37.26" transform="translate(113.35)" fill="#f3f9ff" stroke="#afafaf" stroke-linecap="round" stroke-linejoin="round" stroke-width="2"/>
      </g>
      <g id="Grupo_84242" data-name="Grupo 84242" transform="translate(617.133 2455.838)">
        <rect id="Rectángulo_31885" data-name="Rectángulo 31885" width="25.457" height="10.385" rx="3.807" transform="translate(0.435)" fill="#f3f9ff" stroke="#76c2dd" stroke-linecap="round" stroke-linejoin="round" stroke-width="1"/>
        <circle id="Elipse_4134" data-name="Elipse 4134" cx="5.192" cy="5.192" r="5.192" fill="#f3f9ff" stroke="#76c2dd" stroke-linecap="round" stroke-linejoin="round" stroke-width="1"/>
        <circle id="Elipse_4135" data-name="Elipse 4135" cx="5.192" cy="5.192" r="5.192" transform="translate(15.507)" fill="#f3f9ff" stroke="#76c2dd" stroke-linecap="round" stroke-linejoin="round" stroke-width="1"/>
      </g>
      <g id="Grupo_84243" data-name="Grupo 84243" transform="translate(731.061 2455.838)">
        <rect id="Rectángulo_31886" data-name="Rectángulo 31886" width="25.457" height="10.385" rx="3.807" transform="translate(0.435)" fill="#f3f9ff" stroke="#265d99" stroke-linecap="round" stroke-linejoin="round" stroke-width="1"/>
        <circle id="Elipse_4136" data-name="Elipse 4136" cx="5.192" cy="5.192" r="5.192" fill="#f3f9ff" stroke="#265d99" stroke-linecap="round" stroke-linejoin="round" stroke-width="1"/>
        <circle id="Elipse_4137" data-name="Elipse 4137" cx="5.192" cy="5.192" r="5.192" transform="translate(15.507)" fill="#f3f9ff" stroke="#265d99" stroke-linecap="round" stroke-linejoin="round" stroke-width="1"/>
      </g>
      <g id="Grupo_84244" data-name="Grupo 84244" transform="translate(844.411 2455.838)">
        <rect id="Rectángulo_31887" data-name="Rectángulo 31887" width="25.457" height="10.385" rx="3.807" transform="translate(0.435)" fill="#f3f9ff" stroke="#ee6c4d" stroke-linecap="round" stroke-linejoin="round" stroke-width="1"/>
        <circle id="Elipse_4138" data-name="Elipse 4138" cx="5.192" cy="5.192" r="5.192" transform="translate(0)" fill="#f3f9ff" stroke="#ee6c4d" stroke-linecap="round" stroke-linejoin="round" stroke-width="1"/>
        <circle id="Elipse_4139" data-name="Elipse 4139" cx="5.192" cy="5.192" r="5.192" transform="translate(15.507)" fill="#f3f9ff" stroke="#ee6c4d" stroke-linecap="round" stroke-linejoin="round" stroke-width="1"/>
      </g>
      <g id="Grupo_84245" data-name="Grupo 84245" transform="translate(957.762 2455.838)">
        <rect id="Rectángulo_31888" data-name="Rectángulo 31888" width="25.457" height="10.385" rx="3.807" transform="translate(0.435)" fill="#f3f9ff" stroke="#afafaf" stroke-linecap="round" stroke-linejoin="round" stroke-width="1"/>
        <circle id="Elipse_4140" data-name="Elipse 4140" cx="5.192" cy="5.192" r="5.192" fill="#f3f9ff" stroke="#afafaf" stroke-linecap="round" stroke-linejoin="round" stroke-width="1"/>
        <circle id="Elipse_4141" data-name="Elipse 4141" cx="5.192" cy="5.192" r="5.192" transform="translate(15.507)" fill="#f3f9ff" stroke="#afafaf" stroke-linecap="round" stroke-linejoin="round" stroke-width="1"/>
      </g>
      <path id="Trazado_606043" data-name="Trazado 606043" d="M-6.258-2.118h5.6V0H-8.895V-12.8h2.637ZM6.75,0H4.21V-9.791l-3.032.94v-2.065l5.3-1.9H6.75Z" transform="translate(486.241 2529.104)" fill="#12263f"/>
      <path id="Trazado_606044" data-name="Trazado 606044" d="M1.2,0H-.25V-9.633l-2.914,1.07V-9.875L.977-11.43H1.2Z" transform="translate(609.056 2465.965)" fill="#12263f"/>
      <path id="Trazado_606045" data-name="Trazado 606045" d="M3.906,0H-3.547V-1.039L.391-5.414A9.354,9.354,0,0,0,1.6-7.027,2.693,2.693,0,0,0,1.93-8.312a2.041,2.041,0,0,0-.539-1.461,1.885,1.885,0,0,0-1.437-.57,2.232,2.232,0,0,0-1.676.613,2.343,2.343,0,0,0-.6,1.707H-3.766a3.355,3.355,0,0,1,1.012-2.539,3.751,3.751,0,0,1,2.707-.969,3.6,3.6,0,0,1,2.508.832,2.838,2.838,0,0,1,.922,2.215q0,1.68-2.141,4L-1.8-1.18H3.906Z" transform="translate(650.673 2465.965)" fill="#12263f"/>
      <path id="Trazado_606046" data-name="Trazado 606046" d="M-1.445-6.391H-.359A2.387,2.387,0,0,0,1.25-6.93a1.8,1.8,0,0,0,.586-1.414,1.764,1.764,0,0,0-1.992-2,2.072,2.072,0,0,0-1.5.535,1.873,1.873,0,0,0-.559,1.418H-3.656a2.9,2.9,0,0,1,.988-2.246,3.6,3.6,0,0,1,2.512-.895,3.558,3.558,0,0,1,2.523.852,3.076,3.076,0,0,1,.914,2.367A2.5,2.5,0,0,1,2.8-6.875,2.9,2.9,0,0,1,1.492-5.836a2.8,2.8,0,0,1,1.449.984,2.734,2.734,0,0,1,.512,1.68,3.1,3.1,0,0,1-1,2.43,3.745,3.745,0,0,1-2.6.9A3.844,3.844,0,0,1-2.754-.711,2.877,2.877,0,0,1-3.758-3H-2.3a1.859,1.859,0,0,0,.586,1.438,2.229,2.229,0,0,0,1.57.539,2.187,2.187,0,0,0,1.6-.547,2.108,2.108,0,0,0,.555-1.57A1.912,1.912,0,0,0,1.4-4.664,2.655,2.655,0,0,0-.359-5.211H-1.445Z" transform="translate(685.564 2465.965)" fill="#12263f"/>
      <path id="Trazado_606047" data-name="Trazado 606047" d="M2.555-3.82H4.133v1.18H2.555V0H1.1V-2.641h-5.18v-.852l5.094-7.883H2.555Zm-4.992,0H1.1V-9.4L.93-9.086Z" transform="translate(722.984 2465.965)" fill="#12263f"/>
      <path id="Trazado_606048" data-name="Trazado 606048" d="M-2.883-5.7l.578-5.672H3.523v1.336h-4.6l-.344,3.1a3.671,3.671,0,0,1,1.9-.492A3.138,3.138,0,0,1,2.945-6.4a4.026,4.026,0,0,1,.914,2.777A3.886,3.886,0,0,1,2.91-.855,3.46,3.46,0,0,1,.258.156,3.6,3.6,0,0,1-2.2-.68,3.337,3.337,0,0,1-3.289-2.992h1.367a2.3,2.3,0,0,0,.7,1.473,2.162,2.162,0,0,0,1.484.5A1.95,1.95,0,0,0,1.84-1.711a2.874,2.874,0,0,0,.574-1.9,2.638,2.638,0,0,0-.621-1.832A2.113,2.113,0,0,0,.141-6.133a2.383,2.383,0,0,0-1.484.414l-.383.313Z" transform="translate(764.601 2465.965)" fill="#12263f"/>
      <path id="Trazado_606049" data-name="Trazado 606049" d="M2.125-11.383v1.227H1.859a3.805,3.805,0,0,0-2.687,1A4.161,4.161,0,0,0-1.984-6.43,3.085,3.085,0,0,1,.469-7.461,2.95,2.95,0,0,1,2.84-6.414a4.038,4.038,0,0,1,.887,2.7A4.025,4.025,0,0,1,2.77-.9,3.3,3.3,0,0,1,.2.156,3.247,3.247,0,0,1-2.445-1.1a4.97,4.97,0,0,1-1.016-3.23v-.555a7.488,7.488,0,0,1,1.34-4.8,4.921,4.921,0,0,1,3.988-1.7ZM.227-6.258a2.306,2.306,0,0,0-1.367.445A2.32,2.32,0,0,0-2.008-4.7v.531A3.731,3.731,0,0,0-1.375-1.9,1.9,1.9,0,0,0,.2-1.039a1.838,1.838,0,0,0,1.535-.719A2.982,2.982,0,0,0,2.3-3.641,2.983,2.983,0,0,0,1.73-5.535,1.816,1.816,0,0,0,.227-6.258Z" transform="translate(799.492 2465.965)" fill="#12263f"/>
      <path id="Trazado_606050" data-name="Trazado 606050" d="M3.8-10.562-.914,0H-2.43l4.7-10.187H-3.891v-1.187H3.8Z" transform="translate(835.726 2465.965)" fill="#12263f"/>
      <path id="Trazado_606051" data-name="Trazado 606051" d="M3.352-8.406A2.641,2.641,0,0,1,2.9-6.891,3.057,3.057,0,0,1,1.688-5.852,3.26,3.26,0,0,1,3.1-4.734a2.811,2.811,0,0,1,.52,1.664,2.972,2.972,0,0,1-1,2.352A3.827,3.827,0,0,1,0,.156,3.81,3.81,0,0,1-2.629-.723,2.986,2.986,0,0,1-3.617-3.07a2.9,2.9,0,0,1,.5-1.664A3.136,3.136,0,0,1-1.719-5.859,2.981,2.981,0,0,1-2.914-6.9a2.679,2.679,0,0,1-.437-1.508,2.94,2.94,0,0,1,.922-2.281A3.458,3.458,0,0,1,0-11.531a3.461,3.461,0,0,1,2.426.844A2.934,2.934,0,0,1,3.352-8.406ZM2.172-3.1a2.1,2.1,0,0,0-.605-1.555,2.147,2.147,0,0,0-1.582-.6,2.11,2.11,0,0,0-1.566.594A2.12,2.12,0,0,0-2.172-3.1,2.019,2.019,0,0,0-1.6-1.578,2.2,2.2,0,0,0,0-1.023a2.2,2.2,0,0,0,1.594-.559A2.014,2.014,0,0,0,2.172-3.1ZM0-10.344a1.865,1.865,0,0,0-1.379.527,1.937,1.937,0,0,0-.527,1.434,1.928,1.928,0,0,0,.52,1.4A1.844,1.844,0,0,0,0-6.445,1.844,1.844,0,0,0,1.387-6.98a1.928,1.928,0,0,0,.52-1.4A1.929,1.929,0,0,0,1.367-9.8,1.839,1.839,0,0,0,0-10.344Z" transform="translate(877.951 2465.965)" fill="#12263f"/>
      <path id="Trazado_606052" data-name="Trazado 606052" d="M1.992-5A3.536,3.536,0,0,1,.91-4.133,2.936,2.936,0,0,1-.469-3.8a3.031,3.031,0,0,1-1.715-.484A3.149,3.149,0,0,1-3.312-5.652a4.648,4.648,0,0,1-.4-1.941,4.735,4.735,0,0,1,.434-2.055,3.185,3.185,0,0,1,1.23-1.4,3.509,3.509,0,0,1,1.859-.484,3.177,3.177,0,0,1,2.66,1.262,5.5,5.5,0,0,1,.973,3.441v.422q0,3.32-1.312,4.848A5.043,5.043,0,0,1-1.828.008h-.281V-1.219h.3A3.979,3.979,0,0,0,.945-2.15,4,4,0,0,0,1.992-5ZM-.234-5a2.232,2.232,0,0,0,1.34-.445A2.625,2.625,0,0,0,2-6.547v-.578a3.977,3.977,0,0,0-.617-2.312A1.842,1.842,0,0,0-.18-10.328a1.856,1.856,0,0,0-1.531.73,3.013,3.013,0,0,0-.578,1.926A3.136,3.136,0,0,0-1.73-5.754,1.769,1.769,0,0,0-.234-5Z" transform="translate(912.842 2465.965)" fill="#12263f"/>
      <path id="Trazado_606053" data-name="Trazado 606053" d="M-3.083,0H-4.446V-9.031l-2.732,1v-1.23L-3.3-10.715h.212ZM7.573-4.548A6.2,6.2,0,0,1,6.76-1.011,2.891,2.891,0,0,1,4.219.146,2.912,2.912,0,0,1,1.692-.985a5.882,5.882,0,0,1-.85-3.38V-6.174a6.059,6.059,0,0,1,.813-3.494A2.914,2.914,0,0,1,4.2-10.811a2.94,2.94,0,0,1,2.534,1.1,5.847,5.847,0,0,1,.835,3.4ZM6.218-6.4A4.965,4.965,0,0,0,5.735-8.91,1.664,1.664,0,0,0,4.2-9.7a1.642,1.642,0,0,0-1.516.784A4.848,4.848,0,0,0,2.2-6.5v2.168a5.045,5.045,0,0,0,.5,2.552,1.661,1.661,0,0,0,1.52.824,1.638,1.638,0,0,0,1.49-.776,4.862,4.862,0,0,0,.509-2.446Z" transform="translate(943.198 2464.965)" fill="#12263f"/>
      <path id="Trazado_606054" data-name="Trazado 606054" d="M-3.083,0H-4.446V-9.031l-2.732,1v-1.23L-3.3-10.715h.212ZM5.339,0H3.977V-9.031l-2.732,1v-1.23l3.882-1.458h.212Z" transform="translate(992.745 2464.965)" fill="#12263f"/>
      <path id="Trazado_606055" data-name="Trazado 606055" d="M-3.083,0H-4.446V-9.031l-2.732,1v-1.23L-3.3-10.715h.212ZM7.874,0H.886V-.974l3.691-4.1A8.77,8.77,0,0,0,5.709-6.588a2.524,2.524,0,0,0,.311-1.2,1.913,1.913,0,0,0-.505-1.37A1.767,1.767,0,0,0,4.167-9.7,2.093,2.093,0,0,0,2.6-9.122a2.2,2.2,0,0,0-.56,1.6H.681A3.145,3.145,0,0,1,1.63-9.9a3.516,3.516,0,0,1,2.538-.908,3.379,3.379,0,0,1,2.351.78,2.661,2.661,0,0,1,.864,2.076q0,1.575-2.007,3.75L2.52-1.106H7.874Z" transform="translate(1023.611 2464.965)" fill="#12263f"/>
      <path id="Trazado_606056" data-name="Trazado 606056" d="M-6.258-2.118h5.6V0H-8.895V-12.8h2.637ZM9.352,0H.58V-1.74L4.72-6.152A10.212,10.212,0,0,0,5.981-7.778,2.612,2.612,0,0,0,6.39-9.1a1.955,1.955,0,0,0-.431-1.34,1.555,1.555,0,0,0-1.23-.488,1.677,1.677,0,0,0-1.358.593,2.35,2.35,0,0,0-.5,1.56H.325a4.2,4.2,0,0,1,.558-2.136,3.934,3.934,0,0,1,1.578-1.516,4.8,4.8,0,0,1,2.312-.549,4.54,4.54,0,0,1,3.072.949A3.358,3.358,0,0,1,8.938-9.343a4.3,4.3,0,0,1-.492,1.934A10.745,10.745,0,0,1,6.759-5.115L3.85-2.048h5.5Z" transform="translate(486.241 2559.97)" fill="#12263f"/>
      <path id="Trazado_606057" data-name="Trazado 606057" d="M-6.258-2.118h5.6V0H-8.895V-12.8h2.637ZM3.164-7.523H4.518A1.907,1.907,0,0,0,5.95-8.007,1.771,1.771,0,0,0,6.416-9.29a1.566,1.566,0,0,0-.461-1.2,1.788,1.788,0,0,0-1.27-.431,1.874,1.874,0,0,0-1.222.4,1.279,1.279,0,0,0-.492,1.042H.431a3.124,3.124,0,0,1,.541-1.8,3.6,3.6,0,0,1,1.512-1.244,5.045,5.045,0,0,1,2.14-.448A4.785,4.785,0,0,1,7.8-12,3.314,3.314,0,0,1,8.956-9.325,2.693,2.693,0,0,1,8.42-7.708,3.483,3.483,0,0,1,7.014-6.574a3.18,3.18,0,0,1,1.613,1.16,3.147,3.147,0,0,1,.532,1.828A3.369,3.369,0,0,1,7.915-.853,5,5,0,0,1,4.623.176,4.741,4.741,0,0,1,1.49-.835,3.3,3.3,0,0,1,.272-3.507h2.54a1.472,1.472,0,0,0,.541,1.178,1.992,1.992,0,0,0,1.332.457A2,2,0,0,0,6.1-2.351a1.654,1.654,0,0,0,.514-1.27q0-1.916-2.109-1.916H3.164Z" transform="translate(486.241 2590.835)" fill="#12263f"/>
      <path id="Trazado_606058" data-name="Trazado 606058" d="M5.194,0H2.558L-2.575-8.42V0H-5.212V-12.8h2.637L2.566-4.359V-12.8H5.194Z" transform="translate(486.267 2621.7)" fill="#12263f"/>
    </g>
    <rect id="Rectángulo_45717" data-name="Rectángulo 45717" width="6" height="477" transform="translate(1203.839 2213)" fill="#0f58b9"/>
    <rect id="Rectángulo_45718" data-name="Rectángulo 45718" width="6" height="477" transform="translate(389.839 2213)" fill="#0f58b9"/>
    <rect id="Rectángulo_45719" data-name="Rectángulo 45719" width="6" height="820" transform="translate(1209.839 2213) rotate(90)" fill="#0f58b9"/>
    <rect id="Rectángulo_45720" data-name="Rectángulo 45720" width="6" height="820" transform="translate(1209.839 2684) rotate(90)" fill="#0f58b9"/>
  </g>
</svg>
