<svg id="Grupo_159201" data-name="Grupo 159201" xmlns="http://www.w3.org/2000/svg" width="264.074" height="255.859" viewBox="0 0 264.074 255.859">
  <path id="Trazado_100113" data-name="Trazado 100113" d="M415.95,428.257a122.79,122.79,0,0,1-199.227,98.15c-2.066-1.661-4.07-3.366-6.031-5.156l-.022-.022a122.406,122.406,0,0,1-32.454-47.663v-.02a122.914,122.914,0,0,1,15.669-115.45,117.51,117.51,0,0,1,7.971-9.856,122.493,122.493,0,0,1,67.608-38.43c2.118-.424,4.258-.78,6.4-1.073,2.032-.291,4.07-.52,6.127-.7,1.542-.155,3.106-.267,4.672-.336,1.479-.09,2.96-.134,4.462-.159A122.792,122.792,0,0,1,415.95,428.257Z" transform="translate(-170.385 -297.24)" fill="#e4daf7"/>
  <g id="Grupo_83376" data-name="Grupo 83376" transform="translate(67.123 0)">
    <path id="Trazado_100114" data-name="Trazado 100114" d="M202.136,360.131,231.8,306.707a5.107,5.107,0,0,1,8.845-.148l31.436,52.405a5.108,5.108,0,0,1-4.3,7.734l-61.1,1.022A5.108,5.108,0,0,1,202.136,360.131Z" transform="translate(-198.913 -301.509)" fill="#ccf8ff"/>
    <path id="Trazado_100115" data-name="Trazado 100115" d="M269.255,370.688l-61.1,1.022a7.676,7.676,0,0,1-6.839-11.4l29.666-53.427a7.676,7.676,0,0,1,13.293-.222l31.436,52.405a7.677,7.677,0,0,1-6.456,11.624Zm-31.6-62.62a2.5,2.5,0,0,0-2.178,1.307L205.806,362.8a2.539,2.539,0,0,0,2.261,3.771l61.1-1.022a2.539,2.539,0,0,0,2.136-3.846L239.871,309.3A2.5,2.5,0,0,0,237.65,308.069Z" transform="translate(-200.338 -302.932)" fill="#0f58b9"/>
    <path id="Trazado_100116" data-name="Trazado 100116" d="M218.305,312.8,214.19,328l3.367-.334-3.509,10.1,4.014-.945-4.03,15.736L228.378,331.5l-5.323,1.094,4.38-9.482-4.7,1.121,5.709-12.628Z" transform="translate(-183.343 -292.173)" fill="#ad84ff"/>
  </g>
  <g id="Grupo_83377" data-name="Grupo 83377" transform="translate(155.587 78.631)">
    <path id="Trazado_100117" data-name="Trazado 100117" d="M334.341,447.15H239.814V338.02H348.3v95.322Z" transform="translate(-239.814 -338.02)" fill="#fff" fill-rule="evenodd"/>
    <path id="Trazado_100118" data-name="Trazado 100118" d="M314.225,385.143v2.1H331.8v-2.1h-7.738V351.806H286.932a11.084,11.084,0,0,0-22.069,0H249.7v7.59h-3.922v22.912H249.7v13.233h-3.922v22.912H249.7v7.718h19.7v6.192h2.1v-5.423l12.545,7.241v-8.009h40.017V392.263H331.8v-2.1H314.225v2.1h7.738v31.806H301.192v-25.5a12.9,12.9,0,0,0,0-19.151v-25.5h20.772v31.235Zm-31.282-26.724-5.56-5.562,5.56-5.562a8.941,8.941,0,0,1,0,11.124Zm-1.486,1.483a8.935,8.935,0,0,1-11.12,0l5.56-5.56Zm0-14.091-5.56,5.56-5.56-5.56a8.934,8.934,0,0,1,11.12,0ZM268.852,347.3l5.56,5.562-5.56,5.562a8.933,8.933,0,0,1,0-11.124Zm-20.971,14.2h5.741v18.71h-5.741Zm0,36.145h5.741v18.71h-5.741Zm34.063,26.428h-7.575l7.575-4.372Zm0,6.474-7.575-4.372h7.575Zm17.148-6.474H284.046v-8.011L271.5,423.3v-5.423h-2.1v6.192H251.8v-5.616h3.924V395.541H251.8v-5.789h27.761a12.923,12.923,0,0,0,19.53,10.369Zm-9.746-39.932V380.3h-2.1v7.353h-5.533a10.842,10.842,0,0,1,16.682-7.767l-5.894,2.438.014-1.394Zm-2.1,5.616v7.353h2.1v-2.759l9.047,3.745a10.837,10.837,0,0,1-16.731-8.339Zm16.1-.764a10.819,10.819,0,0,1-3.108,7.592l-10.893-4.507v-6.866l4.955.036-.995-.979,6.934-2.869A10.82,10.82,0,0,1,303.347,388.989Zm-4.256-11.133a12.933,12.933,0,0,0-19.5,9.8H251.8v-5.345h3.924V359.4H251.8v-5.488h13.063a11.084,11.084,0,0,0,22.069,0h12.159Z" transform="translate(-232.411 -333.367)" fill="#2e0877"/>
    <path id="Trazado_100119" data-name="Trazado 100119" d="M282,380.555h13.959L282,394.364Z" transform="translate(-187.468 -285.234)" fill="#fff"/>
  </g>
  <path id="Trazado_100120" data-name="Trazado 100120" d="M196.821,429.477,228.8,376.8a14.124,14.124,0,0,1,19.369-4.879l.244.146a14.122,14.122,0,0,1,4.879,19.369L218.189,449.1Z" transform="translate(-137.579 -219.802)" fill="#265d99"/>
  <path id="Trazado_100121" data-name="Trazado 100121" d="M340.992,445.441a14.044,14.044,0,0,0-2.638-7.512l-32.4-54.846a18.433,18.433,0,0,0-9.047-7.765l-27.994-11.2c0,4.838-6.943,7.243-13.845,7.214-6.9.029-13.845-2.378-13.845-7.214l-24.368,9.75v90.677h80.606l2.2-36.154.515,3.666v28.532h26.73c.083,0,.166-.014.249-.014s-9.325,3.971-9.246,3.969c19.846-.379,22.712-10.035,23.08-17.276C341,447.133,341,445.6,340.992,445.441Z" transform="translate(-112.714 -227.003)" fill="#265d99"/>
  <path id="Trazado_100122" data-name="Trazado 100122" d="M215.217,464.543h31.252V364.116L212.632,377.65Z" transform="translate(-117.958 -227.003)" fill="#25ffff"/>
  <path id="Trazado_100123" data-name="Trazado 100123" d="M271.6,464.543H240.348V364.116l33.836,13.534Z" transform="translate(-83.564 -227.003)" fill="#25ffff"/>
  <path id="Trazado_100124" data-name="Trazado 100124" d="M227.838,368.378h0v-7.7c2.743,3.175,5.127,4.549,9.08,5.035a36.642,36.642,0,0,0,4.567.233h.157a36.618,36.618,0,0,0,4.567-.233c3.953-.486,6.337-1.86,9.08-5.035v7.7C255.29,378,227.838,378,227.838,368.378Z" transform="translate(-99.088 -231.265)" fill="#f2c28d"/>
  <path id="Trazado_100125" data-name="Trazado 100125" d="M234.029,363.03h0Z" transform="translate(-91.553 -228.351)" fill="#ffd2a1"/>
  <path id="Trazado_100126" data-name="Trazado 100126" d="M248.508,329.342A23.621,23.621,0,0,0,224.9,352.971v9.242a4.127,4.127,0,0,0-.854-.35c-.052-.018-.105-.018-.139-.034a3.489,3.489,0,0,0-1.047-.036c-1.412.226-2.512,1.483-3.14,3.312a13.647,13.647,0,0,0-.417,6.575c.661,4.063,2.685,7.236,4.9,8.074a2.976,2.976,0,0,0,1.587.193c.157-.036.314-.105.471-.141,1.221,5.773,2.844,10.342,4.919,13.374a100.578,100.578,0,0,0,6.12,8.388,16.5,16.5,0,0,0,4.464,3.855,14.414,14.414,0,0,0,5.457,1.638,37.947,37.947,0,0,0,4.953.262h.52a37.948,37.948,0,0,0,4.953-.262,14.4,14.4,0,0,0,5.457-1.638,16.471,16.471,0,0,0,4.464-3.855,101.05,101.05,0,0,0,6.122-8.388c2.073-3.032,3.7-7.6,4.917-13.374.157.036.314.105.471.141a2.976,2.976,0,0,0,1.587-.193c2.214-.838,4.238-4.011,4.9-8.074a13.645,13.645,0,0,0-.419-6.575c-.627-1.829-1.728-3.086-3.14-3.312a3.492,3.492,0,0,0-1.047.036c-.034.016-.087.016-.139.034a4.126,4.126,0,0,0-.854.35v-9.242a23.622,23.622,0,0,0-23.611-23.629Z" transform="translate(-109.943 -270.157)" fill="#ffd2a1"/>
  <path id="Trazado_100127" data-name="Trazado 100127" d="M262.761,338.891c5.477,0,9.923,7.716,9.923,13.208l-.141,17.733h3.628l.576-7.864v-9a23.622,23.622,0,0,0-23.611-23.629h-7.843a23.621,23.621,0,0,0-23.611,23.629v9l.576,7.864h3.628l-.141-17.733c0-5.493,4.448-13.208,9.923-13.208C244.99,345.632,254.042,346.1,262.761,338.891Z" transform="translate(-106.727 -270.157)" fill="#3c3c3b"/>
  <g id="Grupo_83378" data-name="Grupo 83378" transform="translate(107.943 41.143)">
    <path id="Trazado_100128" data-name="Trazado 100128" d="M282.64,362.905v-9.435a3.819,3.819,0,0,0-.018-.453,31.4,31.4,0,0,0-8.3-20.875,33.347,33.347,0,0,0-2.877-2.772,31.478,31.478,0,0,0-10.34-5.806,26.89,26.89,0,0,0-2.877-.82,29.929,29.929,0,0,0-13.9,0,26.894,26.894,0,0,0-2.877.82,31.488,31.488,0,0,0-10.342,5.806,33.674,33.674,0,0,0-2.877,2.772,31.409,31.409,0,0,0-8.3,20.875,3.826,3.826,0,0,0-.018.453v9.435Z" transform="translate(-216.863 -320.502)" fill="#ff681d"/>
    <path id="Trazado_100129" data-name="Trazado 100129" d="M287.382,339.378v2.96h-6.3a5.58,5.58,0,0,0-2.763.731L273.161,346a17.023,17.023,0,0,1-8.41,2.221H241.185a17.023,17.023,0,0,1-8.41-2.221l-5.161-2.934a5.586,5.586,0,0,0-2.763-.731h-6.3v-2.96Z" transform="translate(-218.553 -298.846)" fill="#de5410"/>
    <path id="Trazado_100130" data-name="Trazado 100130" d="M240.342,335.8h6.14a1.581,1.581,0,0,1,1.58,1.58v6.432h-9.3v-6.432A1.581,1.581,0,0,1,240.342,335.8Z" transform="translate(-193.474 -303.282)" fill="#de5410"/>
    <path id="Trazado_100131" data-name="Trazado 100131" d="M232.628,335.8h-6.14a1.579,1.579,0,0,0-1.58,1.58v6.432h9.3v-6.432A1.581,1.581,0,0,0,232.628,335.8Z" transform="translate(-210.667 -303.282)" fill="#de5410"/>
    <path id="Trazado_100132" data-name="Trazado 100132" d="M247.9,335.8a3.816,3.816,0,0,1,.018.453v7.568h2.111v-6.434a1.593,1.593,0,0,0-1.589-1.587Z" transform="translate(-182.138 -303.285)" fill="#de5410"/>
    <path id="Trazado_100133" data-name="Trazado 100133" d="M221.1,335.8a3.819,3.819,0,0,0-.018.453v7.568h-2.111v-6.434a1.592,1.592,0,0,1,1.587-1.587Z" transform="translate(-218.032 -303.285)" fill="#de5410"/>
    <path id="Trazado_100134" data-name="Trazado 100134" d="M244.708,342.334V323.252a1.962,1.962,0,0,0-1.961-1.961H232.77a1.96,1.96,0,0,0-1.961,1.961v19.082Z" transform="translate(-203.344 -321.291)" fill="#ff681d"/>
    <path id="Trazado_100135" data-name="Trazado 100135" d="M239.846,322.128A1.148,1.148,0,0,0,238.3,323.2v18.181h10.34v-13a2.642,2.642,0,0,0-1.094-2.138A32.9,32.9,0,0,0,239.846,322.128Z" transform="translate(-194.054 -320.342)" fill="#ff681d"/>
    <path id="Trazado_100136" data-name="Trazado 100136" d="M233.7,322.128a1.15,1.15,0,0,1,1.551,1.076v18.181H224.91v-13a2.638,2.638,0,0,1,1.1-2.138A32.9,32.9,0,0,1,233.7,322.128Z" transform="translate(-210.664 -320.342)" fill="#ff681d"/>
    <path id="Trazado_100137" data-name="Trazado 100137" d="M237.011,322.292v17.374a1.426,1.426,0,0,0,1.425,1.425h.029a1.424,1.424,0,0,0,1.423-1.425V323.112A26.881,26.881,0,0,0,237.011,322.292Z" transform="translate(-195.647 -320.049)" fill="#de5410"/>
    <path id="Trazado_100138" data-name="Trazado 100138" d="M232.4,322.292v17.374a1.426,1.426,0,0,1-1.425,1.425h-.029a1.424,1.424,0,0,1-1.423-1.425V323.112A26.888,26.888,0,0,1,232.4,322.292Z" transform="translate(-204.937 -320.049)" fill="#de5410"/>
    <path id="Trazado_100139" data-name="Trazado 100139" d="M242.909,325.249V336a1.426,1.426,0,0,0,1.425,1.425h.029A1.424,1.424,0,0,0,245.786,336v-7.976A33.368,33.368,0,0,0,242.909,325.249Z" transform="translate(-188.328 -316.379)" fill="#de5410"/>
    <path id="Trazado_100140" data-name="Trazado 100140" d="M226.5,325.249V336a1.424,1.424,0,0,1-1.423,1.425h-.029A1.426,1.426,0,0,1,223.626,336v-7.976A33.691,33.691,0,0,1,226.5,325.249Z" transform="translate(-212.258 -316.379)" fill="#de5410"/>
  </g>
  <path id="Trazado_100141" data-name="Trazado 100141" d="M269.127,407.45l.027-.081a4,4,0,0,0-2.976-5.067A125.032,125.032,0,0,1,241.3,392.169a4.266,4.266,0,0,0-5.641,1.587l-.043.072a3.975,3.975,0,0,0,1.609,5.6,133.042,133.042,0,0,0,26.029,10.788A4.82,4.82,0,0,0,269.127,407.45Z" transform="translate(-90.148 -192.797)" fill="#c1bea2" fill-rule="evenodd"/>
  <rect id="Rectángulo_31761" data-name="Rectángulo 31761" width="7.328" height="21.183" transform="translate(180.119 212.462)" fill="#e0ddbc"/>
  <path id="Trazado_100142" data-name="Trazado 100142" d="M252.405,396.2H277.26a14.121,14.121,0,0,1,14.123,14.123v.285a14.121,14.121,0,0,1-14.123,14.123H252.405Z" transform="translate(-68.601 -187.189)" fill="#265d99"/>
  <path id="Trazado_100143" data-name="Trazado 100143" d="M254.7,397.879l21.935.087a1.545,1.545,0,0,0,1.544-1.546v-.1a1.544,1.544,0,0,0-1.544-1.544h-21.9Z" transform="translate(-65.755 -188.956)" fill="#265d99"/>
  <path id="Trazado_100144" data-name="Trazado 100144" d="M249.1,367.716c.025.045.049.1.074.141v-.195Z" transform="translate(-72.7 -222.603)" fill="#3c3c3b"/>
  <g id="Grupo_83379" data-name="Grupo 83379" transform="translate(135.795 167.414)">
    <path id="Trazado_100145" data-name="Trazado 100145" d="M242.43,399.956c0,.652-1.342,1.181-3,1.181s-3-.529-3-1.181,1.34-1.181,3-1.181S242.43,399.3,242.43,399.956Z" transform="translate(-224.214 -351.406)" fill="#3c3c3b"/>
    <rect id="Rectángulo_31762" data-name="Rectángulo 31762" width="14.471" height="11.157" transform="translate(7.982 35.65)" fill="#3c3c3b"/>
    <path id="Trazado_100146" data-name="Trazado 100146" d="M261.417,393.514c0-9.376-7.792-16.854-16.987-15.772a15.545,15.545,0,0,0-13.242,13.112,16.308,16.308,0,0,0,4.3,13.939,11.95,11.95,0,0,1,3.476,8.28v.215h14.47v-.141a11.9,11.9,0,0,1,3.42-8.3A16.168,16.168,0,0,0,261.417,393.514Z" transform="translate(-230.982 -377.637)" fill="#d2e1f1"/>
    <path id="Trazado_100147" data-name="Trazado 100147" d="M244.777,400.312h-6l-4.238-1.788h14.471Z" transform="translate(-226.561 -351.717)" fill="#9d9d9c"/>
    <path id="Trazado_100148" data-name="Trazado 100148" d="M237.066,384.06c.807,0,1.19.679,1.528,1.28.345.616.589.99,1.031.99s.681-.374,1.029-.99c.336-.6.719-1.28,1.524-1.28s1.188.679,1.524,1.28c.347.616.589.99,1.029.99s.681-.374,1.029-.99c.338-.6.719-1.28,1.524-1.28s1.186.679,1.524,1.28c.345.616.587.99,1.026.99a.283.283,0,1,1,0,.567c-.8,0-1.185-.681-1.522-1.28-.345-.616-.587-.991-1.029-.991s-.681.374-1.029.991c-.336.6-.719,1.28-1.524,1.28s-1.185-.679-1.522-1.28c-.347-.616-.589-.991-1.031-.991s-.681.374-1.029.991c-.338.6-.719,1.28-1.524,1.28s-1.188-.681-1.526-1.28c-.347-.616-.589-.991-1.033-.991s-.684.374-1.031.991c-.336.6-.719,1.28-1.526,1.28a.283.283,0,0,1,0-.567c.444,0,.686-.374,1.033-.993C235.881,384.739,236.262,384.06,237.066,384.06Z" transform="translate(-226.954 -369.667)" fill="#fff"/>
    <path id="Trazado_100149" data-name="Trazado 100149" d="M239.566,389.217H238.5a1.6,1.6,0,0,0-1.746,1.4v8.3h4.554v-8.3A1.6,1.6,0,0,0,239.566,389.217Z" transform="translate(-223.816 -363.267)" fill="#f6f6f6"/>
    <path id="Trazado_100150" data-name="Trazado 100150" d="M240.967,395.809a.377.377,0,0,1-.314-.17l-6.532-10.026a.375.375,0,1,1,.627-.41l6.532,10.026a.374.374,0,0,1-.11.52A.378.378,0,0,1,240.967,395.809Z" transform="translate(-227.162 -368.461)" fill="#3c3c3b"/>
    <path id="Trazado_100151" data-name="Trazado 100151" d="M238.609,395.808a.379.379,0,0,1-.2-.061.374.374,0,0,1-.108-.52L244.83,385.2a.378.378,0,0,1,.518-.11.374.374,0,0,1,.108.52l-6.532,10.026A.374.374,0,0,1,238.609,395.808Z" transform="translate(-221.98 -368.46)" fill="#3c3c3b"/>
  </g>
  <rect id="Rectángulo_31763" data-name="Rectángulo 31763" width="20.818" height="7.677" rx="1.696" transform="translate(139.878 208.624)" fill="#c1bea2"/>
  <rect id="Rectángulo_31764" data-name="Rectángulo 31764" width="21.758" height="7.677" rx="1.696" transform="translate(138.938 216.301)" fill="#c1bea2"/>
  <rect id="Rectángulo_31765" data-name="Rectángulo 31765" width="19.468" height="7.677" rx="1.696" transform="translate(141.228 223.978)" fill="#c1bea2"/>
  <path id="Trazado_100152" data-name="Trazado 100152" d="M263.25,414.694v-7.487a11.182,11.182,0,0,0-11.182-11.18h-9.143v29.848h9.143A11.182,11.182,0,0,0,263.25,414.694Z" transform="translate(-80.367 -187.403)" fill="#e0ddbc" fill-rule="evenodd"/>
  <g id="Grupo_83382" data-name="Grupo 83382" transform="translate(12.3 74.297)">
    <path id="Trazado_100153" data-name="Trazado 100153" d="M207.057,382.056l-3.435-5.853-3.415-.95-1.985-.986c-4.24-2.178-12.877-3.715-20.595-8.621-.007,4.388.5,8.755.843,13.195.462,6.015-1.378,7.463-.578,13.437,2.963,4.767,6.093,13.692,14.421,13.087.211.41,4.516,7.077,4.516,7.077l10.6,1.067.359-.036,3.09-12.455-1.84-4.984Z" transform="translate(-173.7 -299.403)" fill="#c1bea2" fill-rule="evenodd"/>
    <g id="Grupo_83380" data-name="Grupo 83380" transform="translate(8.318)">
      <rect id="Rectángulo_31766" data-name="Rectángulo 31766" width="4.458" height="77.134" transform="translate(1.837 7.8) rotate(-1.95)" fill="#c6c6c6"/>
      <path id="Trazado_100154" data-name="Trazado 100154" d="M181.144,336.238l-1.558,6.729,2.008,6.315,4.479-.153,1.575-6.437-2.025-6.607Z" transform="translate(-179.586 -336.085)" fill="#dadada"/>
      <path id="Trazado_100155" data-name="Trazado 100155" d="M187.649,339.034c-2.68,2.084-5.367,2.391-8.063.273l2.008,6.317a3.124,3.124,0,0,0,4.48-.155Z" transform="translate(-179.586 -332.426)" fill="#c6c6c6"/>
    </g>
    <path id="Trazado_100156" data-name="Trazado 100156" d="M191.989,378.434l-11.882.4.067,1.941c.105,3.117,11.987,2.714,11.879-.4Z" transform="translate(-170.621 -283.532)" fill="#b6312f"/>
    <path id="Trazado_100157" data-name="Trazado 100157" d="M190.2,359.7l-9.733.331-.946,3.8,11.88-.4Z" transform="translate(-171.342 -306.787)" fill="#b6312f"/>
    <path id="Trazado_100158" data-name="Trazado 100158" d="M191.53,361.177l-11.29.383a1.1,1.1,0,0,1-1.136-1.06v-.022a1.1,1.1,0,0,1,1.06-1.136l11.29-.383a1.1,1.1,0,0,1,1.136,1.06v.022A1.1,1.1,0,0,1,191.53,361.177Z" transform="translate(-171.868 -307.702)" fill="#cf4941"/>
    <g id="Grupo_83381" data-name="Grupo 83381" transform="translate(7.942 56.633)">
      <path id="Trazado_100159" data-name="Trazado 100159" d="M192.843,399.626l-11.882.4a244.179,244.179,0,0,1-1.3-38.269l11.882-.4A244.183,244.183,0,0,1,192.843,399.626Z" transform="translate(-179.418 -361.357)" fill="#df4937"/>
      <path id="Trazado_100160" data-name="Trazado 100160" d="M185.161,395.632a1.178,1.178,0,0,1-1.145,1.181h0a1.173,1.173,0,0,1-1.219-1.1c-.5-10.7-.869-21.446-1.1-32.158a1.178,1.178,0,0,1,1.147-1.181h0a1.177,1.177,0,0,1,1.226,1.1C184.569,374.177,184.932,384.92,185.161,395.632Z" transform="translate(-176.591 -360.097)" fill="#b6312f"/>
      <path id="Trazado_100161" data-name="Trazado 100161" d="M186.739,395.571c-.018.632-.406,1.156-.863,1.172h0c-.457.016-.82-.484-.818-1.114.092-10.723-.271-21.466-1.08-32.16-.047-.63.287-1.152.744-1.168h0c.459-.013.881.482.941,1.112A268.821,268.821,0,0,1,186.739,395.571Z" transform="translate(-173.764 -360.186)" fill="#b6312f"/>
      <path id="Trazado_100162" data-name="Trazado 100162" d="M182.635,395.714c.047.628-.285,1.152-.742,1.168h0c-.457.016-.876-.482-.937-1.112a277.536,277.536,0,0,1-1.114-32.158c.016-.63.4-1.154.861-1.17h0c.459-.016.827.482.825,1.114C181.468,374.279,181.837,385.02,182.635,395.714Z" transform="translate(-178.985 -360.011)" fill="#b6312f"/>
    </g>
    <path id="Trazado_100163" data-name="Trazado 100163" d="M204.492,403.269c-1-1.481-2.266-3.491-2.261-3.525,2.039-7.355-2.907-15.956-3.606-16.922l-2.2-3.05a24.194,24.194,0,0,1-2.14-4.937c-.93-3.142-1.97-6.243-2.752-9.43a3.816,3.816,0,0,0-4.444-2.844l-.074.022a3.567,3.567,0,0,0-2.555,2.154,3.889,3.889,0,0,0-.177,2.458c.291,1.176.6,2.342.914,3.512q.971,3.472,2.154,6.889c.3.876.605,1.741.925,2.608.047.135.1.285.15.419a.011.011,0,0,1,.009.013.554.554,0,0,1,.038.123,2.178,2.178,0,0,1-.374,1.97,16.173,16.173,0,0,0-2.929,13.04c.072.338.143.674.226,1.015a16.433,16.433,0,0,0,7.843,10.465,13.564,13.564,0,0,0,3.72,1.4,9.862,9.862,0,0,0,1.425.238c.1.016,2.407,8.641,2.508,8.659l8.993-6.685C208.286,408.829,206.018,405.546,204.492,403.269Z" transform="translate(-165.589 -303.325)" fill="#e0ddbc" fill-rule="evenodd"/>
    <path id="Trazado_100164" data-name="Trazado 100164" d="M207.3,379.911,234.39,421.2a14.122,14.122,0,0,1-4.085,19.55l-.24.157a14.125,14.125,0,0,1-19.55-4.085l-26.488-41.106Z" transform="translate(-165.758 -281.699)" fill="#265d99"/>
    <path id="Trazado_100165" data-name="Trazado 100165" d="M179.959,374.866c.782.3,3.245.939,3.245.939a4.244,4.244,0,0,0,5.39-2.6l.022-.078a4.244,4.244,0,0,0-3.2-5.058l-3.245-.937C175.576,365.625,173.875,373.34,179.959,374.866Z" transform="translate(-175.471 -297.794)" fill="#e0ddbc" fill-rule="evenodd"/>
    <path id="Trazado_100166" data-name="Trazado 100166" d="M178.919,378.495l5.515,1.582a4.261,4.261,0,0,0,5.4-2.635l.022-.078a4.262,4.262,0,0,0-3.184-5.1l-5.515-1.582C176.371,369.488,173.776,376.254,178.919,378.495Z" transform="translate(-175.589 -293.325)" fill="#e0ddbc" fill-rule="evenodd"/>
    <path id="Trazado_100167" data-name="Trazado 100167" d="M179.157,381.485l4.426,1.268a3.585,3.585,0,0,0,4.435-2.456l.02-.069a3.586,3.586,0,0,0-2.458-4.435l-4.426-1.268C176.8,373.173,174.527,379.692,179.157,381.485Z" transform="translate(-174.967 -288.611)" fill="#e0ddbc" fill-rule="evenodd"/>
    <path id="Trazado_100168" data-name="Trazado 100168" d="M181.279,372.012c.838-.038,3.348-.448,3.348-.448a4.242,4.242,0,0,0,3.888-4.545l-.009-.081a4.247,4.247,0,0,0-4.964-3.341l-3.346.448C173.545,365.319,175.094,373.066,181.279,372.012Z" transform="translate(-175.874 -302.001)" fill="#e0ddbc" fill-rule="evenodd"/>
  </g>
  <rect id="Rectángulo_31767" data-name="Rectángulo 31767" width="17.378" height="6.853" rx="1.514" transform="translate(144.646 231.655)" fill="#c1bea2"/>
  <path id="Trazado_100169" data-name="Trazado 100169" d="M250.73,425.875h-6.8a3.374,3.374,0,0,1-3.375-3.375v-.067a3.374,3.374,0,0,1,3.375-3.375h-1.237a3.8,3.8,0,0,1-3.8-3.8v-.076a3.8,3.8,0,0,1,3.8-3.8h-1.145a3.8,3.8,0,0,1-3.8-3.8V407.5a3.8,3.8,0,0,1,3.8-3.8,3.8,3.8,0,0,1-3.8-3.8v-.076a3.8,3.8,0,0,1,3.8-3.8h9.181Z" transform="translate(-86.787 -187.403)" fill="#e0ddbc" fill-rule="evenodd"/>
  <path id="Trazado_100170" data-name="Trazado 100170" d="M252.872,389.295a33.156,33.156,0,0,1-8.726,12.083v8.374a4.813,4.813,0,0,1-4.809,4.809h-34.39a4.817,4.817,0,0,1-4.829-4.809v-8.374a33.3,33.3,0,0,1,0-50.1V342.9a4.822,4.822,0,0,1,4.829-4.832h33.146a109.207,109.207,0,0,1,6.053,12.272v.934c.206.186.415.372.621.58A112.541,112.541,0,0,1,252.872,389.295Z" transform="translate(-147.585 -259.322)" fill="#afafaf" opacity="0.761" style="mix-blend-mode: multiply;isolation: isolate"/>
  <g id="Grupo_83385" data-name="Grupo 83385" transform="translate(30.093 71.706)">
    <rect id="Rectángulo_31768" data-name="Rectángulo 31768" width="44.022" height="76.493" rx="2.149" transform="translate(18.189 1.953)" fill="#265d99"/>
    <circle id="Elipse_4099" data-name="Elipse 4099" cx="33.382" cy="33.382" r="33.382" transform="translate(0 64.954) rotate(-76.624)" fill="#ccf8ff"/>
    <rect id="Rectángulo_31769" data-name="Rectángulo 31769" width="41.2" height="32.59" rx="1.968" transform="translate(19.6 23.905)" fill="#fff"/>
    <g id="Grupo_83383" data-name="Grupo 83383" transform="translate(23.964 29.048)">
      <rect id="Rectángulo_31770" data-name="Rectángulo 31770" width="5.514" height="8.196" fill="#265d99"/>
      <rect id="Rectángulo_31771" data-name="Rectángulo 31771" width="5.514" height="8.196" transform="translate(6.739)" fill="#265d99"/>
      <rect id="Rectángulo_31772" data-name="Rectángulo 31772" width="5.514" height="8.196" transform="translate(13.479)" fill="#265d99"/>
      <rect id="Rectángulo_31773" data-name="Rectángulo 31773" width="5.514" height="8.196" transform="translate(20.218)" fill="#265d99"/>
      <rect id="Rectángulo_31774" data-name="Rectángulo 31774" width="5.514" height="8.196" transform="translate(26.957)" fill="#265d99"/>
    </g>
    <path id="Trazado_100171" data-name="Trazado 100171" d="M230.027,380.091H197.649a5.642,5.642,0,0,1-5.636-5.636V350.687a5.644,5.644,0,0,1,5.636-5.638h32.378a5.644,5.644,0,0,1,5.636,5.638v23.768A5.642,5.642,0,0,1,230.027,380.091ZM197.649,347.5a3.191,3.191,0,0,0-3.187,3.187v23.768a3.19,3.19,0,0,0,3.187,3.185h32.378a3.19,3.19,0,0,0,3.187-3.185V350.687a3.191,3.191,0,0,0-3.187-3.187Z" transform="translate(-173.638 -322.371)" fill="#284e66"/>
    <g id="Grupo_83384" data-name="Grupo 83384" transform="translate(23.964 40.427)">
      <rect id="Rectángulo_31775" data-name="Rectángulo 31775" width="16.236" height="2.755" fill="#265d99"/>
      <rect id="Rectángulo_31776" data-name="Rectángulo 31776" width="16.236" height="2.755" transform="translate(16.236)" fill="#ee6c4d"/>
    </g>
    <rect id="Rectángulo_31777" data-name="Rectángulo 31777" width="14.404" height="1.14" transform="translate(26.721 44.892)" fill="#636363"/>
    <rect id="Rectángulo_31778" data-name="Rectángulo 31778" width="10.083" height="1.14" transform="translate(43.595 44.892)" fill="#636363"/>
    <rect id="Rectángulo_31779" data-name="Rectángulo 31779" width="26.958" height="1.14" transform="translate(26.721 47.552)" fill="#636363"/>
    <rect id="Rectángulo_31780" data-name="Rectángulo 31780" width="8.253" height="1.14" transform="translate(26.721 50.212)" fill="#636363"/>
    <rect id="Rectángulo_31781" data-name="Rectángulo 31781" width="16.236" height="1.14" transform="translate(37.443 50.212)" fill="#636363"/>
  </g>
</svg>
