<svg xmlns="http://www.w3.org/2000/svg" width="116" height="116" viewBox="0 0 116 116">
  <g id="Grupo_159296" data-name="Grupo 159296" transform="translate(-1004.839 -2626)">
    <circle id="Elipse_4806" data-name="Elipse 4806" cx="58" cy="58" r="58" transform="translate(1004.839 2626)" fill="#0f58b9"/>
    <g id="Grupo_159268" data-name="Grupo 159268" transform="translate(394.156 -1.564)">
      <path id="Trazado_601570" data-name="Trazado 601570" d="M-3527.723-8972.646l18.993-16.395v-7.63l-1.706-1.706,1.706-43.747-41.395-9.254v-2.109l-7.468-1.948-22.564,9.253,4.058,53.895Z" transform="translate(4212.839 11700)" fill="#cdfcfc" stroke="#000" stroke-width="4"/>
      <path id="Trazado_601571" data-name="Trazado 601571" d="M-3509.831-8997.445l-15.929,14.408,1.537-50.621-39.093-9.218,17.194-7.589,38.531,8.779Z" transform="translate(4212.234 11699.821)" fill="#e8e8e8" stroke="#000" stroke-width="4"/>
      <path id="Trazado_601572" data-name="Trazado 601572" d="M-3568.871-9034.7l30.449,7.877v16.329l-29.681-9.894Z" transform="translate(4212.434 11699.257)" stroke="#000" stroke-width="5"/>
      <ellipse id="Elipse_4807" data-name="Elipse 4807" cx="1.446" cy="1.928" rx="1.446" ry="1.928" transform="translate(636.69 2660.41)"/>
      <circle id="Elipse_4810" data-name="Elipse 4810" cx="1.928" cy="1.928" r="1.928" transform="translate(677.182 2671.015)"/>
      <circle id="Elipse_4808" data-name="Elipse 4808" cx="1.446" cy="1.446" r="1.446" transform="translate(639.582 2702.83)"/>
      <circle id="Elipse_4809" data-name="Elipse 4809" cx="1.446" cy="1.446" r="1.446" transform="translate(677.182 2718.256)"/>
      <path id="Trazado_601573" data-name="Trazado 601573" d="M-3563.126-9029.622l3.755,1.075.048,7.7-4.014-1.323Z" transform="translate(4209.957 11697.403)" fill="none" stroke="#25ffff" stroke-width="1"/>
      <path id="Trazado_601574" data-name="Trazado 601574" d="M-3563.126-9029.622l3.755,1.075.048,7.7-4.014-1.323Z" transform="translate(4217.075 11699.416)" fill="none" stroke="#25ffff" stroke-width="1"/>
      <path id="Trazado_601575" data-name="Trazado 601575" d="M-3563.126-9029.622l3.755,1.075.048,7.7-4.014-1.323Z" transform="translate(4224.192 11701.788)" fill="none" stroke="#25ffff" stroke-width="1"/>
      <path id="Trazado_601576" data-name="Trazado 601576" d="M-3563.126-9029.622l3.755,1.075.048,7.7-4.014-1.323Z" transform="translate(4231.31 11703.803)" fill="none" stroke="#25ffff" stroke-width="1"/>
    </g>
  </g>
</svg>
