<svg xmlns="http://www.w3.org/2000/svg" width="820" height="554" viewBox="0 0 820 554">
  <g id="Grupo_159290" data-name="Grupo 159290" transform="translate(-389.839 -3831)">
    <g id="Grupo_159272" data-name="Grupo 159272" transform="translate(-884.161 11662)">
      <path id="Trazado_601578" data-name="Trazado 601578" d="M0,0H820V553.5H0Z" transform="translate(1274 -7831)" fill="#eff5fb" opacity="0.6"/>
      <rect id="Rectángulo_45727" data-name="Rectángulo 45727" width="6" height="554" transform="translate(2088 -7831)" fill="#0f58b9"/>
      <rect id="Rectángulo_45725" data-name="Rectángulo 45725" width="6" height="554" transform="translate(1274 -7831)" fill="#0f58b9"/>
      <rect id="Rectángulo_45726" data-name="Rectángulo 45726" width="6" height="820" transform="translate(2094 -7831) rotate(90)" fill="#0f58b9"/>
      <rect id="Rectángulo_45728" data-name="Rectángulo 45728" width="6" height="820" transform="translate(2094 -7283) rotate(90)" fill="#0f58b9"/>
    </g>
    <g id="Grupo_159270" data-name="Grupo 159270" transform="translate(441.568 3836.009)">
      <g id="Grupo_84288" data-name="Grupo 84288" transform="translate(90.27 32.991)">
        <g id="Grupo_84259" data-name="Grupo 84259" transform="translate(29.139 40.287)" opacity="0.8">
          <path id="Trazado_102482" data-name="Trazado 102482" d="M228.875,388.938,229.6,246H297.74L296.4,388.938" transform="translate(-138.751 -246)" fill="none" stroke="#76c2dd" stroke-linecap="round" stroke-linejoin="round" stroke-width="2"/>
          <path id="Trazado_102499" data-name="Trazado 102499" d="M0,0H16.845V58.661" transform="translate(106.969 188.653) rotate(180)" fill="none" stroke="#76c2dd" stroke-linecap="round" stroke-linejoin="round" stroke-width="1"/>
          <path id="Trazado_102500" data-name="Trazado 102500" d="M0,57.519H16.845V-.977" transform="translate(142.023 131.133)" fill="none" stroke="#76c2dd" stroke-linecap="round" stroke-linejoin="round" stroke-width="1"/>
          <path id="Trazado_102483" data-name="Trazado 102483" d="M613.736,425.24v8.139l6.837-4.069Z" transform="translate(-114.058 -231.271)" fill="#76c2dd" stroke="#76c2dd" stroke-linecap="round" stroke-linejoin="round" stroke-width="2"/>
          <path id="Trazado_102498" data-name="Trazado 102498" d="M152,414.925H651.678" transform="translate(-152 -216.887)" fill="none" stroke="#76c2dd" stroke-linecap="round" stroke-linejoin="round" stroke-width="2"/>
          <g id="Grupo_84253" data-name="Grupo 84253" transform="translate(104.338 187.148)">
            <path id="Trazado_102501" data-name="Trazado 102501" d="M377.558,121.952a10.895,10.895,0,1,1-17.026,1.371" transform="translate(-358.693 -121.952)" fill="none" stroke="#12263f" stroke-linecap="round" stroke-linejoin="round" stroke-width="2"/>
            <path id="Trazado_102502" data-name="Trazado 102502" d="M404.722,123.733" transform="translate(-368.898 -122.347)" fill="none" stroke="#12263f" stroke-linecap="round" stroke-linejoin="round" stroke-width="2"/>
            <path id="Trazado_102503" data-name="Trazado 102503" d="M399.044,123.339a10.9,10.9,0,1,1-16.961-1.385" transform="translate(-363.22 -121.952)" fill="none" stroke="#12263f" stroke-linecap="round" stroke-linejoin="round" stroke-width="2"/>
          </g>
        </g>
        <g id="Grupo_84260" data-name="Grupo 84260" transform="translate(29.139 40.287)" opacity="0.8">
          <path id="Trazado_102484" data-name="Trazado 102484" d="M313.23,393.507,313.958,246H382.1l-1.336,147.507" transform="translate(-124.213 -246)" fill="none" stroke="#265d99" stroke-linecap="round" stroke-linejoin="round" stroke-width="2"/>
          <path id="Trazado_102485" data-name="Trazado 102485" d="M613.736,449.536v9.242l6.837-4.621Z" transform="translate(-114.058 -229.275)" fill="#265d99" stroke="#265d99" stroke-linecap="round" stroke-linejoin="round" stroke-width="2"/>
          <path id="Trazado_102504" data-name="Trazado 102504" d="M152,437.823H651.678" transform="translate(-152 -212.941)" fill="none" stroke="#265d99" stroke-linecap="round" stroke-linejoin="round" stroke-width="2"/>
          <path id="Trazado_102506" data-name="Trazado 102506" d="M0,0H16.845V58.661" transform="translate(205.863 215.617) rotate(180)" fill="none" stroke="#265d99" stroke-linecap="round" stroke-linejoin="round" stroke-width="1"/>
          <path id="Trazado_102507" data-name="Trazado 102507" d="M0,57.519H16.845V-.977" transform="translate(239.744 158.096)" fill="none" stroke="#265d99" stroke-linecap="round" stroke-linejoin="round" stroke-width="1"/>
        </g>
        <path id="Trazado_102515" data-name="Trazado 102515" d="M152,492.637H651.678" transform="translate(-122.861 -173.33)" fill="none" stroke="#afafaf" stroke-linecap="round" stroke-linejoin="round" stroke-width="2" opacity="0.8"/>
        <path id="Trazado_102516" data-name="Trazado 102516" d="M397.92,389.26,398.647,246h68.138l-1.336,143.26" transform="translate(-80.478 -205.713)" fill="none" stroke="#ee6c4d" stroke-linecap="round" stroke-linejoin="round" stroke-width="2" opacity="0.8"/>
        <path id="Trazado_102521" data-name="Trazado 102521" d="M613.736,473.279V483.6l6.837-5.16Z" transform="translate(-84.918 -187.036)" fill="#ee6c4d" stroke="#ee6c4d" stroke-linecap="round" stroke-linejoin="round" stroke-width="2" opacity="0.8"/>
        <path id="Trazado_102522" data-name="Trazado 102522" d="M613.736,501.232v10.32l6.837-5.16Z" transform="translate(-84.918 -187.084)" fill="#afafaf" stroke="#afafaf" stroke-linecap="round" stroke-linejoin="round" stroke-width="2" opacity="0.8"/>
        <path id="Trazado_102512" data-name="Trazado 102512" d="M-43.384,383.024V217.662l50.861-.323V0" transform="translate(147.128 0.001)" fill="none" stroke="#76c2dd" stroke-linecap="round" stroke-width="1" opacity="0.8"/>
        <path id="Trazado_102513" data-name="Trazado 102513" d="M-44.831,382.731V217.4H7.726V0" transform="translate(245.068 0.001)" fill="none" stroke="#265d99" stroke-linecap="round" stroke-width="1" opacity="0.8"/>
        <path id="Trazado_102517" data-name="Trazado 102517" d="M-43.021,383.965V216.059H7.509L7.414,0" transform="translate(343.614 0.001)" fill="none" stroke="#ee6c4d" stroke-linecap="round" stroke-width="1" opacity="0.8"/>
        <circle id="Elipse_4153" data-name="Elipse 4153" cx="15.15" cy="15.15" r="15.15" transform="translate(139.455 25.136)" fill="#f3f9ff" stroke="#afafaf" stroke-linecap="round" stroke-linejoin="round" stroke-width="2" opacity="0.8"/>
        <circle id="Elipse_4154" data-name="Elipse 4154" cx="15.15" cy="15.15" r="15.15" transform="translate(237.666 25.136)" fill="#f3f9ff" stroke="#afafaf" stroke-linecap="round" stroke-linejoin="round" stroke-width="2" opacity="0.8"/>
        <circle id="Elipse_4155" data-name="Elipse 4155" cx="15.15" cy="15.15" r="15.15" transform="translate(335.879 25.136)" fill="#f3f9ff" stroke="#afafaf" stroke-linecap="round" stroke-linejoin="round" stroke-width="2" opacity="0.8"/>
        <path id="Trazado_102514" data-name="Trazado 102514" d="M275.446,208.772h293.86l-.491,447.888H224.381V628.7" transform="translate(-120.84 -208.772)" fill="none" stroke="#afafaf" stroke-linecap="round" stroke-linejoin="round" stroke-width="1" opacity="0.8"/>
        <g id="Grupo_84261" data-name="Grupo 84261" transform="translate(101.889 165.579)" opacity="0.8">
          <rect id="Rectángulo_31873" data-name="Rectángulo 31873" width="33.007" height="32.55" fill="#f3f9ff" stroke="#afafaf" stroke-linecap="round" stroke-linejoin="round" stroke-width="2"/>
          <rect id="Rectángulo_31874" data-name="Rectángulo 31874" width="33.007" height="32.55" transform="translate(33.007)" fill="#f3f9ff" stroke="#afafaf" stroke-linecap="round" stroke-linejoin="round" stroke-width="2"/>
          <rect id="Rectángulo_31875" data-name="Rectángulo 31875" width="33.007" height="32.55" transform="translate(66.015)" fill="#f3f9ff" stroke="#afafaf" stroke-linecap="round" stroke-linejoin="round" stroke-width="2"/>
          <rect id="Rectángulo_31876" data-name="Rectángulo 31876" width="33.007" height="32.55" transform="translate(99.022)" fill="#f3f9ff" stroke="#afafaf" stroke-linecap="round" stroke-linejoin="round" stroke-width="2"/>
        </g>
        <g id="Grupo_84262" data-name="Grupo 84262" transform="translate(233.918 165.579)" opacity="0.8">
          <rect id="Rectángulo_31877" data-name="Rectángulo 31877" width="33.007" height="32.55" transform="translate(0)" fill="#f3f9ff" stroke="#afafaf" stroke-linecap="round" stroke-linejoin="round" stroke-width="2"/>
          <rect id="Rectángulo_31878" data-name="Rectángulo 31878" width="33.007" height="32.55" transform="translate(33.007)" fill="#f3f9ff" stroke="#afafaf" stroke-linecap="round" stroke-linejoin="round" stroke-width="2"/>
          <rect id="Rectángulo_31879" data-name="Rectángulo 31879" width="33.007" height="32.55" transform="translate(66.015)" fill="#f3f9ff" stroke="#afafaf" stroke-linecap="round" stroke-linejoin="round" stroke-width="2"/>
          <rect id="Rectángulo_31880" data-name="Rectángulo 31880" width="33.007" height="32.55" transform="translate(99.022)" fill="#f3f9ff" stroke="#afafaf" stroke-linecap="round" stroke-linejoin="round" stroke-width="2"/>
        </g>
        <g id="Grupo_84263" data-name="Grupo 84263" transform="translate(365.947 165.579)" opacity="0.8">
          <rect id="Rectángulo_31881" data-name="Rectángulo 31881" width="33.007" height="32.55" fill="#f3f9ff" stroke="#afafaf" stroke-linecap="round" stroke-linejoin="round" stroke-width="2"/>
          <rect id="Rectángulo_31882" data-name="Rectángulo 31882" width="33.007" height="32.55" transform="translate(33.007)" fill="#f3f9ff" stroke="#afafaf" stroke-linecap="round" stroke-linejoin="round" stroke-width="2"/>
          <rect id="Rectángulo_31883" data-name="Rectángulo 31883" width="33.007" height="32.55" transform="translate(66.015)" fill="#f3f9ff" stroke="#afafaf" stroke-linecap="round" stroke-linejoin="round" stroke-width="2"/>
          <rect id="Rectángulo_31884" data-name="Rectángulo 31884" width="33.007" height="32.55" transform="translate(99.022)" fill="#f3f9ff" stroke="#afafaf" stroke-linecap="round" stroke-linejoin="round" stroke-width="2"/>
        </g>
        <text id="L1" transform="translate(9 242.472)" fill="#12263f" font-size="17" font-family="Roboto-Bold, Roboto" font-weight="700" opacity="0.8"><tspan x="-9.479" y="0">L1</tspan></text>
        <text id="_1" data-name="1" transform="translate(117.854 188.062)" fill="#12263f" font-size="16" font-family="Roboto-Regular, Roboto" opacity="0.8"><tspan x="-4.492" y="0">1</tspan></text>
        <text id="_2" data-name="2" transform="translate(151.715 188.062)" fill="#12263f" font-size="16" font-family="Roboto-Regular, Roboto" opacity="0.8"><tspan x="-4.492" y="0">2</tspan></text>
        <text id="_3" data-name="3" transform="translate(184.541 188.062)" fill="#12263f" font-size="16" font-family="Roboto-Regular, Roboto" opacity="0.8"><tspan x="-4.492" y="0">3</tspan></text>
        <text id="_4" data-name="4" transform="translate(217.23 188.062)" fill="#12263f" font-size="16" font-family="Roboto-Regular, Roboto" opacity="0.8"><tspan x="-4.492" y="0">4</tspan></text>
        <text id="_5" data-name="5" transform="translate(250.206 188.062)" fill="#12263f" font-size="16" font-family="Roboto-Regular, Roboto" opacity="0.8"><tspan x="-4.492" y="0">5</tspan></text>
        <text id="_6" data-name="6" transform="translate(282.895 188.062)" fill="#12263f" font-size="16" font-family="Roboto-Regular, Roboto" opacity="0.8"><tspan x="-4.492" y="0">6</tspan></text>
        <text id="_7" data-name="7" transform="translate(315.585 188.062)" fill="#12263f" font-size="16" font-family="Roboto-Regular, Roboto" opacity="0.8"><tspan x="-4.492" y="0">7</tspan></text>
        <text id="_8" data-name="8" transform="translate(349.091 188.062)" fill="#12263f" font-size="16" font-family="Roboto-Regular, Roboto" opacity="0.8"><tspan x="-4.492" y="0">8</tspan></text>
        <text id="_9" data-name="9" transform="translate(381.917 188.062)" fill="#12263f" font-size="16" font-family="Roboto-Regular, Roboto" opacity="0.8"><tspan x="-4.492" y="0">9</tspan></text>
        <text id="_10" data-name="10" transform="translate(413.631 187.062)" fill="#12263f" font-size="15" font-family="Roboto-Regular, Roboto" opacity="0.8"><tspan x="-8.423" y="0">10</tspan></text>
        <text id="_11" data-name="11" transform="translate(447.086 187.062)" fill="#12263f" font-size="15" font-family="Roboto-Regular, Roboto" opacity="0.8"><tspan x="-8.423" y="0">11</tspan></text>
        <text id="_12" data-name="12" transform="translate(479.189 187.062)" fill="#12263f" font-size="15" font-family="Roboto-Regular, Roboto" opacity="0.8"><tspan x="-8.423" y="0">12</tspan></text>
        <text id="L2" transform="translate(9 269.436)" fill="#12263f" font-size="17" font-family="Roboto-Bold, Roboto" font-weight="700" opacity="0.8"><tspan x="-9.479" y="0">L2</tspan></text>
        <text id="L3" transform="translate(9 296.4)" fill="#12263f" font-size="17" font-family="Roboto-Bold, Roboto" font-weight="700" opacity="0.8"><tspan x="-9.479" y="0">L3</tspan></text>
        <text id="N" transform="translate(9.517 323.363)" fill="#12263f" font-size="17" font-family="Roboto-Bold, Roboto" font-weight="700" opacity="0.8"><tspan x="-6.001" y="0">N</tspan></text>
        <circle id="Elipse_4159" data-name="Elipse 4159" cx="4.103" cy="4.103" r="4.103" transform="translate(296.433 444.317)" fill="#afafaf" opacity="0.8"/>
        <circle id="Elipse_4161" data-name="Elipse 4161" cx="4.103" cy="4.103" r="4.103" transform="translate(196.663 444.317)" fill="#afafaf" opacity="0.8"/>
        <circle id="Elipse_4160" data-name="Elipse 4160" cx="4" cy="4" r="4" transform="translate(147.73 470.009)" fill="#afafaf" opacity="0.8"/>
        <circle id="Elipse_4156" data-name="Elipse 4156" cx="4.103" cy="4.103" r="4.103" transform="translate(51.414 233.295)" fill="#76c2dd" opacity="0.8"/>
        <circle id="Elipse_4157" data-name="Elipse 4157" cx="4.103" cy="4.103" r="4.103" transform="translate(147.546 261.431)" fill="#265d99" opacity="0.8"/>
        <circle id="Elipse_4158" data-name="Elipse 4158" cx="4.103" cy="4.103" r="4.103" transform="translate(248.367 287.223)" fill="#ee6c4d" opacity="0.8"/>
        <g id="Grupo_84264" data-name="Grupo 84264" transform="translate(131.133 249.708)" opacity="0.8">
          <circle id="Elipse_4150" data-name="Elipse 4150" cx="4.103" cy="4.103" r="4.103" fill="#12263f"/>
          <line id="Línea_194" data-name="Línea 194" x2="28.136" transform="translate(11.893 4.103)" fill="none" stroke="#12263f" stroke-linecap="round" stroke-width="2"/>
        </g>
        <g id="Grupo_84279" data-name="Grupo 84279" transform="translate(84.239 379.511) rotate(90)" opacity="0.8">
          <circle id="Elipse_4150-2" data-name="Elipse 4150" cx="4.103" cy="4.103" r="4.103" transform="translate(0)" fill="#12263f"/>
          <line id="Línea_194-2" data-name="Línea 194" x2="28.136" transform="translate(11.893 6.448)" fill="none" stroke="#12263f" stroke-linecap="round" stroke-width="2"/>
          <line id="Línea_195" data-name="Línea 195" x2="28.136" transform="translate(11.893 2.345)" fill="none" stroke="#12263f" stroke-linecap="round" stroke-width="2"/>
        </g>
        <g id="Grupo_84280" data-name="Grupo 84280" transform="translate(180.371 379.511) rotate(90)" opacity="0.8">
          <circle id="Elipse_4150-3" data-name="Elipse 4150" cx="4.103" cy="4.103" r="4.103" transform="translate(0)" fill="#12263f"/>
          <line id="Línea_194-3" data-name="Línea 194" x2="28.136" transform="translate(11.893 6.448)" fill="none" stroke="#12263f" stroke-linecap="round" stroke-width="2"/>
          <line id="Línea_195-2" data-name="Línea 195" x2="28.136" transform="translate(11.893 2.345)" fill="none" stroke="#12263f" stroke-linecap="round" stroke-width="2"/>
        </g>
        <g id="Grupo_84285" data-name="Grupo 84285" transform="translate(281.208 379.511) rotate(90)" opacity="0.8">
          <circle id="Elipse_4150-4" data-name="Elipse 4150" cx="4.103" cy="4.103" r="4.103" transform="translate(0)" fill="#12263f"/>
          <line id="Línea_194-4" data-name="Línea 194" x2="28.136" transform="translate(11.893 6.448)" fill="none" stroke="#12263f" stroke-linecap="round" stroke-width="2"/>
          <line id="Línea_195-3" data-name="Línea 195" x2="28.136" transform="translate(11.893 2.345)" fill="none" stroke="#12263f" stroke-linecap="round" stroke-width="2"/>
        </g>
        <g id="Grupo_84265" data-name="Grupo 84265" transform="translate(230.782 276.296)" opacity="0.8">
          <circle id="Elipse_4150-5" data-name="Elipse 4150" cx="4.103" cy="4.103" r="4.103" fill="#12263f"/>
          <line id="Línea_194-5" data-name="Línea 194" x2="28.136" transform="translate(11.893 4.103)" fill="none" stroke="#12263f" stroke-linecap="round" stroke-width="2"/>
        </g>
        <g id="Grupo_84266" data-name="Grupo 84266" transform="translate(105.215 383.027) rotate(90)" opacity="0.8">
          <path id="Trazado_102501-2" data-name="Trazado 102501" d="M18.865,0A10.895,10.895,0,1,1,1.839,1.371" transform="translate(0 0)" fill="none" stroke="#12263f" stroke-linecap="round" stroke-linejoin="round" stroke-width="2"/>
          <path id="Trazado_102502-2" data-name="Trazado 102502" d="M0,0" transform="translate(35.824 1.386)" fill="none" stroke="#12263f" stroke-linecap="round" stroke-linejoin="round" stroke-width="2"/>
          <path id="Trazado_102503-2" data-name="Trazado 102503" d="M19.931,1.385A10.9,10.9,0,1,1,2.97,0" transform="translate(15.893 0.002)" fill="none" stroke="#12263f" stroke-linecap="round" stroke-linejoin="round" stroke-width="2"/>
        </g>
        <g id="Grupo_84282" data-name="Grupo 84282" transform="translate(201.347 383.027) rotate(90)" opacity="0.8">
          <path id="Trazado_102501-3" data-name="Trazado 102501" d="M18.865,0A10.895,10.895,0,1,1,1.839,1.371" transform="translate(0 0)" fill="none" stroke="#12263f" stroke-linecap="round" stroke-linejoin="round" stroke-width="2"/>
          <path id="Trazado_102502-3" data-name="Trazado 102502" d="M0,0" transform="translate(35.824 1.386)" fill="none" stroke="#12263f" stroke-linecap="round" stroke-linejoin="round" stroke-width="2"/>
          <path id="Trazado_102503-3" data-name="Trazado 102503" d="M19.931,1.385A10.9,10.9,0,1,1,2.97,0" transform="translate(15.893 0.002)" fill="none" stroke="#12263f" stroke-linecap="round" stroke-linejoin="round" stroke-width="2"/>
        </g>
        <g id="Grupo_84284" data-name="Grupo 84284" transform="translate(302.182 383.027) rotate(90)" opacity="0.8">
          <path id="Trazado_102501-4" data-name="Trazado 102501" d="M18.865,0A10.895,10.895,0,1,1,1.839,1.371" transform="translate(0 0)" fill="none" stroke="#12263f" stroke-linecap="round" stroke-linejoin="round" stroke-width="2"/>
          <path id="Trazado_102502-4" data-name="Trazado 102502" d="M0,0" transform="translate(35.824 1.386)" fill="none" stroke="#12263f" stroke-linecap="round" stroke-linejoin="round" stroke-width="2"/>
          <path id="Trazado_102503-4" data-name="Trazado 102503" d="M19.931,1.385A10.9,10.9,0,1,1,2.97,0" transform="translate(15.893 0.002)" fill="none" stroke="#12263f" stroke-linecap="round" stroke-linejoin="round" stroke-width="2"/>
        </g>
        <path id="Trazado_102518" data-name="Trazado 102518" d="M152,460.2H651.678" transform="translate(-122.861 -168.797)" fill="none" stroke="#ee6c4d" stroke-linecap="round" stroke-linejoin="round" stroke-width="2" opacity="0.8"/>
        <path id="Trazado_102519" data-name="Trazado 102519" d="M0,0H16.845V87.259" transform="translate(334.088 284.503) rotate(180)" fill="none" stroke="#ee6c4d" stroke-linecap="round" stroke-linejoin="round" stroke-width="1" opacity="0.8"/>
        <path id="Trazado_102520" data-name="Trazado 102520" d="M0,86.118H16.845V-.977" transform="translate(367.969 198.383)" fill="none" stroke="#ee6c4d" stroke-linecap="round" stroke-linejoin="round" stroke-width="1" opacity="0.8"/>
        <g id="Grupo_84267" data-name="Grupo 84267" transform="translate(330.262 305.813)" opacity="0.8">
          <circle id="Elipse_4150-6" data-name="Elipse 4150" cx="4.103" cy="4.103" r="4.103" transform="translate(0)" fill="#12263f"/>
          <line id="Línea_194-6" data-name="Línea 194" x2="28.136" transform="translate(11.893 4.103)" fill="none" stroke="#12263f" stroke-linecap="round" stroke-width="2"/>
        </g>
        <g id="Grupo_84268" data-name="Grupo 84268" transform="translate(332.606 283.329)" opacity="0.8">
          <path id="Trazado_102501-5" data-name="Trazado 102501" d="M377.558,121.952a10.895,10.895,0,1,1-17.026,1.371" transform="translate(-358.693 -121.952)" fill="none" stroke="#12263f" stroke-linecap="round" stroke-linejoin="round" stroke-width="2"/>
          <path id="Trazado_102502-5" data-name="Trazado 102502" d="M404.722,123.733" transform="translate(-368.898 -122.347)" fill="none" stroke="#12263f" stroke-linecap="round" stroke-linejoin="round" stroke-width="2"/>
          <path id="Trazado_102503-5" data-name="Trazado 102503" d="M399.044,123.339a10.9,10.9,0,1,1-16.961-1.385" transform="translate(-363.22 -121.952)" fill="none" stroke="#12263f" stroke-linecap="round" stroke-linejoin="round" stroke-width="2"/>
        </g>
        <g id="Grupo_84283" data-name="Grupo 84283" transform="translate(233.126 253.812)" opacity="0.8">
          <path id="Trazado_102501-6" data-name="Trazado 102501" d="M377.558,121.952a10.895,10.895,0,1,1-17.026,1.371" transform="translate(-358.693 -121.952)" fill="none" stroke="#12263f" stroke-linecap="round" stroke-linejoin="round" stroke-width="2"/>
          <path id="Trazado_102502-6" data-name="Trazado 102502" d="M404.722,123.733" transform="translate(-368.898 -122.347)" fill="none" stroke="#12263f" stroke-linecap="round" stroke-linejoin="round" stroke-width="2"/>
          <path id="Trazado_102503-6" data-name="Trazado 102503" d="M399.044,123.339a10.9,10.9,0,1,1-16.961-1.385" transform="translate(-363.22 -121.952)" fill="none" stroke="#12263f" stroke-linecap="round" stroke-linejoin="round" stroke-width="2"/>
        </g>
        <line id="Línea_196" data-name="Línea 196" y1="147.715" transform="translate(55.517 237.398)" fill="none" stroke="#76c2dd" stroke-width="1" opacity="0.8"/>
        <line id="Línea_197" data-name="Línea 197" y1="120.751" transform="translate(152.004 264.362)" fill="none" stroke="#265d99" stroke-width="1" opacity="0.8"/>
        <g id="Grupo_84278" data-name="Grupo 84278" transform="translate(53.926 420.713) rotate(-90)" opacity="0.8">
          <path id="Trazado_102501-7" data-name="Trazado 102501" d="M18.865,0A10.895,10.895,0,1,1,1.839,1.371" transform="translate(0 0)" fill="none" stroke="#12263f" stroke-linecap="round" stroke-linejoin="round" stroke-width="2"/>
          <path id="Trazado_102502-7" data-name="Trazado 102502" d="M0,0" transform="translate(35.824 1.386)" fill="none" stroke="#12263f" stroke-linecap="round" stroke-linejoin="round" stroke-width="2"/>
          <path id="Trazado_102503-7" data-name="Trazado 102503" d="M19.931,1.385A10.9,10.9,0,1,1,2.97,0" transform="translate(15.893 0.002)" fill="none" stroke="#12263f" stroke-linecap="round" stroke-linejoin="round" stroke-width="2"/>
        </g>
        <g id="Grupo_84281" data-name="Grupo 84281" transform="translate(150.059 420.713) rotate(-90)" opacity="0.8">
          <path id="Trazado_102501-8" data-name="Trazado 102501" d="M18.865,0A10.895,10.895,0,1,1,1.839,1.371" transform="translate(0 0)" fill="none" stroke="#12263f" stroke-linecap="round" stroke-linejoin="round" stroke-width="2"/>
          <path id="Trazado_102502-8" data-name="Trazado 102502" d="M0,0" transform="translate(35.824 1.386)" fill="none" stroke="#12263f" stroke-linecap="round" stroke-linejoin="round" stroke-width="2"/>
          <path id="Trazado_102503-8" data-name="Trazado 102503" d="M19.931,1.385A10.9,10.9,0,1,1,2.97,0" transform="translate(15.893 0.002)" fill="none" stroke="#12263f" stroke-linecap="round" stroke-linejoin="round" stroke-width="2"/>
        </g>
        <g id="Grupo_84286" data-name="Grupo 84286" transform="translate(250.896 420.713) rotate(-90)" opacity="0.8">
          <path id="Trazado_102501-9" data-name="Trazado 102501" d="M18.865,0A10.895,10.895,0,1,1,1.839,1.371" transform="translate(0 0)" fill="none" stroke="#12263f" stroke-linecap="round" stroke-linejoin="round" stroke-width="2"/>
          <path id="Trazado_102502-9" data-name="Trazado 102502" d="M0,0" transform="translate(35.824 1.386)" fill="none" stroke="#12263f" stroke-linecap="round" stroke-linejoin="round" stroke-width="2"/>
          <path id="Trazado_102503-9" data-name="Trazado 102503" d="M19.931,1.385A10.9,10.9,0,1,1,2.97,0" transform="translate(15.893 0.002)" fill="none" stroke="#12263f" stroke-linecap="round" stroke-linejoin="round" stroke-width="2"/>
        </g>
        <line id="Línea_198" data-name="Línea 198" y1="93.787" transform="translate(252.795 291.326)" fill="none" stroke="#ee6c4d" stroke-width="1" opacity="0.8"/>
        <line id="Línea_199" data-name="Línea 199" y2="28.136" transform="translate(300.537 420.284)" fill="none" stroke="#afafaf" stroke-width="1" opacity="0.8"/>
        <line id="Línea_201" data-name="Línea 201" y2="28.136" transform="translate(200.766 420.284)" fill="none" stroke="#afafaf" stroke-width="1" opacity="0.8"/>
        <line id="Línea_200" data-name="Línea 200" y2="53.928" transform="translate(151.818 420.284)" fill="none" stroke="#afafaf" stroke-width="1" opacity="0.8"/>
        <path id="Trazado_102525" data-name="Trazado 102525" d="M0,0V53.987H196.426V0" transform="translate(55.517 420.284)" fill="none" stroke="#afafaf" stroke-width="1" opacity="0.8"/>
      </g>
    </g>
  </g>
</svg>
