<svg xmlns="http://www.w3.org/2000/svg" width="505" height="218.51" viewBox="0 0 505 218.51">
  <g id="Grupo_159297" data-name="Grupo 159297" transform="translate(-809.839 -1623)">
    <path id="Trazado_601550" data-name="Trazado 601550" d="M-3706.819-9836.827l18.037-18.036,18.036,18.036" transform="translate(4751.158 11674.803)" fill="none" stroke="#25ffff" stroke-linecap="round" stroke-width="5"/>
    <g id="Grupo_159246" data-name="Grupo 159246" transform="translate(525 151.734)">
      <text id="Amperímetro_digital" data-name="Amperímetro digital" transform="translate(389.839 1629)" fill="#fff" font-size="20" font-family="Roboto-Bold, Roboto" font-weight="700"><tspan x="57.832" y="19">Amperímetro digital</tspan></text>
      <text id="_" data-name=" " transform="translate(284.839 1605)" fill="#fff" font-size="20" font-family="Roboto-Bold, Roboto" font-weight="700"><tspan x="0" y="19"> </tspan></text>
    </g>
    <rect id="Rectángulo_45712" data-name="Rectángulo 45712" width="295" height="105" rx="12" transform="translate(914.839 1662.51)" fill="#407bcb"/>
    <g id="amperimetro-2" transform="translate(945.589 1599.24)">
      <path id="Trazado_102038" data-name="Trazado 102038" d="M425.856,223.24v11.29a4.053,4.053,0,0,1-8.106,0V223.24Z" transform="translate(-254.005 -141.731)" fill="#25ffff"/>
      <path id="Trazado_102039" data-name="Trazado 102039" d="M425.856,194.24v8.4H417.75v-8.4h8.106Z" transform="translate(-254.005 -121.127)" fill="#ccd3df"/>
      <path id="Trazado_102040" data-name="Trazado 102040" d="M375.856,174.24v8.4H367.75v-8.4h8.106Z" transform="translate(-218.48 -106.917)" fill="#ccd3df"/>
      <path id="Trazado_102041" data-name="Trazado 102041" d="M375.856,203.24v11.29a4.053,4.053,0,1,1-8.106,0V203.24Z" transform="translate(-218.48 -127.521)" fill="#25ffff"/>
      <path id="Trazado_102042" data-name="Trazado 102042" d="M147.017,41.34v93.5a11.58,11.58,0,0,1-11.58,11.58H77.83a11.58,11.58,0,0,1-11.58-11.58V41.34A11.58,11.58,0,0,1,77.83,29.76h57.607A11.58,11.58,0,0,1,147.017,41.34Z" transform="translate(-4.263 -4.263)" fill="#ece5f9"/>
      <path id="Trazado_102043" data-name="Trazado 102043" d="M152.156,63.98H101.908a6.948,6.948,0,0,0-6.948,6.948v36.34H159.1V70.928A6.948,6.948,0,0,0,152.156,63.98Z" transform="translate(-24.662 -28.576)" fill="#f9b248"/>
      <circle id="Elipse_4122" data-name="Elipse 4122" cx="14.692" cy="14.692" r="14.692" transform="translate(87.39 88.242)" fill="#ccd3df"/>
      <path id="Trazado_102044" data-name="Trazado 102044" d="M160.56,375.24h26.162v7.816H160.56Z" transform="translate(-71.271 -249.728)" fill="#ad84ff"/>
      <path id="Trazado_102048" data-name="Trazado 102048" d="M196.119,199.862H182.88a6.72,6.72,0,0,1,13.239,0Z" transform="translate(-87.129 -121.17)" fill="#b0b5ca"/>
      <path id="Trazado_102049" data-name="Trazado 102049" d="M106.28,145.621h8.685a28.823,28.823,0,0,1,24.454-27.336,28.841,28.841,0,0,0-33.139,27.336Z" transform="translate(-32.704 -66.929)" fill="#b0b5ca"/>
      <g id="Grupo_83519" data-name="Grupo 83519" transform="translate(60.25 23.76)">
        <path id="Trazado_102050" data-name="Trazado 102050" d="M182.459,369.24H156.3a1.737,1.737,0,0,0-1.737,1.737v7.816a1.737,1.737,0,0,0,1.737,1.737h26.162a1.737,1.737,0,0,0,1.737-1.737v-7.816A1.737,1.737,0,0,0,182.459,369.24Zm-1.737,7.816H158.034v-4.342h22.688Z" transform="translate(-127.258 -269.225)"/>
        <path id="Trazado_102051" data-name="Trazado 102051" d="M86.356,339.769a4.637,4.637,0,0,1-4.632-4.632v-21.73a1.737,1.737,0,1,0-3.474,0v21.73a8.115,8.115,0,0,0,8.106,8.106,1.737,1.737,0,1,0,0-3.474Z" transform="translate(-73.039 -228.321)"/>
        <path id="Trazado_102052" data-name="Trazado 102052" d="M79.987,292.515a1.737,1.737,0,0,0,1.737-1.737v-2.041a1.737,1.737,0,0,0-3.474,0v2.041A1.737,1.737,0,0,0,79.987,292.515Z" transform="translate(-73.039 -210.793)"/>
        <path id="Trazado_102053" data-name="Trazado 102053" d="M147.893,57.98H107.982a1.737,1.737,0,0,0,0,3.474h39.911a5.217,5.217,0,0,1,5.211,5.211v33.826a30.557,30.557,0,0,0-60.67,0V66.665a5.217,5.217,0,0,1,5.211-5.211H101.9a1.737,1.737,0,1,0,0-3.474H97.645a8.7,8.7,0,0,0-8.685,8.685v36.34a1.737,1.737,0,0,0,1.737,1.737h64.144a1.737,1.737,0,0,0,1.737-1.737V66.665a8.7,8.7,0,0,0-8.685-8.685Zm-29.185,43.288a4.993,4.993,0,0,1,8.121,0Zm12.01,0a8.42,8.42,0,0,0-3.763-4.458l3.792-9.2a1.737,1.737,0,1,0-3.212-1.324l-3.9,9.464a8.568,8.568,0,0,0-.862-.045,8.435,8.435,0,0,0-7.951,5.561H95.848a26.979,26.979,0,0,1,1.238-5.726,1.727,1.727,0,0,0,.558.363l3.074,1.239a1.737,1.737,0,1,0,1.3-3.222l-3.074-1.239a1.732,1.732,0,0,0-.647-.125,26.975,26.975,0,0,1,4.223-6.369,1.724,1.724,0,0,0,.362.539l2.342,2.345a1.737,1.737,0,1,0,2.458-2.455l-2.342-2.345a1.732,1.732,0,0,0-.543-.365,27.061,27.061,0,0,1,5.913-4,1.729,1.729,0,0,0,.137.645l1.3,3.051a1.737,1.737,0,1,0,3.2-1.359l-1.3-3.051a1.726,1.726,0,0,0-.372-.55,27.015,27.015,0,0,1,7.486-1.515,1.731,1.731,0,0,0-.123.639v3.316a1.737,1.737,0,1,0,3.474,0V77.773a1.732,1.732,0,0,0-.123-.639,27.04,27.04,0,0,1,7.006,1.351,1.727,1.727,0,0,0-.361.556l-1.239,3.074a1.737,1.737,0,0,0,3.222,1.3l1.239-3.074a1.733,1.733,0,0,0,.125-.65,27.029,27.029,0,0,1,6.369,4.221,1.73,1.73,0,0,0-.541.364l-2.345,2.345a1.737,1.737,0,0,0,2.457,2.457l2.345-2.345a1.724,1.724,0,0,0,.363-.539,27.005,27.005,0,0,1,4,5.909,1.73,1.73,0,0,0-.647.137l-3.051,1.3a1.737,1.737,0,1,0,1.359,3.2l3.051-1.3a1.737,1.737,0,0,0,.546-.369,27,27,0,0,1,1.408,6.2Z" transform="translate(-80.649 -48.073)"/>
        <path id="Trazado_102054" data-name="Trazado 102054" d="M171.851,71.376h-2.316V59.218a1.737,1.737,0,0,0-3.474,0V71.376h-2.316a1.737,1.737,0,0,0-1.737,1.737V92.8a5.8,5.8,0,0,0,4.053,5.523v50.06a6.376,6.376,0,0,1-6.369,6.369h-22a6.4,6.4,0,0,1-4.9-2.316h12.432a9.854,9.854,0,0,0,9.843-9.843V92.532a5.8,5.8,0,0,0,4.053-5.523V67.323a1.737,1.737,0,0,0-1.737-1.737H155.06V53.428a1.737,1.737,0,0,0-3.474,0V65.586H149.27a1.737,1.737,0,0,0-1.737,1.737V87.009a5.8,5.8,0,0,0,4.053,5.523v50.06a6.376,6.376,0,0,1-6.369,6.369H131.35c-.017-.191-.029-.384-.029-.579v-4.494a13.33,13.33,0,0,0,13.169-13.313v-93.5A13.332,13.332,0,0,0,131.174,23.76H73.567A13.332,13.332,0,0,0,60.25,37.077v93.5a13.332,13.332,0,0,0,13.317,13.317h39.894a9.855,9.855,0,0,0,9.754,8.543h5.508a9.9,9.9,0,0,0,8.967,5.79h22a9.854,9.854,0,0,0,9.843-9.843V98.322a5.8,5.8,0,0,0,4.053-5.523V73.113a1.737,1.737,0,0,0-1.737-1.737ZM151.007,69.06h4.632v4.921h-4.632Zm0,17.949V77.456h4.632v9.553a2.316,2.316,0,1,1-4.632,0Zm-27.792,61.952a6.379,6.379,0,0,1-6.235-5.069h10.867v4.49c0,.194.01.387.021.579Zm-49.649-8.543a9.854,9.854,0,0,1-9.843-9.843v-93.5a9.854,9.854,0,0,1,9.843-9.843h57.607a9.854,9.854,0,0,1,9.843,9.843v93.5a9.854,9.854,0,0,1-9.843,9.843ZM170.114,92.8a2.316,2.316,0,1,1-4.632,0V83.246h4.632Zm0-13.027h-4.632V74.85h4.632Z" transform="translate(-60.25 -23.76)"/>
        <path id="Trazado_102058" data-name="Trazado 102058" d="M5.6,0H56.027a5.6,5.6,0,0,1,5.6,5.6V41.46H0V5.6A5.6,5.6,0,0,1,5.6,0Z" transform="translate(11.205 12.326)" fill="#265d99"/>
        <g id="Rectángulo_45813" data-name="Rectángulo 45813" transform="translate(51 19.999)" fill="none" stroke="#25ffff" stroke-width="2">
          <rect width="15" height="27" stroke="none"/>
          <rect x="1" y="1" width="13" height="25" fill="none"/>
        </g>
        <g id="Rectángulo_45814" data-name="Rectángulo 45814" transform="translate(32 19.999)" fill="none" stroke="#25ffff" stroke-width="2">
          <rect width="15" height="27" stroke="none"/>
          <rect x="1" y="1" width="13" height="25" fill="none"/>
        </g>
        <path id="Trazado_601667" data-name="Trazado 601667" d="M52.206,33.288H65.565" transform="translate(0 0.211)" fill="none" stroke="#25ffff" stroke-width="2"/>
      </g>
      <path id="Trazado_102055" data-name="Trazado 102055" d="M161.537,261.191a14.7,14.7,0,0,1,10.927-14.2,14.692,14.692,0,1,0,0,28.406A14.7,14.7,0,0,1,161.537,261.191Z" transform="translate(-66.62 -158.257)" fill="#e5edf9"/>
      <path id="Trazado_102056" data-name="Trazado 102056" d="M184.355,250.282a3.882,3.882,0,0,1,0,5.5l-.11.113L164.4,275.744l-.11.11a3.893,3.893,0,1,1-5.506-5.5l.119-.116L178.741,250.4l.11-.113A3.891,3.891,0,0,1,184.355,250.282Z" transform="translate(-69.199 -160.135)" fill="#b0b5ca"/>
      <path id="Trazado_102057" data-name="Trazado 102057" d="M181.4,247.2a5.628,5.628,0,0,0-8.708-4.709,16.3,16.3,0,0,0-21.7,21.7,5.63,5.63,0,0,0,7.787,7.792,16.321,16.321,0,0,0,21.6-7.568,1.737,1.737,0,1,0-3.119-1.53,12.845,12.845,0,0,1-15.691,6.485l16.3-16.305a12.8,12.8,0,0,1,.62,5.548,1.737,1.737,0,0,0,1.542,1.911,1.77,1.77,0,0,0,.187.01,1.737,1.737,0,0,0,1.725-1.552,16.215,16.215,0,0,0-1.462-8.7,5.583,5.583,0,0,0,.92-3.078Zm-4.125,1.54-19.94,19.942-.108.109a2.156,2.156,0,0,1-3.682-1.522,2.129,2.129,0,0,1,.616-1.508l2.886-2.883a1.737,1.737,0,1,0-2.457-2.456l-.987.987a12.83,12.83,0,0,1,16.3-16.305l-11.84,11.844a1.737,1.737,0,1,0,2.456,2.456l13.629-13.63.094-.1a2.154,2.154,0,1,1,3.031,3.063Z" transform="translate(-63.364 -154.299)"/>
    </g>
  </g>
</svg>
