<svg xmlns="http://www.w3.org/2000/svg" width="675" height="285" viewBox="0 0 675 285">
  <g id="Grupo_159231" data-name="Grupo 159231" transform="translate(-704.839 -1070)">
    <ellipse id="Elipse_4800" data-name="Elipse 4800" cx="282.5" cy="103" rx="282.5" ry="103" transform="translate(749.839 1114)" fill="#fff"/>
    <g id="Grupo_159226" data-name="Grupo 159226">
      <path id="Trazado_606009" data-name="Trazado 606009" d="M0,0H675V285H0Z" transform="translate(704.839 1070)" fill="none"/>
      <g id="Grupo_159225" data-name="Grupo 159225" transform="translate(-142.715 32.501)">
        <g id="Grupo_83514" data-name="Grupo 83514" transform="translate(955.152 858.139)">
          <g id="Grupo_83446" data-name="Grupo 83446" transform="translate(24 195.36)">
            <g id="Grupo_83391" data-name="Grupo 83391">
              <path id="Trazado_101940" data-name="Trazado 101940" d="M336.152,256.651c0,2.728-1.987,5.589-5.872,7.828l-5.159,2.98L143.716,372.2c-7.1,4.092-17.835,4.537-23.974.993L35.031,324.285l-6.88-3.973c-2.788-1.6-4.151-3.752-4.151-6,0-2.728,1.987-5.6,5.872-7.843L216.449,198.756c7.087-4.107,17.822-4.55,23.974-.993L332,250.632C334.787,252.247,336.152,254.4,336.152,256.651Z" transform="translate(-24 -195.36)" fill="#54c2c3"/>
            </g>
            <g id="Grupo_83392" data-name="Grupo 83392" transform="translate(11.097 6.408)">
              <path id="Trazado_101941" data-name="Trazado 101941" d="M115.88,363.279l-82.7-47.747c-6.145-3.547-5.375-9.745,1.723-13.843L208.169,201.654c7.1-4.1,17.831-4.542,23.976-.995l82.7,47.749c6.145,3.547,5.375,9.745-1.723,13.843L139.856,362.286C132.76,366.382,122.025,366.828,115.88,363.279Z" transform="translate(-29.031 -198.266)" fill="#525252"/>
            </g>
            <g id="Grupo_83393" data-name="Grupo 83393" transform="translate(139.199 21.753)">
              <path id="Trazado_101942" data-name="Trazado 101942" d="M174.767,283.328,87.109,232.718l47.624-27.5,87.658,50.609Z" transform="translate(-87.109 -205.223)" fill="#6b6b6b"/>
            </g>
            <g id="Grupo_83394" data-name="Grupo 83394" transform="translate(143.747 24.378)">
              <path id="Trazado_101943" data-name="Trazado 101943" d="M172.006,279.267,89.171,231.442l43.352-25.029,82.835,47.825Z" transform="translate(-89.171 -206.413)" fill="#a6a6a6"/>
            </g>
            <g id="Grupo_83398" data-name="Grupo 83398" transform="translate(191.917 16.017)">
              <g id="Grupo_83395" data-name="Grupo 83395">
                <path id="Trazado_101944" data-name="Trazado 101944" d="M139.7,221.983,111.01,205.417l4.841-2.795,28.693,16.566Z" transform="translate(-111.01 -202.622)" fill="#54c2c3"/>
              </g>
              <g id="Grupo_83396" data-name="Grupo 83396" transform="translate(36.164 20.879)">
                <path id="Trazado_101945" data-name="Trazado 101945" d="M138.395,221.228l-10.989-6.345,4.84-2.795,10.989,6.345Z" transform="translate(-127.406 -212.088)" fill="#a6a6a6"/>
              </g>
              <g id="Grupo_83397" data-name="Grupo 83397" transform="translate(69.955 40.389)">
                <path id="Trazado_101946" data-name="Trazado 101946" d="M160.428,233.949l-17.7-10.221,4.84-2.795,17.7,10.221Z" transform="translate(-142.725 -220.933)" fill="#a6a6a6"/>
              </g>
            </g>
            <g id="Grupo_83399" data-name="Grupo 83399" transform="translate(122.37 56.725)">
              <path id="Trazado_101947" data-name="Trazado 101947" d="M93.026,233.8l-12.175-7.03c-2.031-1.173-1.776-3.22.567-4.572h0c2.345-1.354,5.891-1.5,7.921-.329l12.178,7.03c2.029,1.171,1.773,3.22-.569,4.572h0C98.6,234.826,95.055,234.972,93.026,233.8Z" transform="translate(-79.479 -221.078)" fill="#454545"/>
            </g>
            <g id="Grupo_83400" data-name="Grupo 83400" transform="translate(151.396 73.483)">
              <path id="Trazado_101948" data-name="Trazado 101948" d="M106.187,241.4l-12.178-7.032c-2.029-1.171-1.776-3.218.569-4.572h0c2.345-1.352,5.889-1.5,7.921-.329l12.175,7.032c2.029,1.171,1.776,3.218-.569,4.572h0C111.76,242.422,108.216,242.57,106.187,241.4Z" transform="translate(-92.639 -228.676)" fill="#454545"/>
            </g>
            <g id="Grupo_83401" data-name="Grupo 83401" transform="translate(188.196 94.73)">
              <path id="Trazado_101949" data-name="Trazado 101949" d="M128.85,254.483l-19.528-11.274,8.489-4.9,19.527,11.274Z" transform="translate(-109.323 -238.308)" fill="#f8ba43"/>
            </g>
            <g id="Grupo_83415" data-name="Grupo 83415" transform="translate(77.118 81.987)">
              <g id="Grupo_83405" data-name="Grupo 83405" transform="translate(7 4.041)">
                <g id="Grupo_83402" data-name="Grupo 83402">
                  <ellipse id="Elipse_4100" data-name="Elipse 4100" cx="39.517" cy="22.815" rx="39.517" ry="22.815" fill="#454545"/>
                </g>
                <g id="Grupo_83403" data-name="Grupo 83403" transform="translate(3.873 2.236)">
                  <path id="Trazado_101950" data-name="Trazado 101950" d="M124.742,270.509c13.92-8.038,13.92-21.069,0-29.1s-36.491-8.038-50.409,0-13.92,21.067,0,29.1S110.822,278.545,124.742,270.509Z" transform="translate(-63.893 -235.377)" fill="#525252"/>
                </g>
                <g id="Grupo_83404" data-name="Grupo 83404" transform="translate(17.702 10.22)">
                  <path id="Trazado_101951" data-name="Trazado 101951" d="M71.765,263.262h0c-2.373-1.37-2.076-3.763.664-5.342l30.507-17.615c2.739-1.581,6.884-1.753,9.255-.384h0c2.371,1.37,2.076,3.763-.664,5.342L81.018,262.878C78.28,264.46,74.136,264.632,71.765,263.262Z" transform="translate(-70.163 -238.997)" fill="#454545"/>
                </g>
              </g>
              <g id="Grupo_83414" data-name="Grupo 83414">
                <g id="Grupo_83406" data-name="Grupo 83406" transform="translate(75.8 7.508)">
                  <path id="Trazado_101952" data-name="Trazado 101952" d="M96.938,238.019a3.308,3.308,0,0,1-2.991,0,.912.912,0,0,1,0-1.727,3.308,3.308,0,0,1,2.991,0A.911.911,0,0,1,96.938,238.019Z" transform="translate(-93.329 -235.935)" fill="#a6a6a6"/>
                </g>
                <g id="Grupo_83407" data-name="Grupo 83407" transform="translate(88.806 25.637)">
                  <path id="Trazado_101953" data-name="Trazado 101953" d="M101.34,246.6c-1.169,0-2.115-.547-2.115-1.222s.946-1.22,2.115-1.22,2.113.545,2.113,1.22S102.507,246.6,101.34,246.6Z" transform="translate(-99.225 -244.154)" fill="#a6a6a6"/>
                </g>
                <g id="Grupo_83408" data-name="Grupo 83408" transform="translate(75.8 43.763)">
                  <path id="Trazado_101954" data-name="Trazado 101954" d="M93.949,254.456a.911.911,0,0,1,0-1.727,3.308,3.308,0,0,1,2.991,0,.912.912,0,0,1,0,1.727A3.308,3.308,0,0,1,93.949,254.456Z" transform="translate(-93.329 -252.372)" fill="#a6a6a6"/>
                </g>
                <g id="Grupo_83409" data-name="Grupo 83409" transform="translate(44.403 51.271)">
                  <path id="Trazado_101955" data-name="Trazado 101955" d="M79.094,257c0-.673.948-1.22,2.115-1.22s2.115.547,2.115,1.22-.946,1.222-2.115,1.222S79.094,257.671,79.094,257Z" transform="translate(-79.094 -255.776)" fill="#a6a6a6"/>
                </g>
                <g id="Grupo_83410" data-name="Grupo 83410" transform="translate(13.006 43.763)">
                  <path id="Trazado_101956" data-name="Trazado 101956" d="M65.48,252.729a3.3,3.3,0,0,1,2.989,0,.911.911,0,0,1,0,1.727,3.3,3.3,0,0,1-2.989,0A.911.911,0,0,1,65.48,252.729Z" transform="translate(-64.86 -252.372)" fill="#a6a6a6"/>
                </g>
                <g id="Grupo_83411" data-name="Grupo 83411" transform="translate(0 25.635)">
                  <path id="Trazado_101957" data-name="Trazado 101957" d="M61.078,244.153c1.169,0,2.115.547,2.115,1.222s-.946,1.22-2.115,1.22-2.115-.545-2.115-1.22S59.911,244.153,61.078,244.153Z" transform="translate(-58.963 -244.153)" fill="#a6a6a6"/>
                </g>
                <g id="Grupo_83412" data-name="Grupo 83412" transform="translate(13.006 7.508)">
                  <path id="Trazado_101958" data-name="Trazado 101958" d="M68.469,236.292a.912.912,0,0,1,0,1.727,3.308,3.308,0,0,1-2.991,0,.912.912,0,0,1,0-1.727A3.308,3.308,0,0,1,68.469,236.292Z" transform="translate(-64.86 -235.935)" fill="#a6a6a6"/>
                </g>
                <g id="Grupo_83413" data-name="Grupo 83413" transform="translate(44.403)">
                  <path id="Trazado_101959" data-name="Trazado 101959" d="M83.322,233.753c0,.673-.946,1.22-2.113,1.22s-2.115-.547-2.115-1.222.946-1.22,2.113-1.22S83.322,233.078,83.322,233.753Z" transform="translate(-79.094 -232.531)" fill="#a6a6a6"/>
                </g>
              </g>
            </g>
            <g id="Grupo_83416" data-name="Grupo 83416" transform="translate(72.449 125.679)">
              <path id="Trazado_101960" data-name="Trazado 101960" d="M75.8,264.811l-18.528-10.7c-.633-.366-.554-1,.176-1.425h0a2.737,2.737,0,0,1,2.466-.1l18.528,10.7c.633.364.554,1-.176,1.423h0A2.745,2.745,0,0,1,75.8,264.811Z" transform="translate(-56.846 -252.34)" fill="#a6a6a6"/>
            </g>
            <g id="Grupo_83441" data-name="Grupo 83441" transform="translate(26.995 114.805)">
              <g id="Grupo_83422" data-name="Grupo 83422">
                <g id="Grupo_83420" data-name="Grupo 83420" transform="translate(0 2.858)">
                  <g id="Grupo_83417" data-name="Grupo 83417">
                    <path id="Trazado_101961" data-name="Trazado 101961" d="M51.864,257.728a14.316,14.316,0,0,1-12.945,0c-3.573-2.065-3.573-5.411,0-7.475a14.316,14.316,0,0,1,12.945,0C55.44,252.317,55.44,255.663,51.864,257.728Z" transform="translate(-36.239 -248.706)" fill="#454545"/>
                  </g>
                  <g id="Grupo_83418" data-name="Grupo 83418" transform="translate(3.34 1.928)">
                    <path id="Trazado_101962" data-name="Trazado 101962" d="M47.676,255.309a9.074,9.074,0,0,1-8.221,0c-2.27-1.31-2.27-3.434,0-4.744a9.074,9.074,0,0,1,8.221,0C49.946,251.874,49.946,254,47.676,255.309Z" transform="translate(-37.753 -249.58)" fill="#525252"/>
                  </g>
                  <g id="Grupo_83419" data-name="Grupo 83419" transform="translate(4.777 2.758)">
                    <path id="Trazado_101963" data-name="Trazado 101963" d="M45.874,254.268a6.827,6.827,0,0,1-6.187,0c-1.709-.986-1.709-2.585,0-3.571a6.826,6.826,0,0,1,6.187,0C47.583,251.683,47.583,253.282,45.874,254.268Z" transform="translate(-38.405 -249.956)" fill="#454545"/>
                  </g>
                </g>
                <g id="Grupo_83421" data-name="Grupo 83421" transform="translate(13.832)">
                  <path id="Trazado_101964" data-name="Trazado 101964" d="M48.873,252.607l-5.938-3.43c-.631-.364-.551-1,.176-1.418h0a2.731,2.731,0,0,1,2.459-.1l5.938,3.43c.631.364.551,1-.176,1.418h0A2.731,2.731,0,0,1,48.873,252.607Z" transform="translate(-42.51 -247.41)" fill="#a6a6a6"/>
                </g>
              </g>
              <g id="Grupo_83428" data-name="Grupo 83428" transform="translate(21.019 12.136)">
                <g id="Grupo_83426" data-name="Grupo 83426" transform="translate(0 2.859)">
                  <g id="Grupo_83423" data-name="Grupo 83423">
                    <path id="Trazado_101965" data-name="Trazado 101965" d="M61.393,263.23a14.312,14.312,0,0,1-12.943,0c-3.575-2.065-3.575-5.411,0-7.475a14.312,14.312,0,0,1,12.943,0C64.968,257.819,64.968,261.165,61.393,263.23Z" transform="translate(-45.768 -254.208)" fill="#454545"/>
                  </g>
                  <g id="Grupo_83424" data-name="Grupo 83424" transform="translate(3.34 1.928)">
                    <path id="Trazado_101966" data-name="Trazado 101966" d="M57.207,260.81a9.087,9.087,0,0,1-8.221,0c-2.272-1.31-2.272-3.434,0-4.744a9.074,9.074,0,0,1,8.221,0C59.477,257.376,59.477,259.5,57.207,260.81Z" transform="translate(-47.283 -255.082)" fill="#525252"/>
                  </g>
                  <g id="Grupo_83425" data-name="Grupo 83425" transform="translate(4.778 2.757)">
                    <path id="Trazado_101967" data-name="Trazado 101967" d="M55.4,259.77a6.831,6.831,0,0,1-6.189,0c-1.707-.986-1.707-2.585,0-3.573a6.845,6.845,0,0,1,6.189,0C57.114,257.185,57.114,258.785,55.4,259.77Z" transform="translate(-47.935 -255.458)" fill="#454545"/>
                  </g>
                </g>
                <g id="Grupo_83427" data-name="Grupo 83427" transform="translate(13.831)">
                  <path id="Trazado_101968" data-name="Trazado 101968" d="M58.4,258.107l-5.938-3.428c-.631-.364-.551-1,.176-1.421h0a2.737,2.737,0,0,1,2.459-.1l5.938,3.428c.631.366.551,1-.176,1.42h0A2.723,2.723,0,0,1,58.4,258.107Z" transform="translate(-52.039 -252.912)" fill="#a6a6a6"/>
                </g>
              </g>
              <g id="Grupo_83434" data-name="Grupo 83434" transform="translate(42.039 24.271)">
                <g id="Grupo_83432" data-name="Grupo 83432" transform="translate(0 2.859)">
                  <g id="Grupo_83429" data-name="Grupo 83429">
                    <path id="Trazado_101969" data-name="Trazado 101969" d="M70.923,268.729a14.3,14.3,0,0,1-12.943,0c-3.575-2.062-3.575-5.408,0-7.473a14.316,14.316,0,0,1,12.945,0C74.5,263.321,74.5,266.667,70.923,268.729Z" transform="translate(-55.298 -259.71)" fill="#454545"/>
                  </g>
                  <g id="Grupo_83430" data-name="Grupo 83430" transform="translate(3.34 1.927)">
                    <path id="Trazado_101970" data-name="Trazado 101970" d="M66.735,266.313a9.088,9.088,0,0,1-8.221,0c-2.27-1.31-2.27-3.434,0-4.747a9.088,9.088,0,0,1,8.221,0C69,262.879,69.007,265,66.735,266.313Z" transform="translate(-56.812 -260.583)" fill="#525252"/>
                  </g>
                  <g id="Grupo_83431" data-name="Grupo 83431" transform="translate(4.777 2.757)">
                    <path id="Trazado_101971" data-name="Trazado 101971" d="M64.933,265.273a6.841,6.841,0,0,1-6.187,0c-1.709-.986-1.709-2.585,0-3.573a6.84,6.84,0,0,1,6.187,0C66.642,262.687,66.642,264.286,64.933,265.273Z" transform="translate(-57.464 -260.96)" fill="#454545"/>
                  </g>
                </g>
                <g id="Grupo_83433" data-name="Grupo 83433" transform="translate(13.832)">
                  <path id="Trazado_101972" data-name="Trazado 101972" d="M67.933,263.609l-5.938-3.428c-.631-.364-.551-1,.176-1.42h0a2.737,2.737,0,0,1,2.459-.1l5.938,3.428c.631.364.551,1-.176,1.42h0A2.73,2.73,0,0,1,67.933,263.609Z" transform="translate(-61.569 -258.414)" fill="#a6a6a6"/>
                </g>
              </g>
              <g id="Grupo_83440" data-name="Grupo 83440" transform="translate(63.057 36.407)">
                <g id="Grupo_83438" data-name="Grupo 83438" transform="translate(0 2.857)">
                  <g id="Grupo_83435" data-name="Grupo 83435">
                    <path id="Trazado_101973" data-name="Trazado 101973" d="M80.454,274.232a14.3,14.3,0,0,1-12.945,0c-3.575-2.062-3.575-5.408,0-7.473a14.3,14.3,0,0,1,12.945,0C84.027,268.824,84.027,272.17,80.454,274.232Z" transform="translate(-64.827 -265.211)" fill="#454545"/>
                  </g>
                  <g id="Grupo_83436" data-name="Grupo 83436" transform="translate(3.34 1.929)">
                    <path id="Trazado_101974" data-name="Trazado 101974" d="M76.266,271.815a9.088,9.088,0,0,1-8.221,0c-2.272-1.31-2.272-3.437,0-4.747a9.088,9.088,0,0,1,8.221,0C78.536,268.381,78.536,270.5,76.266,271.815Z" transform="translate(-66.342 -266.086)" fill="#525252"/>
                  </g>
                  <g id="Grupo_83437" data-name="Grupo 83437" transform="translate(4.778 2.759)">
                    <path id="Trazado_101975" data-name="Trazado 101975" d="M74.463,270.774a6.845,6.845,0,0,1-6.189,0c-1.707-.986-1.707-2.585,0-3.573a6.845,6.845,0,0,1,6.189,0C76.173,268.189,76.173,269.789,74.463,270.774Z" transform="translate(-66.994 -266.462)" fill="#454545"/>
                  </g>
                </g>
                <g id="Grupo_83439" data-name="Grupo 83439" transform="translate(13.831)">
                  <path id="Trazado_101976" data-name="Trazado 101976" d="M77.461,269.111l-5.938-3.428c-.631-.364-.551-1,.176-1.421h0a2.737,2.737,0,0,1,2.459-.1l5.938,3.428c.631.364.551,1-.176,1.421h0A2.73,2.73,0,0,1,77.461,269.111Z" transform="translate(-71.098 -263.916)" fill="#a6a6a6"/>
                </g>
              </g>
            </g>
            <g id="Grupo_83445" data-name="Grupo 83445" transform="translate(170.917 40.065)">
              <g id="Grupo_83442" data-name="Grupo 83442">
                <path id="Trazado_101977" data-name="Trazado 101977" d="M122.553,214.643l-19.126,11.042c-2.585,1.493-2.585,3.911,0,5.4l3.822,2.208a10.345,10.345,0,0,0,9.357,0l19.128-11.044c2.583-1.491,2.583-3.911,0-5.4l-3.825-2.208A10.345,10.345,0,0,0,122.553,214.643ZM107.74,230.8h0c-2.583-1.491-2.583-3.911,0-5.4l14.335-8.276a10.336,10.336,0,0,1,9.359,0h0c2.583,1.491,2.583,3.911,0,5.4L117.1,230.8A10.336,10.336,0,0,1,107.74,230.8Z" transform="translate(-101.489 -213.525)" fill="#6b6b6b"/>
              </g>
              <g id="Grupo_83443" data-name="Grupo 83443" transform="translate(17.831 10.295)">
                <path id="Trazado_101978" data-name="Trazado 101978" d="M130.637,219.312l-19.126,11.042c-2.585,1.491-2.585,3.911,0,5.4l3.822,2.208a10.336,10.336,0,0,0,9.359,0l19.126-11.042c2.583-1.493,2.583-3.911,0-5.4L140,219.312A10.336,10.336,0,0,0,130.637,219.312Zm-14.811,16.161h0c-2.585-1.491-2.585-3.911,0-5.4l14.335-8.278a10.345,10.345,0,0,1,9.357,0h0c2.585,1.493,2.585,3.911,0,5.4l-14.335,8.276A10.345,10.345,0,0,1,115.826,235.473Z" transform="translate(-109.573 -218.192)" fill="#6b6b6b"/>
              </g>
              <g id="Grupo_83444" data-name="Grupo 83444" transform="translate(35.663 20.59)">
                <path id="Trazado_101979" data-name="Trazado 101979" d="M138.723,223.978l-19.128,11.044c-2.583,1.491-2.583,3.911,0,5.4l3.822,2.208a10.35,10.35,0,0,0,9.359,0L151.9,231.588c2.585-1.491,2.585-3.911,0-5.4l-3.822-2.208A10.345,10.345,0,0,0,138.723,223.978Zm-14.813,16.161h0c-2.585-1.491-2.585-3.911,0-5.4l14.335-8.276a10.336,10.336,0,0,1,9.359,0h0c2.583,1.491,2.583,3.911,0,5.4l-14.335,8.276A10.336,10.336,0,0,1,123.909,240.139Z" transform="translate(-117.658 -222.86)" fill="#6b6b6b"/>
              </g>
            </g>
          </g>
          <g id="Grupo_83462" data-name="Grupo 83462" transform="translate(82.515 306.944)">
            <g id="Grupo_83449" data-name="Grupo 83449" transform="translate(14.793 24.029)">
              <g id="Grupo_83447" data-name="Grupo 83447" transform="translate(0.001 2.723)">
                <path id="Trazado_101980" data-name="Trazado 101980" d="M66.663,258.078V266.7a2.341,2.341,0,0,1-1.379,1.928,7.355,7.355,0,0,1-6.668,0,2.345,2.345,0,0,1-1.381-1.928v-8.618Z" transform="translate(-57.236 -258.078)" fill="#363636"/>
              </g>
              <g id="Grupo_83448" data-name="Grupo 83448">
                <path id="Trazado_101981" data-name="Trazado 101981" d="M65.285,261.49a7.369,7.369,0,0,1-6.668,0c-1.842-1.063-1.842-2.786,0-3.849a7.369,7.369,0,0,1,6.668,0C67.127,258.7,67.127,260.427,65.285,261.49Z" transform="translate(-57.236 -256.844)" fill="#454545"/>
              </g>
            </g>
            <g id="Grupo_83452" data-name="Grupo 83452" transform="translate(12.8 9.987)">
              <g id="Grupo_83450" data-name="Grupo 83450" transform="translate(0.002 3.875)">
                <path id="Trazado_101982" data-name="Trazado 101982" d="M69.746,252.234V264.5a3.338,3.338,0,0,1-1.963,2.744,10.485,10.485,0,0,1-9.489,0,3.339,3.339,0,0,1-1.961-2.744V252.234Z" transform="translate(-56.333 -252.234)" fill="#363636"/>
              </g>
              <g id="Grupo_83451" data-name="Grupo 83451">
                <path id="Trazado_101983" data-name="Trazado 101983" d="M67.784,257.089a10.487,10.487,0,0,1-9.487,0c-2.62-1.511-2.62-3.964,0-5.477a10.494,10.494,0,0,1,9.487,0C70.4,253.124,70.4,255.576,67.784,257.089Z" transform="translate(-56.332 -250.477)" fill="#454545"/>
              </g>
            </g>
            <g id="Grupo_83455" data-name="Grupo 83455" transform="translate(14.793 1.842)">
              <g id="Grupo_83453" data-name="Grupo 83453" transform="translate(0.001 2.725)">
                <path id="Trazado_101984" data-name="Trazado 101984" d="M66.663,248.02v8.618a2.344,2.344,0,0,1-1.379,1.928,7.368,7.368,0,0,1-6.668,0,2.347,2.347,0,0,1-1.381-1.928V248.02Z" transform="translate(-57.236 -248.02)" fill="#363636"/>
              </g>
              <g id="Grupo_83454" data-name="Grupo 83454">
                <path id="Trazado_101985" data-name="Trazado 101985" d="M65.285,251.433a7.369,7.369,0,0,1-6.668,0c-1.842-1.063-1.842-2.788,0-3.851a7.368,7.368,0,0,1,6.668,0C67.127,248.645,67.127,250.37,65.285,251.433Z" transform="translate(-57.236 -246.785)" fill="#454545"/>
              </g>
            </g>
            <g id="Grupo_83458" data-name="Grupo 83458" transform="translate(16.194)">
              <g id="Grupo_83456" data-name="Grupo 83456" transform="translate(0.001 1.916)">
                <path id="Trazado_101986" data-name="Trazado 101986" d="M64.5,246.818v2.067a1.65,1.65,0,0,1-.968,1.356,5.177,5.177,0,0,1-4.687,0,1.649,1.649,0,0,1-.971-1.356v-2.067Z" transform="translate(-57.871 -246.818)" fill="#363636"/>
              </g>
              <g id="Grupo_83457" data-name="Grupo 83457">
                <path id="Trazado_101987" data-name="Trazado 101987" d="M63.529,249.215a5.177,5.177,0,0,1-4.687,0c-1.295-.748-1.295-1.959,0-2.706a5.191,5.191,0,0,1,4.687,0C64.821,247.256,64.821,248.467,63.529,249.215Z" transform="translate(-57.871 -245.95)" fill="#454545"/>
              </g>
            </g>
            <g id="Grupo_83461" data-name="Grupo 83461" transform="translate(0 18.529)">
              <g id="Grupo_83459" data-name="Grupo 83459" transform="translate(0.728)">
                <path id="Trazado_101988" data-name="Trazado 101988" d="M67.929,259.986a2.016,2.016,0,0,1-1.037,2.025l-11.662,6.9-.882-1.473a6.931,6.931,0,0,1-2.512-4.2v0l-.977-1.632,11.8-6.981a2.048,2.048,0,0,1,2.25.135A6.673,6.673,0,0,1,67.929,259.986Z" transform="translate(-50.859 -254.35)" fill="#454545"/>
              </g>
              <g id="Grupo_83460" data-name="Grupo 83460" transform="translate(0 6.951)">
                <path id="Trazado_101989" data-name="Trazado 101989" d="M56.562,263.136c0,1.923-1.35,2.7-3.015,1.74a6.667,6.667,0,0,1-3.017-5.223c0-1.923,1.352-2.7,3.017-1.74A6.665,6.665,0,0,1,56.562,263.136Z" transform="translate(-50.529 -257.501)" fill="#363636"/>
              </g>
            </g>
          </g>
          <g id="Grupo_83478" data-name="Grupo 83478" transform="translate(158.073 300.606)">
            <g id="Grupo_83465" data-name="Grupo 83465" transform="translate(147.272)">
              <g id="Grupo_83463" data-name="Grupo 83463" transform="translate(0.412)">
                <path id="Trazado_101990" data-name="Trazado 101990" d="M187.065,246.281a1.15,1.15,0,0,1-.589,1.154L154.229,266.15l-.5-.84a3.949,3.949,0,0,1-1.429-2.387v0l-.556-.929,32.329-18.759a1.162,1.162,0,0,1,1.279.077A3.789,3.789,0,0,1,187.065,246.281Z" transform="translate(-151.741 -243.076)" fill="#a6a6a6"/>
              </g>
              <g id="Grupo_83464" data-name="Grupo 83464" transform="translate(0 18.742)">
                <path id="Trazado_101991" data-name="Trazado 101991" d="M154.986,254.78c0,1.094-.77,1.537-1.716.99a3.793,3.793,0,0,1-1.716-2.973c0-1.094.768-1.537,1.716-.99A3.8,3.8,0,0,1,154.986,254.78Z" transform="translate(-151.554 -251.573)" fill="#a6a6a6"/>
              </g>
            </g>
            <g id="Grupo_83468" data-name="Grupo 83468" transform="translate(40.439 6.797)">
              <g id="Grupo_83466" data-name="Grupo 83466" transform="translate(1.451)">
                <path id="Trazado_101992" data-name="Trazado 101992" d="M227.775,257.412c0,2.1-.8,3.509-2.067,4.045l-113.2,65.7-1.76-2.947a13.851,13.851,0,0,1-5.022-8.377v-.007l-1.95-3.26L217.262,246.71c1.107-.792,2.7-.759,4.491.267A13.323,13.323,0,0,1,227.775,257.412Z" transform="translate(-103.777 -246.157)" fill="#454545"/>
              </g>
              <g id="Grupo_83467" data-name="Grupo 83467" transform="translate(0 65.793)">
                <path id="Trazado_101993" data-name="Trazado 101993" d="M115.167,287.24c0,3.842-2.7,5.4-6.024,3.478a13.315,13.315,0,0,1-6.024-10.433c0-3.84,2.7-5.4,6.024-3.476A13.31,13.31,0,0,1,115.167,287.24Z" transform="translate(-103.119 -275.986)" fill="#363636"/>
              </g>
            </g>
            <g id="Grupo_83471" data-name="Grupo 83471" transform="translate(117.934 19.086)">
              <g id="Grupo_83469" data-name="Grupo 83469" transform="translate(1.857)">
                <path id="Trazado_101994" data-name="Trazado 101994" d="M159.963,266.139c0,2.682-1.021,4.493-2.649,5.181l-7.038,4.5-2.254-3.772a17.739,17.739,0,0,1-6.43-10.729v-.009l-2.5-4.173,7.407-4.7c1.418-1.012,3.463-.97,5.75.344A17.056,17.056,0,0,1,159.963,266.139Z" transform="translate(-139.095 -251.729)" fill="#454545"/>
              </g>
              <g id="Grupo_83470" data-name="Grupo 83470" transform="translate(0 4.618)">
                <path id="Trazado_101995" data-name="Trazado 101995" d="M153.677,268.236c0,4.916-3.452,6.91-7.713,4.451a17.045,17.045,0,0,1-7.711-13.358c0-4.919,3.452-6.913,7.711-4.453A17.045,17.045,0,0,1,153.677,268.236Z" transform="translate(-138.253 -253.822)" fill="#363636"/>
              </g>
            </g>
            <g id="Grupo_83474" data-name="Grupo 83474" transform="translate(4.766 27.131)">
              <g id="Grupo_83472" data-name="Grupo 83472" transform="translate(1.451)">
                <path id="Trazado_101996" data-name="Trazado 101996" d="M211.6,266.632c0,2.1-.8,3.509-2.069,4.045l-113.2,65.694-1.762-2.945a13.857,13.857,0,0,1-5.02-8.379v-.007l-1.95-3.26L201.089,255.93c1.105-.792,2.7-.761,4.491.267A13.329,13.329,0,0,1,211.6,266.632Z" transform="translate(-87.604 -255.376)" fill="#454545"/>
              </g>
              <g id="Grupo_83473" data-name="Grupo 83473" transform="translate(0 65.793)">
                <path id="Trazado_101997" data-name="Trazado 101997" d="M98.994,296.459c0,3.842-2.7,5.4-6.024,3.478A13.318,13.318,0,0,1,86.946,289.5c0-3.84,2.7-5.4,6.024-3.478A13.318,13.318,0,0,1,98.994,296.459Z" transform="translate(-86.946 -285.205)" fill="#363636"/>
              </g>
            </g>
            <g id="Grupo_83477" data-name="Grupo 83477" transform="translate(0 95.933)">
              <g id="Grupo_83475" data-name="Grupo 83475" transform="translate(0.99)">
                <path id="Trazado_101998" data-name="Trazado 101998" d="M98.2,294.26a2.751,2.751,0,0,1-1.412,2.762L91.2,300.48,90,298.466a9.454,9.454,0,0,1-3.43-5.724v0l-1.334-2.228,5.786-3.564a2.785,2.785,0,0,1,3.068.185A9.1,9.1,0,0,1,98.2,294.26Z" transform="translate(-85.234 -286.569)" fill="#454545"/>
              </g>
              <g id="Grupo_83476" data-name="Grupo 83476" transform="translate(0 3.523)">
                <path id="Trazado_101999" data-name="Trazado 101999" d="M93.014,295.857c0,2.623-1.842,3.688-4.114,2.376a9.1,9.1,0,0,1-4.116-7.129c0-2.623,1.842-3.688,4.116-2.376A9.1,9.1,0,0,1,93.014,295.857Z" transform="translate(-84.785 -288.166)" fill="#363636"/>
              </g>
            </g>
          </g>
          <g id="Grupo_83494" data-name="Grupo 83494" transform="translate(103.637 319.318)">
            <g id="Grupo_83481" data-name="Grupo 83481" transform="translate(14.791 24.029)">
              <g id="Grupo_83479" data-name="Grupo 83479" transform="translate(0.001 2.723)">
                <path id="Trazado_102000" data-name="Trazado 102000" d="M76.238,263.688v8.618a2.344,2.344,0,0,1-1.379,1.928,7.355,7.355,0,0,1-6.668,0,2.347,2.347,0,0,1-1.381-1.928v-8.618Z" transform="translate(-66.811 -263.688)" fill="#b33a4f"/>
              </g>
              <g id="Grupo_83480" data-name="Grupo 83480">
                <path id="Trazado_102001" data-name="Trazado 102001" d="M74.86,267.1a7.369,7.369,0,0,1-6.668,0c-1.842-1.063-1.842-2.786,0-3.849a7.369,7.369,0,0,1,6.668,0C76.7,264.314,76.7,266.037,74.86,267.1Z" transform="translate(-66.811 -262.454)" fill="#cc435a"/>
              </g>
            </g>
            <g id="Grupo_83484" data-name="Grupo 83484" transform="translate(12.797 9.985)">
              <g id="Grupo_83482" data-name="Grupo 83482" transform="translate(0.002 3.877)">
                <path id="Trazado_102002" data-name="Trazado 102002" d="M79.321,257.844v12.261a3.332,3.332,0,0,1-1.963,2.742,10.466,10.466,0,0,1-9.487,0,3.332,3.332,0,0,1-1.963-2.742V257.844Z" transform="translate(-65.908 -257.844)" fill="#b33a4f"/>
              </g>
              <g id="Grupo_83483" data-name="Grupo 83483">
                <path id="Trazado_102003" data-name="Trazado 102003" d="M77.359,262.7a10.481,10.481,0,0,1-9.487,0c-2.62-1.511-2.62-3.964,0-5.477a10.48,10.48,0,0,1,9.487,0C79.979,258.734,79.979,261.187,77.359,262.7Z" transform="translate(-65.907 -256.087)" fill="#cc435a"/>
              </g>
            </g>
            <g id="Grupo_83487" data-name="Grupo 83487" transform="translate(14.791 1.842)">
              <g id="Grupo_83485" data-name="Grupo 83485" transform="translate(0.001 2.725)">
                <path id="Trazado_102004" data-name="Trazado 102004" d="M76.238,253.63v8.618a2.344,2.344,0,0,1-1.379,1.928,7.368,7.368,0,0,1-6.668,0,2.347,2.347,0,0,1-1.381-1.928V253.63Z" transform="translate(-66.811 -253.63)" fill="#b33a4f"/>
              </g>
              <g id="Grupo_83486" data-name="Grupo 83486">
                <path id="Trazado_102005" data-name="Trazado 102005" d="M74.86,257.043a7.368,7.368,0,0,1-6.668,0c-1.842-1.063-1.842-2.788,0-3.851a7.369,7.369,0,0,1,6.668,0C76.7,254.255,76.7,255.98,74.86,257.043Z" transform="translate(-66.811 -252.395)" fill="#cc435a"/>
              </g>
            </g>
            <g id="Grupo_83490" data-name="Grupo 83490" transform="translate(16.191)">
              <g id="Grupo_83488" data-name="Grupo 83488" transform="translate(0.001 1.913)">
                <path id="Trazado_102006" data-name="Trazado 102006" d="M74.072,252.427V254.5a1.65,1.65,0,0,1-.968,1.356,5.177,5.177,0,0,1-4.687,0,1.653,1.653,0,0,1-.971-1.356v-2.069Z" transform="translate(-67.446 -252.427)" fill="#b33a4f"/>
              </g>
              <g id="Grupo_83489" data-name="Grupo 83489">
                <path id="Trazado_102007" data-name="Trazado 102007" d="M73.1,254.825a5.177,5.177,0,0,1-4.687,0c-1.295-.748-1.295-1.959,0-2.706a5.191,5.191,0,0,1,4.687,0C74.4,252.866,74.4,254.077,73.1,254.825Z" transform="translate(-67.446 -251.56)" fill="#cc435a"/>
              </g>
            </g>
            <g id="Grupo_83493" data-name="Grupo 83493" transform="translate(0 18.529)">
              <g id="Grupo_83491" data-name="Grupo 83491" transform="translate(0.726)">
                <path id="Trazado_102008" data-name="Trazado 102008" d="M77.5,265.6a2.016,2.016,0,0,1-1.037,2.025l-11.662,6.9-.882-1.473a6.938,6.938,0,0,1-2.512-4.2v0l-.977-1.632,11.807-6.981a2.044,2.044,0,0,1,2.248.135A6.669,6.669,0,0,1,77.5,265.6Z" transform="translate(-60.434 -259.96)" fill="#cc435a"/>
              </g>
              <g id="Grupo_83492" data-name="Grupo 83492" transform="translate(0 6.951)">
                <path id="Trazado_102009" data-name="Trazado 102009" d="M66.135,268.746c0,1.923-1.35,2.7-3.015,1.74a6.665,6.665,0,0,1-3.015-5.223c0-1.923,1.35-2.7,3.015-1.74A6.665,6.665,0,0,1,66.135,268.746Z" transform="translate(-60.105 -263.111)" fill="#b33a4f"/>
              </g>
            </g>
          </g>
          <g id="Grupo_83510" data-name="Grupo 83510" transform="translate(178.33 313.75)">
            <g id="Grupo_83497" data-name="Grupo 83497" transform="translate(147.272)">
              <g id="Grupo_83495" data-name="Grupo 83495" transform="translate(0.412)">
                <path id="Trazado_102010" data-name="Trazado 102010" d="M196.249,252.24a1.15,1.15,0,0,1-.589,1.154l-32.247,18.715-.5-.84a3.942,3.942,0,0,1-1.432-2.387v0l-.556-.929,32.331-18.759a1.162,1.162,0,0,1,1.279.077A3.793,3.793,0,0,1,196.249,252.24Z" transform="translate(-160.925 -249.035)" fill="#a6a6a6"/>
              </g>
              <g id="Grupo_83496" data-name="Grupo 83496" transform="translate(0 18.742)">
                <path id="Trazado_102011" data-name="Trazado 102011" d="M164.17,260.739c0,1.094-.768,1.537-1.716.99a3.793,3.793,0,0,1-1.716-2.973c0-1.094.768-1.537,1.716-.99A3.79,3.79,0,0,1,164.17,260.739Z" transform="translate(-160.738 -257.532)" fill="#a6a6a6"/>
              </g>
            </g>
            <g id="Grupo_83500" data-name="Grupo 83500" transform="translate(40.441 6.797)">
              <g id="Grupo_83498" data-name="Grupo 83498" transform="translate(1.449)">
                <path id="Trazado_102012" data-name="Trazado 102012" d="M236.961,263.371c0,2.1-.8,3.509-2.069,4.045l-113.2,65.7-1.76-2.947a13.831,13.831,0,0,1-5.02-8.377v-.007l-1.952-3.26,113.487-65.853c1.105-.792,2.7-.759,4.489.269A13.318,13.318,0,0,1,236.961,263.371Z" transform="translate(-112.961 -252.116)" fill="#cc435a"/>
              </g>
              <g id="Grupo_83499" data-name="Grupo 83499" transform="translate(0 65.792)">
                <path id="Trazado_102013" data-name="Trazado 102013" d="M124.349,293.2c0,3.84-2.7,5.4-6.024,3.476a13.312,13.312,0,0,1-6.022-10.433c0-3.84,2.7-5.4,6.022-3.476A13.315,13.315,0,0,1,124.349,293.2Z" transform="translate(-112.304 -281.945)" fill="#b33a4f"/>
              </g>
            </g>
            <g id="Grupo_83503" data-name="Grupo 83503" transform="translate(117.934 19.085)">
              <g id="Grupo_83501" data-name="Grupo 83501" transform="translate(1.857)">
                <path id="Trazado_102014" data-name="Trazado 102014" d="M169.149,272.1c0,2.684-1.023,4.493-2.649,5.181l-7.038,4.5L157.205,278a17.726,17.726,0,0,1-6.427-10.729v-.009l-2.5-4.173,7.409-4.7c1.416-1.012,3.461-.973,5.75.344A17.062,17.062,0,0,1,169.149,272.1Z" transform="translate(-148.279 -257.687)" fill="#cc435a"/>
              </g>
              <g id="Grupo_83502" data-name="Grupo 83502" transform="translate(0 4.621)">
                <path id="Trazado_102015" data-name="Trazado 102015" d="M162.861,274.194c0,4.919-3.452,6.91-7.711,4.451a17.048,17.048,0,0,1-7.713-13.358c0-4.919,3.454-6.911,7.713-4.451A17.041,17.041,0,0,1,162.861,274.194Z" transform="translate(-147.437 -259.782)" fill="#b33a4f"/>
              </g>
            </g>
            <g id="Grupo_83506" data-name="Grupo 83506" transform="translate(4.766 27.131)">
              <g id="Grupo_83504" data-name="Grupo 83504" transform="translate(1.451)">
                <path id="Trazado_102016" data-name="Trazado 102016" d="M220.786,272.59c0,2.1-.8,3.509-2.067,4.045l-113.2,65.7-1.76-2.947a13.85,13.85,0,0,1-5.022-8.38V331l-1.95-3.26,113.485-65.851c1.107-.792,2.7-.759,4.491.267A13.323,13.323,0,0,1,220.786,272.59Z" transform="translate(-96.788 -261.335)" fill="#cc435a"/>
              </g>
              <g id="Grupo_83505" data-name="Grupo 83505" transform="translate(0 65.793)">
                <path id="Trazado_102017" data-name="Trazado 102017" d="M108.178,302.418c0,3.842-2.7,5.4-6.024,3.478a13.318,13.318,0,0,1-6.024-10.433c0-3.84,2.7-5.4,6.024-3.476A13.311,13.311,0,0,1,108.178,302.418Z" transform="translate(-96.13 -291.164)" fill="#b33a4f"/>
              </g>
            </g>
            <g id="Grupo_83509" data-name="Grupo 83509" transform="translate(0 95.933)">
              <g id="Grupo_83507" data-name="Grupo 83507" transform="translate(0.993)">
                <path id="Trazado_102018" data-name="Trazado 102018" d="M107.386,300.219a2.758,2.758,0,0,1-1.414,2.764l-5.589,3.456-1.2-2.014a9.458,9.458,0,0,1-3.43-5.724v0l-1.332-2.226,5.786-3.564a2.776,2.776,0,0,1,3.066.183A9.1,9.1,0,0,1,107.386,300.219Z" transform="translate(-94.419 -292.528)" fill="#cc435a"/>
              </g>
              <g id="Grupo_83508" data-name="Grupo 83508" transform="translate(0 3.524)">
                <path id="Trazado_102019" data-name="Trazado 102019" d="M102.2,301.815c0,2.623-1.844,3.688-4.116,2.376a9.1,9.1,0,0,1-4.116-7.127c0-2.625,1.844-3.688,4.116-2.378A9.1,9.1,0,0,1,102.2,301.815Z" transform="translate(-93.969 -294.126)" fill="#b33a4f"/>
              </g>
            </g>
          </g>
          <g id="Grupo_83511" data-name="Grupo 83511" transform="translate(24 256.651)">
            <path id="Trazado_102020" data-name="Trazado 102020" d="M336.152,223.148v20.784c0,2.728-1.987,5.589-5.872,7.828L143.716,359.482c-7.1,4.094-17.835,4.537-23.974.995L28.151,307.593c-2.788-1.6-4.151-3.75-4.151-6V280.8c0,2.252,1.363,4.4,4.151,6l6.88,3.973,84.712,48.909c6.138,3.545,16.871,3.1,23.974-.993L325.122,233.956l5.159-2.98C334.165,228.737,336.152,225.876,336.152,223.148Z" transform="translate(-24 -223.148)" fill="#4db2b3"/>
          </g>
          <g id="Grupo_83512" data-name="Grupo 83512" transform="translate(39.936 334.376)">
            <path id="Trazado_102021" data-name="Trazado 102021" d="M83.383,359c-16.41,0-30.117-6.035-40.433-17.985-9.685-11.218-13.4-22.935-11.035-34.826,5.556-27.948,42.464-46.807,44.032-47.595a1.941,1.941,0,0,1,1.745,3.467c-.366.185-36.793,18.806-41.972,44.895-2.113,10.651,1.306,21.258,10.168,31.522,36.376,42.133,104.859-9.341,105.549-9.866a1.941,1.941,0,0,1,2.353,3.088,164.126,164.126,0,0,1-40.38,21.583C102.637,357.1,92.583,359,83.383,359Z" transform="translate(-31.225 -258.386)" fill="#454545"/>
          </g>
          <g id="Grupo_83513" data-name="Grupo 83513" transform="translate(61.057 346.75)">
            <path id="Trazado_102022" data-name="Trazado 102022" d="M92.957,364.609c-16.41,0-30.114-6.033-40.43-17.983-9.687-11.218-13.4-22.935-11.035-34.826,5.554-27.948,42.462-46.807,44.03-47.595a1.941,1.941,0,1,1,1.747,3.467c-.368.183-36.793,18.806-41.972,44.893-2.115,10.654,1.306,21.261,10.168,31.524C66,356.3,79.253,360.641,92.761,360.643c33.085,0,67.761-26.047,68.251-26.42a1.941,1.941,0,1,1,2.356,3.086,164.144,164.144,0,0,1-40.38,21.585C112.213,362.71,102.157,364.609,92.957,364.609Z" transform="translate(-40.801 -263.996)" fill="#cc435a"/>
          </g>
        </g>
        <path id="Trazado_606010" data-name="Trazado 606010" d="M3.072,12H.851V2.758H3.072ZM6.487,5.132l.07.806A2.329,2.329,0,0,1,8.519,5a1.96,1.96,0,0,1,1.6.641,3.052,3.052,0,0,1,.549,1.93V12H8.525V7.665A1.159,1.159,0,0,0,8.315,6.9a.969.969,0,0,0-.762-.244,1.02,1.02,0,0,0-.933.5V12H4.481V5.132Zm5.1,3.383a4.2,4.2,0,0,1,.7-2.571A2.319,2.319,0,0,1,14.257,5a1.972,1.972,0,0,1,1.549.724V2.25h2.146V12H16.028l-.108-.736a2.026,2.026,0,0,1-1.676.863,2.315,2.315,0,0,1-1.942-.939A4.329,4.329,0,0,1,11.584,8.515Zm2.139.133q0,1.828,1.066,1.828a1.053,1.053,0,0,0,1.016-.6V7.265a1.025,1.025,0,0,0-1-.609q-.99,0-1.073,1.6ZM21.423,12H19.278V5.132h2.146ZM19.151,3.361a.955.955,0,0,1,.33-.749,1.4,1.4,0,0,1,1.714,0,.955.955,0,0,1,.33.749.955.955,0,0,1-.33.749,1.4,1.4,0,0,1-1.714,0A.955.955,0,0,1,19.151,3.361Zm6.494,7.116a.951.951,0,0,0,.7-.244.9.9,0,0,0,.241-.682H28.59a2.375,2.375,0,0,1-.809,1.854,3.01,3.01,0,0,1-2.085.724,3.048,3.048,0,0,1-2.361-.939,3.7,3.7,0,0,1-.863-2.6V8.5a4.183,4.183,0,0,1,.384-1.838,2.8,2.8,0,0,1,1.108-1.225A3.3,3.3,0,0,1,25.676,5a2.972,2.972,0,0,1,2.126.743A2.634,2.634,0,0,1,28.59,7.76H26.584a1.174,1.174,0,0,0-.26-.819.9.9,0,0,0-.7-.286q-.832,0-.971,1.06a7.48,7.48,0,0,0-.044.927,2.938,2.938,0,0,0,.248,1.435A.857.857,0,0,0,25.645,10.477ZM33.363,12a2.415,2.415,0,0,1-.2-.616,1.989,1.989,0,0,1-1.65.743,2.437,2.437,0,0,1-1.65-.587,1.869,1.869,0,0,1-.679-1.476,1.921,1.921,0,0,1,.825-1.688A4.2,4.2,0,0,1,32.4,7.8h.66V7.441q0-.95-.819-.95a.669.669,0,0,0-.762.753H29.345a1.918,1.918,0,0,1,.847-1.617A3.561,3.561,0,0,1,32.354,5a3.122,3.122,0,0,1,2.076.641A2.229,2.229,0,0,1,35.21,7.4v3.041a3.114,3.114,0,0,0,.292,1.447V12Zm-1.339-1.4a1.193,1.193,0,0,0,.663-.171,1.074,1.074,0,0,0,.378-.387v-1.1h-.622q-1.117,0-1.117,1a.612.612,0,0,0,.2.473A.712.712,0,0,0,32.024,10.6Zm4.1-2.088a4.2,4.2,0,0,1,.7-2.571A2.319,2.319,0,0,1,38.8,5a1.972,1.972,0,0,1,1.549.724V2.25h2.146V12H40.568l-.108-.736a2.026,2.026,0,0,1-1.676.863,2.315,2.315,0,0,1-1.942-.939A4.329,4.329,0,0,1,36.125,8.515Zm2.139.133q0,1.828,1.066,1.828a1.053,1.053,0,0,0,1.016-.6V7.265a1.025,1.025,0,0,0-1-.609q-.99,0-1.073,1.6ZM43.437,8.5a4.054,4.054,0,0,1,.4-1.831,2.86,2.86,0,0,1,1.149-1.235A3.46,3.46,0,0,1,46.744,5a3.158,3.158,0,0,1,2.431.955,3.666,3.666,0,0,1,.889,2.6v.076a3.557,3.557,0,0,1-.892,2.549,3.166,3.166,0,0,1-2.415.943,3.2,3.2,0,0,1-2.355-.879,3.439,3.439,0,0,1-.958-2.384Zm2.139.133a2.556,2.556,0,0,0,.3,1.4.994.994,0,0,0,.882.444q1.143,0,1.168-1.758V8.5q0-1.847-1.181-1.847-1.073,0-1.162,1.593Zm9.585-1.568-.7-.051a1.266,1.266,0,0,0-1.295.635V12H51.022V5.132h2.006l.07.882A1.656,1.656,0,0,1,54.6,5a2.086,2.086,0,0,1,.6.076ZM58.9,8.515a4.2,4.2,0,0,1,.7-2.571A2.319,2.319,0,0,1,61.572,5a1.972,1.972,0,0,1,1.549.724V2.25h2.146V12H63.343l-.108-.736a2.026,2.026,0,0,1-1.676.863,2.315,2.315,0,0,1-1.942-.939A4.329,4.329,0,0,1,58.9,8.515Zm2.139.133q0,1.828,1.066,1.828a1.053,1.053,0,0,0,1.016-.6V7.265a1.025,1.025,0,0,0-1-.609q-.99,0-1.073,1.6Zm8.766,3.479a3.531,3.531,0,0,1-2.558-.943,3.255,3.255,0,0,1-.978-2.453V8.553a4.218,4.218,0,0,1,.39-1.86A2.856,2.856,0,0,1,67.8,5.446,3.44,3.44,0,0,1,69.577,5a2.973,2.973,0,0,1,2.285.9,3.53,3.53,0,0,1,.838,2.5v.832H68.447a1.542,1.542,0,0,0,.5.908,1.492,1.492,0,0,0,1,.33,1.923,1.923,0,0,0,1.587-.711l.978,1.155a2.733,2.733,0,0,1-1.133.879A3.829,3.829,0,0,1,69.805,12.127Zm-.241-5.472q-.939,0-1.117,1.244H70.6V7.734a1.06,1.06,0,0,0-.26-.8A1.036,1.036,0,0,0,69.564,6.655ZM79.054,12H76.908V2.25h2.146Zm4.64.127a3.531,3.531,0,0,1-2.558-.943,3.255,3.255,0,0,1-.978-2.453V8.553a4.218,4.218,0,0,1,.39-1.86,2.856,2.856,0,0,1,1.139-1.247A3.44,3.44,0,0,1,83.465,5a2.973,2.973,0,0,1,2.285.9,3.53,3.53,0,0,1,.838,2.5v.832H82.335a1.542,1.542,0,0,0,.5.908,1.492,1.492,0,0,0,1,.33,1.923,1.923,0,0,0,1.587-.711l.978,1.155a2.733,2.733,0,0,1-1.133.879A3.829,3.829,0,0,1,83.694,12.127Zm-.241-5.472q-.939,0-1.117,1.244h2.158V7.734a1.06,1.06,0,0,0-.26-.8A1.036,1.036,0,0,0,83.453,6.655Zm6.9,3.821a.951.951,0,0,0,.7-.244.9.9,0,0,0,.241-.682H93.3a2.375,2.375,0,0,1-.809,1.854,3.01,3.01,0,0,1-2.085.724,3.048,3.048,0,0,1-2.361-.939,3.7,3.7,0,0,1-.863-2.6V8.5a4.183,4.183,0,0,1,.384-1.838A2.8,2.8,0,0,1,88.67,5.433,3.3,3.3,0,0,1,90.384,5a2.972,2.972,0,0,1,2.126.743A2.634,2.634,0,0,1,93.3,7.76H91.292a1.174,1.174,0,0,0-.26-.819.9.9,0,0,0-.7-.286q-.832,0-.971,1.06a7.479,7.479,0,0,0-.044.927,2.938,2.938,0,0,0,.248,1.435A.857.857,0,0,0,90.353,10.477Zm6.341-7.052V5.132h1.13V6.617h-1.13V9.759a.8.8,0,0,0,.14.54.749.749,0,0,0,.552.152,3.138,3.138,0,0,0,.533-.038v1.53a3.948,3.948,0,0,1-1.206.184,2.241,2.241,0,0,1-1.631-.521,2.133,2.133,0,0,1-.527-1.581V6.617h-.876V5.132h.876V3.424Zm6.062,7.833a2.205,2.205,0,0,1-1.834.87,2.163,2.163,0,0,1-1.711-.657,2.763,2.763,0,0,1-.581-1.888V5.132h2.139V9.594a.769.769,0,0,0,.857.882,1.118,1.118,0,0,0,1.047-.527V5.132h2.152V12h-2.006Zm7.4-4.189-.7-.051a1.266,1.266,0,0,0-1.295.635V12h-2.139V5.132h2.006l.07.882A1.656,1.656,0,0,1,109.592,5a2.086,2.086,0,0,1,.6.076ZM114.6,12a2.415,2.415,0,0,1-.2-.616,1.989,1.989,0,0,1-1.65.743,2.437,2.437,0,0,1-1.65-.587,1.869,1.869,0,0,1-.679-1.476,1.921,1.921,0,0,1,.825-1.688,4.2,4.2,0,0,1,2.4-.571h.66V7.441q0-.95-.819-.95a.669.669,0,0,0-.762.753h-2.139a1.918,1.918,0,0,1,.847-1.617A3.561,3.561,0,0,1,113.591,5a3.122,3.122,0,0,1,2.076.641,2.229,2.229,0,0,1,.781,1.758v3.041a3.114,3.114,0,0,0,.292,1.447V12Zm-1.339-1.4a1.193,1.193,0,0,0,.663-.171,1.074,1.074,0,0,0,.378-.387v-1.1h-.622q-1.117,0-1.117,1a.612.612,0,0,0,.2.473A.712.712,0,0,0,113.261,10.6Z" transform="translate(955.554 1065)" fill="#12263f"/>
        <path id="Trazado_606011" data-name="Trazado 606011" d="M32.035,4.478H29.261V12H27.033V4.478H24.31V2.758h7.725Zm3.6,7.649a3.531,3.531,0,0,1-2.558-.943A3.255,3.255,0,0,1,32.1,8.731V8.553a4.218,4.218,0,0,1,.39-1.86,2.857,2.857,0,0,1,1.139-1.247A3.44,3.44,0,0,1,35.406,5a2.973,2.973,0,0,1,2.285.9,3.53,3.53,0,0,1,.838,2.5v.832H34.276a1.542,1.542,0,0,0,.5.908,1.492,1.492,0,0,0,1,.33,1.923,1.923,0,0,0,1.587-.711l.978,1.155a2.733,2.733,0,0,1-1.133.879A3.829,3.829,0,0,1,35.634,12.127Zm-.241-5.472q-.939,0-1.117,1.244h2.158V7.734a1.06,1.06,0,0,0-.26-.8A1.036,1.036,0,0,0,35.393,6.655Zm8.15.413-.7-.051a1.266,1.266,0,0,0-1.295.635V12H39.4V5.132h2.006l.07.882A1.656,1.656,0,0,1,42.985,5a2.086,2.086,0,0,1,.6.076Zm2.793-1.936.07.806A2.362,2.362,0,0,1,48.368,5,1.739,1.739,0,0,1,50.126,6.04,2.286,2.286,0,0,1,52.145,5q2.088,0,2.146,2.526V12H52.145V7.665a1.309,1.309,0,0,0-.178-.768.757.757,0,0,0-.647-.241,1.014,1.014,0,0,0-.946.565l.006.089V12H48.234V7.677a1.376,1.376,0,0,0-.171-.781.754.754,0,0,0-.654-.241,1.026,1.026,0,0,0-.939.565V12H44.331V5.132ZM57.769,12H55.623V5.132h2.146ZM55.5,3.361a.955.955,0,0,1,.33-.749,1.4,1.4,0,0,1,1.714,0,.955.955,0,0,1,.33.749.955.955,0,0,1-.33.749,1.4,1.4,0,0,1-1.714,0A.955.955,0,0,1,55.5,3.361ZM61.05,5.132l.07.806A2.329,2.329,0,0,1,63.082,5a1.96,1.96,0,0,1,1.6.641,3.052,3.052,0,0,1,.549,1.93V12H63.088V7.665a1.159,1.159,0,0,0-.209-.765.969.969,0,0,0-.762-.244,1.02,1.02,0,0,0-.933.5V12H59.044V5.132ZM70.286,12a2.415,2.415,0,0,1-.2-.616,1.989,1.989,0,0,1-1.65.743,2.437,2.437,0,0,1-1.65-.587,1.869,1.869,0,0,1-.679-1.476,1.921,1.921,0,0,1,.825-1.688,4.2,4.2,0,0,1,2.4-.571h.66V7.441q0-.95-.819-.95a.669.669,0,0,0-.762.753H66.268a1.918,1.918,0,0,1,.847-1.617A3.561,3.561,0,0,1,69.277,5a3.122,3.122,0,0,1,2.076.641A2.229,2.229,0,0,1,72.133,7.4v3.041a3.114,3.114,0,0,0,.292,1.447V12Zm-1.339-1.4a1.193,1.193,0,0,0,.663-.171,1.074,1.074,0,0,0,.378-.387v-1.1h-.622q-1.117,0-1.117,1a.612.612,0,0,0,.2.473A.712.712,0,0,0,68.947,10.6ZM75.574,12H73.428V2.25h2.146Zm4.285-3.485a4.2,4.2,0,0,1,.7-2.571A2.319,2.319,0,0,1,82.531,5a1.972,1.972,0,0,1,1.549.724V2.25h2.146V12H84.3l-.108-.736a2.026,2.026,0,0,1-1.676.863,2.315,2.315,0,0,1-1.942-.939A4.329,4.329,0,0,1,79.858,8.515ZM82,8.648q0,1.828,1.066,1.828a1.053,1.053,0,0,0,1.016-.6V7.265a1.025,1.025,0,0,0-1-.609q-.99,0-1.073,1.6Zm8.766,3.479a3.531,3.531,0,0,1-2.558-.943,3.255,3.255,0,0,1-.978-2.453V8.553a4.218,4.218,0,0,1,.39-1.86,2.856,2.856,0,0,1,1.139-1.247A3.44,3.44,0,0,1,90.535,5a2.973,2.973,0,0,1,2.285.9,3.53,3.53,0,0,1,.838,2.5v.832H89.405a1.542,1.542,0,0,0,.5.908,1.492,1.492,0,0,0,1,.33A1.923,1.923,0,0,0,92.5,9.766l.978,1.155a2.733,2.733,0,0,1-1.133.879A3.829,3.829,0,0,1,90.764,12.127Zm-.241-5.472q-.939,0-1.117,1.244h2.158V7.734a1.06,1.06,0,0,0-.26-.8A1.036,1.036,0,0,0,90.522,6.655ZM15.741,27.127a3.531,3.531,0,0,1-2.558-.943,3.255,3.255,0,0,1-.978-2.453v-.178a4.218,4.218,0,0,1,.39-1.86,2.856,2.856,0,0,1,1.139-1.247A3.44,3.44,0,0,1,15.512,20a2.973,2.973,0,0,1,2.285.9,3.53,3.53,0,0,1,.838,2.5v.832H14.382a1.542,1.542,0,0,0,.5.908,1.492,1.492,0,0,0,1,.33,1.923,1.923,0,0,0,1.587-.711l.978,1.155a2.733,2.733,0,0,1-1.133.879A3.829,3.829,0,0,1,15.741,27.127ZM15.5,21.655q-.939,0-1.117,1.244h2.158v-.165a1.06,1.06,0,0,0-.26-.8A1.036,1.036,0,0,0,15.5,21.655Zm5.96-1.523.07.806A2.329,2.329,0,0,1,23.491,20a1.96,1.96,0,0,1,1.6.641,3.052,3.052,0,0,1,.549,1.93V27H23.5V22.665a1.159,1.159,0,0,0-.209-.765.969.969,0,0,0-.762-.244,1.02,1.02,0,0,0-.933.5V27H19.454V20.132Zm7.858-1.708v1.708h1.13v1.485h-1.13v3.142a.8.8,0,0,0,.14.54.749.749,0,0,0,.552.152,3.138,3.138,0,0,0,.533-.038v1.53a3.948,3.948,0,0,1-1.206.184,2.241,2.241,0,0,1-1.631-.521,2.133,2.133,0,0,1-.527-1.581V21.617H26.3V20.132h.876V18.424Zm6.125,3.644-.7-.051a1.266,1.266,0,0,0-1.295.635V27H31.305V20.132h2.006l.07.882A1.656,1.656,0,0,1,34.885,20a2.086,2.086,0,0,1,.6.076ZM39.894,27a2.415,2.415,0,0,1-.2-.616,1.989,1.989,0,0,1-1.65.743,2.437,2.437,0,0,1-1.65-.587,1.869,1.869,0,0,1-.679-1.476,1.921,1.921,0,0,1,.825-1.688,4.2,4.2,0,0,1,2.4-.571h.66v-.364q0-.95-.819-.95a.669.669,0,0,0-.762.753H35.875a1.918,1.918,0,0,1,.847-1.617A3.561,3.561,0,0,1,38.884,20a3.122,3.122,0,0,1,2.076.641,2.229,2.229,0,0,1,.781,1.758v3.041a3.114,3.114,0,0,0,.292,1.447V27Zm-1.339-1.4a1.193,1.193,0,0,0,.663-.171,1.074,1.074,0,0,0,.378-.387v-1.1h-.622q-1.117,0-1.117,1a.612.612,0,0,0,.2.473A.712.712,0,0,0,38.554,25.6Zm4.1-2.088a4.2,4.2,0,0,1,.7-2.571A2.319,2.319,0,0,1,45.327,20a1.972,1.972,0,0,1,1.549.724V17.25h2.146V27H47.1l-.108-.736a2.026,2.026,0,0,1-1.676.863,2.315,2.315,0,0,1-1.942-.939A4.329,4.329,0,0,1,42.655,23.515Zm2.139.133q0,1.828,1.066,1.828a1.053,1.053,0,0,0,1.016-.6V22.265a1.025,1.025,0,0,0-1-.609q-.99,0-1.073,1.6ZM54.106,27a2.415,2.415,0,0,1-.2-.616,1.989,1.989,0,0,1-1.65.743,2.437,2.437,0,0,1-1.65-.587,1.869,1.869,0,0,1-.679-1.476,1.921,1.921,0,0,1,.825-1.688,4.2,4.2,0,0,1,2.4-.571h.66v-.364q0-.95-.819-.95a.669.669,0,0,0-.762.753H50.088a1.918,1.918,0,0,1,.847-1.617A3.561,3.561,0,0,1,53.1,20a3.122,3.122,0,0,1,2.076.641,2.229,2.229,0,0,1,.781,1.758v3.041a3.114,3.114,0,0,0,.292,1.447V27Zm-1.339-1.4a1.193,1.193,0,0,0,.663-.171,1.074,1.074,0,0,0,.378-.387v-1.1h-.622q-1.117,0-1.117,1a.612.612,0,0,0,.2.473A.712.712,0,0,0,52.767,25.6ZM66.75,23.617a4.142,4.142,0,0,1-.72,2.555,2.31,2.31,0,0,1-1.946.955,1.98,1.98,0,0,1-1.555-.692v3.206H60.39V20.132h2l.063.635A1.98,1.98,0,0,1,64.072,20a2.329,2.329,0,0,1,1.974.936,4.193,4.193,0,0,1,.7,2.574Zm-2.139-.133q0-1.828-1.066-1.828a1.007,1.007,0,0,0-1.016.546v2.7a1.039,1.039,0,0,0,1.028.571q1.022,0,1.054-1.765Zm2.812.019a4.054,4.054,0,0,1,.4-1.831,2.86,2.86,0,0,1,1.149-1.235A3.46,3.46,0,0,1,70.73,20a3.158,3.158,0,0,1,2.431.955,3.666,3.666,0,0,1,.889,2.6v.076a3.557,3.557,0,0,1-.892,2.549,3.166,3.166,0,0,1-2.415.943,3.2,3.2,0,0,1-2.355-.879,3.439,3.439,0,0,1-.958-2.384Zm2.139.133a2.556,2.556,0,0,0,.3,1.4.994.994,0,0,0,.882.444q1.143,0,1.168-1.758V23.5q0-1.847-1.181-1.847-1.073,0-1.162,1.593Zm9.026,1.435a.494.494,0,0,0-.286-.438,4.345,4.345,0,0,0-1.085-.343,4.95,4.95,0,0,1-1.32-.467,2.212,2.212,0,0,1-.793-.7,1.675,1.675,0,0,1-.273-.946,1.9,1.9,0,0,1,.781-1.558A3.216,3.216,0,0,1,77.656,20a3.563,3.563,0,0,1,2.184.616,1.925,1.925,0,0,1,.825,1.619H78.519q0-.825-.87-.825a.862.862,0,0,0-.565.187.58.58,0,0,0-.229.467.532.532,0,0,0,.279.463,2.639,2.639,0,0,0,.892.292A7.707,7.707,0,0,1,79.1,23.1a1.955,1.955,0,0,1,1.549,1.911,1.8,1.8,0,0,1-.835,1.53,3.66,3.66,0,0,1-2.161.59,3.735,3.735,0,0,1-1.574-.317A2.632,2.632,0,0,1,75,25.946a1.955,1.955,0,0,1-.387-1.149h2a.827.827,0,0,0,.317.7,1.306,1.306,0,0,0,.781.219,1.027,1.027,0,0,0,.657-.178A.569.569,0,0,0,78.589,25.07ZM83.908,27H81.763V20.132h2.146Zm-2.272-8.639a.955.955,0,0,1,.33-.749,1.4,1.4,0,0,1,1.714,0,1.015,1.015,0,0,1,0,1.5,1.4,1.4,0,0,1-1.714,0A.955.955,0,0,1,81.636,18.361Zm6.081.063v1.708h1.13v1.485h-1.13v3.142a.8.8,0,0,0,.14.54.749.749,0,0,0,.552.152,3.138,3.138,0,0,0,.533-.038v1.53a3.948,3.948,0,0,1-1.206.184,2.241,2.241,0,0,1-1.631-.521,2.133,2.133,0,0,1-.527-1.581V21.617H84.7V20.132h.876V18.424ZM91.944,27H89.8V20.132h2.146Zm-2.272-8.639a.955.955,0,0,1,.33-.749,1.4,1.4,0,0,1,1.714,0,1.015,1.015,0,0,1,0,1.5,1.4,1.4,0,0,1-1.714,0A.955.955,0,0,1,89.672,18.361ZM96,24.455l1.085-4.323h2.253L97.1,27H94.915l-2.241-6.868h2.26ZM103.751,27a2.415,2.415,0,0,1-.2-.616,1.989,1.989,0,0,1-1.65.743,2.437,2.437,0,0,1-1.65-.587,1.869,1.869,0,0,1-.679-1.476,1.921,1.921,0,0,1,.825-1.688,4.2,4.2,0,0,1,2.4-.571h.66v-.364q0-.95-.819-.95a.669.669,0,0,0-.762.753H99.733a1.918,1.918,0,0,1,.847-1.617A3.561,3.561,0,0,1,102.742,20a3.122,3.122,0,0,1,2.076.641A2.229,2.229,0,0,1,105.6,22.4v3.041a3.114,3.114,0,0,0,.292,1.447V27Zm-1.339-1.4a1.193,1.193,0,0,0,.663-.171,1.074,1.074,0,0,0,.378-.387v-1.1h-.622q-1.117,0-1.117,1a.612.612,0,0,0,.2.473A.712.712,0,0,0,102.412,25.6Z" transform="translate(1251.269 1253)" fill="#12263f"/>
        <path id="Trazado_606012" data-name="Trazado 606012" d="M32.035,4.478H29.261V12H27.033V4.478H24.31V2.758h7.725Zm3.6,7.649a3.531,3.531,0,0,1-2.558-.943A3.255,3.255,0,0,1,32.1,8.731V8.553a4.218,4.218,0,0,1,.39-1.86,2.857,2.857,0,0,1,1.139-1.247A3.44,3.44,0,0,1,35.406,5a2.973,2.973,0,0,1,2.285.9,3.53,3.53,0,0,1,.838,2.5v.832H34.276a1.542,1.542,0,0,0,.5.908,1.492,1.492,0,0,0,1,.33,1.923,1.923,0,0,0,1.587-.711l.978,1.155a2.733,2.733,0,0,1-1.133.879A3.829,3.829,0,0,1,35.634,12.127Zm-.241-5.472q-.939,0-1.117,1.244h2.158V7.734a1.06,1.06,0,0,0-.26-.8A1.036,1.036,0,0,0,35.393,6.655Zm8.15.413-.7-.051a1.266,1.266,0,0,0-1.295.635V12H39.4V5.132h2.006l.07.882A1.656,1.656,0,0,1,42.985,5a2.086,2.086,0,0,1,.6.076Zm2.793-1.936.07.806A2.362,2.362,0,0,1,48.368,5,1.739,1.739,0,0,1,50.126,6.04,2.286,2.286,0,0,1,52.145,5q2.088,0,2.146,2.526V12H52.145V7.665a1.309,1.309,0,0,0-.178-.768.757.757,0,0,0-.647-.241,1.014,1.014,0,0,0-.946.565l.006.089V12H48.234V7.677a1.376,1.376,0,0,0-.171-.781.754.754,0,0,0-.654-.241,1.026,1.026,0,0,0-.939.565V12H44.331V5.132ZM57.769,12H55.623V5.132h2.146ZM55.5,3.361a.955.955,0,0,1,.33-.749,1.4,1.4,0,0,1,1.714,0,.955.955,0,0,1,.33.749.955.955,0,0,1-.33.749,1.4,1.4,0,0,1-1.714,0A.955.955,0,0,1,55.5,3.361ZM61.05,5.132l.07.806A2.329,2.329,0,0,1,63.082,5a1.96,1.96,0,0,1,1.6.641,3.052,3.052,0,0,1,.549,1.93V12H63.088V7.665a1.159,1.159,0,0,0-.209-.765.969.969,0,0,0-.762-.244,1.02,1.02,0,0,0-.933.5V12H59.044V5.132ZM70.286,12a2.415,2.415,0,0,1-.2-.616,1.989,1.989,0,0,1-1.65.743,2.437,2.437,0,0,1-1.65-.587,1.869,1.869,0,0,1-.679-1.476,1.921,1.921,0,0,1,.825-1.688,4.2,4.2,0,0,1,2.4-.571h.66V7.441q0-.95-.819-.95a.669.669,0,0,0-.762.753H66.268a1.918,1.918,0,0,1,.847-1.617A3.561,3.561,0,0,1,69.277,5a3.122,3.122,0,0,1,2.076.641A2.229,2.229,0,0,1,72.133,7.4v3.041a3.114,3.114,0,0,0,.292,1.447V12Zm-1.339-1.4a1.193,1.193,0,0,0,.663-.171,1.074,1.074,0,0,0,.378-.387v-1.1h-.622q-1.117,0-1.117,1a.612.612,0,0,0,.2.473A.712.712,0,0,0,68.947,10.6ZM75.574,12H73.428V2.25h2.146Zm4.285-3.485a4.2,4.2,0,0,1,.7-2.571A2.319,2.319,0,0,1,82.531,5a1.972,1.972,0,0,1,1.549.724V2.25h2.146V12H84.3l-.108-.736a2.026,2.026,0,0,1-1.676.863,2.315,2.315,0,0,1-1.942-.939A4.329,4.329,0,0,1,79.858,8.515ZM82,8.648q0,1.828,1.066,1.828a1.053,1.053,0,0,0,1.016-.6V7.265a1.025,1.025,0,0,0-1-.609q-.99,0-1.073,1.6Zm8.766,3.479a3.531,3.531,0,0,1-2.558-.943,3.255,3.255,0,0,1-.978-2.453V8.553a4.218,4.218,0,0,1,.39-1.86,2.856,2.856,0,0,1,1.139-1.247A3.44,3.44,0,0,1,90.535,5a2.973,2.973,0,0,1,2.285.9,3.53,3.53,0,0,1,.838,2.5v.832H89.405a1.542,1.542,0,0,0,.5.908,1.492,1.492,0,0,0,1,.33A1.923,1.923,0,0,0,92.5,9.766l.978,1.155a2.733,2.733,0,0,1-1.133.879A3.829,3.829,0,0,1,90.764,12.127Zm-.241-5.472q-.939,0-1.117,1.244h2.158V7.734a1.06,1.06,0,0,0-.26-.8A1.036,1.036,0,0,0,90.522,6.655ZM13.773,27.127a3.531,3.531,0,0,1-2.558-.943,3.255,3.255,0,0,1-.978-2.453v-.178a4.218,4.218,0,0,1,.39-1.86,2.856,2.856,0,0,1,1.139-1.247A3.44,3.44,0,0,1,13.544,20a2.973,2.973,0,0,1,2.285.9,3.53,3.53,0,0,1,.838,2.5v.832H12.415a1.542,1.542,0,0,0,.5.908,1.492,1.492,0,0,0,1,.33,1.923,1.923,0,0,0,1.587-.711l.978,1.155a2.733,2.733,0,0,1-1.133.879A3.829,3.829,0,0,1,13.773,27.127Zm-.241-5.472q-.939,0-1.117,1.244h2.158v-.165a1.06,1.06,0,0,0-.26-.8A1.036,1.036,0,0,0,13.532,21.655Zm5.96-1.523.07.806A2.329,2.329,0,0,1,21.523,20a1.96,1.96,0,0,1,1.6.641,3.052,3.052,0,0,1,.549,1.93V27H21.53V22.665a1.159,1.159,0,0,0-.209-.765.969.969,0,0,0-.762-.244,1.02,1.02,0,0,0-.933.5V27H17.486V20.132Zm7.858-1.708v1.708h1.13v1.485h-1.13v3.142a.8.8,0,0,0,.14.54.749.749,0,0,0,.552.152,3.138,3.138,0,0,0,.533-.038v1.53a3.948,3.948,0,0,1-1.206.184,2.241,2.241,0,0,1-1.631-.521,2.133,2.133,0,0,1-.527-1.581V21.617h-.876V20.132h.876V18.424Zm6.125,3.644-.7-.051a1.266,1.266,0,0,0-1.295.635V27H29.337V20.132h2.006l.07.882A1.656,1.656,0,0,1,32.917,20a2.086,2.086,0,0,1,.6.076ZM37.926,27a2.415,2.415,0,0,1-.2-.616,1.989,1.989,0,0,1-1.65.743,2.437,2.437,0,0,1-1.65-.587,1.869,1.869,0,0,1-.679-1.476,1.921,1.921,0,0,1,.825-1.688,4.2,4.2,0,0,1,2.4-.571h.66v-.364q0-.95-.819-.95a.669.669,0,0,0-.762.753H33.908a1.918,1.918,0,0,1,.847-1.617A3.561,3.561,0,0,1,36.917,20a3.122,3.122,0,0,1,2.076.641,2.229,2.229,0,0,1,.781,1.758v3.041a3.114,3.114,0,0,0,.292,1.447V27Zm-1.339-1.4a1.193,1.193,0,0,0,.663-.171,1.074,1.074,0,0,0,.378-.387v-1.1h-.622q-1.117,0-1.117,1a.612.612,0,0,0,.2.473A.712.712,0,0,0,36.586,25.6Zm4.1-2.088a4.2,4.2,0,0,1,.7-2.571A2.319,2.319,0,0,1,43.359,20a1.972,1.972,0,0,1,1.549.724V17.25h2.146V27H45.13l-.108-.736a2.026,2.026,0,0,1-1.676.863,2.315,2.315,0,0,1-1.942-.939A4.329,4.329,0,0,1,40.687,23.515Zm2.139.133q0,1.828,1.066,1.828a1.053,1.053,0,0,0,1.016-.6V22.265a1.025,1.025,0,0,0-1-.609q-.99,0-1.073,1.6ZM52.138,27a2.415,2.415,0,0,1-.2-.616,1.989,1.989,0,0,1-1.65.743,2.437,2.437,0,0,1-1.65-.587,1.869,1.869,0,0,1-.679-1.476,1.921,1.921,0,0,1,.825-1.688,4.2,4.2,0,0,1,2.4-.571h.66v-.364q0-.95-.819-.95a.669.669,0,0,0-.762.753H48.12a1.918,1.918,0,0,1,.847-1.617A3.561,3.561,0,0,1,51.129,20a3.122,3.122,0,0,1,2.076.641,2.229,2.229,0,0,1,.781,1.758v3.041a3.114,3.114,0,0,0,.292,1.447V27ZM50.8,25.6a1.193,1.193,0,0,0,.663-.171,1.074,1.074,0,0,0,.378-.387v-1.1h-.622q-1.117,0-1.117,1a.612.612,0,0,0,.2.473A.712.712,0,0,0,50.8,25.6Zm9.572-5.472.07.806A2.329,2.329,0,0,1,62.4,20a1.96,1.96,0,0,1,1.6.641,3.052,3.052,0,0,1,.549,1.93V27H62.409V22.665A1.159,1.159,0,0,0,62.2,21.9a.969.969,0,0,0-.762-.244,1.02,1.02,0,0,0-.933.5V27H58.365V20.132Zm8.69,7a3.531,3.531,0,0,1-2.558-.943,3.255,3.255,0,0,1-.978-2.453v-.178a4.218,4.218,0,0,1,.39-1.86,2.856,2.856,0,0,1,1.139-1.247A3.44,3.44,0,0,1,68.833,20a2.973,2.973,0,0,1,2.285.9,3.53,3.53,0,0,1,.838,2.5v.832H67.7a1.542,1.542,0,0,0,.5.908,1.492,1.492,0,0,0,1,.33,1.923,1.923,0,0,0,1.587-.711l.978,1.155a2.733,2.733,0,0,1-1.133.879A3.829,3.829,0,0,1,69.061,27.127Zm-.241-5.472q-.939,0-1.117,1.244h2.158v-.165a1.06,1.06,0,0,0-.26-.8A1.036,1.036,0,0,0,68.82,21.655Zm3.745,1.86a4.637,4.637,0,0,1,.343-1.841,2.759,2.759,0,0,1,.984-1.235A2.594,2.594,0,0,1,75.383,20a2.062,2.062,0,0,1,1.676.724l.076-.6h1.942V26.74a2.9,2.9,0,0,1-.422,1.577,2.709,2.709,0,0,1-1.222,1.028,4.491,4.491,0,0,1-1.854.359,3.875,3.875,0,0,1-1.463-.286,2.641,2.641,0,0,1-1.082-.743l.9-1.257a1.961,1.961,0,0,0,1.574.7,1.274,1.274,0,0,0,1.422-1.46v-.216a2.009,2.009,0,0,1-1.555.679,2.482,2.482,0,0,1-2.031-.962,3.984,3.984,0,0,1-.774-2.574Zm2.146.133a2.443,2.443,0,0,0,.317,1.336,1,1,0,0,0,.889.492,1.136,1.136,0,0,0,1.009-.463V22.125a1.108,1.108,0,0,0-1-.47,1.008,1.008,0,0,0-.9.511A2.786,2.786,0,0,0,74.71,23.648ZM84.162,27a2.415,2.415,0,0,1-.2-.616,1.989,1.989,0,0,1-1.65.743,2.437,2.437,0,0,1-1.65-.587,1.869,1.869,0,0,1-.679-1.476,1.921,1.921,0,0,1,.825-1.688,4.2,4.2,0,0,1,2.4-.571h.66v-.364q0-.95-.819-.95a.669.669,0,0,0-.762.753H80.144a1.918,1.918,0,0,1,.847-1.617A3.561,3.561,0,0,1,83.153,20a3.122,3.122,0,0,1,2.076.641,2.229,2.229,0,0,1,.781,1.758v3.041a3.114,3.114,0,0,0,.292,1.447V27Zm-1.339-1.4a1.193,1.193,0,0,0,.663-.171,1.074,1.074,0,0,0,.378-.387v-1.1h-.622q-1.117,0-1.117,1a.612.612,0,0,0,.2.473A.712.712,0,0,0,82.823,25.6Zm6.862-7.179v1.708h1.13v1.485h-1.13v3.142a.8.8,0,0,0,.14.54.749.749,0,0,0,.552.152,3.138,3.138,0,0,0,.533-.038v1.53a3.948,3.948,0,0,1-1.206.184,2.241,2.241,0,0,1-1.631-.521,2.133,2.133,0,0,1-.527-1.581V21.617h-.876V20.132h.876V18.424ZM93.912,27H91.767V20.132h2.146ZM91.64,18.361a.955.955,0,0,1,.33-.749,1.4,1.4,0,0,1,1.714,0,1.015,1.015,0,0,1,0,1.5,1.4,1.4,0,0,1-1.714,0A.955.955,0,0,1,91.64,18.361Zm6.329,6.094,1.085-4.323h2.253L99.066,27H96.883l-2.241-6.868H96.9ZM105.719,27a2.415,2.415,0,0,1-.2-.616,1.989,1.989,0,0,1-1.65.743,2.437,2.437,0,0,1-1.65-.587,1.869,1.869,0,0,1-.679-1.476,1.921,1.921,0,0,1,.825-1.688,4.2,4.2,0,0,1,2.4-.571h.66v-.364q0-.95-.819-.95a.669.669,0,0,0-.762.753H101.7a1.918,1.918,0,0,1,.847-1.617A3.561,3.561,0,0,1,104.709,20a3.122,3.122,0,0,1,2.076.641,2.229,2.229,0,0,1,.781,1.758v3.041a3.114,3.114,0,0,0,.292,1.447V27Zm-1.339-1.4a1.193,1.193,0,0,0,.663-.171,1.074,1.074,0,0,0,.378-.387v-1.1H104.8q-1.117,0-1.117,1a.612.612,0,0,0,.2.473A.712.712,0,0,0,104.379,25.6Z" transform="translate(1295.839 1066)" fill="#12263f"/>
        <path id="Trazado_606013" data-name="Trazado 606013" d="M2.5,0A2.5,2.5,0,1,1,0,2.5,2.5,2.5,0,0,1,2.5,0Z" transform="translate(1153.839 1088)" fill="#ee6c4d"/>
        <path id="Trazado_606014" data-name="Trazado 606014" d="M2.5,0A2.5,2.5,0,1,1,0,2.5,2.5,2.5,0,0,1,2.5,0Z" transform="translate(1078.839 1072)" fill="#ee6c4d"/>
        <g id="Grupo_83515" data-name="Grupo 83515" transform="translate(0.269)">
          <path id="Trazado_102023" data-name="Trazado 102023" d="M0,0H60.973L73.294,15.492" transform="translate(1082.07 1074.5)" fill="none" stroke="#ee6c4d" stroke-width="1"/>
          <path id="Trazado_102024" data-name="Trazado 102024" d="M0,0" transform="translate(1137.07 1074.5)" fill="none" stroke="#ee6c4d" stroke-width="1"/>
        </g>
        <g id="Grupo_83516" data-name="Grupo 83516" transform="translate(222.269 37)">
          <path id="Trazado_102025" data-name="Trazado 102025" d="M-86.3,71.184,0,39.875V0" transform="translate(1133.07 1064.5)" fill="none" stroke="#ee6c4d" stroke-width="1"/>
        </g>
        <g id="Grupo_83517" data-name="Grupo 83517" transform="translate(222.269 92.5)">
          <path id="Trazado_102026" data-name="Trazado 102026" d="M30.455,48.66V13.875L0,0" transform="translate(1058.07 1102)" fill="none" stroke="#ee6c4d" stroke-width="1"/>
        </g>
        <path id="Trazado_606015" data-name="Trazado 606015" d="M2.5,0A2.5,2.5,0,1,1,0,2.5,2.5,2.5,0,0,1,2.5,0Z" transform="translate(1265.839 1170)" fill="#ee6c4d"/>
        <path id="Trazado_606016" data-name="Trazado 606016" d="M2.5,0A2.5,2.5,0,1,1,0,2.5,2.5,2.5,0,0,1,2.5,0Z" transform="translate(1352.839 1099)" fill="#ee6c4d"/>
        <path id="Trazado_606017" data-name="Trazado 606017" d="M2.5,0A2.5,2.5,0,1,1,0,2.5,2.5,2.5,0,0,1,2.5,0Z" transform="translate(1307.839 1241)" fill="#ee6c4d"/>
        <path id="Trazado_606018" data-name="Trazado 606018" d="M2.5,0A2.5,2.5,0,1,1,0,2.5,2.5,2.5,0,0,1,2.5,0Z" transform="translate(1277.839 1192)" fill="#ee6c4d"/>
      </g>
    </g>
  </g>
</svg>
