<svg xmlns="http://www.w3.org/2000/svg" width="609" height="362" viewBox="0 0 609 362">
  <g id="Grupo_84271" data-name="Grupo 84271" transform="translate(-809.855 -957.652)">
    <rect id="Rectángulo_31422" data-name="Rectángulo 31422" width="609" height="362" transform="translate(809.855 957.652)" fill="#f3effb"/>
    <g id="Grupo_84234" data-name="Grupo 84234" transform="translate(919.855 984.653)">
      <g id="Grupo_84233" data-name="Grupo 84233" transform="translate(33.173 39.924)">
        <path id="Trazado_102472" data-name="Trazado 102472" d="M847,480.038h311.659V435" transform="translate(-847 -265.149)" fill="none" stroke="#ee6c4d" stroke-linecap="round" stroke-linejoin="round" stroke-width="2"/>
        <path id="Trazado_102473" data-name="Trazado 102473" d="M847,518.517h355.8V378H1059.577L961.4,430.243" transform="translate(-847 -259.491)" fill="none" stroke="#afafaf" stroke-linecap="round" stroke-linejoin="round" stroke-width="2"/>
        <line id="Línea_184" data-name="Línea 184" x2="114.988" transform="translate(0 170.666)" fill="none" stroke="#265d99" stroke-linecap="round" stroke-linejoin="round" stroke-width="2"/>
        <path id="Trazado_102479" data-name="Trazado 102479" d="M0,0H209.4" transform="translate(2.421 13.314)" fill="none" stroke="#76c2dd" stroke-linecap="round" stroke-width="2"/>
        <line id="Línea_186" data-name="Línea 186" y2="144.12" transform="translate(50.784 19.426)" fill="none" stroke="#afafaf" stroke-linecap="round" stroke-linejoin="round" stroke-width="2"/>
        <path id="Trazado_102474" data-name="Trazado 102474" d="M899.62,269.992h6.774l-3.387-4.61Z" transform="translate(-852.223 -248.314)" fill="#afafaf" stroke="#afafaf" stroke-linecap="round" stroke-linejoin="round" stroke-width="2"/>
        <path id="Trazado_102475" data-name="Trazado 102475" d="M906.394,427.5H899.62l3.387,4.61Z" transform="translate(-852.223 -264.404)" fill="#afafaf" stroke="#afafaf" stroke-linecap="round" stroke-linejoin="round" stroke-width="2"/>
        <path id="Trazado_102480" data-name="Trazado 102480" d="M12.709,0A12.709,12.709,0,1,1,0,12.709,12.709,12.709,0,0,1,12.709,0Z" transform="translate(85.938 0)" fill="#f3f9ff" stroke="#afafaf" stroke-linecap="round" stroke-width="2"/>
        <circle id="Elipse_4132" data-name="Elipse 4132" cx="12.61" cy="12.61" r="12.61" transform="translate(38.282 79.326)" fill="#f3f9ff" stroke="#afafaf" stroke-linecap="round" stroke-linejoin="round" stroke-width="2"/>
        <line id="Línea_187" data-name="Línea 187" x1="98.042" y1="50.837" transform="translate(213.031 118.619)" fill="none" stroke="#afafaf" stroke-linecap="round" stroke-linejoin="round" stroke-width="2"/>
        <line id="Línea_188" data-name="Línea 188" y2="105.305" transform="translate(213.031 13.314)" fill="none" stroke="#afafaf" stroke-linecap="round" stroke-linejoin="round" stroke-width="2"/>
        <rect id="Rectángulo_31870" data-name="Rectángulo 31870" width="44.785" height="12.104" transform="translate(205.768 91.99) rotate(-90)" fill="#f3f9ff" stroke="#afafaf" stroke-linecap="round" stroke-linejoin="round" stroke-width="2"/>
        <rect id="Rectángulo_31871" data-name="Rectángulo 31871" width="45.037" height="11.71" transform="translate(143.493 148.857) rotate(-27.304)" fill="#f3f9ff" stroke="#afafaf" stroke-linecap="round" stroke-linejoin="round" stroke-width="2"/>
        <rect id="Rectángulo_31872" data-name="Rectángulo 31872" width="45.037" height="11.71" transform="translate(278.991 159.262) rotate(-152.696)" fill="#f3f9ff" stroke="#afafaf" stroke-linecap="round" stroke-linejoin="round" stroke-width="2"/>
        <path id="Trazado_102476" data-name="Trazado 102476" d="M1099.008,395,1090,409.412l63.052,34.229,9.908-16.214" transform="translate(-871.118 -261.178)" fill="none" stroke="#afafaf" stroke-linecap="round" stroke-linejoin="round" stroke-width="2"/>
        <circle id="Elipse_4133" data-name="Elipse 4133" cx="12.709" cy="12.709" r="12.709" transform="translate(233.607 154.931)" fill="#f3f9ff" stroke="#afafaf" stroke-linecap="round" stroke-linejoin="round" stroke-width="2"/>
        <path id="Trazado_102477" data-name="Trazado 102477" d="M1095.936,393.77l6.02,3.107-.9-5.65Z" transform="translate(-871.707 -260.804)" fill="#afafaf" stroke="#afafaf" stroke-linecap="round" stroke-linejoin="round" stroke-width="2"/>
        <path id="Trazado_102478" data-name="Trazado 102478" d="M1166.936,430.77l6.02,3.107-.9-5.65Z" transform="translate(-878.754 -264.476)" fill="#afafaf" stroke="#afafaf" stroke-linecap="round" stroke-linejoin="round" stroke-width="2"/>
      </g>
      <path id="Trazado_606028" data-name="Trazado 606028" d="M9.711,9.067A3.4,3.4,0,0,1,8.628,11.33a3.547,3.547,0,0,1-2.422.8,3.257,3.257,0,0,1-2.625-1.174,4.724,4.724,0,0,1-.987-3.142V6.922a5.266,5.266,0,0,1,.46-2.266,3.438,3.438,0,0,1,1.3-1.5,3.632,3.632,0,0,1,1.955-.524,3.34,3.34,0,0,1,2.361.822A3.441,3.441,0,0,1,9.711,5.729H8.486a2.655,2.655,0,0,0-.689-1.6,2.084,2.084,0,0,0-1.482-.5,2.181,2.181,0,0,0-1.831.864A3.966,3.966,0,0,0,3.82,6.95v.9a4.077,4.077,0,0,0,.628,2.4,2.031,2.031,0,0,0,1.758.889,2.345,2.345,0,0,0,1.558-.46,2.554,2.554,0,0,0,.72-1.6ZM10.879,8.5a4.057,4.057,0,0,1,.4-1.815,2.96,2.96,0,0,1,1.1-1.244A3.007,3.007,0,0,1,14,5a2.9,2.9,0,0,1,2.269.971,3.736,3.736,0,0,1,.866,2.583v.083a4.092,4.092,0,0,1-.384,1.8,2.916,2.916,0,0,1-1.1,1.241,3.041,3.041,0,0,1-1.641.444,2.889,2.889,0,0,1-2.263-.971,3.718,3.718,0,0,1-.866-2.571Zm1.181.14a2.938,2.938,0,0,0,.53,1.834,1.8,1.8,0,0,0,2.841-.01A3.213,3.213,0,0,0,15.957,8.5a2.933,2.933,0,0,0-.536-1.831A1.705,1.705,0,0,0,14,5.97a1.686,1.686,0,0,0-1.4.692A3.189,3.189,0,0,0,12.059,8.642Zm9.864-2.457a3.519,3.519,0,0,0-.578-.044,1.547,1.547,0,0,0-1.568.984V12H18.6V5.132h1.143l.019.793A1.829,1.829,0,0,1,21.4,5a1.2,1.2,0,0,1,.521.089Zm4.4,0a3.519,3.519,0,0,0-.578-.044,1.547,1.547,0,0,0-1.568.984V12H23V5.132h1.143l.019.793A1.829,1.829,0,0,1,25.8,5a1.2,1.2,0,0,1,.521.089ZM28.677,12H27.5V5.132h1.174Zm-1.27-8.69a.7.7,0,0,1,.175-.482.655.655,0,0,1,.517-.2.666.666,0,0,1,.521.2.694.694,0,0,1,.178.482.671.671,0,0,1-.178.476.678.678,0,0,1-.521.19.667.667,0,0,1-.517-.19A.678.678,0,0,1,27.408,3.31Zm6,8.817a3,3,0,0,1-2.272-.917,3.4,3.4,0,0,1-.876-2.453V8.541a4.121,4.121,0,0,1,.39-1.825A3.045,3.045,0,0,1,31.74,5.459,2.745,2.745,0,0,1,33.26,5a2.572,2.572,0,0,1,2.082.882,3.82,3.82,0,0,1,.743,2.526V8.9H31.432a2.441,2.441,0,0,0,.594,1.641,1.866,1.866,0,0,0,1.444.625,2.045,2.045,0,0,0,1.054-.254,2.648,2.648,0,0,0,.755-.673L36,10.8A2.884,2.884,0,0,1,33.406,12.127ZM33.26,5.97a1.566,1.566,0,0,0-1.193.517,2.515,2.515,0,0,0-.6,1.45h3.44V7.849a2.237,2.237,0,0,0-.482-1.387A1.475,1.475,0,0,0,33.26,5.97Zm5.294-.838L38.592,6A2.5,2.5,0,0,1,40.649,5q2.177,0,2.2,2.457V12H41.671V7.455a1.581,1.581,0,0,0-.34-1.1A1.361,1.361,0,0,0,40.294,6a1.7,1.7,0,0,0-1,.3,2.069,2.069,0,0,0-.673.8V12H37.444V5.132ZM46.21,3.469V5.132h1.282V6.04H46.21V10.3a.953.953,0,0,0,.171.62.721.721,0,0,0,.584.207,2.843,2.843,0,0,0,.559-.076V12a3.424,3.424,0,0,1-.9.126,1.462,1.462,0,0,1-1.187-.476,2.045,2.045,0,0,1-.4-1.352V6.04h-1.25V5.132h1.25V3.469Zm5.5,8.658a3,3,0,0,1-2.272-.917,3.4,3.4,0,0,1-.876-2.453V8.541a4.121,4.121,0,0,1,.39-1.825,3.045,3.045,0,0,1,1.092-1.257A2.745,2.745,0,0,1,51.567,5a2.572,2.572,0,0,1,2.082.882,3.82,3.82,0,0,1,.743,2.526V8.9H49.739a2.441,2.441,0,0,0,.594,1.641,1.866,1.866,0,0,0,1.444.625,2.045,2.045,0,0,0,1.054-.254,2.648,2.648,0,0,0,.755-.673l.717.559A2.884,2.884,0,0,1,51.713,12.127ZM51.567,5.97a1.566,1.566,0,0,0-1.193.517,2.515,2.515,0,0,0-.6,1.45h3.44V7.849a2.237,2.237,0,0,0-.482-1.387A1.475,1.475,0,0,0,51.567,5.97Zm7.116,2.539a4.023,4.023,0,0,1,.749-2.542A2.548,2.548,0,0,1,63.3,5.83V2.25h1.174V12H63.4l-.057-.736a2.391,2.391,0,0,1-1.961.863,2.346,2.346,0,0,1-1.946-.978A4.069,4.069,0,0,1,58.683,8.6Zm1.174.133a3.046,3.046,0,0,0,.482,1.828,1.56,1.56,0,0,0,1.333.66,1.713,1.713,0,0,0,1.631-1V6.973A1.726,1.726,0,0,0,61.685,6a1.567,1.567,0,0,0-1.346.667A3.354,3.354,0,0,0,59.857,8.642Zm9.293,3.485a3,3,0,0,1-2.272-.917A3.4,3.4,0,0,1,66,8.756V8.541a4.121,4.121,0,0,1,.39-1.825,3.045,3.045,0,0,1,1.092-1.257A2.745,2.745,0,0,1,69,5a2.572,2.572,0,0,1,2.082.882,3.82,3.82,0,0,1,.743,2.526V8.9H67.176a2.441,2.441,0,0,0,.594,1.641,1.866,1.866,0,0,0,1.444.625,2.045,2.045,0,0,0,1.054-.254,2.648,2.648,0,0,0,.755-.673l.717.559A2.884,2.884,0,0,1,69.15,12.127ZM69,5.97a1.566,1.566,0,0,0-1.193.517,2.515,2.515,0,0,0-.6,1.45h3.44V7.849a2.237,2.237,0,0,0-.482-1.387A1.475,1.475,0,0,0,69,5.97ZM25.485,27H24.31V17.25h1.174Zm3.155,0H27.459V20.132h1.181Zm.013-9.744h1.422l-1.7,1.866-.946,0Zm3.034,2.875.038.863A2.5,2.5,0,0,1,33.781,20q2.177,0,2.2,2.457V27H34.8V22.455a1.581,1.581,0,0,0-.34-1.1A1.361,1.361,0,0,0,33.425,21a1.7,1.7,0,0,0-1,.3,2.069,2.069,0,0,0-.673.8V27H30.575V20.132Zm8.912,7a3,3,0,0,1-2.272-.917,3.4,3.4,0,0,1-.876-2.453v-.216a4.121,4.121,0,0,1,.39-1.825,3.045,3.045,0,0,1,1.092-1.257A2.745,2.745,0,0,1,40.452,20a2.572,2.572,0,0,1,2.082.882,3.82,3.82,0,0,1,.743,2.526V23.9H38.624a2.441,2.441,0,0,0,.594,1.641,1.866,1.866,0,0,0,1.444.625,2.045,2.045,0,0,0,1.054-.254,2.648,2.648,0,0,0,.755-.673l.717.559A2.884,2.884,0,0,1,40.6,27.127Zm-.146-6.157a1.566,1.566,0,0,0-1.193.517,2.515,2.515,0,0,0-.6,1.45H42.1v-.089a2.237,2.237,0,0,0-.482-1.387A1.475,1.475,0,0,0,40.452,20.97ZM48.876,27a2.467,2.467,0,0,1-.165-.724,2.62,2.62,0,0,1-1.955.851,2.424,2.424,0,0,1-1.666-.574,1.859,1.859,0,0,1-.651-1.457,1.942,1.942,0,0,1,.816-1.666,3.846,3.846,0,0,1,2.295-.594h1.143V22.3a1.319,1.319,0,0,0-.368-.981,1.48,1.48,0,0,0-1.085-.365,1.712,1.712,0,0,0-1.054.317.935.935,0,0,0-.425.768H44.578a1.621,1.621,0,0,1,.365-.993,2.491,2.491,0,0,1,.99-.759A3.331,3.331,0,0,1,47.308,20a2.715,2.715,0,0,1,1.86.594,2.141,2.141,0,0,1,.7,1.635v3.161a3.865,3.865,0,0,0,.241,1.5V27Zm-1.949-.9a2.064,2.064,0,0,0,1.047-.286,1.728,1.728,0,0,0,.717-.743V23.667h-.92q-2.158,0-2.158,1.263a1.069,1.069,0,0,0,.368.863A1.415,1.415,0,0,0,46.927,26.1Z" transform="translate(94.691)" fill="#12263f"/>
      <path id="Trazado_606029" data-name="Trazado 606029" d="M8.485,10.381l2.641-7.624h1.333L9.031,12H7.952L4.531,2.758H5.857ZM12.91,8.5a4.057,4.057,0,0,1,.4-1.815,2.96,2.96,0,0,1,1.1-1.244A3.007,3.007,0,0,1,16.026,5a2.9,2.9,0,0,1,2.269.971,3.736,3.736,0,0,1,.866,2.583v.083a4.092,4.092,0,0,1-.384,1.8,2.916,2.916,0,0,1-1.1,1.241,3.041,3.041,0,0,1-1.641.444,2.889,2.889,0,0,1-2.263-.971,3.718,3.718,0,0,1-.866-2.571Zm1.181.14a2.938,2.938,0,0,0,.53,1.834,1.8,1.8,0,0,0,2.841-.01A3.213,3.213,0,0,0,17.988,8.5a2.933,2.933,0,0,0-.536-1.831,1.705,1.705,0,0,0-1.425-.7,1.686,1.686,0,0,0-1.4.692A3.189,3.189,0,0,0,14.09,8.642ZM21.911,12H20.736V2.25h1.174Zm3.472-8.531V5.132h1.282V6.04H25.383V10.3a.953.953,0,0,0,.171.62.721.721,0,0,0,.584.207,2.843,2.843,0,0,0,.559-.076V12a3.424,3.424,0,0,1-.9.126,1.462,1.462,0,0,1-1.187-.476,2.045,2.045,0,0,1-.4-1.352V6.04h-1.25V5.132h1.25V3.469ZM32.276,12a2.467,2.467,0,0,1-.165-.724,2.62,2.62,0,0,1-1.955.851,2.424,2.424,0,0,1-1.666-.574,1.859,1.859,0,0,1-.651-1.457,1.942,1.942,0,0,1,.816-1.666,3.846,3.846,0,0,1,2.295-.594h1.143V7.3a1.319,1.319,0,0,0-.368-.981,1.48,1.48,0,0,0-1.085-.365,1.712,1.712,0,0,0-1.054.317.935.935,0,0,0-.425.768H27.979a1.621,1.621,0,0,1,.365-.993,2.491,2.491,0,0,1,.99-.759A3.331,3.331,0,0,1,30.708,5a2.715,2.715,0,0,1,1.86.594,2.141,2.141,0,0,1,.7,1.635v3.161a3.865,3.865,0,0,0,.241,1.5V12Zm-1.949-.9a2.064,2.064,0,0,0,1.047-.286,1.728,1.728,0,0,0,.717-.743V8.667h-.92q-2.158,0-2.158,1.263a1.069,1.069,0,0,0,.368.863A1.415,1.415,0,0,0,30.328,11.1ZM36.32,5.132v7.662q0,1.98-1.8,1.98a2.191,2.191,0,0,1-.717-.114v-.934a2.27,2.27,0,0,0,.533.051.8.8,0,0,0,.6-.213,1.052,1.052,0,0,0,.206-.74V5.132ZM35.025,3.31a.7.7,0,0,1,.175-.479.642.642,0,0,1,.511-.2.666.666,0,0,1,.521.2.694.694,0,0,1,.178.482.671.671,0,0,1-.178.476.678.678,0,0,1-.521.19.657.657,0,0,1-.514-.19A.685.685,0,0,1,35.025,3.31Zm6.037,8.817a3,3,0,0,1-2.272-.917,3.4,3.4,0,0,1-.876-2.453V8.541a4.121,4.121,0,0,1,.39-1.825A3.045,3.045,0,0,1,39.4,5.459,2.745,2.745,0,0,1,40.916,5,2.572,2.572,0,0,1,43,5.887a3.82,3.82,0,0,1,.743,2.526V8.9H39.087a2.441,2.441,0,0,0,.594,1.641,1.866,1.866,0,0,0,1.444.625,2.045,2.045,0,0,0,1.054-.254,2.648,2.648,0,0,0,.755-.673l.717.559A2.884,2.884,0,0,1,41.062,12.127ZM40.916,5.97a1.566,1.566,0,0,0-1.193.517,2.515,2.515,0,0,0-.6,1.45h3.44V7.849a2.237,2.237,0,0,0-.482-1.387A1.475,1.475,0,0,0,40.916,5.97Zm7.116,2.539a4.023,4.023,0,0,1,.749-2.542,2.548,2.548,0,0,1,3.872-.136V2.25h1.174V12H52.748l-.057-.736a2.391,2.391,0,0,1-1.961.863,2.346,2.346,0,0,1-1.946-.978A4.069,4.069,0,0,1,48.031,8.6Zm1.174.133a3.046,3.046,0,0,0,.482,1.828,1.56,1.56,0,0,0,1.333.66,1.713,1.713,0,0,0,1.631-1V6.973A1.726,1.726,0,0,0,51.034,6a1.567,1.567,0,0,0-1.346.667A3.354,3.354,0,0,0,49.206,8.642ZM58.5,12.127a3,3,0,0,1-2.272-.917,3.4,3.4,0,0,1-.876-2.453V8.541a4.121,4.121,0,0,1,.39-1.825,3.045,3.045,0,0,1,1.092-1.257A2.745,2.745,0,0,1,58.353,5a2.572,2.572,0,0,1,2.082.882,3.82,3.82,0,0,1,.743,2.526V8.9H56.524a2.441,2.441,0,0,0,.594,1.641,1.866,1.866,0,0,0,1.444.625,2.045,2.045,0,0,0,1.054-.254,2.648,2.648,0,0,0,.755-.673l.717.559A2.884,2.884,0,0,1,58.5,12.127ZM58.353,5.97a1.566,1.566,0,0,0-1.193.517,2.515,2.515,0,0,0-.6,1.45H60V7.849a2.237,2.237,0,0,0-.482-1.387A1.475,1.475,0,0,0,58.353,5.97ZM21.416,27H20.241V17.25h1.174Zm3.155,0H23.39V20.132H24.57Zm.013-9.744H26l-1.7,1.866-.946,0Zm3.034,2.875.038.863A2.5,2.5,0,0,1,29.712,20q2.177,0,2.2,2.457V27H30.734V22.455a1.581,1.581,0,0,0-.34-1.1A1.361,1.361,0,0,0,29.356,21a1.7,1.7,0,0,0-1,.3,2.069,2.069,0,0,0-.673.8V27H26.506V20.132Zm8.912,7a3,3,0,0,1-2.272-.917,3.4,3.4,0,0,1-.876-2.453v-.216a4.121,4.121,0,0,1,.39-1.825,3.045,3.045,0,0,1,1.092-1.257A2.745,2.745,0,0,1,36.383,20a2.572,2.572,0,0,1,2.082.882,3.82,3.82,0,0,1,.743,2.526V23.9H34.555a2.441,2.441,0,0,0,.594,1.641,1.866,1.866,0,0,0,1.444.625,2.045,2.045,0,0,0,1.054-.254,2.648,2.648,0,0,0,.755-.673l.717.559A2.884,2.884,0,0,1,36.529,27.127Zm-.146-6.157a1.566,1.566,0,0,0-1.193.517,2.515,2.515,0,0,0-.6,1.45h3.44v-.089a2.237,2.237,0,0,0-.482-1.387A1.475,1.475,0,0,0,36.383,20.97ZM44.807,27a2.467,2.467,0,0,1-.165-.724,2.62,2.62,0,0,1-1.955.851,2.424,2.424,0,0,1-1.666-.574A1.859,1.859,0,0,1,40.37,25.1a1.942,1.942,0,0,1,.816-1.666,3.846,3.846,0,0,1,2.295-.594h1.143V22.3a1.319,1.319,0,0,0-.368-.981,1.48,1.48,0,0,0-1.085-.365,1.712,1.712,0,0,0-1.054.317.935.935,0,0,0-.425.768H40.509a1.621,1.621,0,0,1,.365-.993,2.491,2.491,0,0,1,.99-.759A3.331,3.331,0,0,1,43.239,20a2.715,2.715,0,0,1,1.86.594,2.141,2.141,0,0,1,.7,1.635v3.161a3.865,3.865,0,0,0,.241,1.5V27Zm-1.949-.9a2.064,2.064,0,0,0,1.047-.286,1.728,1.728,0,0,0,.717-.743V23.667H43.7q-2.158,0-2.158,1.263a1.069,1.069,0,0,0,.368.863A1.415,1.415,0,0,0,42.858,26.1Z" transform="translate(0.23 112.668)" fill="#12263f"/>
      <path id="Trazado_606030" data-name="Trazado 606030" d="M8.054,10.381l2.641-7.624h1.333L8.6,12H7.521L4.1,2.758H5.426ZM12.479,8.5a4.057,4.057,0,0,1,.4-1.815,2.96,2.96,0,0,1,1.1-1.244A3.007,3.007,0,0,1,15.6,5a2.9,2.9,0,0,1,2.269.971,3.736,3.736,0,0,1,.866,2.583v.083a4.092,4.092,0,0,1-.384,1.8,2.916,2.916,0,0,1-1.1,1.241,3.041,3.041,0,0,1-1.641.444,2.889,2.889,0,0,1-2.263-.971,3.718,3.718,0,0,1-.866-2.571Zm1.181.14a2.938,2.938,0,0,0,.53,1.834,1.8,1.8,0,0,0,2.841-.01A3.213,3.213,0,0,0,17.557,8.5a2.933,2.933,0,0,0-.536-1.831,1.705,1.705,0,0,0-1.425-.7,1.686,1.686,0,0,0-1.4.692A3.189,3.189,0,0,0,13.659,8.642ZM21.48,12H20.305V2.25H21.48Zm3.472-8.531V5.132h1.282V6.04H24.952V10.3a.953.953,0,0,0,.171.62.721.721,0,0,0,.584.207,2.843,2.843,0,0,0,.559-.076V12a3.424,3.424,0,0,1-.9.126,1.462,1.462,0,0,1-1.187-.476,2.045,2.045,0,0,1-.4-1.352V6.04h-1.25V5.132h1.25V3.469ZM31.845,12a2.467,2.467,0,0,1-.165-.724,2.62,2.62,0,0,1-1.955.851,2.424,2.424,0,0,1-1.666-.574,1.859,1.859,0,0,1-.651-1.457,1.942,1.942,0,0,1,.816-1.666,3.846,3.846,0,0,1,2.295-.594h1.143V7.3a1.319,1.319,0,0,0-.368-.981,1.48,1.48,0,0,0-1.085-.365,1.712,1.712,0,0,0-1.054.317.935.935,0,0,0-.425.768H27.548a1.621,1.621,0,0,1,.365-.993,2.491,2.491,0,0,1,.99-.759A3.331,3.331,0,0,1,30.278,5a2.715,2.715,0,0,1,1.86.594,2.141,2.141,0,0,1,.7,1.635v3.161a3.865,3.865,0,0,0,.241,1.5V12ZM29.9,11.1a2.064,2.064,0,0,0,1.047-.286,1.728,1.728,0,0,0,.717-.743V8.667h-.92q-2.158,0-2.158,1.263a1.069,1.069,0,0,0,.368.863A1.415,1.415,0,0,0,29.9,11.1Zm5.992-5.973v7.662q0,1.98-1.8,1.98a2.191,2.191,0,0,1-.717-.114v-.934a2.27,2.27,0,0,0,.533.051.8.8,0,0,0,.6-.213,1.052,1.052,0,0,0,.206-.74V5.132ZM34.594,3.31a.7.7,0,0,1,.175-.479.642.642,0,0,1,.511-.2.666.666,0,0,1,.521.2.694.694,0,0,1,.178.482.671.671,0,0,1-.178.476.678.678,0,0,1-.521.19.657.657,0,0,1-.514-.19A.685.685,0,0,1,34.594,3.31Zm6.037,8.817a3,3,0,0,1-2.272-.917,3.4,3.4,0,0,1-.876-2.453V8.541a4.121,4.121,0,0,1,.39-1.825,3.045,3.045,0,0,1,1.092-1.257A2.745,2.745,0,0,1,40.485,5a2.572,2.572,0,0,1,2.082.882,3.82,3.82,0,0,1,.743,2.526V8.9H38.656a2.441,2.441,0,0,0,.594,1.641,1.866,1.866,0,0,0,1.444.625,2.045,2.045,0,0,0,1.054-.254,2.648,2.648,0,0,0,.755-.673l.717.559A2.884,2.884,0,0,1,40.631,12.127ZM40.485,5.97a1.566,1.566,0,0,0-1.193.517,2.515,2.515,0,0,0-.6,1.45h3.44V7.849a2.237,2.237,0,0,0-.482-1.387A1.475,1.475,0,0,0,40.485,5.97ZM47.6,8.509a4.023,4.023,0,0,1,.749-2.542,2.548,2.548,0,0,1,3.872-.136V2.25H53.4V12H52.317l-.057-.736a2.391,2.391,0,0,1-1.961.863,2.346,2.346,0,0,1-1.946-.978A4.069,4.069,0,0,1,47.6,8.6Zm1.174.133a3.046,3.046,0,0,0,.482,1.828,1.56,1.56,0,0,0,1.333.66,1.713,1.713,0,0,0,1.631-1V6.973A1.726,1.726,0,0,0,50.6,6a1.567,1.567,0,0,0-1.346.667A3.354,3.354,0,0,0,48.775,8.642Zm9.293,3.485A3,3,0,0,1,55.8,11.21a3.4,3.4,0,0,1-.876-2.453V8.541a4.121,4.121,0,0,1,.39-1.825A3.045,3.045,0,0,1,56.4,5.459,2.745,2.745,0,0,1,57.922,5,2.572,2.572,0,0,1,60,5.887a3.82,3.82,0,0,1,.743,2.526V8.9H56.093a2.441,2.441,0,0,0,.594,1.641,1.866,1.866,0,0,0,1.444.625,2.045,2.045,0,0,0,1.054-.254,2.648,2.648,0,0,0,.755-.673l.717.559A2.884,2.884,0,0,1,58.068,12.127ZM57.922,5.97a1.566,1.566,0,0,0-1.193.517,2.515,2.515,0,0,0-.6,1.45h3.44V7.849a2.237,2.237,0,0,0-.482-1.387A1.475,1.475,0,0,0,57.922,5.97ZM21.448,27V21.04H20.362v-.908h1.085v-.7a2.339,2.339,0,0,1,.59-1.708,2.23,2.23,0,0,1,1.669-.6,3.1,3.1,0,0,1,.806.107l-.063.946a3.373,3.373,0,0,0-.635-.057,1.146,1.146,0,0,0-.882.334,1.356,1.356,0,0,0-.311.958v.726h1.466v.908H22.622V27Zm8.176,0a2.467,2.467,0,0,1-.165-.724,2.62,2.62,0,0,1-1.955.851,2.424,2.424,0,0,1-1.666-.574,1.859,1.859,0,0,1-.651-1.457A1.942,1.942,0,0,1,26,23.429a3.846,3.846,0,0,1,2.295-.594H29.44V22.3a1.319,1.319,0,0,0-.368-.981,1.48,1.48,0,0,0-1.085-.365,1.712,1.712,0,0,0-1.054.317.935.935,0,0,0-.425.768H25.326a1.621,1.621,0,0,1,.365-.993,2.491,2.491,0,0,1,.99-.759A3.331,3.331,0,0,1,28.056,20a2.715,2.715,0,0,1,1.86.594,2.141,2.141,0,0,1,.7,1.635v3.161a3.865,3.865,0,0,0,.241,1.5V27Zm-1.949-.9a2.064,2.064,0,0,0,1.047-.286,1.728,1.728,0,0,0,.717-.743V23.667h-.92q-2.158,0-2.158,1.263a1.069,1.069,0,0,0,.368.863A1.415,1.415,0,0,0,27.675,26.1Zm8.779-.927a.865.865,0,0,0-.359-.74,3.452,3.452,0,0,0-1.25-.454,5.912,5.912,0,0,1-1.416-.457,2.014,2.014,0,0,1-.774-.635,1.518,1.518,0,0,1-.251-.876,1.782,1.782,0,0,1,.714-1.428A2.789,2.789,0,0,1,34.943,20a2.87,2.87,0,0,1,1.895.6,1.915,1.915,0,0,1,.727,1.542H36.384a1.06,1.06,0,0,0-.409-.832,1.534,1.534,0,0,0-1.031-.349,1.606,1.606,0,0,0-1,.279.879.879,0,0,0-.362.73.712.712,0,0,0,.336.641,4.139,4.139,0,0,0,1.216.413,6.334,6.334,0,0,1,1.425.47,2.079,2.079,0,0,1,.809.657,1.615,1.615,0,0,1,.263.936,1.758,1.758,0,0,1-.736,1.476,3.089,3.089,0,0,1-1.911.555,3.459,3.459,0,0,1-1.46-.292,2.375,2.375,0,0,1-.993-.816,1.966,1.966,0,0,1-.359-1.133h1.174a1.216,1.216,0,0,0,.473.936,1.835,1.835,0,0,0,1.165.346,1.894,1.894,0,0,0,1.07-.27A.829.829,0,0,0,36.454,25.178Zm5.554,1.949a3,3,0,0,1-2.272-.917,3.4,3.4,0,0,1-.876-2.453v-.216a4.121,4.121,0,0,1,.39-1.825,3.045,3.045,0,0,1,1.092-1.257A2.745,2.745,0,0,1,41.862,20a2.572,2.572,0,0,1,2.082.882,3.82,3.82,0,0,1,.743,2.526V23.9H40.034a2.441,2.441,0,0,0,.594,1.641,1.866,1.866,0,0,0,1.444.625,2.045,2.045,0,0,0,1.054-.254,2.648,2.648,0,0,0,.755-.673l.717.559A2.884,2.884,0,0,1,42.008,27.127Zm-.146-6.157a1.566,1.566,0,0,0-1.193.517,2.515,2.515,0,0,0-.6,1.45h3.44v-.089a2.237,2.237,0,0,0-.482-1.387A1.475,1.475,0,0,0,41.862,20.97Z" transform="translate(191.192 200.239)" fill="#12263f"/>
      <path id="Trazado_606031" data-name="Trazado 606031" d="M2.312-2.637H-2.312L-3.19,0h-2.8L-1.23-12.8H1.213L6,0H3.2ZM-1.6-4.772H1.6L-.009-9.562Z" transform="translate(132.054 57.41)" fill="#12263f"/>
      <path id="Trazado_606032" data-name="Trazado 606032" d="M-.013-3.173l2.9-9.624H5.823L1.367,0H-1.384L-5.823-12.8H-2.9Z" transform="translate(83.804 138.229)" fill="#12263f"/>
      <path id="Trazado_606033" data-name="Trazado 606033" d="M-.013-3.173l2.9-9.624H5.823L1.367,0H-1.384L-5.823-12.8H-2.9Z" transform="translate(279.218 214.223)" fill="#12263f"/>
      <path id="Trazado_606034" data-name="Trazado 606034" d="M-6.258-2.118h5.6V0H-8.895V-12.8h2.637ZM6.75,0H4.21V-9.791l-3.032.94v-2.065l5.3-1.9H6.75Z" transform="translate(10 57.41)" fill="#12263f"/>
      <path id="Trazado_606035" data-name="Trazado 606035" d="M-6.258-2.118h5.6V0H-8.895V-12.8h2.637ZM9.352,0H.58V-1.74L4.72-6.152A10.212,10.212,0,0,0,5.981-7.778,2.612,2.612,0,0,0,6.39-9.1a1.955,1.955,0,0,0-.431-1.34,1.555,1.555,0,0,0-1.23-.488,1.677,1.677,0,0,0-1.358.593,2.35,2.35,0,0,0-.5,1.56H.325a4.2,4.2,0,0,1,.558-2.136,3.934,3.934,0,0,1,1.578-1.516,4.8,4.8,0,0,1,2.312-.549,4.54,4.54,0,0,1,3.072.949A3.358,3.358,0,0,1,8.938-9.343a4.3,4.3,0,0,1-.492,1.934A10.745,10.745,0,0,1,6.759-5.115L3.85-2.048h5.5Z" transform="translate(10 214.223)" fill="#12263f"/>
      <path id="Trazado_606036" data-name="Trazado 606036" d="M-6.258-2.118h5.6V0H-8.895V-12.8h2.637ZM3.164-7.523H4.518A1.907,1.907,0,0,0,5.95-8.007,1.771,1.771,0,0,0,6.416-9.29a1.566,1.566,0,0,0-.461-1.2,1.788,1.788,0,0,0-1.27-.431,1.874,1.874,0,0,0-1.222.4,1.279,1.279,0,0,0-.492,1.042H.431a3.124,3.124,0,0,1,.541-1.8,3.6,3.6,0,0,1,1.512-1.244,5.045,5.045,0,0,1,2.14-.448A4.785,4.785,0,0,1,7.8-12,3.314,3.314,0,0,1,8.956-9.325,2.693,2.693,0,0,1,8.42-7.708,3.483,3.483,0,0,1,7.014-6.574a3.18,3.18,0,0,1,1.613,1.16,3.147,3.147,0,0,1,.532,1.828A3.369,3.369,0,0,1,7.915-.853,5,5,0,0,1,4.623.176,4.741,4.741,0,0,1,1.49-.835,3.3,3.3,0,0,1,.272-3.507h2.54a1.472,1.472,0,0,0,.541,1.178,1.992,1.992,0,0,0,1.332.457A2,2,0,0,0,6.1-2.351a1.654,1.654,0,0,0,.514-1.27q0-1.916-2.109-1.916H3.164Z" transform="translate(10 260.061)" fill="#12263f"/>
      <path id="Trazado_606037" data-name="Trazado 606037" d="M5.194,0H2.558L-2.575-8.42V0H-5.212V-12.8h2.637L2.566-4.359V-12.8H5.194Z" transform="translate(9.619 304.693)" fill="#12263f"/>
    </g>
  </g>
</svg>
