<svg xmlns="http://www.w3.org/2000/svg" width="294.43" height="120" viewBox="0 0 294.43 120">
  <g id="Grupo_159310" data-name="Grupo 159310" transform="translate(-285.839 -4149)">
    <rect id="Rectángulo_31785" data-name="Rectángulo 31785" width="294.43" height="89" transform="translate(285.839 4164)" fill="#fff"/>
    <g id="transformador-2" transform="translate(374.514 4149.001)">
      <path id="Trazado_102308" data-name="Trazado 102308" d="M10,60H32.5v5.625H10Z" transform="translate(2.627 52.497)" fill="#aab2bd"/>
      <path id="Trazado_102309" data-name="Trazado 102309" d="M42,60H64.5v5.625H42Z" transform="translate(30.626 52.497)" fill="#aab2bd"/>
      <path id="Trazado_102310" data-name="Trazado 102310" d="M98,54.01V65.241H8V54.01Z" transform="translate(0.878 47.256)" fill="#ccd1d9"/>
      <path id="Trazado_102311" data-name="Trazado 102311" d="M51.5,4.75V6.625H44V4.75a3.75,3.75,0,0,1,7.5,0Z" transform="translate(32.375 0.876)" fill="#aab2bd"/>
      <path id="Trazado_102312" data-name="Trazado 102312" d="M44,13h7.5v5.644H44Z" transform="translate(32.375 11.375)" fill="#aab2bd"/>
      <path id="Trazado_102313" data-name="Trazado 102313" d="M54.187,10a2.812,2.812,0,1,1,0,5.625H44.812a2.812,2.812,0,1,1,0-5.625Z" transform="translate(30.626 8.75)" fill="#e6e9ed"/>
      <path id="Trazado_102314" data-name="Trazado 102314" d="M54.187,7a2.812,2.812,0,1,1,0,5.625H44.812a2.812,2.812,0,1,1,0-5.625Z" transform="translate(30.626 6.125)" fill="#e6e9ed"/>
      <path id="Trazado_102315" data-name="Trazado 102315" d="M54.187,4a2.812,2.812,0,1,1,0,5.625H44.812a2.812,2.812,0,1,1,0-5.625h9.375Z" transform="translate(30.626 3.501)" fill="#e6e9ed"/>
      <path id="Trazado_102316" data-name="Trazado 102316" d="M37.5,4.75V6.625H30V4.75a3.75,3.75,0,0,1,7.5,0Z" transform="translate(20.126 0.876)" fill="#aab2bd"/>
      <path id="Trazado_102317" data-name="Trazado 102317" d="M40.187,10a2.812,2.812,0,1,1,0,5.625H30.812a2.812,2.812,0,1,1,0-5.625Z" transform="translate(18.376 8.75)" fill="#e6e9ed"/>
      <path id="Trazado_102318" data-name="Trazado 102318" d="M30,13h7.5v5.644H30Z" transform="translate(20.126 11.375)" fill="#aab2bd"/>
      <g id="Grupo_83962" data-name="Grupo 83962" transform="translate(20.127 7.501)">
        <path id="Trazado_102319" data-name="Trazado 102319" d="M40.187,4a2.812,2.812,0,1,1,0,5.625H30.812a2.812,2.812,0,1,1,0-5.625h9.375Z" transform="translate(-1.751 -4)" fill="#e6e9ed"/>
        <path id="Trazado_102320" data-name="Trazado 102320" d="M40.187,7a2.812,2.812,0,1,1,0,5.625H30.812a2.812,2.812,0,1,1,0-5.625Z" transform="translate(-1.751 -1.375)" fill="#e6e9ed"/>
        <path id="Trazado_102321" data-name="Trazado 102321" d="M26.187,10a2.812,2.812,0,1,1,0,5.625H16.812a2.812,2.812,0,1,1,0-5.625Z" transform="translate(-14 1.25)" fill="#e6e9ed"/>
        <path id="Trazado_102322" data-name="Trazado 102322" d="M26.187,4a2.812,2.812,0,1,1,0,5.625H16.812a2.812,2.812,0,1,1,0-5.625h9.375Z" transform="translate(-14 -4)" fill="#e6e9ed"/>
      </g>
      <path id="Trazado_102323" data-name="Trazado 102323" d="M16,13h7.5v5.644H16Z" transform="translate(7.877 11.375)" fill="#aab2bd"/>
      <path id="Trazado_102324" data-name="Trazado 102324" d="M23.5,4.75V6.625H16V4.75a3.75,3.75,0,1,1,7.5,0Z" transform="translate(7.877 0.876)" fill="#aab2bd"/>
      <path id="Trazado_102325" data-name="Trazado 102325" d="M26.187,7a2.812,2.812,0,1,1,0,5.625H16.812a2.812,2.812,0,1,1,0-5.625Z" transform="translate(6.127 6.125)" fill="#e6e9ed"/>
      <path id="Trazado_102326" data-name="Trazado 102326" d="M98,23.51V87.258H8V23.51a7.522,7.522,0,0,1,7.5-7.5h75a7.522,7.522,0,0,1,7.5,7.5Z" transform="translate(0.878 14.009)" fill="#ccd1d9"/>
      <path id="Trazado_102327" data-name="Trazado 102327" d="M98.88,90a1.873,1.873,0,0,1-1.875-1.875V24.38a5.632,5.632,0,0,0-5.625-5.625H16.372a5.632,5.632,0,0,0-5.625,5.625V88.124a1.875,1.875,0,0,1-3.75,0V24.38A9.385,9.385,0,0,1,16.372,15H91.381a9.385,9.385,0,0,1,9.375,9.375V88.124A1.873,1.873,0,0,1,98.88,90Z" transform="translate(0 13.129)"/>
      <path id="Trazado_102328" data-name="Trazado 102328" d="M98.88,68H8.872A1.873,1.873,0,0,1,7,66.12V54.878A1.873,1.873,0,0,1,8.872,53H98.88a1.873,1.873,0,0,1,1.875,1.875V66.12A1.873,1.873,0,0,1,98.88,68Zm-88.133-3.75H97.005V56.753H10.747Z" transform="translate(0 46.375)"/>
      <path id="Trazado_102329" data-name="Trazado 102329" d="M10.872,68.377A1.873,1.873,0,0,1,9,66.5V60.874a1.875,1.875,0,0,1,3.75,0V66.5A1.873,1.873,0,0,1,10.872,68.377Z" transform="translate(1.75 51.622)"/>
      <path id="Trazado_102330" data-name="Trazado 102330" d="M33.371,65.751h-22.5a1.875,1.875,0,1,1,0-3.75h22.5a1.875,1.875,0,1,1,0,3.75Z" transform="translate(1.75 54.248)"/>
      <path id="Trazado_102331" data-name="Trazado 102331" d="M22.872,68.377A1.873,1.873,0,0,1,21,66.5V60.874a1.875,1.875,0,0,1,3.75,0V66.5A1.873,1.873,0,0,1,22.872,68.377Z" transform="translate(12.249 51.622)"/>
      <path id="Trazado_102332" data-name="Trazado 102332" d="M42.878,68.377A1.873,1.873,0,0,1,41,66.5V60.874a1.875,1.875,0,0,1,3.75,0V66.5A1.873,1.873,0,0,1,42.878,68.377Z" transform="translate(29.753 51.622)"/>
      <path id="Trazado_102333" data-name="Trazado 102333" d="M65.377,65.751h-22.5a1.875,1.875,0,1,1,0-3.75h22.5a1.875,1.875,0,1,1,0,3.75Z" transform="translate(29.753 54.248)"/>
      <path id="Trazado_102334" data-name="Trazado 102334" d="M54.878,68.377A1.873,1.873,0,0,1,53,66.5V60.874a1.875,1.875,0,0,1,3.75,0V66.5A1.873,1.873,0,0,1,54.878,68.377Z" transform="translate(40.253 51.622)"/>
      <path id="Trazado_102335" data-name="Trazado 102335" d="M27.064,18.376H17.685a4.687,4.687,0,1,1,0-9.375h9.378a4.687,4.687,0,1,1,0,9.375Zm-9.378-5.625a.937.937,0,1,0,0,1.875h9.378a.937.937,0,0,0,0-1.875Z" transform="translate(5.251 7.876)"/>
      <path id="Trazado_102336" data-name="Trazado 102336" d="M27.064,15.376H17.685a4.687,4.687,0,1,1,0-9.375h9.378a4.687,4.687,0,0,1,0,9.375ZM17.685,9.751a.937.937,0,1,0,0,1.875h9.378a.937.937,0,0,0,0-1.875Z" transform="translate(5.251 5.251)"/>
      <path id="Trazado_102337" data-name="Trazado 102337" d="M27.064,12.376H17.685a4.687,4.687,0,1,1,0-9.375h9.378a4.687,4.687,0,0,1,0,9.375ZM17.685,6.751a.937.937,0,1,0,0,1.875h9.378a.937.937,0,0,0,0-1.875Z" transform="translate(5.251 2.627)"/>
      <path id="Trazado_102338" data-name="Trazado 102338" d="M16.873,21.383A1.873,1.873,0,0,1,15,19.508V13.876a1.875,1.875,0,0,1,3.75,0v5.632A1.873,1.873,0,0,1,16.873,21.383Z" transform="translate(7 10.501)"/>
      <path id="Trazado_102339" data-name="Trazado 102339" d="M20.873,21.383A1.873,1.873,0,0,1,19,19.508V13.876a1.875,1.875,0,0,1,3.75,0v5.632A1.873,1.873,0,0,1,20.873,21.383Z" transform="translate(10.5 10.501)"/>
      <path id="Trazado_102340" data-name="Trazado 102340" d="M24.373,7.5A1.873,1.873,0,0,1,22.5,5.624a1.875,1.875,0,1,0-3.75,0,1.875,1.875,0,1,1-3.75,0,5.625,5.625,0,1,1,11.25,0A1.873,1.873,0,0,1,24.373,7.5Z" transform="translate(7 0)"/>
      <path id="Trazado_102341" data-name="Trazado 102341" d="M16.873,7.628A1.873,1.873,0,0,1,15,5.753V3.874a1.875,1.875,0,0,1,3.75,0V5.753A1.873,1.873,0,0,1,16.873,7.628Z" transform="translate(7 1.75)"/>
      <path id="Trazado_102342" data-name="Trazado 102342" d="M20.873,7.628A1.873,1.873,0,0,1,19,5.753V3.874a1.875,1.875,0,1,1,3.75,0V5.753A1.873,1.873,0,0,1,20.873,7.628Z" transform="translate(10.5 1.75)"/>
      <path id="Trazado_102343" data-name="Trazado 102343" d="M41.063,18.376H31.684a4.687,4.687,0,0,1,0-9.375h9.378a4.687,4.687,0,1,1,0,9.375Zm-9.378-5.625a.937.937,0,0,0,0,1.875h9.378a.937.937,0,0,0,0-1.875Z" transform="translate(17.499 7.876)"/>
      <path id="Trazado_102344" data-name="Trazado 102344" d="M41.063,15.376H31.684a4.687,4.687,0,0,1,0-9.375h9.378a4.687,4.687,0,1,1,0,9.375ZM31.684,9.751a.937.937,0,0,0,0,1.875h9.378a.937.937,0,0,0,0-1.875Z" transform="translate(17.499 5.251)"/>
      <path id="Trazado_102345" data-name="Trazado 102345" d="M41.063,12.376H31.684a4.687,4.687,0,0,1,0-9.375h9.378a4.687,4.687,0,1,1,0,9.375ZM31.684,6.751a.937.937,0,0,0,0,1.875h9.378a.937.937,0,0,0,0-1.875Z" transform="translate(17.499 2.627)"/>
      <path id="Trazado_102346" data-name="Trazado 102346" d="M30.872,21.383A1.873,1.873,0,0,1,29,19.508V13.876a1.875,1.875,0,0,1,3.75,0v5.632A1.873,1.873,0,0,1,30.872,21.383Z" transform="translate(19.249 10.501)"/>
      <path id="Trazado_102347" data-name="Trazado 102347" d="M34.872,21.383A1.873,1.873,0,0,1,33,19.508V13.876a1.875,1.875,0,1,1,3.75,0v5.632A1.873,1.873,0,0,1,34.872,21.383Z" transform="translate(22.748 10.501)"/>
      <path id="Trazado_102348" data-name="Trazado 102348" d="M38.372,7.5A1.873,1.873,0,0,1,36.5,5.624a1.875,1.875,0,1,0-3.75,0,1.875,1.875,0,0,1-3.75,0,5.625,5.625,0,0,1,11.25,0A1.873,1.873,0,0,1,38.372,7.5Z" transform="translate(19.249 0)"/>
      <path id="Trazado_102349" data-name="Trazado 102349" d="M30.872,7.628A1.873,1.873,0,0,1,29,5.753V3.874a1.875,1.875,0,0,1,3.75,0V5.753A1.873,1.873,0,0,1,30.872,7.628Z" transform="translate(19.249 1.75)"/>
      <path id="Trazado_102350" data-name="Trazado 102350" d="M34.872,7.628A1.873,1.873,0,0,1,33,5.753V3.874a1.875,1.875,0,1,1,3.75,0V5.753A1.873,1.873,0,0,1,34.872,7.628Z" transform="translate(22.748 1.75)"/>
      <path id="Trazado_102351" data-name="Trazado 102351" d="M55.062,18.376H45.683a4.687,4.687,0,1,1,0-9.375h9.378a4.687,4.687,0,1,1,0,9.375Zm-9.378-5.625a.937.937,0,1,0,0,1.875h9.378a.937.937,0,1,0,0-1.875Z" transform="translate(29.747 7.876)"/>
      <path id="Trazado_102352" data-name="Trazado 102352" d="M55.062,15.376H45.683a4.687,4.687,0,1,1,0-9.375h9.378a4.687,4.687,0,1,1,0,9.375ZM45.683,9.751a.937.937,0,1,0,0,1.875h9.378a.937.937,0,1,0,0-1.875Z" transform="translate(29.747 5.251)"/>
      <path id="Trazado_102353" data-name="Trazado 102353" d="M55.062,12.376H45.683a4.687,4.687,0,1,1,0-9.375h9.378a4.687,4.687,0,1,1,0,9.375ZM45.683,6.751a.937.937,0,1,0,0,1.875h9.378a.937.937,0,1,0,0-1.875Z" transform="translate(29.747 2.627)"/>
      <path id="Trazado_102354" data-name="Trazado 102354" d="M44.871,21.383A1.873,1.873,0,0,1,43,19.508V13.876a1.875,1.875,0,1,1,3.75,0v5.632A1.873,1.873,0,0,1,44.871,21.383Z" transform="translate(31.497 10.501)"/>
      <path id="Trazado_102355" data-name="Trazado 102355" d="M48.871,21.383A1.873,1.873,0,0,1,47,19.508V13.876a1.875,1.875,0,1,1,3.75,0v5.632A1.873,1.873,0,0,1,48.871,21.383Z" transform="translate(34.997 10.501)"/>
      <path id="Trazado_102356" data-name="Trazado 102356" d="M52.371,7.5A1.873,1.873,0,0,1,50.5,5.624a1.875,1.875,0,1,0-3.75,0,1.875,1.875,0,1,1-3.75,0,5.625,5.625,0,0,1,11.25,0A1.873,1.873,0,0,1,52.371,7.5Z" transform="translate(31.497 0)"/>
      <path id="Trazado_102357" data-name="Trazado 102357" d="M44.871,7.628A1.873,1.873,0,0,1,43,5.753V3.874a1.875,1.875,0,1,1,3.75,0V5.753A1.873,1.873,0,0,1,44.871,7.628Z" transform="translate(31.497 1.75)"/>
      <path id="Trazado_102358" data-name="Trazado 102358" d="M48.871,7.628A1.873,1.873,0,0,1,47,5.753V3.874a1.875,1.875,0,1,1,3.75,0V5.753A1.873,1.873,0,0,1,48.871,7.628Z" transform="translate(34.997 1.75)"/>
      <path id="Trazado_102359" data-name="Trazado 102359" d="M14.871,78.124A1.873,1.873,0,0,1,13,76.249V21.876a1.875,1.875,0,0,1,3.75,0V76.249A1.873,1.873,0,0,1,14.871,78.124Z" transform="translate(5.249 17.501)"/>
      <path id="Trazado_102360" data-name="Trazado 102360" d="M18.871,78.124A1.873,1.873,0,0,1,17,76.249V21.876a1.875,1.875,0,0,1,3.75,0V76.249A1.873,1.873,0,0,1,18.871,78.124Z" transform="translate(8.749 17.501)"/>
      <path id="Trazado_102361" data-name="Trazado 102361" d="M22.871,78.124A1.873,1.873,0,0,1,21,76.249V21.876a1.875,1.875,0,0,1,3.75,0V76.249A1.873,1.873,0,0,1,22.871,78.124Z" transform="translate(12.248 17.501)"/>
      <path id="Trazado_102362" data-name="Trazado 102362" d="M26.871,78.124A1.873,1.873,0,0,1,25,76.249V21.876a1.875,1.875,0,0,1,3.75,0V76.249A1.873,1.873,0,0,1,26.871,78.124Z" transform="translate(15.748 17.501)"/>
      <path id="Trazado_102363" data-name="Trazado 102363" d="M30.871,78.124A1.873,1.873,0,0,1,29,76.249V21.876a1.875,1.875,0,0,1,3.75,0V76.249A1.873,1.873,0,0,1,30.871,78.124Z" transform="translate(19.248 17.501)"/>
      <path id="Trazado_102364" data-name="Trazado 102364" d="M34.871,78.124A1.873,1.873,0,0,1,33,76.249V21.876a1.875,1.875,0,1,1,3.75,0V76.249A1.873,1.873,0,0,1,34.871,78.124Z" transform="translate(22.748 17.501)"/>
      <path id="Trazado_102365" data-name="Trazado 102365" d="M38.871,78.124A1.873,1.873,0,0,1,37,76.249V21.876a1.875,1.875,0,1,1,3.75,0V76.249A1.873,1.873,0,0,1,38.871,78.124Z" transform="translate(26.247 17.501)"/>
      <path id="Trazado_102366" data-name="Trazado 102366" d="M42.871,78.124A1.873,1.873,0,0,1,41,76.249V21.876a1.875,1.875,0,1,1,3.75,0V76.249A1.873,1.873,0,0,1,42.871,78.124Z" transform="translate(29.747 17.501)"/>
      <path id="Trazado_102367" data-name="Trazado 102367" d="M46.871,78.124A1.873,1.873,0,0,1,45,76.249V21.876a1.875,1.875,0,1,1,3.75,0V76.249A1.873,1.873,0,0,1,46.871,78.124Z" transform="translate(33.247 17.501)"/>
      <path id="Trazado_102368" data-name="Trazado 102368" d="M50.871,78.124A1.873,1.873,0,0,1,49,76.249V21.876a1.875,1.875,0,1,1,3.75,0V76.249A1.873,1.873,0,0,1,50.871,78.124Z" transform="translate(36.747 17.501)"/>
    </g>
  </g>
</svg>
