<svg xmlns="http://www.w3.org/2000/svg" xmlns:xlink="http://www.w3.org/1999/xlink" width="619" height="479" viewBox="0 0 619 479">
  <defs>
    <radialGradient id="radial-gradient" cx="0.5" cy="0.5" r="0.49" gradientTransform="translate(-0.023) scale(1.042 1)" gradientUnits="objectBoundingBox">
      <stop offset="0" stop-color="#fff064"/>
      <stop offset="0.427" stop-color="#fbcb6b"/>
      <stop offset="0.778" stop-color="#f9b570"/>
      <stop offset="1" stop-color="#f9ad72"/>
    </radialGradient>
    <radialGradient id="radial-gradient-2" cx="0.5" cy="0.5" r="0.503" gradientTransform="translate(0.007) scale(0.987 1)" xlink:href="#radial-gradient"/>
    <radialGradient id="radial-gradient-3" cx="0.5" cy="0.5" r="0.54" gradientTransform="translate(-0.006) scale(0.867 1)" xlink:href="#radial-gradient"/>
    <radialGradient id="radial-gradient-4" cx="0.5" cy="0.5" r="0.527" gradientTransform="translate(0.107) scale(0.904 1)" xlink:href="#radial-gradient"/>
    <radialGradient id="radial-gradient-5" cx="0.5" cy="0.5" r="0.494" gradientTransform="translate(-0.004) scale(1.024 1)" xlink:href="#radial-gradient"/>
    <radialGradient id="radial-gradient-6" cx="0.5" cy="0.5" r="0.496" gradientTransform="translate(-0.016) scale(1.018 1)" xlink:href="#radial-gradient"/>
    <radialGradient id="radial-gradient-7" cx="0.5" cy="0.5" r="0.496" gradientTransform="translate(-0.003) scale(1.018 1)" xlink:href="#radial-gradient"/>
    <radialGradient id="radial-gradient-8" cx="0.5" cy="0.5" r="0.493" gradientTransform="translate(-0.025) scale(1.029 1)" xlink:href="#radial-gradient"/>
  </defs>
  <g id="Grupo_159303" data-name="Grupo 159303" transform="translate(-652.839 -3534)">
    <rect id="Rectángulo_45683" data-name="Rectángulo 45683" width="619" height="479" rx="25" transform="translate(652.839 3534)" fill="#fff"/>
    <g id="Grupo_159208" data-name="Grupo 159208" transform="translate(760.838 3571.999)">
      <g id="Grupo_83371" data-name="Grupo 83371" transform="translate(0 0)">
        <path id="Trazado_99916" data-name="Trazado 99916" d="M513.364,314.12c0,111.032-90.009,201.037-201.034,201.037s-201.041-90-201.041-201.037S201.3,113.079,312.33,113.079,513.364,203.089,513.364,314.12Z" transform="translate(-111.289 -113.079)" fill="#12263f"/>
        <path id="Trazado_99917" data-name="Trazado 99917" d="M510.654,316.156c0,108.409-87.883,196.288-196.289,196.288s-196.3-87.879-196.3-196.288,87.883-196.3,196.3-196.3S510.654,207.742,510.654,316.156Z" transform="translate(-113.325 -115.115)" fill="#265d99"/>
        <path id="Trazado_99918" data-name="Trazado 99918" d="M366.783,191.41l-1.669.258,7.8,49.085,1.653-.258a98.814,98.814,0,0,1,30.151,0l1.656.258,7.8-49.085-1.669-.258a148.494,148.494,0,0,0-45.723,0Z" transform="translate(-187.493 -136.064)" fill="url(#radial-gradient)"/>
        <path id="Trazado_99919" data-name="Trazado 99919" d="M390.469,238.379a100.536,100.536,0,0,1,15.331,1.177l7.276-45.763a146.945,146.945,0,0,0-45.215,0l7.276,45.763A100.584,100.584,0,0,1,390.469,238.379Z" transform="translate(-188.318 -136.786)" fill="#265d99"/>
        <path id="Trazado_99920" data-name="Trazado 99920" d="M407.2,537.563a97.524,97.524,0,0,1-32.469.416l-1.664-.253L365.55,586.86l1.661.263a148.877,148.877,0,0,0,48.935-.644l1.661-.3-8.958-48.919Z" transform="translate(-187.624 -240.429)" fill="url(#radial-gradient-2)"/>
        <path id="Trazado_99921" data-name="Trazado 99921" d="M390.6,541.655a100.7,100.7,0,0,1-15.307-1.174l-7,45.813a147.169,147.169,0,0,0,48.38-.631l-8.358-45.611A100.072,100.072,0,0,1,390.6,541.655Z" transform="translate(-188.447 -241.266)" fill="#265d99"/>
        <path id="Trazado_99922" data-name="Trazado 99922" d="M568.387,307.855l-43.416,20.569.736,1.525a96.651,96.651,0,0,1,8.288,26.212l.28,1.647,49.11-7.735-.27-1.67a146.477,146.477,0,0,0-12.49-39.755l-.729-1.508Z" transform="translate(-235.486 -171.34)" fill="url(#radial-gradient-3)"/>
        <path id="Trazado_99923" data-name="Trazado 99923" d="M528.192,330.179a98.514,98.514,0,0,1,8.43,26.666l45.8-7.211a144.828,144.828,0,0,0-12.344-39.3Z" transform="translate(-236.453 -172.3)" fill="#265d99"/>
        <path id="Trazado_99924" data-name="Trazado 99924" d="M239.264,420.621l-47.322,8.164.271,1.649a146.31,146.31,0,0,0,13.413,41.5l.749,1.513,44.332-22.5-.737-1.487a97.1,97.1,0,0,1-8.765-27.445l-.267-1.678Z" transform="translate(-135.503 -205.325)" fill="url(#radial-gradient-4)"/>
        <path id="Trazado_99925" data-name="Trazado 99925" d="M240.376,423.123,194.7,431a144.649,144.649,0,0,0,13.252,41.014l41.336-20.974A98.884,98.884,0,0,1,240.376,423.123Z" transform="translate(-136.331 -206.161)" fill="#265d99"/>
        <path id="Trazado_99926" data-name="Trazado 99926" d="M491.316,494.9a98.036,98.036,0,0,1-24.283,18.988l-1.466.808,23.844,43.625,1.474-.814a147.6,147.6,0,0,0,36.688-28.6l1.152-1.229-36.265-34Z" transform="translate(-217.651 -227.34)" fill="url(#radial-gradient-5)"/>
        <path id="Trazado_99927" data-name="Trazado 99927" d="M468.825,516.369l22.225,40.678a146.4,146.4,0,0,0,36.282-28.278l-33.809-31.705A99.907,99.907,0,0,1,468.825,516.369Z" transform="translate(-218.629 -228.36)" fill="#265d99"/>
        <path id="Trazado_99928" data-name="Trazado 99928" d="M287.274,212.48a147.49,147.49,0,0,0-37.891,27.906l-1.188,1.207,35.659,34.617,1.174-1.187A97.9,97.9,0,0,1,310.042,256.7l1.5-.767-22.775-44.217Z" transform="translate(-152.392 -142.691)" fill="url(#radial-gradient-6)"/>
        <path id="Trazado_99929" data-name="Trazado 99929" d="M310.3,256.174,289.064,214.94A146.594,146.594,0,0,0,251.6,242.533l33.251,32.283A99.626,99.626,0,0,1,310.3,256.174Z" transform="translate(-153.414 -143.66)" fill="#265d99"/>
        <path id="Trazado_99930" data-name="Trazado 99930" d="M482.746,212.718l-21.768,42.84,1.5.763a98.033,98.033,0,0,1,25.385,18.471l1.178,1.2,35.587-34.694-1.186-1.2a147.543,147.543,0,0,0-38.435-28.109l-1.5-.763Z" transform="translate(-216.274 -142.544)" fill="url(#radial-gradient-7)"/>
        <path id="Trazado_99931" data-name="Trazado 99931" d="M490.029,274.587l33.181-32.342a146,146,0,0,0-37.994-27.783l-21,41.332A99.69,99.69,0,0,1,490.029,274.587Z" transform="translate(-217.245 -143.516)" fill="#265d99"/>
        <path id="Trazado_99932" data-name="Trazado 99932" d="M283.127,498.137,249.31,532.22,250.5,533.4a147.473,147.473,0,0,0,38.9,28l1.512.755,21.826-44.671-1.491-.745a98.121,98.121,0,0,1-25.724-18.607l-1.19-1.208Z" transform="translate(-152.726 -228.32)" fill="url(#radial-gradient-8)"/>
        <path id="Trazado_99933" data-name="Trazado 99933" d="M285.344,500.338l-32.643,32.9a146.175,146.175,0,0,0,38.46,27.689L311.5,519.272A99.614,99.614,0,0,1,285.344,500.338Z" transform="translate(-153.744 -229.343)" fill="#265d99"/>
        <g id="Grupo_83357" data-name="Grupo 83357" transform="translate(54.737 55.1)">
          <path id="Trazado_99934" data-name="Trazado 99934" d="M584.964,364.115l-47.449,7.536.271,1.665a97.411,97.411,0,0,1,.339,29.9l-.238,1.653,49.143,7.507.246-1.677a148.273,148.273,0,0,0-.39-45.2l-.271-1.656Z" transform="translate(-293.988 -243.466)" fill="#12263f"/>
          <path id="Trazado_99935" data-name="Trazado 99935" d="M541.632,390.181a99.358,99.358,0,0,1-1.017,14.1l45.821,7a146.046,146.046,0,0,0-.381-44.691l-45.779,7.273A99.643,99.643,0,0,1,541.632,390.181Z" transform="translate(-294.817 -244.291)" fill="#fff"/>
          <path id="Trazado_99936" data-name="Trazado 99936" d="M191.067,368.9a148.438,148.438,0,0,0,.407,45.525l.272,1.678,48.974-8.515-.266-1.644a97.624,97.624,0,0,1-.166-30.1l.246-1.677-49.22-6.923Z" transform="translate(-189.509 -244.486)" fill="#12263f"/>
          <path id="Trazado_99937" data-name="Trazado 99937" d="M238.248,391.189a99.933,99.933,0,0,1,1.1-14.776l-45.895-6.457a147.136,147.136,0,0,0,.4,45.006l45.661-7.936A100.644,100.644,0,0,1,238.248,391.189Z" transform="translate(-190.232 -245.3)" fill="#fff"/>
          <path id="Trazado_99938" data-name="Trazado 99938" d="M454.066,522.325a96.807,96.807,0,0,1-29.531,10.485l-1.653.3,8.891,48.933,1.651-.307a146.224,146.224,0,0,0,44.569-15.831l1.465-.814L455.54,521.516Z" transform="translate(-259.573 -290.801)" fill="#12263f"/>
          <path id="Trazado_99939" data-name="Trazado 99939" d="M425.674,535.443l8.293,45.628a144.955,144.955,0,0,0,44.052-15.659l-22.3-40.633A98.789,98.789,0,0,1,425.674,535.443Z" transform="translate(-260.411 -291.781)" fill="#fff"/>
          <path id="Trazado_99940" data-name="Trazado 99940" d="M347.768,192.074a146.423,146.423,0,0,0-44.25,14.387l-1.5.771L324.87,251.4l1.487-.754a96.83,96.83,0,0,1,29.139-9.473l1.664-.26-7.735-49.1Z" transform="translate(-223.287 -191.819)" fill="#12263f"/>
          <path id="Trazado_99941" data-name="Trazado 99941" d="M356.213,240.336,349,194.556a144.574,144.574,0,0,0-43.737,14.226l21.3,41.187A98.648,98.648,0,0,1,356.213,240.336Z" transform="translate(-224.261 -192.641)" fill="#fff"/>
          <path id="Trazado_99942" data-name="Trazado 99942" d="M532.182,252.017l-34.358,33.57,1.2,1.2A97.832,97.832,0,0,1,517.482,312.9l.719,1.5,44.967-21.208-.738-1.525a147.587,147.587,0,0,0-27.875-39.62l-1.179-1.2Z" transform="translate(-282.072 -209.54)" fill="#12263f"/>
          <path id="Trazado_99943" data-name="Trazado 99943" d="M520.014,313.184l41.925-19.776a146,146,0,0,0-27.562-39.171l-33.139,32.388A99.436,99.436,0,0,1,520.014,313.184Z" transform="translate(-283.097 -210.558)" fill="#fff"/>
          <path id="Trazado_99944" data-name="Trazado 99944" d="M253.344,460.765l-42.866,21.657.747,1.5A147.575,147.575,0,0,0,238.042,521.5l1.187,1.2,35.214-35.079-1.161-1.186a97.8,97.8,0,0,1-17.671-24.928l-.749-1.507Z" transform="translate(-195.805 -272.335)" fill="#12263f"/>
          <path id="Trazado_99945" data-name="Trazado 99945" d="M255.072,463.232l-41.379,20.907A146.14,146.14,0,0,0,240.2,521.29l32.837-32.706A99.51,99.51,0,0,1,255.072,463.232Z" transform="translate(-196.77 -273.303)" fill="#fff"/>
          <path id="Trazado_99946" data-name="Trazado 99946" d="M519.753,456.837A97.647,97.647,0,0,1,502.7,482.765L501.578,484l36.443,33.782,1.143-1.245a147.5,147.5,0,0,0,25.86-39.092l.686-1.524L520.447,455.3Z" transform="translate(-283.199 -270.921)" fill="#12263f"/>
          <path id="Trazado_99947" data-name="Trazado 99947" d="M504.954,484.864l13.054,12.1,20.931,19.4A145.886,145.886,0,0,0,564.5,477.717l-42.2-19.226A99.415,99.415,0,0,1,504.954,484.864Z" transform="translate(-284.213 -271.88)" fill="#fff"/>
          <path id="Trazado_99948" data-name="Trazado 99948" d="M237.284,253.314a147.723,147.723,0,0,0-26.038,36.777l-.754,1.516,44.67,21.818.75-1.483a97.609,97.609,0,0,1,17.229-24.191l1.178-1.22-35.866-34.426Z" transform="translate(-195.809 -209.918)" fill="#12263f"/>
          <path id="Trazado_99949" data-name="Trazado 99949" d="M272.908,287.592l-33.444-32.1a145.885,145.885,0,0,0-25.746,36.358l41.658,20.352A99.7,99.7,0,0,1,272.908,287.592Z" transform="translate(-196.777 -210.936)" fill="#fff"/>
          <path id="Trazado_99950" data-name="Trazado 99950" d="M426.992,193.472l-3.386,21.484-4.091,25.96,1.669.26a97.167,97.167,0,0,1,28.684,9.235l1.5.754,22.6-44.289-1.5-.763a146.4,146.4,0,0,0-43.553-14.04l-1.661-.255Z" transform="translate(-258.562 -191.819)" fill="#12263f"/>
          <path id="Trazado_99951" data-name="Trazado 99951" d="M451.449,249.733l21.081-41.3a144.851,144.851,0,0,0-43.053-13.879l-7.213,45.78A98.453,98.453,0,0,1,451.449,249.733Z" transform="translate(-259.388 -192.641)" fill="#fff"/>
          <path id="Trazado_99952" data-name="Trazado 99952" d="M325.731,525.8l-21.158,43.116,1.5.75a146.307,146.307,0,0,0,42.763,13.548l1.67.255,7.443-49.149-1.657-.254a97.013,97.013,0,0,1-28.3-9.033l-1.512-.75Z" transform="translate(-224.054 -291.632)" fill="#12263f"/>
          <path id="Trazado_99953" data-name="Trazado 99953" d="M328.2,527.509l-20.42,41.62a144.737,144.737,0,0,0,42.276,13.387l6.935-45.822A98.835,98.835,0,0,1,328.2,527.509Z" transform="translate(-225.017 -292.601)" fill="#fff"/>
        </g>
        <path id="Trazado_99954" data-name="Trazado 99954" d="M534.854,419.574a97.346,97.346,0,0,1-7.49,25.877l-.687,1.524,45.221,20.7.7-1.539A146.407,146.407,0,0,0,584.016,427l.237-1.653L535.091,417.9Z" transform="translate(-235.998 -204.594)" fill="#12263f"/>
        <path id="Trazado_99955" data-name="Trazado 99955" d="M529.852,446.956l42.161,19.31A144.475,144.475,0,0,0,583.3,427.574l-45.831-6.943A98.661,98.661,0,0,1,529.852,446.956Z" transform="translate(-236.951 -205.413)" fill="#265d99"/>
        <g id="Grupo_83358" data-name="Grupo 83358" transform="translate(43.48 40.874)">
          <path id="Trazado_99956" data-name="Trazado 99956" d="M363.933,173.413l-1.664.255,2.516,15.874,1.661-.258a145.3,145.3,0,0,1,44.69,0l1.661.258,2.516-15.874-1.661-.255a161.586,161.586,0,0,0-49.719,0Z" transform="translate(-230.119 -171.489)" fill="#12263f"/>
          <path id="Trazado_99957" data-name="Trazado 99957" d="M389.615,186.595a147.186,147.186,0,0,1,22.608,1.749l1.991-12.549a160.013,160.013,0,0,0-49.2,0l1.991,12.549A147.238,147.238,0,0,1,389.615,186.595Z" transform="translate(-230.944 -172.211)" fill="#76c2dd"/>
          <path id="Trazado_99958" data-name="Trazado 99958" d="M414.729,602.739a145.438,145.438,0,0,1-47.828.619l-1.665-.253-2.424,15.885,1.661.255a161.709,161.709,0,0,0,53.138-.695l1.661-.305-2.9-15.811Z" transform="translate(-230.282 -300.869)" fill="#12263f"/>
          <path id="Trazado_99959" data-name="Trazado 99959" d="M389.773,607.562a147.047,147.047,0,0,1-22.306-1.7l-1.922,12.562a160.221,160.221,0,0,0,52.589-.693l-2.287-12.5A146.5,146.5,0,0,1,389.773,607.562Z" transform="translate(-231.102 -301.709)" fill="#76c2dd"/>
          <path id="Trazado_99960" data-name="Trazado 99960" d="M597.841,300.077l-13.007,6.169.728,1.525a143.077,143.077,0,0,1,12.2,38.841l.272,1.651,15.87-2.5-.272-1.67a159.044,159.044,0,0,0-13.556-43.221l-.721-1.508Z" transform="translate(-296.938 -209.88)" fill="#12263f"/>
          <path id="Trazado_99961" data-name="Trazado 99961" d="M600.388,347.3l12.55-1.974a157.269,157.269,0,0,0-13.414-42.768L588.044,308A144.829,144.829,0,0,1,600.388,347.3Z" transform="translate(-297.902 -210.838)" fill="#76c2dd"/>
          <path id="Trazado_99962" data-name="Trazado 99962" d="M188.212,431.888l-14.166,2.445.272,1.647a158.929,158.929,0,0,0,14.6,45.085l.75,1.518,14.336-7.271-.745-1.5a142.735,142.735,0,0,1-13.1-40.544l-.274-1.669Z" transform="translate(-173.61 -249.58)" fill="#12263f"/>
          <path id="Trazado_99963" data-name="Trazado 99963" d="M189.329,434.384l-12.523,2.157a157.253,157.253,0,0,0,14.446,44.607l11.329-5.749A144.648,144.648,0,0,1,189.329,434.384Z" transform="translate(-174.439 -250.416)" fill="#76c2dd"/>
          <path id="Trazado_99964" data-name="Trazado 99964" d="M534.651,540.2a144.149,144.149,0,0,1-35.858,27.957l-1.465.809,7.71,14.1,1.474-.818a160.423,160.423,0,0,0,39.866-31.058l1.143-1.228L535.8,538.976Z" transform="translate(-270.667 -281.817)" fill="#12263f"/>
          <path id="Trazado_99965" data-name="Trazado 99965" d="M500.585,570.65l6.092,11.152a159.208,159.208,0,0,0,39.451-30.737l-9.261-8.693A146.4,146.4,0,0,1,500.585,570.65Z" transform="translate(-271.645 -282.837)" fill="#76c2dd"/>
          <path id="Trazado_99966" data-name="Trazado 99966" d="M277.544,196.332a160.33,160.33,0,0,0-41.183,30.354l-1.187,1.208L246.7,239.087l1.169-1.195A144.63,144.63,0,0,1,284.9,210.617l1.5-.767-7.354-14.29Z" transform="translate(-191.962 -178.716)" fill="#12263f"/>
          <path id="Trazado_99967" data-name="Trazado 99967" d="M285.156,210.092l-5.817-11.3a158.912,158.912,0,0,0-40.756,30.046l9.109,8.846A146.6,146.6,0,0,1,285.156,210.092Z" transform="translate(-192.986 -179.686)" fill="#76c2dd"/>
          <path id="Trazado_99968" data-name="Trazado 99968" d="M497.511,196.53l-6.516,12.828,1.5.762A144.159,144.159,0,0,1,530.057,237.6l1.169,1.188,11.507-11.22-1.178-1.2A160.2,160.2,0,0,0,499.773,195.8l-1.5-.762Z" transform="translate(-268.765 -178.558)" fill="#12263f"/>
          <path id="Trazado_99969" data-name="Trazado 99969" d="M532.221,237.381l9.1-8.872a158.888,158.888,0,0,0-41.34-30.249L494.227,209.6A146,146,0,0,1,532.221,237.381Z" transform="translate(-269.736 -179.527)" fill="#76c2dd"/>
          <path id="Trazado_99970" data-name="Trazado 99970" d="M246.65,545.145l-10.126,10.21,1.182,1.185a160.214,160.214,0,0,0,42.272,30.4l1.513.749,7.054-14.434-1.5-.75a143.82,143.82,0,0,1-38.009-27.372l-1.2-1.191Z" transform="translate(-192.367 -283.309)" fill="#12263f"/>
          <path id="Trazado_99971" data-name="Trazado 99971" d="M248.862,547.354l-8.948,9.019a158.8,158.8,0,0,0,41.832,30.088l5.576-11.418A146.173,146.173,0,0,1,248.862,547.354Z" transform="translate(-193.385 -284.332)" fill="#76c2dd"/>
          <path id="Trazado_99972" data-name="Trazado 99972" d="M598.773,429.491a142.779,142.779,0,0,1-11.159,38.239l-.685,1.525,14.616,6.694.695-1.542a159.128,159.128,0,0,0,12.422-42.526l.245-1.653-15.888-2.407Z" transform="translate(-297.567 -248.446)" fill="#12263f"/>
          <path id="Trazado_99973" data-name="Trazado 99973" d="M590.1,469.245l11.557,5.287a157.065,157.065,0,0,0,12.294-42.074l-12.565-1.9A144.475,144.475,0,0,1,590.1,469.245Z" transform="translate(-298.519 -249.266)" fill="#76c2dd"/>
          <path id="Trazado_99974" data-name="Trazado 99974" d="M188.661,297.868A158.936,158.936,0,0,0,173.668,345.8l-.245,1.677,15.912,2.212.241-1.644a142.985,142.985,0,0,1,13.506-43.077l.755-1.512-14.43-7.084Z" transform="translate(-173.423 -208.981)" fill="#12263f"/>
          <path id="Trazado_99975" data-name="Trazado 99975" d="M202.394,305.179l-11.4-5.6A157.254,157.254,0,0,0,176.152,347l12.583,1.753A144.644,144.644,0,0,1,202.394,305.179Z" transform="translate(-174.242 -209.946)" fill="#76c2dd"/>
        </g>
        <path id="Trazado_99976" data-name="Trazado 99976" d="M205.475,305.867a145.982,145.982,0,0,0-13.819,44.086l-.246,1.673,49.22,6.858.246-1.643A96.822,96.822,0,0,1,250.1,327.8l.763-1.516-44.649-21.907Z" transform="translate(-135.343 -170.51)" fill="#12263f"/>
        <path id="Trazado_99977" data-name="Trazado 99977" d="M249.411,328l-41.619-20.42a144.644,144.644,0,0,0-13.659,43.577l9.326,1.3,4.375.61,32.2,4.488A98.743,98.743,0,0,1,249.411,328Z" transform="translate(-136.161 -171.473)" fill="#265d99"/>
        <g id="Grupo_83359" data-name="Grupo 83359" transform="translate(42.031 42.544)">
          <path id="Trazado_99978" data-name="Trazado 99978" d="M617.154,361.263l-14.219,2.258.271,1.661a144.846,144.846,0,0,1,.381,44.18l-.236,1.651,15.878,2.428.246-1.674a160.653,160.653,0,0,0-.4-49.109L618.805,361Z" transform="translate(-300.923 -230.053)" fill="#12263f"/>
          <path id="Trazado_99979" data-name="Trazado 99979" d="M607.611,389.325a146.769,146.769,0,0,1-1.535,21.107l12.567,1.915a159.449,159.449,0,0,0-.4-48.6l-12.549,2A147.1,147.1,0,0,1,607.611,389.325Z" transform="translate(-301.752 -230.878)" fill="#ccf8ff"/>
          <path id="Trazado_99980" data-name="Trazado 99980" d="M173.038,366.374a161.1,161.1,0,0,0,.461,49.466l.279,1.67,15.828-2.745-.271-1.649a145.218,145.218,0,0,1-.39-44.492l.246-1.674-15.913-2.237Z" transform="translate(-171.352 -231.169)" fill="#12263f"/>
          <path id="Trazado_99981" data-name="Trazado 99981" d="M186.465,390.43A146.828,146.828,0,0,1,188,369.2l-12.578-1.77a159.4,159.4,0,0,0,.458,48.958L188.4,414.2A146.464,146.464,0,0,1,186.465,390.43Z" transform="translate(-172.074 -231.983)" fill="#ccf8ff"/>
          <path id="Trazado_99982" data-name="Trazado 99982" d="M479.922,580.4a142.948,142.948,0,0,1-43.534,15.469l-1.661.3,2.873,15.815,1.652-.3a158.739,158.739,0,0,0,48.406-17.2l1.467-.809L481.4,579.587Z" transform="translate(-250.423 -295.679)" fill="#12263f"/>
          <path id="Trazado_99983" data-name="Trazado 99983" d="M437.525,598.5,439.8,611a157.248,157.248,0,0,0,47.891-17.014l-6.109-11.142A144.959,144.959,0,0,1,437.525,598.5Z" transform="translate(-251.263 -296.657)" fill="#ccf8ff"/>
          <path id="Trazado_99984" data-name="Trazado 99984" d="M343.285,174.137a158.637,158.637,0,0,0-48.11,15.65l-1.5.772,7.388,14.272,1.482-.77a142.988,142.988,0,0,1,43.238-14.049l1.661-.262-2.5-15.874Z" transform="translate(-208.076 -173.875)" fill="#12263f"/>
          <path id="Trazado_99985" data-name="Trazado 99985" d="M346.5,189.172l-1.982-12.549a157.2,157.2,0,0,0-47.593,15.485l5.838,11.291A144.574,144.574,0,0,1,346.5,189.172Z" transform="translate(-209.051 -174.7)" fill="#ccf8ff"/>
          <path id="Trazado_99986" data-name="Trazado 99986" d="M555.487,239.326l-10.3,10.058,1.185,1.212a143.841,143.841,0,0,1,27.242,38.713l.728,1.509,14.532-6.855-.728-1.529a160.236,160.236,0,0,0-30.293-43.082l-1.177-1.195Z" transform="translate(-283.587 -193.174)" fill="#12263f"/>
          <path id="Trazado_99987" data-name="Trazado 99987" d="M576.156,289.6l11.5-5.423a158.9,158.9,0,0,0-29.977-42.628l-9.083,8.879A145.994,145.994,0,0,1,576.156,289.6Z" transform="translate(-284.609 -194.192)" fill="#ccf8ff"/>
          <path id="Trazado_99988" data-name="Trazado 99988" d="M207.1,490.634l-12.833,6.486.746,1.5a160.337,160.337,0,0,0,29.151,40.815l1.19,1.2,11.385-11.334-1.169-1.19a144.259,144.259,0,0,1-26.207-36.731l-.754-1.508Z" transform="translate(-178.233 -268.746)" fill="#12263f"/>
          <path id="Trazado_99989" data-name="Trazado 99989" d="M208.828,493.108l-11.341,5.728a158.889,158.889,0,0,0,28.851,40.392l9-8.969A146.135,146.135,0,0,1,208.828,493.108Z" transform="translate(-179.198 -269.716)" fill="#ccf8ff"/>
          <path id="Trazado_99990" data-name="Trazado 99990" d="M576.534,484.315a143.994,143.994,0,0,1-25.267,38.205l-1.135,1.229,11.786,10.926,1.136-1.241a159.682,159.682,0,0,0,28.106-42.467l.694-1.525-14.625-6.661Z" transform="translate(-285.07 -266.616)" fill="#12263f"/>
          <path id="Trazado_99991" data-name="Trazado 99991" d="M553.52,524.611l9.322,8.634a158.629,158.629,0,0,0,27.809-42.012l-11.566-5.267A145.888,145.888,0,0,1,553.52,524.611Z" transform="translate(-286.088 -267.572)" fill="#ccf8ff"/>
          <path id="Trazado_99992" data-name="Trazado 99992" d="M223.216,240.741a160.511,160.511,0,0,0-28.292,40l-.754,1.517,14.438,7.054.745-1.491A144.129,144.129,0,0,1,234.8,251.874l1.174-1.207-11.591-11.129Z" transform="translate(-178.203 -193.589)" fill="#12263f"/>
          <path id="Trazado_99993" data-name="Trazado 99993" d="M234.564,251.723l-9.168-8.794a158.708,158.708,0,0,0-28,39.577l11.422,5.575A145.883,145.883,0,0,1,234.564,251.723Z" transform="translate(-179.171 -194.607)" fill="#ccf8ff"/>
          <path id="Trazado_99994" data-name="Trazado 99994" d="M432.06,175.536l-2.237,14.214,1.661.262a143.021,143.021,0,0,1,42.553,13.714l1.5.759,7.3-14.315-1.5-.763a158.7,158.7,0,0,0-47.356-15.268l-1.661-.262Z" transform="translate(-248.951 -173.875)" fill="#12263f"/>
          <path id="Trazado_99995" data-name="Trazado 99995" d="M475.625,203.051l5.777-11.32a157.316,157.316,0,0,0-46.856-15.108l-1.975,12.549A144.851,144.851,0,0,1,475.625,203.051Z" transform="translate(-249.776 -174.7)" fill="#ccf8ff"/>
          <path id="Trazado_99996" data-name="Trazado 99996" d="M302.908,585.271l-6.339,12.914,1.5.745a159,159,0,0,0,46.467,14.705l1.661.251L348.6,598l-1.656-.257a143.039,143.039,0,0,1-41.786-13.236l-1.509-.75Z" transform="translate(-208.945 -296.932)" fill="#12263f"/>
          <path id="Trazado_99997" data-name="Trazado 99997" d="M305.381,586.985l-5.6,11.405a156.993,156.993,0,0,0,45.97,14.548l1.9-12.565A144.737,144.737,0,0,1,305.381,586.985Z" transform="translate(-209.91 -297.9)" fill="#ccf8ff"/>
          <path id="Trazado_99998" data-name="Trazado 99998" d="M535.382,374.514l-10.532,1.661.28,1.677a87.929,87.929,0,0,1,.321,27.132l-.228,1.647,12.184,1.861.246-1.677a103.193,103.193,0,0,0,1.034-14.337,101.981,101.981,0,0,0-1.382-16.585l-.271-1.649Z" transform="translate(-277.48 -234.03)" fill="#12263f"/>
          <path id="Trazado_99999" data-name="Trazado 99999" d="M528.864,393.3a91.563,91.563,0,0,1-.915,12.748l8.863,1.355a98.535,98.535,0,0,0-.339-30.415l-8.864,1.407A90.055,90.055,0,0,1,528.864,393.3Z" transform="translate(-278.308 -234.855)" fill="#ccf8ff"/>
          <path id="Trazado_100000" data-name="Trazado 100000" d="M256.842,378.115a101.611,101.611,0,0,0,.174,31.13l.267,1.686,12.147-2.119-.259-1.635a89.152,89.152,0,0,1-.123-27.313l.251-1.677-12.215-1.716Z" transform="translate(-196.684 -234.699)" fill="#12263f"/>
          <path id="Trazado_100001" data-name="Trazado 100001" d="M267.093,393.96a91.229,91.229,0,0,1,1.014-13.527l-8.88-1.249a99.6,99.6,0,0,0,.165,30.614l8.838-1.542A90.862,90.862,0,0,1,267.093,393.96Z" transform="translate(-197.403 -235.513)" fill="#ccf8ff"/>
          <path id="Trazado_100002" data-name="Trazado 100002" d="M449.066,511.093a87.871,87.871,0,0,1-26.82,9.52l-1.651.3,2.2,12.129,1.653-.3A100.272,100.272,0,0,0,455.006,521.9l1.467-.81-5.931-10.812Z" transform="translate(-246.18 -274.871)" fill="#12263f"/>
          <path id="Trazado_100003" data-name="Trazado 100003" d="M423.378,523.25l1.607,8.822a98.79,98.79,0,0,0,30.042-10.664l-4.312-7.859A89.845,89.845,0,0,1,423.378,523.25Z" transform="translate(-247.016 -275.853)" fill="#ccf8ff"/>
          <path id="Trazado_100004" data-name="Trazado 100004" d="M364.117,257.493a100.469,100.469,0,0,0-30.147,9.79l-1.5.771,5.66,10.952,1.491-.759a88.05,88.05,0,0,1,26.412-8.571l1.668-.262-1.924-12.181Z" transform="translate(-219.723 -198.901)" fill="#12263f"/>
          <path id="Trazado_100005" data-name="Trazado 100005" d="M366.744,268.84l-1.393-8.863a98.647,98.647,0,0,0-29.648,9.634l4.122,7.961A89.828,89.828,0,0,1,366.744,268.84Z" transform="translate(-220.694 -199.725)" fill="#ccf8ff"/>
          <path id="Trazado_100006" data-name="Trazado 100006" d="M496.284,298.3l-7.625,7.443,1.194,1.2a88.9,88.9,0,0,1,16.76,23.669l.728,1.5,11.16-5.266-.745-1.525a101.166,101.166,0,0,0-19.1-27l-1.178-1.195Z" transform="translate(-266.615 -210.877)" fill="#12263f"/>
          <path id="Trazado_100007" data-name="Trazado 100007" d="M509.154,330.9l8.108-3.821a99.438,99.438,0,0,0-18.776-26.559l-6.414,6.267A90.7,90.7,0,0,1,509.154,330.9Z" transform="translate(-267.639 -211.897)" fill="#ccf8ff"/>
          <path id="Trazado_100008" data-name="Trazado 100008" d="M279.107,454.985l-9.49,4.791.737,1.5a101.314,101.314,0,0,0,18.276,25.775l1.187,1.216,8.731-8.707-1.157-1.185a88.929,88.929,0,0,1-16.023-22.636l-.745-1.52Z" transform="translate(-200.853 -258.041)" fill="#12263f"/>
          <path id="Trazado_100009" data-name="Trazado 100009" d="M280.833,457.463l-8.008,4.037a99.51,99.51,0,0,0,17.967,25.351l6.359-6.334A90.557,90.557,0,0,1,280.833,457.463Z" transform="translate(-201.816 -259.015)" fill="#ccf8ff"/>
          <path id="Trazado_100010" data-name="Trazado 100010" d="M508.772,451.526a88.8,88.8,0,0,1-15.464,23.551l-1.126,1.232,9.04,8.385,1.144-1.254A100.861,100.861,0,0,0,520,456.622l.686-1.525-11.218-5.117Z" transform="translate(-267.673 -256.768)" fill="#12263f"/>
          <path id="Trazado_100011" data-name="Trazado 100011" d="M495.56,477.172l6.574,6.1A99.419,99.419,0,0,0,519.479,456.9l-8.159-3.719A90.707,90.707,0,0,1,495.56,477.172Z" transform="translate(-268.687 -257.728)" fill="#ccf8ff"/>
          <path id="Trazado_100012" data-name="Trazado 100012" d="M288.6,299.179a101.192,101.192,0,0,0-17.819,25.03l-.762,1.512,11.074,5.418.75-1.483a88.955,88.955,0,0,1,15.638-21.924l1.186-1.216-8.9-8.533Z" transform="translate(-200.973 -211.135)" fill="#12263f"/>
          <path id="Trazado_100013" data-name="Trazado 100013" d="M297.245,307.569l-6.465-6.207a99.7,99.7,0,0,0-17.532,24.615l8.061,3.94A90.715,90.715,0,0,1,297.245,307.569Z" transform="translate(-201.944 -212.15)" fill="#ccf8ff"/>
          <path id="Trazado_100014" data-name="Trazado 100014" d="M419.183,258.89l-1.652,10.525,1.661.262A88.075,88.075,0,0,1,445.2,278.04l1.491.75,5.609-10.982-1.508-.762a100.378,100.378,0,0,0-29.684-9.553l-1.659-.259Z" transform="translate(-245.261 -198.901)" fill="#12263f"/>
          <path id="Trazado_100015" data-name="Trazado 100015" d="M446.775,277.363l4.076-7.989a98.453,98.453,0,0,0-29.184-9.4l-1.394,8.863A89.66,89.66,0,0,1,446.775,277.363Z" transform="translate(-246.084 -199.725)" fill="#ccf8ff"/>
          <path id="Trazado_100016" data-name="Trazado 100016" d="M338.439,514.29l-4.686,9.55,1.5.749a100.257,100.257,0,0,0,29.283,9.342l1.669.262,1.848-12.2-1.654-.258a87.885,87.885,0,0,1-25.7-8.21l-1.517-.755Z" transform="translate(-220.109 -275.62)" fill="#12263f"/>
          <path id="Trazado_100017" data-name="Trazado 100017" d="M340.911,516l-3.948,8.055a98.84,98.84,0,0,0,28.791,9.185l1.346-8.871A89.657,89.657,0,0,1,340.911,516Z" transform="translate(-221.072 -276.588)" fill="#ccf8ff"/>
        </g>
        <g id="Grupo_83360" data-name="Grupo 83360" transform="translate(101.952 99.914)">
          <path id="Trazado_100018" data-name="Trazado 100018" d="M377.174,257.054l-1.665.262,1.935,12.177,1.654-.255a89.378,89.378,0,0,1,27.333,0l1.658.255,1.936-12.177-1.669-.262a102.285,102.285,0,0,0-31.181,0Z" transform="translate(-292.566 -255.859)" fill="#12263f"/>
          <path id="Trazado_100019" data-name="Trazado 100019" d="M393.59,267.23a90.989,90.989,0,0,1,13.93,1.069l1.4-8.863a100.436,100.436,0,0,0-30.663,0l1.409,8.863A90.841,90.841,0,0,1,393.59,267.23Z" transform="translate(-293.391 -256.579)" fill="#12263f"/>
          <path id="Trazado_100020" data-name="Trazado 100020" d="M408.586,524.948a88.475,88.475,0,0,1-29.5.381l-1.669-.262-1.86,12.2,1.656.25a100.9,100.9,0,0,0,33.579-.431l1.661-.3-2.221-12.133Z" transform="translate(-292.581 -336.557)" fill="#12263f"/>
          <path id="Trazado_100021" data-name="Trazado 100021" d="M393.6,528.9a91.34,91.34,0,0,1-13.951-1.071l-1.355,8.867a99.524,99.524,0,0,0,33.023-.428l-1.613-8.821A90.819,90.819,0,0,1,393.6,528.9Z" transform="translate(-293.402 -337.396)" fill="#12263f"/>
          <path id="Trazado_100022" data-name="Trazado 100022" d="M523.025,336.214l-9.642,4.571.737,1.524a88.138,88.138,0,0,1,7.541,23.768l.272,1.64,12.184-1.915-.28-1.673a100.281,100.281,0,0,0-8.575-27.123l-.728-1.5Z" transform="translate(-333.959 -279.77)" fill="#12263f"/>
          <path id="Trazado_100023" data-name="Trazado 100023" d="M524.28,366.759l8.863-1.4a98.516,98.516,0,0,0-8.43-26.666l-8.109,3.839A89.569,89.569,0,0,1,524.28,366.759Z" transform="translate(-334.926 -280.727)" fill="#12263f"/>
          <path id="Trazado_100024" data-name="Trazado 100024" d="M267.7,418.447l-10.477,1.8.267,1.64a100.189,100.189,0,0,0,9.066,28.4l.746,1.525,11-5.583-.733-1.487a88.227,88.227,0,0,1-7.926-24.911l-.267-1.678Z" transform="translate(-257.054 -304.585)" fill="#12263f"/>
          <path id="Trazado_100025" data-name="Trazado 100025" d="M268.809,420.944l-8.837,1.525a98.885,98.885,0,0,0,8.914,27.92l8-4.068A89.5,89.5,0,0,1,268.809,420.944Z" transform="translate(-257.879 -305.421)" fill="#12263f"/>
          <path id="Trazado_100026" data-name="Trazado 100026" d="M482.93,486.128a88.98,88.98,0,0,1-22.047,17.252l-1.466.809,5.914,10.824,1.482-.821a101.534,101.534,0,0,0,25.114-19.633l1.145-1.228-9-8.432Z" transform="translate(-317.757 -324.622)" fill="#12263f"/>
          <path id="Trazado_100027" data-name="Trazado 100027" d="M462.673,505.867l4.3,7.868a99.906,99.906,0,0,0,24.7-19.305l-6.541-6.139A90.715,90.715,0,0,1,462.673,505.867Z" transform="translate(-318.734 -325.64)" fill="#12263f"/>
          <path id="Trazado_100028" data-name="Trazado 100028" d="M322.773,271.385A101.415,101.415,0,0,0,296.9,290.347l-1.19,1.212,8.841,8.583,1.173-1.183a88.747,88.747,0,0,1,22.683-16.6l1.5-.772-5.647-10.959Z" transform="translate(-268.609 -260.292)" fill="#12263f"/>
          <path id="Trazado_100029" data-name="Trazado 100029" d="M328.668,281.834l-4.106-7.969a99.629,99.629,0,0,0-25.445,18.641l6.436,6.244A90.747,90.747,0,0,1,328.668,281.834Z" transform="translate(-269.631 -261.265)" fill="#12263f"/>
          <path id="Trazado_100030" data-name="Trazado 100030" d="M460,271.8l-4.83,9.5,1.5.759A88.573,88.573,0,0,1,479.7,298.8l1.177,1.178,8.829-8.6-1.2-1.213A101.091,101.091,0,0,0,462.25,271.06l-1.5-.754Z" transform="translate(-316.481 -260.196)" fill="#12263f"/>
          <path id="Trazado_100031" data-name="Trazado 100031" d="M481.861,298.581l6.423-6.262a99.691,99.691,0,0,0-25.816-18.793l-4.069,7.99A90.632,90.632,0,0,1,481.861,298.581Z" transform="translate(-317.451 -261.163)" fill="#12263f"/>
          <path id="Trazado_100032" data-name="Trazado 100032" d="M303.454,489.033l-7.49,7.55,1.169,1.187a100.955,100.955,0,0,0,26.614,19.242l1.517.763,5.409-11.08-1.491-.742a88.935,88.935,0,0,1-23.34-16.921l-1.195-1.2Z" transform="translate(-268.685 -325.502)" fill="#12263f"/>
          <path id="Trazado_100033" data-name="Trazado 100033" d="M305.665,491.238l-6.316,6.368a99.62,99.62,0,0,0,26.16,18.934l3.94-8.062A90.674,90.674,0,0,1,305.665,491.238Z" transform="translate(-269.701 -326.525)" fill="#12263f"/>
          <path id="Trazado_100034" data-name="Trazado 100034" d="M522.486,417.657a88,88,0,0,1-6.779,23.487l-.677,1.516,11.21,5.134.694-1.544a100.373,100.373,0,0,0,7.754-26.772l.237-1.653-12.193-1.847Z" transform="translate(-334.453 -303.931)" fill="#12263f"/>
          <path id="Trazado_100035" data-name="Trazado 100035" d="M518.19,442.646l8.161,3.733a98.667,98.667,0,0,0,7.616-26.325L525.1,418.71A89.223,89.223,0,0,1,518.19,442.646Z" transform="translate(-335.402 -304.751)" fill="#12263f"/>
          <path id="Trazado_100036" data-name="Trazado 100036" d="M266.78,335.05a100.238,100.238,0,0,0-9.54,30.05l-.259,1.682,12.214,1.7.246-1.644a88.312,88.312,0,0,1,8.4-26.335l.762-1.512-11.073-5.435Z" transform="translate(-256.981 -279.186)" fill="#12263f"/>
          <path id="Trazado_100037" data-name="Trazado 100037" d="M277.162,340.714l-8.059-3.953a98.741,98.741,0,0,0-9.379,29.554l8.879,1.238A89.583,89.583,0,0,1,277.162,340.714Z" transform="translate(-257.804 -280.148)" fill="#12263f"/>
        </g>
        <path id="Trazado_100038" data-name="Trazado 100038" d="M379.184,269.765l-1.665.259,14.189,89.314,3.321,0,14.192-89.31-1.669-.259a92.92,92.92,0,0,0-28.368,0Z" transform="translate(-191.217 -159.793)" fill="#12263f"/>
        <path id="Trazado_100039" data-name="Trazado 100039" d="M394.2,359.573l-.017.11.017.111,13.93-87.647a91.285,91.285,0,0,0-27.852,0l13.9,87.476Z" transform="translate(-192.044 -160.514)" fill="#265d99"/>
        <path id="Trazado_100040" data-name="Trazado 100040" d="M391.452,399.47,377.489,490.8l1.661.258a92.292,92.292,0,0,0,30.608-.393l1.661-.3-16.653-90.942Z" transform="translate(-191.208 -199.048)" fill="#12263f"/>
        <path id="Trazado_100041" data-name="Trazado 100041" d="M393.912,400.165l.038-.237-.014-.076-13.705,89.671a90.589,90.589,0,0,0,30.055-.382L393.97,400.051Z" transform="translate(-192.032 -199.175)" fill="#265d99"/>
        <path id="Trazado_100042" data-name="Trazado 100042" d="M489.253,376.514l-88.4,14.049-.127,3.342,90.555,13.838.237-1.682a91.089,91.089,0,0,0-.339-28.165l-.27-1.644Z" transform="translate(-198.184 -192.09)" fill="#12263f"/>
        <path id="Trazado_100043" data-name="Trazado 100043" d="M401.278,393.07l-.119-.012-.072.009,88.877,13.586a91.573,91.573,0,0,0,.915-12.748,90.061,90.061,0,0,0-1.255-14.9l-88.4,14.048Z" transform="translate(-198.293 -192.915)" fill="#fff"/>
        <path id="Trazado_100044" data-name="Trazado 100044" d="M269.572,379.9a92.72,92.72,0,0,0-1.034,13.781,93.675,93.675,0,0,0,1.153,14.557l.271,1.686,89.977-15.646.051-3.342L269.818,378.25Z" transform="translate(-158.499 -192.689)" fill="#12263f"/>
        <path id="Trazado_100045" data-name="Trazado 100045" d="M360.269,393.394l.2.025h.009l-88.522-12.451a90.6,90.6,0,0,0,.122,27.822l88.294-15.354Z" transform="translate(-159.22 -193.505)" fill="#fff"/>
        <path id="Trazado_100046" data-name="Trazado 100046" d="M481.086,341.7,400.7,379.794l.978,3.182,89.749-14.133-.279-1.678a91.6,91.6,0,0,0-7.822-24.673l-.728-1.5Z" transform="translate(-198.176 -181.502)" fill="#12263f"/>
        <path id="Trazado_100047" data-name="Trazado 100047" d="M489.789,368.406a89.566,89.566,0,0,0-7.676-24.228l-80.394,38.094Z" transform="translate(-198.483 -182.46)" fill="#265d99"/>
        <path id="Trazado_100048" data-name="Trazado 100048" d="M271.492,412.057l-1.64.288.259,1.635a91.6,91.6,0,0,0,8.227,25.86l.754,1.529,81.451-41.339-1.041-3.157Z" transform="translate(-158.893 -198.28)" fill="#12263f"/>
        <path id="Trazado_100049" data-name="Trazado 100049" d="M272.6,414.43a89.5,89.5,0,0,0,8.079,25.377l79.927-40.56Z" transform="translate(-159.718 -198.993)" fill="#265d99"/>
        <path id="Trazado_100050" data-name="Trazado 100050" d="M397.928,400.259l16.455,90.595,1.661-.3a91.4,91.4,0,0,0,27.836-9.88l1.474-.813-44.3-80.715Z" transform="translate(-197.345 -198.964)" fill="#12263f"/>
        <path id="Trazado_100051" data-name="Trazado 100051" d="M416.446,489.254a89.844,89.844,0,0,0,27.337-9.7l-43.494-79.239Z" transform="translate(-198.053 -199.313)" fill="#fff"/>
        <path id="Trazado_100052" data-name="Trazado 100052" d="M367.282,270.149a91.7,91.7,0,0,0-27.423,8.906l-1.5.771,41.45,80.138,3.157-1.029L368.938,269.9Z" transform="translate(-179.459 -160.16)" fill="#12263f"/>
        <path id="Trazado_100053" data-name="Trazado 100053" d="M368.513,272.643a89.827,89.827,0,0,0-26.919,8.731l40.68,78.643Z" transform="translate(-180.432 -160.984)" fill="#fff"/>
        <path id="Trazado_100054" data-name="Trazado 100054" d="M463.092,307.254l-63.625,62.179,1.888,2.725,82.251-38.791-.745-1.524a92.05,92.05,0,0,0-17.4-24.568l-1.177-1.19Z" transform="translate(-197.807 -171.024)" fill="#12263f"/>
        <path id="Trazado_100055" data-name="Trazado 100055" d="M401.137,371.655l80.716-38.065a90.7,90.7,0,0,0-17.082-24.114Z" transform="translate(-198.308 -172.042)" fill="#fff"/>
        <path id="Trazado_100056" data-name="Trazado 100056" d="M282.54,437.954l-1.487.749.741,1.5a92.387,92.387,0,0,0,16.619,23.492l1.188,1.217,64.975-64.722-1.944-2.695Z" transform="translate(-162.256 -198.466)" fill="#12263f"/>
        <path id="Trazado_100057" data-name="Trazado 100057" d="M284.268,440.1a90.556,90.556,0,0,0,16.318,23.055l63.769-63.523Z" transform="translate(-163.221 -199.109)" fill="#fff"/>
        <path id="Trazado_100058" data-name="Trazado 100058" d="M398.653,400.4l44.139,80.765,1.474-.818a92.434,92.434,0,0,0,22.877-17.9l1.145-1.225L401.28,398.362Z" transform="translate(-197.562 -198.728)" fill="#12263f"/>
        <path id="Trazado_100059" data-name="Trazado 100059" d="M444.086,479.4a90.71,90.71,0,0,0,22.462-17.576l-65.786-61.7Z" transform="translate(-198.195 -199.255)" fill="#265d99"/>
        <path id="Trazado_100060" data-name="Trazado 100060" d="M329.636,282.787a91.95,91.95,0,0,0-23.542,17.23l-1.2,1.208L369.77,364.2l2.669-1.971L331.133,282.02Z" transform="translate(-169.415 -163.799)" fill="#12263f"/>
        <path id="Trazado_100061" data-name="Trazado 100061" d="M331.429,285.253a90.751,90.751,0,0,0-23.115,16.916l63.65,61.794Z" transform="translate(-170.44 -164.77)" fill="#265d99"/>
        <path id="Trazado_100062" data-name="Trazado 100062" d="M439.01,283.218l-40.2,79.109,2.668,1.965,64.88-63.233-1.194-1.2a92.362,92.362,0,0,0-23.9-17.379l-1.5-.754Z" transform="translate(-197.61 -163.71)" fill="#12263f"/>
        <path id="Trazado_100063" data-name="Trazado 100063" d="M464.613,302.009a90.628,90.628,0,0,0-23.463-17.065l-40.2,79.122Z" transform="translate(-198.252 -164.677)" fill="#265d99"/>
        <path id="Trazado_100064" data-name="Trazado 100064" d="M306.164,462.118,304.99,463.3l1.174,1.188a92.315,92.315,0,0,0,24.228,17.559l1.513.763L372.3,400.13l-2.695-1.949Z" transform="translate(-169.442 -198.673)" fill="#12263f"/>
        <path id="Trazado_100065" data-name="Trazado 100065" d="M371.788,399.906l.017-.03h.007l-63.437,63.933a90.669,90.669,0,0,0,23.784,17.24L371.8,399.9Z" transform="translate(-170.459 -199.182)" fill="#265d99"/>
        <path id="Trazado_100066" data-name="Trazado 100066" d="M399.4,400.411l67.389,62.471,1.143-1.249a91.88,91.88,0,0,0,16.048-24.441l.678-1.528-83.42-38.015Z" transform="translate(-197.788 -198.513)" fill="#12263f"/>
        <path id="Trazado_100067" data-name="Trazado 100067" d="M467.183,461.157a90.713,90.713,0,0,0,15.76-24l-81.9-37.329Z" transform="translate(-198.279 -199.169)" fill="#fff"/>
        <path id="Trazado_100068" data-name="Trazado 100068" d="M298.526,308.051a92.137,92.137,0,0,0-16.234,22.75l-.767,1.525,81.388,39.748,1.907-2.721-65.133-62.505Z" transform="translate(-162.398 -171.253)" fill="#12263f"/>
        <path id="Trazado_100069" data-name="Trazado 100069" d="M300.7,310.232a90.716,90.716,0,0,0-15.935,22.348l79.86,39Z" transform="translate(-163.372 -172.269)" fill="#fff"/>
        <path id="Trazado_100070" data-name="Trazado 100070" d="M411.99,271.556,398.218,358.99l3.161,1.027L442.425,279.6l-1.517-.758a91.45,91.45,0,0,0-27-8.694l-1.661-.25Z" transform="translate(-197.432 -160.16)" fill="#12263f"/>
        <path id="Trazado_100071" data-name="Trazado 100071" d="M440.866,281.166a89.661,89.661,0,0,0-26.5-8.523l-13.773,87.433Z" transform="translate(-198.144 -160.984)" fill="#fff"/>
        <path id="Trazado_100072" data-name="Trazado 100072" d="M340.137,480.222l-.729,1.5,1.491.745a91.506,91.506,0,0,0,26.677,8.524l1.666.263,13.776-90.967-3.173-.991Z" transform="translate(-179.775 -199.008)" fill="#12263f"/>
        <path id="Trazado_100073" data-name="Trazado 100073" d="M342.605,481.28a89.659,89.659,0,0,0,26.189,8.369l13.524-89.294Z" transform="translate(-180.735 -199.326)" fill="#fff"/>
        <path id="Trazado_100074" data-name="Trazado 100074" d="M400.7,400.395l83.066,38.035.687-1.55a91.6,91.6,0,0,0,7.041-24.38l.237-1.657L401.649,397.2Z" transform="translate(-198.176 -198.379)" fill="#12263f"/>
        <path id="Trazado_100075" data-name="Trazado 100075" d="M483.215,436.9a89.233,89.233,0,0,0,6.906-23.936l-88.428-13.387Z" transform="translate(-198.475 -199.093)" fill="#265d99"/>
        <path id="Trazado_100076" data-name="Trazado 100076" d="M278.643,340.692a91.506,91.506,0,0,0-8.714,27.338l-.258,1.682,90.021,12.544.971-3.173L279.393,339.2Z" transform="translate(-158.839 -180.966)" fill="#12263f"/>
        <path id="Trazado_100077" data-name="Trazado 100077" d="M280.971,342.41a89.581,89.581,0,0,0-8.558,26.839l88.333,12.307Z" transform="translate(-159.662 -181.929)" fill="#265d99"/>
        <path id="Trazado_100078" data-name="Trazado 100078" d="M363.025,387.49a26.067,26.067,0,1,0,26.068-26.064A26.1,26.1,0,0,0,363.025,387.49Z" transform="translate(-186.866 -187.638)" fill="#12263f"/>
        <path id="Trazado_100079" data-name="Trazado 100079" d="M414.194,388.211a24.382,24.382,0,1,1-24.379-24.382A24.383,24.383,0,0,1,414.194,388.211Z" transform="translate(-187.588 -188.36)" fill="#ccf8ff"/>
        <path id="Trazado_100080" data-name="Trazado 100080" d="M379.226,392.354a14.729,14.729,0,1,0,14.731-14.727A14.746,14.746,0,0,0,379.226,392.354Z" transform="translate(-191.73 -192.502)" fill="#12263f"/>
        <path id="Trazado_100081" data-name="Trazado 100081" d="M407.722,393.075a13.046,13.046,0,1,1-13.043-13.045A13.05,13.05,0,0,1,407.722,393.075Z" transform="translate(-192.451 -193.224)" fill="#76c2dd"/>
        <path id="Trazado_100082" data-name="Trazado 100082" d="M482.2,160.119c-1.736,0-2.763-.085-4.5-.085-1.653,0-2.889.085-4.508.085a1.233,1.233,0,0,1,.12-.8c.737-.085,1.118-.143,1.651-.237.882-.2,1.084-.88,1.262-1.787.262-1.271.56-3.042,1.034-5.833.381-2.386.763-4.682.823-5.478.059-.5-.025-1.034-.534-1.115a11.761,11.761,0,0,0-1.525-.241,1.121,1.121,0,0,1,.143-.763,19.027,19.027,0,0,0,5.923-1.355c.111-.029.407.059.407.179-.262,1.176-.466,2.181-.881,4.591-.357,2.381-1.152,7.448-1.441,9.863-.093,1.089-.093,1.771.618,1.94a10.5,10.5,0,0,0,1.585.237A1.509,1.509,0,0,1,482.2,160.119Z" transform="translate(-219.935 -121.914)" fill="#fff"/>
        <path id="Trazado_100083" data-name="Trazado 100083" d="M549.628,595.509c-.118.056-.533-.469-.466-.589,2.059-2.651,4.178-3.772,6.2-3.772a4.393,4.393,0,0,1,4.39,4.534c0,2.3-1.119,4.152-4.034,6.686-1.177,1-2.262,1.885-3.677,3.033-.035.026-.06.178.025.178,1,.055,4.482.055,5.745,0,.619-.035,1.322-.3,2.3-1.915.085-.093.644.2.644.352a22.644,22.644,0,0,1-2.085,4.266c-.177.33-.652.444-1.626.474-2.12.059-5.591-.089-7.77-.089-.584,0-1.558,0-2.058.059a3.431,3.431,0,0,1,.092-.793,33.727,33.727,0,0,0,5.966-4.919c1.982-2.063,2.77-3.8,2.77-5.952a2.9,2.9,0,0,0-2.856-3.174A4.809,4.809,0,0,0,549.628,595.509Z" transform="translate(-242.164 -256.607)" fill="#fff"/>
        <path id="Trazado_100084" data-name="Trazado 100084" d="M406.821,647.074c0,1.733-1.174,2.915-3.263,4.067-.059.025-.089.11-.059.141,2.118.707,3.677,2.325,3.677,4.359a6.2,6.2,0,0,1-3.593,5.415,8.648,8.648,0,0,1-4.3,1.092,7.476,7.476,0,0,1-3.388-.707,1.756,1.756,0,0,1-.966-1.089,11.084,11.084,0,0,1-.064-2.8c.089-.153.559-.266.679-.266a4.689,4.689,0,0,0,1.856,3.087,4.054,4.054,0,0,0,2.5.832c2.121,0,3.418-1.738,3.418-4.093a3.41,3.41,0,0,0-3.593-3.742,7.46,7.46,0,0,0-.885.06,3.172,3.172,0,0,1,.678-1.385c2.919-.5,4.008-1.619,4.008-3.38a2.635,2.635,0,0,0-2.741-2.891,4.765,4.765,0,0,0-3.355,1.535c-.119,0-.411-.535-.411-.649,1.411-1.5,3.385-3.267,5.918-3.267A3.709,3.709,0,0,1,406.821,647.074Z" transform="translate(-196.409 -272.293)" fill="#fff"/>
        <path id="Trazado_100085" data-name="Trazado 100085" d="M607.182,250.592c-.06,0-.118.09-.118.12l-.822,5.355c-.914,0-3.127.177-3.982.3l.975-5.6c0-.08-.06-.17-.085-.17-2.3,0-4.592,0-6.9-.034a6.4,6.4,0,0,1,.33-1.118c2.355-2.707,8.863-9.769,10.1-11.1.237,0,.56.029,1.059.029.559,0,1-.059,1.2-.059-.289,1.911-1.179,7.389-1.585,10.278,0,.026.059.174.144.174l3-.09a16.837,16.837,0,0,0-.526,1.915Zm-3.745-1.766c.069,0,.153-.122.153-.148l1.3-7.007a.081.081,0,0,0-.118,0c-.771.8-4.737,5.325-6.033,7.033,0,.034,0,.122.051.122Z" transform="translate(-256.886 -150.678)" fill="#fff"/>
        <path id="Trazado_100086" data-name="Trazado 100086" d="M320.011,142.8a8.072,8.072,0,0,1-1.3,2.441,1.984,1.984,0,0,1-1.856.94c-1.677,0-2.859-.2-3.651-.2a.505.505,0,0,0-.3.178,9.265,9.265,0,0,0-.737,1.619c0,.059,0,.237.088.288,1.267.651,4.216,2.122,5.3,2.889,1.564,1.122,2.449,2.236,2.449,4.033,0,4.211-4.3,6.3-7.245,6.3a5.509,5.509,0,0,1-4.711-2.093,1.64,1.64,0,0,1-.237-.852,6.143,6.143,0,0,1,.94-1.945.844.844,0,0,1,.356-.114c.971,1.762,2.47,3.792,4.944,3.792,1.941,0,2.622-1.3,2.622-2.8a4.045,4.045,0,0,0-1.944-3.326c-1.384-1.029-4.122-2.529-4.74-3a3.014,3.014,0,0,1,.089-.971,69.915,69.915,0,0,1,3.148-6.507,1.367,1.367,0,0,1,.856-.7c.559.029,2.238.174,3.919.174a2.01,2.01,0,0,0,1.558-.5C319.654,142.441,320.011,142.649,320.011,142.8Z" transform="translate(-170.291 -121.894)" fill="#fff"/>
        <path id="Trazado_100087" data-name="Trazado 100087" d="M651.858,393.548c-.06.09,0,.241.093.182a7.426,7.426,0,0,1,3.474-1.182c2.085,0,3.88,1.682,3.907,4.6a7.025,7.025,0,0,1-4.288,6.621,7.919,7.919,0,0,1-2.982.619c-3.881,0-5.5-2.588-5.5-5.682,0-6.625,6.828-11.921,13.446-13.539.187.025.39.643.271.733A17.117,17.117,0,0,0,651.858,393.548Zm-.3,1.183a1.062,1.062,0,0,0-.407.475,12.115,12.115,0,0,0-.652,3.821c0,3.034.916,4.364,2.355,4.364,1.534,0,2.686-2.509,2.686-5.1,0-2.677-.975-3.94-2.593-3.94A3.026,3.026,0,0,0,651.561,394.731Z" transform="translate(-271.99 -194.765)" fill="#d9dbdc"/>
        <path id="Trazado_100088" data-name="Trazado 100088" d="M251.682,592.663c-1.5,3.211-9.037,15.285-10.156,17.487a.526.526,0,0,1-.207.152,2.783,2.783,0,0,1-.971-.5,1.459,1.459,0,0,1,.026-.5c1.885-3.026,6.947-10.8,8.363-13.422,0-.064.03-.2-.029-.2-.971-.033-5.326-.059-7.453.056-.881.085-1.262.563-2.2,2.032-.118.056-.738-.3-.767-.385a38.063,38.063,0,0,0,1.885-5.39,5.874,5.874,0,0,0,2.208.272h6.1c1.143,0,2.474,0,3.118-.058C251.682,592.227,251.712,592.6,251.682,592.663Z" transform="translate(-149.416 -256.857)" fill="#fff"/>
        <path id="Trazado_100089" data-name="Trazado 100089" d="M157.112,472.537c0,1.794-1.272,2.615-3.479,4.089-.114.06-.088.094-.029.145,1.915,1.5,3,2.864,3.034,4.448,0,3.152-3.152,5.483-6.8,5.483-3.915,0-5.329-2.068-5.329-3.89,0-1.508.97-2.414,4.389-4.537.055-.03.055-.055,0-.114a5.441,5.441,0,0,1-2.267-3.949,5.053,5.053,0,0,1,2.355-4.27,6.779,6.779,0,0,1,3.737-1.085C155.493,468.856,157.078,470.508,157.112,472.537Zm-3.949,10.6c-.029-1.322-.881-2.27-3.389-4.33-.059-.054-.144-.085-.2-.025a4.739,4.739,0,0,0-2.092,3.737,3.052,3.052,0,0,0,3.127,3.241A2.446,2.446,0,0,0,153.163,483.133Zm-3.389-10.951c-.025,1.411.738,2.351,2.982,3.969a.156.156,0,0,0,.2,0,4.412,4.412,0,0,0,1.474-3.321c.052-1.618-.915-3.059-2.508-3.059A2.247,2.247,0,0,0,149.774,472.182Z" transform="translate(-121.262 -219.891)" fill="#fff"/>
        <path id="Trazado_100090" data-name="Trazado 100090" d="M178.009,258.892a16.213,16.213,0,0,0,8.185-7.423c.034-.08-.029-.169-.09-.135a9.191,9.191,0,0,1-3.651,1.11c-2.5,0-4-2.2-4-4.619a6.985,6.985,0,0,1,3.91-6.388,7.847,7.847,0,0,1,3.39-.8c3.682,0,5.418,2.741,5.418,5.915,0,6.211-5.626,11.362-12.867,13.108C178.187,259.628,177.921,259.043,178.009,258.892Zm4.182-12.418c0,3.089,1.356,4.18,2.974,4.18a2.739,2.739,0,0,0,1.148-.27,1.28,1.28,0,0,0,.415-.559,12.2,12.2,0,0,0,.7-3.974c0-2.741-.7-4.271-2.355-4.271C183.577,241.58,182.191,243.821,182.191,246.474Z" transform="translate(-131.315 -151.376)" fill="#fff"/>
        <g id="Grupo_83361" data-name="Grupo 83361" transform="translate(361.271 241.115)">
          <path id="Trazado_100091" data-name="Trazado 100091" d="M636.585,475.251c-1.737,0-2.77-.094-4.507-.094-1.644,0-2.881.094-4.5.094a1.245,1.245,0,0,1,.12-.8c.736-.081,1.117-.139,1.651-.232.883-.2,1.085-.878,1.263-1.8.263-1.262.559-3.033,1.025-5.829.382-2.381.771-4.682.83-5.474.059-.5-.034-1.034-.534-1.119a11.785,11.785,0,0,0-1.532-.237,1.11,1.11,0,0,1,.152-.762,18.8,18.8,0,0,0,5.915-1.355c.118-.025.414.06.414.177-.262,1.178-.474,2.178-.881,4.593-.356,2.385-1.153,7.447-1.449,9.863-.085,1.087-.085,1.766.618,1.94a9.951,9.951,0,0,0,1.593.232A1.638,1.638,0,0,1,636.585,475.251Z" transform="translate(-627.555 -457.639)" fill="#fff"/>
          <path id="Trazado_100092" data-name="Trazado 100092" d="M660.443,463.682c0,3.973-1.525,9.033-4.829,10.952a7.1,7.1,0,0,1-3.441.882c-3.8,0-5.092-2.645-5.067-6.1,0-3.326,1.153-8.334,4.33-10.508a7.281,7.281,0,0,1,4.033-1.266C659.121,457.645,660.443,460.323,660.443,463.682Zm-6.914-4.385c-1.618,2-2.567,7.27-2.567,11.243-.025,3.176.712,4.063,1.8,4.063a1.715,1.715,0,0,0,1.093-.5c1.653-1.733,2.831-7.947,2.831-12.094,0-3.266-1.008-3.509-1.745-3.509A1.894,1.894,0,0,0,653.528,459.3Z" transform="translate(-633.425 -457.641)" fill="#fff"/>
        </g>
        <g id="Grupo_83362" data-name="Grupo 83362" transform="translate(8.017 193.766)">
          <path id="Trazado_100093" data-name="Trazado 100093" d="M131.78,407.589c-1.736,0-2.766-.09-4.5-.09-1.652,0-2.889.09-4.508.09a1.214,1.214,0,0,1,.119-.793c.738-.087,1.118-.148,1.648-.241.885-.2,1.089-.88,1.267-1.788.267-1.271.559-3.034,1.029-5.838.386-2.381.768-4.678.827-5.474.059-.5-.029-1.026-.534-1.118a11.064,11.064,0,0,0-1.526-.233,1.126,1.126,0,0,1,.143-.768,18.755,18.755,0,0,0,5.919-1.356c.118-.025.411.06.411.178-.263,1.178-.474,2.178-.881,4.594-.355,2.384-1.148,7.447-1.44,9.862-.093,1.092-.093,1.766.619,1.94a10.368,10.368,0,0,0,1.584.241A1.6,1.6,0,0,1,131.78,407.589Z" transform="translate(-122.746 -389.976)" fill="#fff"/>
          <path id="Trazado_100094" data-name="Trazado 100094" d="M152.687,407.589c-1.733,0-2.766-.09-4.5-.09-1.648,0-2.885.09-4.5.09a1.214,1.214,0,0,1,.119-.793c.738-.087,1.119-.148,1.644-.241.889-.2,1.093-.88,1.271-1.788.262-1.271.559-3.034,1.03-5.838.386-2.381.766-4.678.822-5.474.064-.5-.025-1.026-.529-1.118a11.183,11.183,0,0,0-1.526-.233,1.107,1.107,0,0,1,.144-.768,18.7,18.7,0,0,0,5.915-1.356c.118-.025.415.06.415.178-.263,1.178-.466,2.178-.88,4.594-.356,2.384-1.149,7.447-1.446,9.862-.088,1.092-.088,1.766.619,1.94a10.586,10.586,0,0,0,1.588.241A1.549,1.549,0,0,1,152.687,407.589Z" transform="translate(-129.024 -389.976)" fill="#fff"/>
        </g>
        <g id="Grupo_83363" data-name="Grupo 83363" transform="translate(79.723 46.101)">
          <path id="Trazado_100095" data-name="Trazado 100095" d="M234.247,196.576c-1.735,0-2.766-.094-4.5-.094-1.647,0-2.886.094-4.507.094a1.224,1.224,0,0,1,.123-.8c.738-.093,1.118-.148,1.643-.237.889-.208,1.094-.88,1.271-1.8.263-1.263.56-3.029,1.03-5.83.377-2.386.762-4.682.822-5.474.059-.5-.03-1.033-.529-1.122a11.36,11.36,0,0,0-1.53-.233,1.14,1.14,0,0,1,.148-.771,18.666,18.666,0,0,0,5.914-1.352c.118-.029.416.06.416.183-.267,1.169-.474,2.174-.882,4.592-.356,2.381-1.151,7.444-1.444,9.858-.088,1.089-.088,1.766.614,1.945a10.838,10.838,0,0,0,1.593.237A1.574,1.574,0,0,1,234.247,196.576Z" transform="translate(-225.215 -178.958)" fill="#fff"/>
          <path id="Trazado_100096" data-name="Trazado 100096" d="M246.345,183.326c-.118.051-.529-.474-.469-.593,2.059-2.644,4.177-3.767,6.21-3.767a4.4,4.4,0,0,1,4.389,4.537c0,2.3-1.118,4.152-4.033,6.686-1.178,1-2.267,1.88-3.682,3.029-.03.025-.06.173.029.173,1,.06,4.474.06,5.74,0,.614-.025,1.326-.292,2.3-1.915.089-.085.648.211.648.36a23.061,23.061,0,0,1-2.083,4.266c-.183.322-.654.441-1.628.475-2.117.055-5.593-.094-7.77-.094-.589,0-1.56,0-2.059.059a3.393,3.393,0,0,1,.085-.793,33.3,33.3,0,0,0,5.973-4.917c1.979-2.06,2.771-3.8,2.771-5.948a2.9,2.9,0,0,0-2.855-3.178A4.827,4.827,0,0,0,246.345,183.326Z" transform="translate(-230.835 -178.96)" fill="#fff"/>
        </g>
        <g id="Grupo_83364" data-name="Grupo 83364" transform="translate(360.839 139.808)">
          <path id="Trazado_100097" data-name="Trazado 100097" d="M635.968,330.478c-1.737,0-2.771-.09-4.5-.09-1.653,0-2.89.09-4.508.09a1.221,1.221,0,0,1,.118-.793c.729-.092,1.118-.148,1.643-.237.89-.2,1.094-.885,1.272-1.792.262-1.27.559-3.038,1.025-5.833.39-2.39.771-4.682.831-5.474.051-.5-.035-1.034-.533-1.119a10.838,10.838,0,0,0-1.534-.236,1.131,1.131,0,0,1,.153-.767,19.078,19.078,0,0,0,5.914-1.351c.119-.034.415.059.415.178-.271,1.173-.474,2.176-.881,4.588-.355,2.385-1.152,7.452-1.449,9.863-.084,1.1-.084,1.767.618,1.944a11.279,11.279,0,0,0,1.593.237A1.493,1.493,0,0,1,635.968,330.478Z" transform="translate(-626.937 -312.868)" fill="#fff"/>
          <path id="Trazado_100098" data-name="Trazado 100098" d="M658.205,316.555c0,1.736-1.177,2.919-3.262,4.059-.059.034-.094.122-.059.152,2.119.7,3.677,2.323,3.677,4.356a6.2,6.2,0,0,1-3.591,5.418,8.694,8.694,0,0,1-4.3,1.088,7.427,7.427,0,0,1-3.39-.712,1.722,1.722,0,0,1-.964-1.088,11.067,11.067,0,0,1-.06-2.789c.085-.148.558-.267.669-.267a4.785,4.785,0,0,0,1.856,3.093,4.139,4.139,0,0,0,2.508.822c2.117,0,3.414-1.736,3.414-4.093a3.408,3.408,0,0,0-3.592-3.735,6.763,6.763,0,0,0-.882.059,3.019,3.019,0,0,1,.679-1.381c2.914-.508,4-1.622,4-3.389a2.633,2.633,0,0,0-2.738-2.889,4.805,4.805,0,0,0-3.355,1.534c-.118,0-.414-.53-.414-.648,1.415-1.5,3.388-3.267,5.923-3.267A3.708,3.708,0,0,1,658.205,316.555Z" transform="translate(-632.72 -312.871)" fill="#fff"/>
        </g>
        <g id="Grupo_83365" data-name="Grupo 83365" transform="translate(14.338 140.96)">
          <path id="Trazado_100099" data-name="Trazado 100099" d="M140.809,332.128c-1.738,0-2.771-.092-4.5-.092-1.652,0-2.885.092-4.5.092a1.247,1.247,0,0,1,.115-.8c.736-.084,1.118-.148,1.652-.237.881-.208,1.085-.881,1.267-1.8.262-1.267.558-3.034,1.025-5.831.386-2.385.772-4.681.826-5.477.059-.5-.029-1.034-.529-1.114a10.512,10.512,0,0,0-1.534-.237,1.142,1.142,0,0,1,.149-.763,19.152,19.152,0,0,0,5.918-1.356c.119-.033.415.056.415.17-.271,1.186-.474,2.186-.881,4.6-.356,2.381-1.153,7.447-1.449,9.858-.085,1.088-.085,1.766.619,1.944a10.775,10.775,0,0,0,1.593.237A1.582,1.582,0,0,1,140.809,332.128Z" transform="translate(-131.779 -314.514)" fill="#fff"/>
          <path id="Trazado_100100" data-name="Trazado 100100" d="M161.284,327.048c-.06,0-.114.09-.114.123l-.826,5.355c-.915,0-3.118.178-3.974.3l.97-5.6c0-.084-.059-.174-.089-.174-2.3,0-4.592,0-6.889-.029a6.191,6.191,0,0,1,.323-1.118c2.36-2.712,8.863-9.774,10.1-11.1.237,0,.563.034,1.059.034.559,0,1-.067,1.211-.067-.3,1.919-1.178,7.392-1.592,10.278,0,.03.059.178.147.178l3-.085a15.736,15.736,0,0,0-.528,1.91Zm-3.737-1.766c.059,0,.144-.119.144-.144l1.3-7.008a.076.076,0,0,0-.114,0c-.766.792-4.741,5.33-6.038,7.033,0,.035,0,.119.056.119Z" transform="translate(-137.357 -314.59)" fill="#fff"/>
        </g>
        <g id="Grupo_83366" data-name="Grupo 83366" transform="translate(40.925 293.271)">
          <path id="Trazado_100101" data-name="Trazado 100101" d="M178.8,551.668c-1.738,0-2.771-.088-4.508-.088-1.644,0-2.886.088-4.5.088a1.24,1.24,0,0,1,.115-.8c.736-.089,1.113-.143,1.647-.233.882-.206,1.094-.886,1.263-1.791.267-1.272.559-3.034,1.033-5.833.381-2.386.768-4.682.826-5.475.055-.5-.029-1.029-.534-1.122a11.973,11.973,0,0,0-1.529-.236,1.167,1.167,0,0,1,.144-.763,18.847,18.847,0,0,0,5.923-1.356c.119-.029.411.06.411.181-.267,1.175-.47,2.174-.886,4.589-.356,2.389-1.143,7.448-1.44,9.863-.09,1.093-.09,1.762.619,1.944a11.062,11.062,0,0,0,1.589.233A1.614,1.614,0,0,1,178.8,551.668Z" transform="translate(-169.772 -532.736)" fill="#fff"/>
          <path id="Trazado_100102" data-name="Trazado 100102" d="M194.832,540.559c-.06.094,0,.238.089.178a7.429,7.429,0,0,1,3.474-1.178c2.093,0,3.885,1.678,3.915,4.593a7.034,7.034,0,0,1-4.3,6.625,7.8,7.8,0,0,1-2.978.619c-3.885,0-5.5-2.592-5.5-5.685,0-6.625,6.83-11.921,13.455-13.54.178.029.381.643.263.738A17.093,17.093,0,0,0,194.832,540.559Zm-.292,1.178a1.119,1.119,0,0,0-.414.474,12.129,12.129,0,0,0-.644,3.822c0,3.033.907,4.364,2.355,4.364,1.533,0,2.678-2.5,2.678-5.1,0-2.681-.974-3.943-2.589-3.943A3.062,3.062,0,0,0,194.54,541.737Z" transform="translate(-175.704 -532.171)" fill="#fff"/>
        </g>
        <g id="Grupo_83367" data-name="Grupo 83367" transform="translate(337.889 289.458)">
          <path id="Trazado_100103" data-name="Trazado 100103" d="M603.176,544.488c-1.737,0-2.771-.085-4.507-.085-1.643,0-2.89.085-4.508.085a1.263,1.263,0,0,1,.119-.788c.737-.09,1.118-.148,1.652-.237.88-.2,1.094-.882,1.271-1.793.263-1.271.552-3.038,1.025-5.833.381-2.381.763-4.682.822-5.479.06-.5-.024-1.025-.526-1.114a10,10,0,0,0-1.533-.232,1.168,1.168,0,0,1,.143-.768,19.186,19.186,0,0,0,5.923-1.355c.118-.034.406.059.406.169-.262,1.186-.466,2.186-.88,4.6-.356,2.389-1.144,7.448-1.441,9.858-.085,1.089-.085,1.766.619,1.945a10.8,10.8,0,0,0,1.594.237A1.583,1.583,0,0,1,603.176,544.488Z" transform="translate(-594.141 -526.77)" fill="#fff"/>
          <path id="Trazado_100104" data-name="Trazado 100104" d="M625.678,527.077a8.064,8.064,0,0,1-1.3,2.441,1.981,1.981,0,0,1-1.857.944c-1.677,0-2.855-.207-3.651-.207a.514.514,0,0,0-.288.169,8.958,8.958,0,0,0-.738,1.622c0,.064,0,.242.085.3,1.27.649,4.211,2.118,5.3,2.885,1.551,1.122,2.441,2.24,2.441,4.034,0,4.211-4.3,6.3-7.245,6.3a5.515,5.515,0,0,1-4.712-2.092,1.7,1.7,0,0,1-.227-.852,6.248,6.248,0,0,1,.932-1.944.8.8,0,0,1,.356-.115c.975,1.759,2.474,3.792,4.949,3.792,1.94,0,2.617-1.292,2.617-2.8a4.038,4.038,0,0,0-1.94-3.321c-1.381-1.038-4.127-2.533-4.736-3.008a2.873,2.873,0,0,1,.085-.97,68.25,68.25,0,0,1,3.151-6.508,1.346,1.346,0,0,1,.857-.707c.56.033,2.237.176,3.915.176a2.008,2.008,0,0,0,1.559-.5C625.322,526.722,625.678,526.93,625.678,527.077Z" transform="translate(-599.951 -526.722)" fill="#fff"/>
        </g>
        <g id="Grupo_83368" data-name="Grupo 83368" transform="translate(249.342 359.243)">
          <path id="Trazado_100105" data-name="Trazado 100105" d="M476.636,644.053c-1.738,0-2.763-.085-4.5-.085-1.653,0-2.89.085-4.508.085a1.223,1.223,0,0,1,.118-.792c.736-.09,1.118-.148,1.652-.241.881-.2,1.085-.878,1.263-1.789.262-1.265.558-3.032,1.025-5.828.39-2.39.772-4.686.83-5.474.059-.509-.034-1.034-.534-1.118a10.265,10.265,0,0,0-1.524-.241c-.094-.116.059-.7.144-.768a19.014,19.014,0,0,0,5.913-1.347c.12-.034.416.051.416.169-.263,1.178-.474,2.186-.882,4.6-.355,2.381-1.153,7.452-1.44,9.86-.094,1.09-.094,1.768.609,1.938a10.008,10.008,0,0,0,1.594.241A1.494,1.494,0,0,1,476.636,644.053Z" transform="translate(-467.605 -626.447)" fill="#fff"/>
          <path id="Trazado_100106" data-name="Trazado 100106" d="M502.32,627.255c-1.5,3.2-9.033,15.277-10.159,17.488a.46.46,0,0,1-.2.143,2.706,2.706,0,0,1-.965-.5,1.355,1.355,0,0,1,.024-.5c1.88-3.03,6.948-10.8,8.363-13.43,0-.059.025-.2-.034-.2-.966-.026-5.329-.06-7.447.058-.882.085-1.263.56-2.212,2.034-.111.059-.728-.293-.762-.381a39.233,39.233,0,0,0,1.889-5.393,5.843,5.843,0,0,0,2.2.272h6.092c1.153,0,2.475,0,3.127-.063C502.32,626.814,502.354,627.2,502.32,627.255Z" transform="translate(-474.006 -626.485)" fill="#fff"/>
        </g>
        <g id="Grupo_83369" data-name="Grupo 83369" transform="translate(297.105 48.689)">
          <path id="Trazado_100107" data-name="Trazado 100107" d="M544.89,200.27c-1.737,0-2.77-.094-4.5-.094-1.653,0-2.889.094-4.507.094a1.245,1.245,0,0,1,.118-.8c.737-.081,1.117-.14,1.643-.232.891-.208,1.093-.881,1.272-1.8.262-1.262.559-3.034,1.024-5.829.382-2.385.772-4.686.832-5.474.059-.5-.035-1.034-.535-1.119a12.285,12.285,0,0,0-1.533-.237,1.112,1.112,0,0,1,.153-.763,19.141,19.141,0,0,0,5.914-1.355c.118-.029.414.059.414.174-.262,1.181-.474,2.181-.88,4.6-.357,2.381-1.153,7.448-1.45,9.863-.085,1.09-.085,1.763.619,1.941a10.265,10.265,0,0,0,1.593.232A1.621,1.621,0,0,1,544.89,200.27Z" transform="translate(-535.86 -182.657)" fill="#fff"/>
          <path id="Trazado_100108" data-name="Trazado 100108" d="M568.265,186.346c0,1.8-1.264,2.614-3.475,4.089-.118.063-.083.093-.034.148,1.915,1.5,3.008,2.855,3.034,4.445,0,3.148-3.143,5.477-6.8,5.477-3.914,0-5.33-2.059-5.33-3.885,0-1.5.976-2.415,4.389-4.537.059-.029.059-.059,0-.118a5.438,5.438,0,0,1-2.272-3.94,5.039,5.039,0,0,1,2.356-4.27,6.785,6.785,0,0,1,3.736-1.09C566.646,182.665,568.24,184.313,568.265,186.346Zm-3.94,10.6c-.035-1.322-.89-2.262-3.39-4.329-.06-.051-.144-.085-.2-.026a4.7,4.7,0,0,0-2.092,3.738,3.04,3.04,0,0,0,3.118,3.236A2.445,2.445,0,0,0,564.325,196.943ZM560.935,186c-.034,1.41.738,2.346,2.974,3.973a.194.194,0,0,0,.2,0,4.433,4.433,0,0,0,1.474-3.33,2.693,2.693,0,0,0-2.508-3.058A2.247,2.247,0,0,0,560.935,186Z" transform="translate(-541.805 -182.659)" fill="#fff"/>
        </g>
        <path id="Trazado_100109" data-name="Trazado 100109" d="M309.062,647.272c-1.735,0-2.77-.086-4.507-.086-1.648,0-2.885.086-4.507.086a1.232,1.232,0,0,1,.118-.8c.737-.086,1.118-.146,1.652-.229.882-.212,1.089-.89,1.262-1.805.267-1.262.559-3.025,1.029-5.821.386-2.389.768-4.685.828-5.482.059-.5-.026-1.034-.53-1.119a12.063,12.063,0,0,0-1.529-.237,1.137,1.137,0,0,1,.144-.763,18.734,18.734,0,0,0,5.918-1.356c.122-.029.416.06.416.178-.268,1.177-.471,2.177-.885,4.592-.353,2.381-1.143,7.453-1.441,9.863-.089,1.089-.089,1.762.618,1.949a12.108,12.108,0,0,0,1.584.229A1.535,1.535,0,0,1,309.062,647.272Z" transform="translate(-167.952 -268.168)" fill="#fff"/>
        <path id="Trazado_100110" data-name="Trazado 100110" d="M319.908,647.922a16.231,16.231,0,0,0,8.185-7.422c.033-.085-.026-.174-.085-.145a9.264,9.264,0,0,1-3.653,1.115c-2.5,0-4-2.2-4-4.621a6.977,6.977,0,0,1,3.918-6.385,7.776,7.776,0,0,1,3.386-.8c3.681,0,5.415,2.737,5.415,5.919,0,6.211-5.622,11.366-12.862,13.1C320.085,648.654,319.823,648.07,319.908,647.922Zm4.185-12.427c0,3.093,1.352,4.186,2.974,4.186a2.692,2.692,0,0,0,1.143-.271,1.248,1.248,0,0,0,.416-.559,12.046,12.046,0,0,0,.707-3.974c0-2.737-.707-4.266-2.359-4.266C325.474,630.611,324.093,632.849,324.093,635.5Z" transform="translate(-173.916 -268.17)" fill="#fff"/>
        <g id="Grupo_83370" data-name="Grupo 83370" transform="translate(187.446 13.447)">
          <path id="Trazado_100111" data-name="Trazado 100111" d="M381.565,136.65c-.115.059-.526-.47-.467-.584,2.06-2.652,4.177-3.771,6.211-3.771a4.4,4.4,0,0,1,4.388,4.537c0,2.292-1.119,4.143-4.037,6.681-1.174,1-2.267,1.882-3.682,3.034-.025.025-.06.169.034.169,1,.064,4.474.064,5.737,0,.622-.025,1.325-.293,2.3-1.906.085-.089.648.2.648.351a23.41,23.41,0,0,1-2.089,4.271c-.178.326-.648.436-1.623.47-2.117.06-5.591-.089-7.77-.089-.589,0-1.56,0-2.063.055a3.358,3.358,0,0,1,.089-.791,33.458,33.458,0,0,0,5.973-4.919c1.975-2.058,2.772-3.8,2.772-5.943a2.906,2.906,0,0,0-2.857-3.182A4.851,4.851,0,0,0,381.565,136.65Z" transform="translate(-379.154 -132.295)" fill="#fff"/>
          <path id="Trazado_100112" data-name="Trazado 100112" d="M414.243,138.328c0,3.974-1.53,9.041-4.831,10.956a7.1,7.1,0,0,1-3.44.885c-3.8,0-5.1-2.656-5.066-6.1,0-3.33,1.144-8.329,4.33-10.511a7.243,7.243,0,0,1,4.029-1.267C412.92,132.3,414.243,134.972,414.243,138.328Zm-6.918-4.388c-1.623,2.008-2.564,7.278-2.564,11.252-.025,3.178.7,4.059,1.8,4.059a1.721,1.721,0,0,0,1.094-.5c1.644-1.738,2.825-7.949,2.825-12.1,0-3.267-1-3.5-1.74-3.5A1.9,1.9,0,0,0,407.325,133.939Z" transform="translate(-385.684 -132.295)" fill="#fff"/>
        </g>
      </g>
    </g>
  </g>
</svg>
