<svg xmlns="http://www.w3.org/2000/svg" width="116" height="116" viewBox="0 0 116 116">
  <g id="Grupo_159295" data-name="Grupo 159295" transform="translate(-479.839 -2626)">
    <circle id="Elipse_4805" data-name="Elipse 4805" cx="58" cy="58" r="58" transform="translate(479.839 2626)" fill="#0f58b9"/>
    <g id="Grupo_159267" data-name="Grupo 159267" transform="translate(-3 -3)">
      <g id="Grupo_159265" data-name="Grupo 159265" transform="translate(500.839 2650)">
        <g id="Grupo_159264" data-name="Grupo 159264" transform="translate(0)">
          <path id="Trazado_601554" data-name="Trazado 601554" d="M-4013.67-9059.237l27.493-12.5v-3.235l2.372-1.51,46.253,10.136.97,58.435-47.224,4.962h-1.51l-4.528-2.482-25.122-3.664v-1.653h-1.335v-4.976h1.914Z" transform="translate(4016.299 9076.486)" fill="#e8e8e8" stroke="#000" stroke-width="4"/>
          <path id="Trazado_601555" data-name="Trazado 601555" d="M-3946.061-9069.462v53.807l34.874-2.583-.748-43.712Z" transform="translate(3984.494 9078.843)" fill="#d3fff5" stroke="#000" stroke-width="4"/>
          <g id="Grupo_159266" data-name="Grupo 159266" transform="translate(43.118 25.348)">
            <path id="Trazado_601562" data-name="Trazado 601562" d="M-3882.579-9034.978v-3.748" transform="translate(3903.168 9038.726)" fill="none" stroke="#000" stroke-width="5"/>
            <path id="Trazado_601563" data-name="Trazado 601563" d="M-3903.718-9031.038l-1.377-3.9" transform="translate(3917.036 9036.395)" fill="none" stroke="#000" stroke-width="5"/>
            <path id="Trazado_601564" data-name="Trazado 601564" d="M-3918.465-9018.667l-2.373-3.023" transform="translate(3926.731 9028.233)" fill="none" stroke="#000" stroke-width="5"/>
            <path id="Trazado_601565" data-name="Trazado 601565" d="M-3929.525-8999.971l-3.368-2.142" transform="translate(3934.156 9016.176)" fill="none" stroke="#000" stroke-width="5"/>
            <path id="Trazado_601566" data-name="Trazado 601566" d="M-3932.977-8990.047l-3.2-1.454" transform="translate(3936.182 9009.64)" fill="none" stroke="#000" stroke-width="5"/>
            <path id="Trazado_601557" data-name="Trazado 601557" d="M-3916.6-8965.8h-21.425v-3.817h21.425Z" transform="translate(3938.023 8993.522)"/>
          </g>
          <path id="Trazado_601567" data-name="Trazado 601567" d="M27.173,63.443v-51.6" transform="translate(1.068 0.936)" fill="none" stroke="#000" stroke-linecap="round" stroke-width="4"/>
          <path id="Trazado_601569" data-name="Trazado 601569" d="M-3649.786-9034.589l3.479.6v29.88h-3.479v-30.479Z" transform="translate(3717.181 9053)" fill="#93e3e3"/>
        </g>
      </g>
      <path id="Trazado_601568" data-name="Trazado 601568" d="M-3654.483-8993.048v-8.842s-.318-4.518,5.407-4.581,6.3.827,6.3.827l-.445,11.9Z" transform="translate(4217.384 11703.438)"/>
    </g>
  </g>
</svg>
